G04 #@! TF.FileFunction,Soldermask,Bot*
%FSLAX46Y46*%
G04 Gerber Fmt 4.6, Leading zero omitted, Abs format (unit mm)*
G04 Created by KiCad (PCBNEW (2015-08-11 BZR 6084)-product) date Mi 23 Sep 2015 17:42:07 CEST*
%MOMM*%
G01*
G04 APERTURE LIST*
%ADD10C,0.100000*%
%ADD11R,0.800000X3.400000*%
%ADD12R,2.432000X2.432000*%
%ADD13O,2.432000X2.432000*%
%ADD14R,0.850000X0.990000*%
%ADD15R,1.300000X0.900000*%
%ADD16R,1.750000X0.800000*%
%ADD17O,1.350000X1.650000*%
%ADD18O,1.950000X1.400000*%
%ADD19R,1.150000X1.200000*%
%ADD20R,0.990000X0.850000*%
%ADD21R,1.200100X1.200100*%
%ADD22R,1.400000X1.600000*%
G04 APERTURE END LIST*
D10*
D11*
X47650000Y-27250000D03*
X46950000Y-27250000D03*
X46250000Y-27250000D03*
X45550000Y-27250000D03*
X44850000Y-27250000D03*
X43450000Y-27250000D03*
X42750000Y-27250000D03*
X42050000Y-27250000D03*
X41350000Y-27250000D03*
X40650000Y-27250000D03*
X39950000Y-27250000D03*
X39250000Y-27250000D03*
X38550000Y-27250000D03*
X37850000Y-27250000D03*
X37150000Y-27250000D03*
X36450000Y-27250000D03*
X35750000Y-27250000D03*
X35050000Y-27250000D03*
X34350000Y-27250000D03*
X33650000Y-27250000D03*
X32950000Y-27250000D03*
X32250000Y-27250000D03*
X31550000Y-27250000D03*
X30850000Y-27250000D03*
X30150000Y-27250000D03*
X29450000Y-27250000D03*
X28750000Y-27250000D03*
X28050000Y-27250000D03*
X27350000Y-27250000D03*
X44150000Y-27250000D03*
D12*
X43726696Y-41500000D03*
D13*
X46266696Y-41500000D03*
D14*
X42000000Y-33805000D03*
X42000000Y-31695000D03*
D15*
X40000000Y-32000000D03*
X40000000Y-33500000D03*
D16*
X24312540Y-46550900D03*
X24312540Y-45900900D03*
X24312540Y-45250900D03*
X24312540Y-44600900D03*
X24312540Y-43950900D03*
D17*
X24312540Y-47750900D03*
X24312540Y-42750900D03*
D18*
X21612540Y-48750900D03*
X21612540Y-41750900D03*
D12*
X35500000Y-47750000D03*
D13*
X35500000Y-45210000D03*
D19*
X50500000Y-24250000D03*
X50500000Y-25750000D03*
X50500000Y-45750000D03*
X50500000Y-44250000D03*
X45750000Y-32000000D03*
X45750000Y-33500000D03*
X44000000Y-32000000D03*
X44000000Y-33500000D03*
X30250000Y-32000000D03*
X30250000Y-33500000D03*
X26750000Y-32000000D03*
X26750000Y-33500000D03*
X49250000Y-33500000D03*
X49250000Y-32000000D03*
X47500000Y-33500000D03*
X47500000Y-32000000D03*
X28500000Y-32000000D03*
X28500000Y-33500000D03*
D20*
X52195000Y-30000000D03*
X54305000Y-30000000D03*
X52195000Y-40000000D03*
X54305000Y-40000000D03*
D21*
X45276696Y-36999240D03*
X47176696Y-36999240D03*
X46226696Y-38998220D03*
D15*
X43226696Y-37250000D03*
X43226696Y-38750000D03*
X34500000Y-33500000D03*
X34500000Y-32000000D03*
X36250000Y-33500000D03*
X36250000Y-32000000D03*
X50500000Y-41250000D03*
X50500000Y-42750000D03*
X32000000Y-32000000D03*
X32000000Y-33500000D03*
D22*
X54100000Y-27800000D03*
X54100000Y-22200000D03*
X52400000Y-27800000D03*
X52400000Y-22200000D03*
X54100000Y-47800000D03*
X54100000Y-42200000D03*
X52400000Y-47800000D03*
X52400000Y-42200000D03*
X54100000Y-37800000D03*
X54100000Y-32200000D03*
X52400000Y-37800000D03*
X52400000Y-32200000D03*
M02*
