M48
INCH,TZ
T1C0.012
T2C0.020
T3C0.022
T4C0.040
T5C0.083
T6C0.098
%
G90
G05
T1
X9146Y-9786
X9350Y-9547
X10039Y-18307
X10236Y-12016
X10236Y-16240
X10236Y-16634
X10247Y-11370
X10307Y-13976
X10335Y-9654
X10335Y-10433
X10551Y-8661
X10591Y-9449
X11043Y-10053
X11260Y-15906
X11260Y-16614
X11417Y-9156
X11535Y-13504
X11772Y-13780
X11954Y-15901
X11954Y-16580
X12126Y-14921
X12146Y-10068
X12205Y-9156
X12280Y-13189
X12283Y-13504
X12677Y-11654
X13166Y-12874
X13260Y-16067
X13268Y-14638
X13386Y-13583
X13465Y-15866
X13647Y-8473
X13846Y-14515
X14130Y-13984
X14134Y-8780
X14331Y-13780
X14601Y-13500
X14604Y-15042
X14685Y-9134
X15005Y-13355
X15178Y-13130
X15305Y-14228
X15551Y-17244
X16142Y-19291
X17244Y-13819
X17441Y-12087
X17598Y-8780
X17835Y-13780
X18021Y-9784
X18228Y-15000
X18538Y-9251
X18858Y-9252
X19094Y-9961
X19134Y-17087
X19449Y-17402
X19882Y-8228
T4
X13976Y-17799
X13976Y-18799
X17215Y-16339
X18215Y-16339
T5
X18918Y-18400
T6
X9016Y-14685
T2
X8381Y-16437G85X8637Y-16437
G05
X8381Y-19193G85X8637Y-19193
G05
T3
X9572Y-16772G85X9572Y-16890
G05
X9572Y-18741G85X9572Y-18859
G05
T0
M30
