G04 #@! TF.FileFunction,Profile,NP*
%FSLAX46Y46*%
G04 Gerber Fmt 4.6, Leading zero omitted, Abs format (unit mm)*
G04 Created by KiCad (PCBNEW (2015-08-11 BZR 6084)-product) date Mi 23 Sep 2015 17:42:07 CEST*
%MOMM*%
G01*
G04 APERTURE LIST*
%ADD10C,0.100000*%
%ADD11C,0.150000*%
G04 APERTURE END LIST*
D10*
D11*
X43900000Y-19900000D02*
X52000000Y-19900000D01*
X43700000Y-20200000D02*
X43900000Y-19900000D01*
X31300000Y-20200000D02*
X43700000Y-20200000D01*
X31300000Y-20200000D02*
X31100000Y-19900000D01*
X31100000Y-19900000D02*
X23000000Y-19900000D01*
X52000000Y-50300000D02*
X23000000Y-50300000D01*
X51100000Y-52100000D02*
X23900000Y-52100000D01*
X23900000Y-52100000D02*
X23000000Y-50300000D01*
X52000000Y-50300000D02*
X51100000Y-52100000D01*
X55000000Y-50300000D02*
X53000000Y-54300000D01*
X22000000Y-54300000D02*
X20000000Y-50300000D01*
X53000000Y-54300000D02*
X22000000Y-54300000D01*
X23900000Y-18100000D02*
X51100000Y-18100000D01*
X51100000Y-18100000D02*
X52000000Y-19900000D01*
X23000000Y-19900000D02*
X23900000Y-18100000D01*
X22000000Y-15900000D02*
X53000000Y-15900000D01*
X53000000Y-15900000D02*
X55000000Y-19900000D01*
X20000000Y-19900000D02*
X22000000Y-15900000D01*
X55000000Y-19900000D02*
X55000000Y-50300000D01*
X20000000Y-19900000D02*
X20000000Y-50300000D01*
M02*
