G04 #@! TF.FileFunction,Copper,L1,Top,Signal*
%FSLAX46Y46*%
G04 Gerber Fmt 4.6, Leading zero omitted, Abs format (unit mm)*
G04 Created by KiCad (PCBNEW (2015-08-11 BZR 6084)-product) date Mi 23 Sep 2015 17:42:07 CEST*
%MOMM*%
G01*
G04 APERTURE LIST*
%ADD10C,0.100000*%
%ADD11R,0.750000X0.800000*%
%ADD12R,0.700000X0.250000*%
%ADD13R,0.250000X0.700000*%
%ADD14R,1.725000X1.725000*%
%ADD15R,2.032000X2.032000*%
%ADD16O,2.032000X2.032000*%
%ADD17R,0.600000X0.900000*%
%ADD18R,0.800000X0.750000*%
%ADD19R,0.500000X1.300000*%
%ADD20R,2.000000X1.400000*%
%ADD21R,1.600000X1.000000*%
%ADD22R,0.600000X0.500000*%
%ADD23R,0.500000X0.600000*%
%ADD24R,1.000000X1.250000*%
%ADD25O,0.950000X1.250000*%
%ADD26O,1.550000X1.000000*%
%ADD27R,0.900000X0.500000*%
%ADD28R,0.500000X0.900000*%
%ADD29R,1.060000X0.650000*%
%ADD30R,0.550000X0.200000*%
%ADD31R,0.200000X0.550000*%
%ADD32R,0.875000X0.800000*%
%ADD33R,1.100000X0.900000*%
%ADD34C,0.600000*%
%ADD35C,2.500000*%
%ADD36C,0.600000*%
%ADD37C,0.300000*%
%ADD38C,0.350000*%
%ADD39C,0.250000*%
%ADD40C,0.200000*%
%ADD41C,0.450000*%
%ADD42C,0.254000*%
G04 APERTURE END LIST*
D10*
D11*
X24250000Y-45750000D03*
X24250000Y-44250000D03*
D12*
X27100000Y-25250000D03*
X27100000Y-25750000D03*
X27100000Y-26250000D03*
X27100000Y-26750000D03*
X27100000Y-27250000D03*
X27100000Y-27750000D03*
X27100000Y-28250000D03*
X27100000Y-28750000D03*
D13*
X27750000Y-29400000D03*
X28250000Y-29400000D03*
X28750000Y-29400000D03*
X29250000Y-29400000D03*
X29750000Y-29400000D03*
X30250000Y-29400000D03*
X30750000Y-29400000D03*
X31250000Y-29400000D03*
D12*
X31900000Y-28750000D03*
X31900000Y-28250000D03*
X31900000Y-27750000D03*
X31900000Y-27250000D03*
X31900000Y-26750000D03*
X31900000Y-26250000D03*
X31900000Y-25750000D03*
X31900000Y-25250000D03*
D13*
X31250000Y-24600000D03*
X30750000Y-24600000D03*
X30250000Y-24600000D03*
X29750000Y-24600000D03*
X29250000Y-24600000D03*
X28750000Y-24600000D03*
X28250000Y-24600000D03*
X27750000Y-24600000D03*
D14*
X30362500Y-27862500D03*
X30362500Y-26137500D03*
X28637500Y-27862500D03*
X28637500Y-26137500D03*
D15*
X43726696Y-41500000D03*
D16*
X46266696Y-41500000D03*
D17*
X49300000Y-34050000D03*
X48300000Y-34050000D03*
X47300000Y-34050000D03*
X46300000Y-34050000D03*
X45300000Y-34050000D03*
X45300000Y-37150000D03*
X46300000Y-37150000D03*
X47300000Y-37150000D03*
X48300000Y-37150000D03*
X49300000Y-37150000D03*
D18*
X23800000Y-39900000D03*
X22300000Y-39900000D03*
D19*
X37295000Y-30321000D03*
X38565000Y-30321000D03*
X39835000Y-30321000D03*
X41105000Y-30321000D03*
X41105000Y-24479000D03*
X39835000Y-24479000D03*
X38565000Y-24479000D03*
X37295000Y-24479000D03*
D20*
X21500000Y-30750000D03*
X21500000Y-21250000D03*
D18*
X28500000Y-31000000D03*
X30000000Y-31000000D03*
D11*
X26750000Y-47250000D03*
X26750000Y-48750000D03*
X38000000Y-47250000D03*
X38000000Y-48750000D03*
D21*
X45750000Y-45750000D03*
X45750000Y-48750000D03*
D11*
X43750000Y-47250000D03*
X43750000Y-48750000D03*
D22*
X24550000Y-26000000D03*
X23450000Y-26000000D03*
D23*
X28250000Y-22300000D03*
X28250000Y-21200000D03*
D22*
X32700000Y-21000000D03*
X33800000Y-21000000D03*
D18*
X25250000Y-21500000D03*
X23750000Y-21500000D03*
D11*
X50520702Y-23848198D03*
X50520702Y-22348198D03*
X52270702Y-23848198D03*
X52270702Y-22348198D03*
D18*
X48020702Y-26348198D03*
X46520702Y-26348198D03*
D11*
X51300000Y-34850000D03*
X51300000Y-36350000D03*
D24*
X26750000Y-45500000D03*
X28750000Y-45500000D03*
D25*
X24312540Y-47750900D03*
X24312540Y-42750900D03*
D26*
X21612540Y-48750900D03*
X21612540Y-41750900D03*
D15*
X35500000Y-47750000D03*
D16*
X35500000Y-45210000D03*
D27*
X24500000Y-27500000D03*
X24500000Y-29000000D03*
X26750000Y-22750000D03*
X26750000Y-21250000D03*
X28750000Y-47500000D03*
X28750000Y-49000000D03*
D28*
X25250000Y-23250000D03*
X23750000Y-23250000D03*
D27*
X34000000Y-25250000D03*
X34000000Y-26750000D03*
D28*
X38000000Y-45000000D03*
X39500000Y-45000000D03*
X41000000Y-45000000D03*
X42500000Y-45000000D03*
D27*
X53050000Y-34850000D03*
X53050000Y-36350000D03*
D13*
X31250000Y-38850000D03*
X30750000Y-38850000D03*
X30250000Y-38850000D03*
X29750000Y-38850000D03*
X29250000Y-38850000D03*
X28750000Y-38850000D03*
X28250000Y-38850000D03*
X27750000Y-38850000D03*
D12*
X27100000Y-39500000D03*
X27100000Y-40000000D03*
X27100000Y-40500000D03*
X27100000Y-41000000D03*
X27100000Y-41500000D03*
X27100000Y-42000000D03*
X27100000Y-42500000D03*
X27100000Y-43000000D03*
D13*
X27750000Y-43650000D03*
X28250000Y-43650000D03*
X28750000Y-43650000D03*
X29250000Y-43650000D03*
X29750000Y-43650000D03*
X30250000Y-43650000D03*
X30750000Y-43650000D03*
X31250000Y-43650000D03*
D12*
X31900000Y-43000000D03*
X31900000Y-42500000D03*
X31900000Y-42000000D03*
X31900000Y-41500000D03*
X31900000Y-41000000D03*
X31900000Y-40500000D03*
X31900000Y-40000000D03*
X31900000Y-39500000D03*
D14*
X28637500Y-42112500D03*
X30362500Y-42112500D03*
X28637500Y-40387500D03*
X30362500Y-40387500D03*
D29*
X32600000Y-48950000D03*
X32600000Y-48000000D03*
X32600000Y-47050000D03*
X30400000Y-47050000D03*
X30400000Y-48950000D03*
D30*
X46020702Y-22098198D03*
X46020702Y-22498198D03*
X46020702Y-22898198D03*
X46020702Y-23298198D03*
X46020702Y-23698198D03*
X46020702Y-24098198D03*
D31*
X46520702Y-24598198D03*
X46920702Y-24598198D03*
X47320702Y-24598198D03*
X47720702Y-24598198D03*
X48120702Y-24598198D03*
X48520702Y-24598198D03*
D30*
X49020702Y-24098198D03*
X49020702Y-23698198D03*
X49020702Y-23298198D03*
X49020702Y-22898198D03*
X49020702Y-22498198D03*
X49020702Y-22098198D03*
D31*
X48520702Y-21598198D03*
X48120702Y-21598198D03*
X47720702Y-21598198D03*
X47320702Y-21598198D03*
X46920702Y-21598198D03*
X46520702Y-21598198D03*
D32*
X47955702Y-23498198D03*
X47955702Y-22698198D03*
X47085702Y-23498198D03*
X47085702Y-22698198D03*
D29*
X39900000Y-47050000D03*
X39900000Y-48000000D03*
X39900000Y-48950000D03*
X42100000Y-48950000D03*
X42100000Y-47050000D03*
D33*
X29650000Y-22400000D03*
X29650000Y-21100000D03*
X31350000Y-22400000D03*
X31350000Y-21100000D03*
D34*
X29900000Y-35000000D03*
X26250000Y-24520075D03*
X44700000Y-22300000D03*
X37300000Y-23200000D03*
X45773137Y-24850633D03*
X44300000Y-30700000D03*
X32200000Y-29600000D03*
X26000000Y-30520010D03*
X28998135Y-23257462D03*
X26250000Y-26500000D03*
X50500000Y-20900000D03*
D35*
X48052703Y-46736498D03*
D34*
X48600000Y-43400000D03*
X31190415Y-33500000D03*
X31200000Y-34300000D03*
X30362500Y-42112500D03*
X30362500Y-40387500D03*
X31000000Y-23257453D03*
X26800000Y-22000000D03*
X34662300Y-21520576D03*
X47085702Y-23498198D03*
X47900000Y-23500000D03*
X28600000Y-42200000D03*
X28600000Y-40400000D03*
X38550886Y-33350886D03*
X49400000Y-44200000D03*
X30850000Y-25571545D03*
X28050000Y-25534450D03*
X25500000Y-46500000D03*
X41000000Y-49000000D03*
X48500000Y-25300000D03*
X26900000Y-24000000D03*
X36400000Y-35000000D03*
X26179990Y-35500000D03*
X23229990Y-24857438D03*
X46300000Y-38100000D03*
X26000000Y-42250000D03*
X26000000Y-41250000D03*
X29300000Y-34300000D03*
X34200000Y-40300000D03*
X26026518Y-28879990D03*
X23750000Y-24250000D03*
X39500000Y-43800000D03*
X33700000Y-37180031D03*
X43800000Y-35100000D03*
X38113097Y-33922501D03*
X45300000Y-35000000D03*
X33442665Y-32700000D03*
X35167799Y-36867799D03*
X34000000Y-34500000D03*
X33679990Y-40809118D03*
X30800000Y-37900000D03*
X38873521Y-36140020D03*
X37092994Y-38207006D03*
X37086558Y-34289702D03*
X35900000Y-22300000D03*
X35890882Y-35520010D03*
D36*
X48200000Y-48400000D02*
X48700000Y-48400000D01*
X48700000Y-48400000D02*
X48800000Y-48300000D01*
D37*
X23450000Y-26000000D02*
X23400000Y-26000000D01*
X23400000Y-26000000D02*
X21500000Y-27900000D01*
X21500000Y-27900000D02*
X21500000Y-29750000D01*
X21500000Y-29750000D02*
X21500000Y-30750000D01*
D38*
X32200000Y-29600000D02*
X32624264Y-29600000D01*
X32624264Y-29600000D02*
X32900000Y-29324264D01*
X32900000Y-29324264D02*
X32900000Y-28993982D01*
X32900000Y-28993982D02*
X32656018Y-28750000D01*
X32656018Y-28750000D02*
X31900000Y-28750000D01*
X46043617Y-35915011D02*
X46870010Y-35088618D01*
X46870010Y-35088618D02*
X47100000Y-35088618D01*
D36*
X48936381Y-35088618D02*
X47100000Y-35088618D01*
D38*
X48936381Y-35088618D02*
X48936381Y-35213619D01*
D36*
X49300000Y-34050000D02*
X49300000Y-34724999D01*
X49300000Y-34724999D02*
X48936381Y-35088618D01*
X51300000Y-34850000D02*
X50100000Y-34850000D01*
X50100000Y-34850000D02*
X49300000Y-34050000D01*
D38*
X51300000Y-34850000D02*
X50575000Y-34850000D01*
X43726696Y-37424302D02*
X44414425Y-36736573D01*
X44414425Y-36736573D02*
X45076009Y-36074989D01*
X46043617Y-35915011D02*
X45235987Y-35915011D01*
X45235987Y-35915011D02*
X44414425Y-36736573D01*
D36*
X28500000Y-31000000D02*
X28500000Y-35000000D01*
X28500000Y-35000000D02*
X28934398Y-35000000D01*
X29455735Y-35020001D02*
X29475736Y-35000000D01*
X28934398Y-35000000D02*
X28954399Y-35020001D01*
X28954399Y-35020001D02*
X29455735Y-35020001D01*
X29475736Y-35000000D02*
X29900000Y-35000000D01*
X42100000Y-47050000D02*
X43550000Y-47050000D01*
X43550000Y-47050000D02*
X43750000Y-47250000D01*
X45750000Y-45750000D02*
X45250000Y-45750000D01*
X45250000Y-45750000D02*
X43750000Y-47250000D01*
X43726696Y-41500000D02*
X43726696Y-43726696D01*
X43726696Y-43726696D02*
X45750000Y-45750000D01*
X28500000Y-31000000D02*
X26479990Y-31000000D01*
X26479990Y-31000000D02*
X26000000Y-30520010D01*
D38*
X26250000Y-25250000D02*
X26250000Y-24520075D01*
X27100000Y-25250000D02*
X26250000Y-25250000D01*
X43726696Y-41500000D02*
X43726696Y-37424302D01*
D39*
X46020702Y-22098198D02*
X45001802Y-22098198D01*
X45001802Y-22098198D02*
X44800000Y-22300000D01*
X44800000Y-22300000D02*
X44700000Y-22300000D01*
D38*
X44700000Y-23777496D02*
X44700000Y-22300000D01*
X44700000Y-23777496D02*
X45773137Y-24850633D01*
X37295000Y-23205000D02*
X37300000Y-23200000D01*
X37295000Y-24479000D02*
X37295000Y-23205000D01*
X46750000Y-30700000D02*
X50520702Y-26929298D01*
X50520702Y-26929298D02*
X50520702Y-23848198D01*
D39*
X46270702Y-25348198D02*
X45773137Y-24850633D01*
X45773137Y-24850633D02*
X45270702Y-24348198D01*
D38*
X49300000Y-34050000D02*
X49300000Y-33250000D01*
X46750000Y-30700000D02*
X44300000Y-30700000D01*
X49300000Y-33250000D02*
X46750000Y-30700000D01*
D39*
X28750000Y-24600000D02*
X28750000Y-23505597D01*
X28750000Y-23505597D02*
X28998135Y-23257462D01*
X29250000Y-24600000D02*
X29250000Y-23509327D01*
X29250000Y-23509327D02*
X28998135Y-23257462D01*
X46920702Y-24598198D02*
X46920702Y-25014200D01*
X46920702Y-25014200D02*
X46586704Y-25348198D01*
X46586704Y-25348198D02*
X46270702Y-25348198D01*
X52270702Y-23848198D02*
X50520702Y-23848198D01*
X50520702Y-23848198D02*
X50270702Y-24098198D01*
X50270702Y-24098198D02*
X49020702Y-24098198D01*
D38*
X53050000Y-34850000D02*
X51300000Y-34850000D01*
D40*
X24500000Y-27500000D02*
X25250000Y-27500000D01*
X25250000Y-27500000D02*
X26250000Y-26500000D01*
D37*
X27100000Y-25250000D02*
X26750000Y-25250000D01*
X28750000Y-29400000D02*
X28750000Y-29861002D01*
X28750000Y-29400000D02*
X28750000Y-30750000D01*
X28750000Y-30750000D02*
X28500000Y-31000000D01*
X27100000Y-26750000D02*
X26500000Y-26750000D01*
X26500000Y-26750000D02*
X26250000Y-26500000D01*
X27100000Y-26250000D02*
X26500000Y-26250000D01*
X26500000Y-26250000D02*
X26250000Y-26500000D01*
D36*
X28800000Y-49900000D02*
X34966000Y-49900000D01*
X34966000Y-49900000D02*
X35500000Y-49366000D01*
X28750000Y-49000000D02*
X28750000Y-49850000D01*
X28750000Y-49850000D02*
X28800000Y-49900000D01*
D41*
X39297612Y-33350886D02*
X41105000Y-31543498D01*
X41105000Y-31543498D02*
X41105000Y-30321000D01*
X38550886Y-33350886D02*
X39297612Y-33350886D01*
D38*
X47300000Y-39000000D02*
X47500000Y-39200000D01*
X47500000Y-39200000D02*
X49200000Y-39200000D01*
X49200000Y-39200000D02*
X49300000Y-39100000D01*
X49300000Y-39100000D02*
X49300000Y-37150000D01*
D40*
X50520702Y-22348198D02*
X50520702Y-20920702D01*
X50520702Y-20920702D02*
X50500000Y-20900000D01*
D36*
X49400000Y-45400000D02*
X48052703Y-46736498D01*
X45750000Y-48750000D02*
X46039201Y-48750000D01*
X46039201Y-48750000D02*
X48052703Y-46736498D01*
D38*
X42300000Y-46200000D02*
X42500000Y-46000000D01*
X42500000Y-46000000D02*
X42500000Y-45000000D01*
X41500000Y-46200000D02*
X42300000Y-46200000D01*
X40999325Y-46700675D02*
X41500000Y-46200000D01*
X40999325Y-48000000D02*
X40999325Y-46700675D01*
X42500000Y-45200000D02*
X42500000Y-45000000D01*
D36*
X43000000Y-48000000D02*
X43278739Y-48278739D01*
X43278739Y-48278739D02*
X43750000Y-48750000D01*
X41000000Y-47999325D02*
X42999325Y-47999325D01*
X42999325Y-47999325D02*
X43278739Y-48278739D01*
X39900000Y-48000000D02*
X40999325Y-48000000D01*
X40999325Y-48000000D02*
X41000000Y-47999325D01*
X49400000Y-44200000D02*
X48600000Y-43400000D01*
X49400000Y-44200000D02*
X49400000Y-45400000D01*
X43750000Y-48750000D02*
X45750000Y-48750000D01*
X38000000Y-48750000D02*
X38750000Y-48000000D01*
X38750000Y-48000000D02*
X39900000Y-48000000D01*
X35500000Y-49366000D02*
X36116000Y-48750000D01*
X36116000Y-48750000D02*
X38000000Y-48750000D01*
X35170999Y-49695001D02*
X35500000Y-49366000D01*
X35500000Y-49366000D02*
X35500000Y-47750000D01*
X26750000Y-48750000D02*
X28500000Y-48750000D01*
X28500000Y-48750000D02*
X28750000Y-49000000D01*
X26750000Y-48750000D02*
X25311640Y-48750000D01*
X25311640Y-48750000D02*
X24312540Y-47750900D01*
X24250000Y-44250000D02*
X24250000Y-42813440D01*
X22612540Y-42750900D02*
X22295354Y-42433714D01*
X22295354Y-42433714D02*
X21612540Y-41750900D01*
X23000000Y-44500000D02*
X23000000Y-43138360D01*
X23000000Y-43138360D02*
X22295354Y-42433714D01*
X24312540Y-42750900D02*
X22612540Y-42750900D01*
X24250000Y-42813440D02*
X24312540Y-42750900D01*
X23000000Y-44500000D02*
X23250000Y-44250000D01*
X23250000Y-44250000D02*
X24250000Y-44250000D01*
X23000000Y-47513360D02*
X23000000Y-44500000D01*
X24312540Y-47750900D02*
X23237540Y-47750900D01*
X23237540Y-47750900D02*
X23000000Y-47513360D01*
X21612540Y-48750900D02*
X23312540Y-48750900D01*
X23312540Y-48750900D02*
X24312540Y-47750900D01*
D37*
X31200000Y-34300000D02*
X31200000Y-32175000D01*
X31200000Y-32175000D02*
X30025000Y-31000000D01*
X30025000Y-31000000D02*
X30000000Y-31000000D01*
X31000000Y-23257453D02*
X31000000Y-22750000D01*
X31000000Y-22750000D02*
X31350000Y-22400000D01*
X26750000Y-21250000D02*
X26750000Y-21950000D01*
X26750000Y-21950000D02*
X26800000Y-22000000D01*
D38*
X34662300Y-21520576D02*
X34320576Y-21520576D01*
X34320576Y-21520576D02*
X33800000Y-21000000D01*
X28637500Y-26137500D02*
X30362500Y-26137500D01*
X30362500Y-26137500D02*
X30362500Y-27862500D01*
X30850000Y-25571545D02*
X30850000Y-25650000D01*
X30850000Y-25650000D02*
X30362500Y-26137500D01*
X28637500Y-27862500D02*
X28637500Y-26137500D01*
X28637500Y-27862500D02*
X30362500Y-27862500D01*
X28050000Y-25534450D02*
X28050000Y-25550000D01*
X28050000Y-25550000D02*
X28637500Y-26137500D01*
X31900000Y-42500000D02*
X30750000Y-42500000D01*
X30750000Y-42500000D02*
X30362500Y-42112500D01*
D39*
X33800000Y-21000000D02*
X33750000Y-21000000D01*
X29750000Y-21100000D02*
X29650000Y-21100000D01*
D38*
X47300000Y-37150000D02*
X47300000Y-39000000D01*
X47300000Y-39000000D02*
X47100000Y-39200000D01*
X47100000Y-39200000D02*
X45500000Y-39200000D01*
X45500000Y-39200000D02*
X45300000Y-39000000D01*
X45300000Y-39000000D02*
X45300000Y-37950000D01*
X45300000Y-37950000D02*
X45300000Y-37150000D01*
X31250000Y-43650000D02*
X31250000Y-43000000D01*
X31250000Y-43000000D02*
X30362500Y-42112500D01*
X29250000Y-43650000D02*
X29250000Y-42725000D01*
X29250000Y-42725000D02*
X28637500Y-42112500D01*
D40*
X21612540Y-41750900D02*
X21612540Y-40562460D01*
X21612540Y-40562460D02*
X22275000Y-39900000D01*
X22275000Y-39900000D02*
X22300000Y-39900000D01*
D38*
X43750000Y-48725000D02*
X43750000Y-48750000D01*
X28637500Y-42112500D02*
X30362500Y-42112500D01*
X28637500Y-40387500D02*
X30362500Y-40387500D01*
X26800000Y-21200000D02*
X26750000Y-21250000D01*
D37*
X31350000Y-22400000D02*
X32400000Y-22400000D01*
X32400000Y-22400000D02*
X33200000Y-21600000D01*
X33200000Y-21600000D02*
X33200000Y-21550000D01*
X33200000Y-21550000D02*
X33750000Y-21000000D01*
D39*
X29650000Y-21100000D02*
X29950000Y-21100000D01*
X31250000Y-22400000D02*
X31350000Y-22400000D01*
X28250000Y-21200000D02*
X29550000Y-21200000D01*
X29550000Y-21200000D02*
X29650000Y-21100000D01*
X28250000Y-21200000D02*
X26800000Y-21200000D01*
X46520702Y-26348198D02*
X47320702Y-25548198D01*
X47320702Y-25548198D02*
X47320702Y-24598198D01*
X47320702Y-24598198D02*
X47320702Y-23733198D01*
X47320702Y-23733198D02*
X47085702Y-23498198D01*
X47955702Y-23498198D02*
X48120702Y-23663198D01*
X48120702Y-23663198D02*
X48120702Y-24598198D01*
X47085702Y-22698198D02*
X47085702Y-23498198D01*
X47955702Y-23498198D02*
X47955702Y-22698198D01*
X47085702Y-23498198D02*
X47955702Y-23498198D01*
X47955702Y-22698198D02*
X47085702Y-22698198D01*
X48120702Y-21598198D02*
X48120702Y-22533198D01*
X48120702Y-22533198D02*
X47955702Y-22698198D01*
X49020702Y-22098198D02*
X48836704Y-22098198D01*
X48836704Y-22098198D02*
X48781705Y-22153197D01*
X48781705Y-22153197D02*
X48500703Y-22153197D01*
X48500703Y-22153197D02*
X47955702Y-22698198D01*
X49020702Y-22098198D02*
X50270702Y-22098198D01*
X50270702Y-22098198D02*
X50520702Y-22348198D01*
X52270702Y-22348198D02*
X50520702Y-22348198D01*
D38*
X47300000Y-37150000D02*
X47300000Y-37431002D01*
X49300000Y-37431002D02*
X49300000Y-37150000D01*
X45300000Y-37150000D02*
X45300000Y-37431002D01*
X49300000Y-37150000D02*
X50500000Y-37150000D01*
X50500000Y-37150000D02*
X51300000Y-36350000D01*
D37*
X29750000Y-29400000D02*
X29750000Y-28475000D01*
X29750000Y-28475000D02*
X30362500Y-27862500D01*
X30000000Y-31000000D02*
X29750000Y-30750000D01*
X29750000Y-30750000D02*
X29750000Y-29400000D01*
D40*
X29550000Y-21450000D02*
X29650000Y-21350000D01*
X27750000Y-43650000D02*
X27750000Y-43000000D01*
X27750000Y-43000000D02*
X28637500Y-42112500D01*
X27750000Y-43650000D02*
X25211640Y-43650000D01*
X25211640Y-43650000D02*
X24312540Y-42750900D01*
X29750000Y-38850000D02*
X29750000Y-39775000D01*
X29750000Y-39775000D02*
X30362500Y-40387500D01*
X24312540Y-47750900D02*
X24312540Y-48062540D01*
X32600000Y-48000000D02*
X35250000Y-48000000D01*
X35250000Y-48000000D02*
X35500000Y-47750000D01*
X35500000Y-47750000D02*
X36000000Y-47750000D01*
X38000000Y-48750000D02*
X38250000Y-48750000D01*
X31250000Y-38850000D02*
X31250000Y-38219602D01*
X31250000Y-38219602D02*
X31320001Y-38149601D01*
X31049601Y-37379999D02*
X30420001Y-37379999D01*
X31320001Y-38149601D02*
X31320001Y-37650399D01*
X31320001Y-37650399D02*
X31049601Y-37379999D01*
X30420001Y-37379999D02*
X30179999Y-37620001D01*
X30179999Y-37620001D02*
X26720001Y-37620001D01*
X26720001Y-37620001D02*
X26700000Y-37600000D01*
X26700000Y-37600000D02*
X24400000Y-39900000D01*
X24400000Y-39900000D02*
X23800000Y-39900000D01*
X27100000Y-43000000D02*
X25980398Y-43000000D01*
X25980398Y-43000000D02*
X23800000Y-40819602D01*
X23800000Y-40819602D02*
X23800000Y-40475000D01*
X23800000Y-40475000D02*
X23800000Y-39900000D01*
D36*
X25500000Y-46500000D02*
X25750000Y-46500000D01*
X25750000Y-46500000D02*
X26750000Y-45500000D01*
X24250000Y-45750000D02*
X24750000Y-45750000D01*
X24750000Y-45750000D02*
X25500000Y-46500000D01*
D40*
X26500000Y-45500000D02*
X26750000Y-45500000D01*
D36*
X28750000Y-45500000D02*
X28850000Y-45500000D01*
X28850000Y-45500000D02*
X30400000Y-47050000D01*
X26750000Y-47250000D02*
X27000000Y-47250000D01*
X27000000Y-47250000D02*
X28750000Y-45500000D01*
D40*
X28750000Y-43650000D02*
X28750000Y-45500000D01*
X30400000Y-47050000D02*
X30300000Y-47050000D01*
D36*
X39900000Y-47050000D02*
X38200000Y-47050000D01*
X38200000Y-47050000D02*
X38000000Y-47250000D01*
X35500000Y-45210000D02*
X35960000Y-45210000D01*
X35960000Y-45210000D02*
X38000000Y-47250000D01*
X35500000Y-45210000D02*
X37790000Y-45210000D01*
X37790000Y-45210000D02*
X38000000Y-45000000D01*
X32600000Y-47050000D02*
X34440000Y-45210000D01*
X34440000Y-45210000D02*
X35500000Y-45210000D01*
D38*
X36010000Y-45210000D02*
X35500000Y-45210000D01*
X38000000Y-47250000D02*
X38000000Y-47225000D01*
D40*
X39900000Y-48950000D02*
X40950000Y-48950000D01*
X40950000Y-48950000D02*
X41000000Y-49000000D01*
X39900000Y-48950000D02*
X39900000Y-49100000D01*
X38000000Y-47250000D02*
X38000000Y-47000000D01*
X36210000Y-45210000D02*
X35500000Y-45210000D01*
X38000000Y-47250000D02*
X37750000Y-47250000D01*
X38000000Y-47250000D02*
X38250000Y-47250000D01*
D37*
X24550000Y-26000000D02*
X24800000Y-25750000D01*
X24800000Y-25750000D02*
X27100000Y-25750000D01*
D39*
X29750000Y-24600000D02*
X29750000Y-22500000D01*
X29750000Y-22500000D02*
X29650000Y-22400000D01*
X28250000Y-22300000D02*
X29550000Y-22300000D01*
X29550000Y-22300000D02*
X29650000Y-22400000D01*
D40*
X29550000Y-22550000D02*
X29650000Y-22650000D01*
X29750000Y-22750000D02*
X29650000Y-22650000D01*
X30500000Y-23100000D02*
X30500000Y-21710505D01*
X30500000Y-21710505D02*
X30500000Y-21600000D01*
X31350000Y-21100000D02*
X30600000Y-21100000D01*
X30600000Y-21100000D02*
X30500000Y-21200000D01*
X30500000Y-21200000D02*
X30500000Y-21710505D01*
X30250000Y-23350000D02*
X30500000Y-23100000D01*
X30250000Y-24600000D02*
X30250000Y-23350000D01*
X32700000Y-21000000D02*
X31450000Y-21000000D01*
X31450000Y-21000000D02*
X31350000Y-21100000D01*
D39*
X31208998Y-21100000D02*
X31350000Y-21100000D01*
D40*
X48500000Y-25300000D02*
X48500000Y-24618900D01*
X48500000Y-24618900D02*
X48520702Y-24598198D01*
X27111890Y-23570010D02*
X26070010Y-23570010D01*
X27570010Y-23570010D02*
X27111890Y-23570010D01*
X27111890Y-23570010D02*
X27111890Y-23788110D01*
X27111890Y-23788110D02*
X26900000Y-24000000D01*
X25250000Y-23250000D02*
X25250000Y-21500000D01*
X27750000Y-24600000D02*
X27750000Y-23750000D01*
X27750000Y-23750000D02*
X27570010Y-23570010D01*
X26070010Y-23570010D02*
X25750000Y-23250000D01*
X25750000Y-23250000D02*
X25250000Y-23250000D01*
X23229990Y-24857438D02*
X23229990Y-24433174D01*
X23229990Y-24433174D02*
X23000000Y-24203184D01*
X23000000Y-24203184D02*
X23000000Y-22225000D01*
X23750000Y-21500000D02*
X23725000Y-21500000D01*
X23725000Y-21500000D02*
X23000000Y-22225000D01*
X46908628Y-35608628D02*
X51150090Y-35608628D01*
X51150090Y-35608628D02*
X51658628Y-35608628D01*
X52108628Y-35608628D02*
X51150090Y-35608628D01*
X53050000Y-36350000D02*
X52850000Y-36350000D01*
X52850000Y-36350000D02*
X52108628Y-35608628D01*
X46300000Y-37150000D02*
X46300000Y-36217256D01*
X46300000Y-36217256D02*
X46908628Y-35608628D01*
X34980110Y-35358716D02*
X35338826Y-35000000D01*
X35338826Y-35000000D02*
X36400000Y-35000000D01*
X34516828Y-35590011D02*
X34748815Y-35590011D01*
X34748815Y-35590011D02*
X34980110Y-35358716D01*
X34516828Y-35590011D02*
X26270001Y-35590011D01*
X26270001Y-35590011D02*
X26179990Y-35500000D01*
X46300000Y-37150000D02*
X46300000Y-38100000D01*
X46300000Y-37000000D02*
X46300000Y-37150000D01*
D39*
X48020702Y-26348198D02*
X47720702Y-26048198D01*
X47720702Y-26048198D02*
X47720702Y-24598198D01*
D40*
X26250000Y-42500000D02*
X27100000Y-42500000D01*
X26000000Y-42250000D02*
X26250000Y-42500000D01*
X27100000Y-42000000D02*
X26500000Y-42000000D01*
X26250000Y-41500000D02*
X26000000Y-41250000D01*
X26250000Y-41750000D02*
X26250000Y-41500000D01*
X26500000Y-42000000D02*
X26250000Y-41750000D01*
X28000000Y-23250000D02*
X26800000Y-23250000D01*
X28250000Y-24600000D02*
X28250000Y-23500000D01*
X28250000Y-23500000D02*
X28000000Y-23250000D01*
X26800000Y-23250000D02*
X26750000Y-23200000D01*
X26750000Y-23200000D02*
X26750000Y-22750000D01*
X26950000Y-22750000D02*
X26750000Y-22750000D01*
X29250000Y-34125736D02*
X29250000Y-34250000D01*
X29250000Y-34250000D02*
X29300000Y-34300000D01*
X34200000Y-43300000D02*
X34200000Y-42971085D01*
X34200000Y-42971085D02*
X34200000Y-40300000D01*
X32600000Y-48950000D02*
X31700000Y-48950000D01*
X31500000Y-46200000D02*
X34200000Y-43500000D01*
X31700000Y-48950000D02*
X31500000Y-48750000D01*
X31500000Y-48750000D02*
X31500000Y-46200000D01*
X34200000Y-43500000D02*
X34200000Y-42971085D01*
X29250000Y-29400000D02*
X29250000Y-33174388D01*
X29250000Y-33174388D02*
X29250000Y-33450000D01*
X29250000Y-34125736D02*
X29250000Y-33174388D01*
X30400000Y-48950000D02*
X30200000Y-48950000D01*
X30200000Y-48950000D02*
X28750000Y-47500000D01*
X26250000Y-28750000D02*
X26156508Y-28750000D01*
X26156508Y-28750000D02*
X26026518Y-28879990D01*
X27100000Y-28750000D02*
X26250000Y-28750000D01*
X23750000Y-24250000D02*
X23750000Y-23250000D01*
D39*
X37038399Y-22654999D02*
X38084279Y-22654999D01*
X38084279Y-22654999D02*
X38410999Y-22654999D01*
X39835000Y-24479000D02*
X39835000Y-23579000D01*
X39835000Y-23579000D02*
X38910999Y-22654999D01*
X38910999Y-22654999D02*
X38084279Y-22654999D01*
X34000000Y-25250000D02*
X34700000Y-25250000D01*
X34700000Y-25250000D02*
X36754999Y-23195001D01*
X36754999Y-23195001D02*
X36754999Y-22938399D01*
X36754999Y-22938399D02*
X37038399Y-22654999D01*
X39835000Y-24079000D02*
X39835000Y-24479000D01*
D40*
X31900000Y-26750000D02*
X34000000Y-26750000D01*
X39500000Y-43800000D02*
X39500000Y-45000000D01*
X31980031Y-36980031D02*
X33500000Y-36980031D01*
X33500000Y-36980031D02*
X33700000Y-37180031D01*
X27100000Y-27750000D02*
X25947438Y-27750000D01*
X25947438Y-27750000D02*
X25397438Y-28300000D01*
X25397438Y-28300000D02*
X24000000Y-28300000D01*
X23600000Y-29500000D02*
X24500000Y-30400000D01*
X24500000Y-30400000D02*
X24500000Y-35947298D01*
X24000000Y-28300000D02*
X23600000Y-28700000D01*
X23600000Y-28700000D02*
X23600000Y-29500000D01*
X24500000Y-35947298D02*
X25532732Y-36980030D01*
X25532732Y-36980030D02*
X31980031Y-36980031D01*
X39500000Y-44500000D02*
X39500000Y-45000000D01*
D37*
X39500000Y-45000000D02*
X41000000Y-45000000D01*
D40*
X36353593Y-35816009D02*
X36973739Y-35195863D01*
X44900000Y-20500000D02*
X46452563Y-20500001D01*
X46920702Y-21123198D02*
X46920702Y-21598198D01*
X46452563Y-20500001D02*
X46920702Y-20968140D01*
X46920702Y-20968140D02*
X46920702Y-21123198D01*
X42579999Y-33879999D02*
X43800000Y-35100000D01*
X44900000Y-20500000D02*
X44620001Y-20779999D01*
X42579999Y-21050399D02*
X42579999Y-33879999D01*
X44620001Y-20779999D02*
X42850399Y-20779999D01*
X42850399Y-20779999D02*
X42579999Y-21050399D01*
X46300000Y-35100000D02*
X45879999Y-35520001D01*
X45879999Y-35520001D02*
X44220001Y-35520001D01*
X44220001Y-35520001D02*
X43800000Y-35100000D01*
X25159990Y-31451782D02*
X25159990Y-35478902D01*
X25797837Y-36340011D02*
X25159990Y-35702164D01*
X25159990Y-35702164D02*
X25159990Y-35478902D01*
X25797837Y-36340011D02*
X35829591Y-36340011D01*
X36973739Y-35195863D02*
X37600000Y-34569602D01*
X35829591Y-36340011D02*
X36973739Y-35195863D01*
X36029591Y-36140011D02*
X36353593Y-35816009D01*
X35929592Y-36240010D02*
X36353593Y-35816009D01*
X37630398Y-34569602D02*
X38113097Y-34086903D01*
X37600000Y-34569602D02*
X37630398Y-34569602D01*
X38113097Y-34086903D02*
X38113097Y-33922501D01*
X27750000Y-29400000D02*
X25897846Y-29400000D01*
X25897846Y-29400000D02*
X25159989Y-30137857D01*
X25159989Y-30137857D02*
X25159990Y-31451782D01*
X46300000Y-35100000D02*
X46300000Y-34050000D01*
X46300000Y-33900000D02*
X46300000Y-34050000D01*
X45032552Y-20820010D02*
X45990398Y-20820010D01*
X46320010Y-20820010D02*
X45990398Y-20820010D01*
X45990398Y-20820010D02*
X46200000Y-20820010D01*
X46520702Y-21020702D02*
X46320010Y-20820010D01*
X46520702Y-21598198D02*
X46520702Y-21020702D01*
X44752554Y-21100008D02*
X45032552Y-20820010D01*
X43100000Y-21200000D02*
X43199991Y-21100009D01*
X43199991Y-21100009D02*
X44752554Y-21100008D01*
X43100000Y-21300000D02*
X43100000Y-21200000D01*
X45300000Y-35000000D02*
X45300000Y-34050000D01*
X30250000Y-29400000D02*
X30250000Y-29950000D01*
X30250000Y-29950000D02*
X33000000Y-32700000D01*
X33000000Y-32700000D02*
X33442665Y-32700000D01*
X45300000Y-34050000D02*
X45300000Y-33400000D01*
X45300000Y-33400000D02*
X43100000Y-31200000D01*
X43100000Y-31200000D02*
X43100000Y-21300000D01*
X30750000Y-29950000D02*
X32979999Y-32179999D01*
X32979999Y-32179999D02*
X33692266Y-32179999D01*
X33692266Y-32179999D02*
X34000000Y-32487733D01*
X31900000Y-40000000D02*
X32552562Y-40000000D01*
X32552562Y-40000000D02*
X35167799Y-37384763D01*
X35167799Y-37384763D02*
X35167799Y-36867799D01*
X35200000Y-37071002D02*
X35200000Y-36800000D01*
X33830832Y-32318565D02*
X33962666Y-32450399D01*
X34000000Y-34500000D02*
X34000000Y-32487733D01*
X34000000Y-32487733D02*
X33830832Y-32318565D01*
X30750000Y-29400000D02*
X30750000Y-29950000D01*
X30750000Y-29950000D02*
X30797438Y-29997438D01*
D39*
X36900000Y-32400000D02*
X38517228Y-32400000D01*
X38517228Y-32400000D02*
X39084580Y-32400000D01*
X39583804Y-32400000D02*
X38517228Y-32400000D01*
X40500000Y-31483804D02*
X39583804Y-32400000D01*
X40500000Y-31019934D02*
X40500000Y-31483804D01*
X40500000Y-29300000D02*
X40500000Y-27597647D01*
X38565000Y-24479000D02*
X38565000Y-25379000D01*
X38565000Y-25379000D02*
X40500000Y-27314000D01*
X40500000Y-27314000D02*
X40500000Y-27597647D01*
D40*
X40500000Y-29500000D02*
X40500000Y-29300000D01*
X40500000Y-31019934D02*
X40500000Y-29500000D01*
X39084580Y-32400000D02*
X39119934Y-32400000D01*
D39*
X31900000Y-28250000D02*
X32750000Y-28250000D01*
X32750000Y-28250000D02*
X36900000Y-32400000D01*
X38565000Y-24879000D02*
X38565000Y-24479000D01*
X39835000Y-30321000D02*
X39835000Y-31197018D01*
X39835000Y-31197018D02*
X39532018Y-31500000D01*
X39532018Y-31500000D02*
X36800000Y-31500000D01*
X36800000Y-31500000D02*
X33050000Y-27750000D01*
X33050000Y-27750000D02*
X32500000Y-27750000D01*
X32500000Y-27750000D02*
X31900000Y-27750000D01*
X32673272Y-27750000D02*
X32500000Y-27750000D01*
X39835000Y-30721000D02*
X39835000Y-30321000D01*
X39835000Y-29921000D02*
X39835000Y-30321000D01*
X37295000Y-30321000D02*
X37295000Y-29421000D01*
X37295000Y-29421000D02*
X35244272Y-29421000D01*
X35244272Y-29421000D02*
X33073272Y-27250000D01*
X33073272Y-27250000D02*
X31900000Y-27250000D01*
X37295000Y-29921000D02*
X37295000Y-30321000D01*
X31900000Y-26250000D02*
X32500000Y-26250000D01*
X32500000Y-26250000D02*
X32650000Y-26100000D01*
X32650000Y-26100000D02*
X35244000Y-26100000D01*
X35244000Y-26100000D02*
X38565000Y-29421000D01*
X38565000Y-29421000D02*
X38565000Y-30321000D01*
X38565000Y-29921000D02*
X38565000Y-30321000D01*
X36885136Y-22284989D02*
X39074166Y-22284989D01*
X39074166Y-22284989D02*
X39310989Y-22284989D01*
X41105000Y-24479000D02*
X41105000Y-23579000D01*
X41105000Y-23579000D02*
X39810989Y-22284989D01*
X39810989Y-22284989D02*
X39074166Y-22284989D01*
X31900000Y-25750000D02*
X32500000Y-25750000D01*
X33500000Y-24600000D02*
X34874394Y-23225606D01*
X32500000Y-25750000D02*
X33200000Y-25050000D01*
X33200000Y-25050000D02*
X33200000Y-24700000D01*
X35944519Y-23225606D02*
X36885136Y-22284989D01*
X33200000Y-24700000D02*
X33300000Y-24600000D01*
X34874394Y-23225606D02*
X35944519Y-23225606D01*
X33300000Y-24600000D02*
X33500000Y-24600000D01*
X41105000Y-24079000D02*
X41105000Y-24479000D01*
X31900000Y-25750000D02*
X32358998Y-25750000D01*
D40*
X35613232Y-21817166D02*
X35650399Y-21779999D01*
X41762458Y-23262458D02*
X40279999Y-21779999D01*
X35650399Y-21779999D02*
X35568180Y-21862218D01*
X40279999Y-21779999D02*
X35650399Y-21779999D01*
X35568180Y-21862218D02*
X35613232Y-21817166D01*
X41762458Y-23840456D02*
X41762458Y-23262458D01*
X32777836Y-40500000D02*
X31900000Y-40500000D01*
X41762458Y-23840456D02*
X41762458Y-31515378D01*
X41762458Y-31515378D02*
X32777836Y-40500000D01*
X35490419Y-21939979D02*
X35568180Y-21862218D01*
X31250000Y-24600000D02*
X32322438Y-24600000D01*
X32322438Y-24600000D02*
X34561843Y-22360595D01*
X35379999Y-22050399D02*
X35568180Y-21862218D01*
X34561843Y-22360595D02*
X35339405Y-22360595D01*
X35339405Y-22360595D02*
X35379999Y-22320001D01*
X35379999Y-22320001D02*
X35379999Y-22050399D01*
X34618399Y-22040585D02*
X35059415Y-22040585D01*
X35059415Y-22040585D02*
X35059989Y-22040011D01*
X35059989Y-22040011D02*
X35059989Y-21917847D01*
X35059989Y-21917847D02*
X35517846Y-21459990D01*
X35517846Y-21459990D02*
X40412552Y-21459990D01*
X40412552Y-21459990D02*
X42082468Y-23129906D01*
X42082468Y-23129906D02*
X42082468Y-31647930D01*
X42082468Y-31647930D02*
X41465362Y-32265036D01*
X33679999Y-40050399D02*
X41465362Y-32265036D01*
X41465362Y-32265036D02*
X41730398Y-32000000D01*
X41895011Y-31835387D02*
X41465362Y-32265036D01*
X33679990Y-40809118D02*
X33679999Y-40809109D01*
X33679999Y-40809109D02*
X33679999Y-40050399D01*
X32669876Y-23800000D02*
X34429291Y-22040585D01*
X34618399Y-22040585D02*
X34429290Y-22040586D01*
X31000000Y-23800000D02*
X32669876Y-23800000D01*
X34429291Y-22040585D02*
X34618399Y-22040585D01*
X30750000Y-24050000D02*
X31000000Y-23800000D01*
X30750000Y-24050000D02*
X30750000Y-24600000D01*
X30750000Y-38850000D02*
X30750000Y-37950000D01*
X30750000Y-37950000D02*
X30800000Y-37900000D01*
X26134070Y-36660021D02*
X32983728Y-36660021D01*
X31900000Y-39500000D02*
X32600000Y-39500000D01*
X32600000Y-39500000D02*
X34647798Y-37452202D01*
X34647798Y-37452202D02*
X34647798Y-37358227D01*
X34647798Y-37358227D02*
X33949592Y-36660021D01*
X33949592Y-36660021D02*
X32983728Y-36660021D01*
X26134070Y-36660021D02*
X25665284Y-36660020D01*
X24839981Y-35834717D02*
X25665285Y-36660021D01*
X25665285Y-36660021D02*
X26134070Y-36660021D01*
X25480349Y-28669651D02*
X24839980Y-29310020D01*
X24839980Y-29310020D02*
X24839981Y-35834717D01*
X25150000Y-29000000D02*
X25480349Y-28669651D01*
X25480349Y-28669651D02*
X25920001Y-28229999D01*
X31900000Y-39500000D02*
X32125000Y-39500000D01*
X24500000Y-29000000D02*
X25150000Y-29000000D01*
X25920001Y-28229999D02*
X26529999Y-28229999D01*
X26529999Y-28229999D02*
X26550000Y-28250000D01*
X26550000Y-28250000D02*
X27100000Y-28250000D01*
X31250000Y-29997438D02*
X33112551Y-31859989D01*
X33112551Y-31859989D02*
X33824818Y-31859989D01*
X33824818Y-31859989D02*
X36254531Y-34289702D01*
X31250000Y-29400000D02*
X31250000Y-29997438D01*
X37092994Y-38207006D02*
X38873521Y-36426479D01*
X38873521Y-36426479D02*
X38873521Y-36140020D01*
X37086558Y-34289702D02*
X36254531Y-34289702D01*
X31250000Y-29625000D02*
X31250000Y-29400000D01*
X35075719Y-22680605D02*
X35519395Y-22680605D01*
X32512084Y-25250000D02*
X32512084Y-24899999D01*
X32512084Y-24899999D02*
X34731478Y-22680605D01*
X34731478Y-22680605D02*
X35075719Y-22680605D01*
X31900000Y-25250000D02*
X32512084Y-25250000D01*
X35519395Y-22680605D02*
X35900000Y-22300000D01*
X31900000Y-25250000D02*
X32125000Y-25250000D01*
X25479999Y-32050508D02*
X25479999Y-35569611D01*
X25479999Y-35569611D02*
X25930389Y-36020001D01*
X35390891Y-36020001D02*
X35890882Y-35520010D01*
X25930389Y-36020001D02*
X35390891Y-36020001D01*
X35767099Y-35643793D02*
X35890882Y-35520010D01*
X25479999Y-31056397D02*
X25479999Y-32050508D01*
X25479999Y-32050508D02*
X25479999Y-32579999D01*
X28250000Y-29400000D02*
X28250000Y-30050000D01*
X25479999Y-30270409D02*
X25479999Y-31056397D01*
X28250000Y-30050000D02*
X28100000Y-30200000D01*
X28100000Y-30200000D02*
X26449592Y-30200000D01*
X26449592Y-30200000D02*
X26249601Y-30000009D01*
X26249601Y-30000009D02*
X25750399Y-30000009D01*
X25750399Y-30000009D02*
X25479999Y-30270409D01*
X25479999Y-31056397D02*
X25479999Y-31319229D01*
D42*
G36*
X54568000Y-20001982D02*
X54568000Y-50198018D01*
X52733009Y-53868000D01*
X22266991Y-53868000D01*
X20432000Y-50198018D01*
X20432000Y-49436837D01*
X20445172Y-49463663D01*
X20785862Y-49750902D01*
X21210540Y-49885900D01*
X21485540Y-49885900D01*
X21485540Y-48877900D01*
X21739540Y-48877900D01*
X21739540Y-49885900D01*
X22014540Y-49885900D01*
X22439218Y-49750902D01*
X22779908Y-49463663D01*
X22981659Y-49052774D01*
X22969377Y-49035750D01*
X25740000Y-49035750D01*
X25740000Y-49276309D01*
X25836673Y-49509698D01*
X26015301Y-49688327D01*
X26248690Y-49785000D01*
X26464250Y-49785000D01*
X26623000Y-49626250D01*
X26623000Y-48877000D01*
X25898750Y-48877000D01*
X25740000Y-49035750D01*
X22969377Y-49035750D01*
X22855494Y-48877900D01*
X21739540Y-48877900D01*
X21485540Y-48877900D01*
X21465540Y-48877900D01*
X21465540Y-48623900D01*
X21485540Y-48623900D01*
X21485540Y-47615900D01*
X21739540Y-47615900D01*
X21739540Y-48623900D01*
X22855494Y-48623900D01*
X22981659Y-48449026D01*
X22786731Y-48052031D01*
X23211311Y-48052031D01*
X23352972Y-48461949D01*
X23640719Y-48786452D01*
X24014602Y-48970168D01*
X24185540Y-48843634D01*
X24185540Y-47877900D01*
X24439540Y-47877900D01*
X24439540Y-48843634D01*
X24610478Y-48970168D01*
X24984361Y-48786452D01*
X25272108Y-48461949D01*
X25413769Y-48052031D01*
X25265103Y-47877900D01*
X24439540Y-47877900D01*
X24185540Y-47877900D01*
X23359977Y-47877900D01*
X23211311Y-48052031D01*
X22786731Y-48052031D01*
X22779908Y-48038137D01*
X22439218Y-47750898D01*
X22014540Y-47615900D01*
X21739540Y-47615900D01*
X21485540Y-47615900D01*
X21210540Y-47615900D01*
X20785862Y-47750898D01*
X20445172Y-48038137D01*
X20432000Y-48064963D01*
X20432000Y-43052031D01*
X23211311Y-43052031D01*
X23352972Y-43461949D01*
X23358637Y-43468338D01*
X23336673Y-43490302D01*
X23240000Y-43723691D01*
X23240000Y-43964250D01*
X23398750Y-44123000D01*
X24123000Y-44123000D01*
X24123000Y-43889928D01*
X24185540Y-43843634D01*
X24185540Y-42877900D01*
X23359977Y-42877900D01*
X23211311Y-43052031D01*
X20432000Y-43052031D01*
X20432000Y-42436837D01*
X20445172Y-42463663D01*
X20785862Y-42750902D01*
X21210540Y-42885900D01*
X21485540Y-42885900D01*
X21485540Y-41877900D01*
X21739540Y-41877900D01*
X21739540Y-42885900D01*
X22014540Y-42885900D01*
X22439218Y-42750902D01*
X22779908Y-42463663D01*
X22981659Y-42052774D01*
X22855494Y-41877900D01*
X21739540Y-41877900D01*
X21485540Y-41877900D01*
X21465540Y-41877900D01*
X21465540Y-41623900D01*
X21485540Y-41623900D01*
X21485540Y-41603900D01*
X21739540Y-41603900D01*
X21739540Y-41623900D01*
X22855494Y-41623900D01*
X22981659Y-41449026D01*
X22779908Y-41038137D01*
X22627927Y-40910000D01*
X22826309Y-40910000D01*
X23059698Y-40813327D01*
X23238327Y-40634699D01*
X23250624Y-40605012D01*
X23258386Y-40610316D01*
X23343000Y-40627451D01*
X23343000Y-40819602D01*
X23377787Y-40994489D01*
X23476852Y-41142750D01*
X23914783Y-41580681D01*
X23640719Y-41715348D01*
X23352972Y-42039851D01*
X23211311Y-42449769D01*
X23359977Y-42623900D01*
X24185540Y-42623900D01*
X24185540Y-42603900D01*
X24439540Y-42603900D01*
X24439540Y-42623900D01*
X24459540Y-42623900D01*
X24459540Y-42877900D01*
X24439540Y-42877900D01*
X24439540Y-43311210D01*
X24377000Y-43373750D01*
X24377000Y-44123000D01*
X25101250Y-44123000D01*
X25260000Y-43964250D01*
X25260000Y-43723691D01*
X25189957Y-43554593D01*
X25272108Y-43461949D01*
X25406672Y-43072569D01*
X25657248Y-43323145D01*
X25657250Y-43323148D01*
X25805512Y-43422213D01*
X25980398Y-43457000D01*
X26603533Y-43457000D01*
X26608386Y-43460316D01*
X26750000Y-43488994D01*
X27114744Y-43488994D01*
X27148750Y-43523000D01*
X27438654Y-43523000D01*
X27648690Y-43610000D01*
X27761006Y-43610000D01*
X27761006Y-44000000D01*
X27785899Y-44132296D01*
X27812500Y-44173635D01*
X27812500Y-44476250D01*
X27971250Y-44635000D01*
X27981908Y-44635000D01*
X27914684Y-44733386D01*
X27886006Y-44875000D01*
X27886006Y-45434856D01*
X27613994Y-45706868D01*
X27613994Y-44875000D01*
X27589101Y-44742704D01*
X27519795Y-44635000D01*
X27528750Y-44635000D01*
X27687500Y-44476250D01*
X27687500Y-43777000D01*
X27148750Y-43777000D01*
X26990000Y-43935750D01*
X26990000Y-44126309D01*
X27086673Y-44359698D01*
X27237980Y-44511006D01*
X26250000Y-44511006D01*
X26117704Y-44535899D01*
X25996198Y-44614086D01*
X25914684Y-44733386D01*
X25886006Y-44875000D01*
X25886006Y-45434856D01*
X25625000Y-45695862D01*
X25214569Y-45285431D01*
X25018563Y-45154463D01*
X25163327Y-45009698D01*
X25260000Y-44776309D01*
X25260000Y-44535750D01*
X25101250Y-44377000D01*
X24377000Y-44377000D01*
X24377000Y-44397000D01*
X24123000Y-44397000D01*
X24123000Y-44377000D01*
X23398750Y-44377000D01*
X23240000Y-44535750D01*
X23240000Y-44776309D01*
X23336673Y-45009698D01*
X23515301Y-45188327D01*
X23544988Y-45200624D01*
X23539684Y-45208386D01*
X23511006Y-45350000D01*
X23511006Y-46150000D01*
X23535899Y-46282296D01*
X23614086Y-46403802D01*
X23733386Y-46485316D01*
X23875000Y-46513994D01*
X24185538Y-46513994D01*
X24185538Y-46658165D01*
X24014602Y-46531632D01*
X23640719Y-46715348D01*
X23352972Y-47039851D01*
X23211311Y-47449769D01*
X23359977Y-47623900D01*
X24185540Y-47623900D01*
X24185540Y-47603900D01*
X24439540Y-47603900D01*
X24439540Y-47623900D01*
X25265103Y-47623900D01*
X25413769Y-47449769D01*
X25303139Y-47129645D01*
X25368741Y-47156885D01*
X25499997Y-47156999D01*
X25500000Y-47157000D01*
X25500573Y-47157000D01*
X25630112Y-47157113D01*
X25630385Y-47157000D01*
X25750000Y-47157000D01*
X26001423Y-47106989D01*
X26011006Y-47100586D01*
X26011006Y-47650000D01*
X26035899Y-47782296D01*
X26046490Y-47798754D01*
X26015301Y-47811673D01*
X25836673Y-47990302D01*
X25740000Y-48223691D01*
X25740000Y-48464250D01*
X25898750Y-48623000D01*
X26623000Y-48623000D01*
X26623000Y-48603000D01*
X26877000Y-48603000D01*
X26877000Y-48623000D01*
X26897000Y-48623000D01*
X26897000Y-48877000D01*
X26877000Y-48877000D01*
X26877000Y-49626250D01*
X27035750Y-49785000D01*
X27251310Y-49785000D01*
X27484699Y-49688327D01*
X27663327Y-49509698D01*
X27691789Y-49440984D01*
X27761673Y-49609698D01*
X27940301Y-49788327D01*
X28132648Y-49868000D01*
X23000000Y-49868000D01*
X22984776Y-49871028D01*
X22969376Y-49869087D01*
X22902592Y-49887376D01*
X22834681Y-49900884D01*
X22821776Y-49909507D01*
X22806804Y-49913607D01*
X22752101Y-49956062D01*
X22694530Y-49994530D01*
X22685906Y-50007436D01*
X22673644Y-50016953D01*
X22639354Y-50077107D01*
X22600884Y-50134681D01*
X22597856Y-50149906D01*
X22590169Y-50163390D01*
X22581509Y-50232085D01*
X22568000Y-50300000D01*
X22571028Y-50315224D01*
X22569087Y-50330624D01*
X22587376Y-50397408D01*
X22600884Y-50465319D01*
X22609507Y-50478224D01*
X22613607Y-50493196D01*
X23513607Y-52293196D01*
X23556062Y-52347899D01*
X23594530Y-52405470D01*
X23607436Y-52414094D01*
X23616953Y-52426356D01*
X23677107Y-52460646D01*
X23734681Y-52499116D01*
X23749906Y-52502144D01*
X23763390Y-52509831D01*
X23832085Y-52518491D01*
X23900000Y-52532000D01*
X51100000Y-52532000D01*
X51167915Y-52518491D01*
X51236610Y-52509831D01*
X51250094Y-52502144D01*
X51265319Y-52499116D01*
X51322893Y-52460646D01*
X51383047Y-52426356D01*
X51392564Y-52414094D01*
X51405470Y-52405470D01*
X51443938Y-52347899D01*
X51486393Y-52293196D01*
X52386392Y-50493196D01*
X52390491Y-50478227D01*
X52399116Y-50465319D01*
X52412625Y-50397403D01*
X52430913Y-50330624D01*
X52428972Y-50315224D01*
X52432000Y-50300000D01*
X52418491Y-50232085D01*
X52409831Y-50163390D01*
X52402144Y-50149906D01*
X52399116Y-50134681D01*
X52360646Y-50077107D01*
X52326356Y-50016953D01*
X52314094Y-50007436D01*
X52305470Y-49994530D01*
X52247894Y-49956059D01*
X52193196Y-49913608D01*
X52178227Y-49909509D01*
X52165319Y-49900884D01*
X52097403Y-49887375D01*
X52030624Y-49869087D01*
X52015224Y-49871028D01*
X52000000Y-49868000D01*
X46717352Y-49868000D01*
X46909699Y-49788327D01*
X47088327Y-49609698D01*
X47185000Y-49376309D01*
X47185000Y-49035750D01*
X47026250Y-48877000D01*
X45877000Y-48877000D01*
X45877000Y-48897000D01*
X45623000Y-48897000D01*
X45623000Y-48877000D01*
X43877000Y-48877000D01*
X43877000Y-49626250D01*
X44035750Y-49785000D01*
X44251310Y-49785000D01*
X44484699Y-49688327D01*
X44487500Y-49685526D01*
X44590301Y-49788327D01*
X44782648Y-49868000D01*
X29367352Y-49868000D01*
X29559699Y-49788327D01*
X29736139Y-49611886D01*
X29870000Y-49638994D01*
X30930000Y-49638994D01*
X31062296Y-49614101D01*
X31183802Y-49535914D01*
X31265316Y-49416614D01*
X31293994Y-49275000D01*
X31293994Y-49190290D01*
X31376852Y-49273148D01*
X31525114Y-49372213D01*
X31700000Y-49407000D01*
X31730843Y-49407000D01*
X31730899Y-49407296D01*
X31809086Y-49528802D01*
X31928386Y-49610316D01*
X32070000Y-49638994D01*
X33130000Y-49638994D01*
X33262296Y-49614101D01*
X33383802Y-49535914D01*
X33465316Y-49416614D01*
X33493994Y-49275000D01*
X33493994Y-48859031D01*
X33668327Y-48684699D01*
X33765000Y-48451310D01*
X33765000Y-48285750D01*
X33606250Y-48127000D01*
X32727000Y-48127000D01*
X32727000Y-48147000D01*
X32473000Y-48147000D01*
X32473000Y-48127000D01*
X32453000Y-48127000D01*
X32453000Y-48035750D01*
X33849000Y-48035750D01*
X33849000Y-48892310D01*
X33945673Y-49125699D01*
X34124302Y-49304327D01*
X34357691Y-49401000D01*
X35214250Y-49401000D01*
X35373000Y-49242250D01*
X35373000Y-47877000D01*
X34007750Y-47877000D01*
X33849000Y-48035750D01*
X32453000Y-48035750D01*
X32453000Y-47873000D01*
X32473000Y-47873000D01*
X32473000Y-47853000D01*
X32727000Y-47853000D01*
X32727000Y-47873000D01*
X33606250Y-47873000D01*
X33765000Y-47714250D01*
X33765000Y-47548690D01*
X33668327Y-47315301D01*
X33493994Y-47140969D01*
X33493994Y-47085144D01*
X33849000Y-46730138D01*
X33849000Y-47464250D01*
X34007750Y-47623000D01*
X35373000Y-47623000D01*
X35373000Y-47603000D01*
X35627000Y-47603000D01*
X35627000Y-47623000D01*
X36992250Y-47623000D01*
X37151000Y-47464250D01*
X37151000Y-47330138D01*
X37261006Y-47440144D01*
X37261006Y-47650000D01*
X37285899Y-47782296D01*
X37296490Y-47798754D01*
X37265301Y-47811673D01*
X37096112Y-47980862D01*
X36992250Y-47877000D01*
X35627000Y-47877000D01*
X35627000Y-49242250D01*
X35785750Y-49401000D01*
X36642309Y-49401000D01*
X36875698Y-49304327D01*
X36990000Y-49190026D01*
X36990000Y-49276309D01*
X37086673Y-49509698D01*
X37265301Y-49688327D01*
X37498690Y-49785000D01*
X37714250Y-49785000D01*
X37873000Y-49626250D01*
X37873000Y-48877000D01*
X37853000Y-48877000D01*
X37853000Y-48623000D01*
X37873000Y-48623000D01*
X37873000Y-48603000D01*
X38127000Y-48603000D01*
X38127000Y-48623000D01*
X38147000Y-48623000D01*
X38147000Y-48877000D01*
X38127000Y-48877000D01*
X38127000Y-49626250D01*
X38285750Y-49785000D01*
X38501310Y-49785000D01*
X38734699Y-49688327D01*
X38913327Y-49509698D01*
X39007423Y-49282531D01*
X39030899Y-49407296D01*
X39109086Y-49528802D01*
X39228386Y-49610316D01*
X39370000Y-49638994D01*
X40430000Y-49638994D01*
X40562296Y-49614101D01*
X40642075Y-49562765D01*
X40868741Y-49656885D01*
X41130112Y-49657113D01*
X41358664Y-49562677D01*
X41428386Y-49610316D01*
X41570000Y-49638994D01*
X42630000Y-49638994D01*
X42762296Y-49614101D01*
X42871077Y-49544102D01*
X43015301Y-49688327D01*
X43248690Y-49785000D01*
X43464250Y-49785000D01*
X43623000Y-49626250D01*
X43623000Y-48877000D01*
X43603000Y-48877000D01*
X43603000Y-48623000D01*
X43623000Y-48623000D01*
X43623000Y-48603000D01*
X43877000Y-48603000D01*
X43877000Y-48623000D01*
X45623000Y-48623000D01*
X45623000Y-47773750D01*
X45877000Y-47773750D01*
X45877000Y-48623000D01*
X47026250Y-48623000D01*
X47185000Y-48464250D01*
X47185000Y-48400000D01*
X47543000Y-48400000D01*
X47593011Y-48651423D01*
X47735431Y-48864569D01*
X47948577Y-49006989D01*
X48200000Y-49057000D01*
X48700000Y-49057000D01*
X48951423Y-49006989D01*
X49164569Y-48864569D01*
X49264569Y-48764569D01*
X49406989Y-48551423D01*
X49457000Y-48300000D01*
X49406989Y-48048577D01*
X49264569Y-47835431D01*
X49051423Y-47693011D01*
X48800000Y-47643000D01*
X48548577Y-47693011D01*
X48473763Y-47743000D01*
X48200000Y-47743000D01*
X47948577Y-47793011D01*
X47735431Y-47935431D01*
X47593011Y-48148577D01*
X47543000Y-48400000D01*
X47185000Y-48400000D01*
X47185000Y-48123691D01*
X47088327Y-47890302D01*
X46909699Y-47711673D01*
X46676310Y-47615000D01*
X46035750Y-47615000D01*
X45877000Y-47773750D01*
X45623000Y-47773750D01*
X45464250Y-47615000D01*
X44823690Y-47615000D01*
X44590301Y-47711673D01*
X44487500Y-47814474D01*
X44484699Y-47811673D01*
X44455012Y-47799376D01*
X44460316Y-47791614D01*
X44488994Y-47650000D01*
X44488994Y-47440144D01*
X45315144Y-46613994D01*
X46550000Y-46613994D01*
X46682296Y-46589101D01*
X46803802Y-46510914D01*
X46885316Y-46391614D01*
X46913994Y-46250000D01*
X46913994Y-45250000D01*
X46889101Y-45117704D01*
X46810914Y-44996198D01*
X46691614Y-44914684D01*
X46550000Y-44886006D01*
X45815144Y-44886006D01*
X44383696Y-43454558D01*
X44383696Y-42879994D01*
X44742696Y-42879994D01*
X44874992Y-42855101D01*
X44996498Y-42776914D01*
X45078012Y-42657614D01*
X45106690Y-42516000D01*
X45106690Y-42214677D01*
X45295838Y-42497757D01*
X45741272Y-42795386D01*
X46266696Y-42899899D01*
X46792120Y-42795386D01*
X47237554Y-42497757D01*
X47535183Y-42052323D01*
X47639696Y-41526899D01*
X47639696Y-41473101D01*
X47535183Y-40947677D01*
X47237554Y-40502243D01*
X46792120Y-40204614D01*
X46266696Y-40100101D01*
X45741272Y-40204614D01*
X45295838Y-40502243D01*
X45106690Y-40785323D01*
X45106690Y-40484000D01*
X45081797Y-40351704D01*
X45003610Y-40230198D01*
X44884310Y-40148684D01*
X44742696Y-40120006D01*
X44258696Y-40120006D01*
X44258696Y-37644664D01*
X44365000Y-37538360D01*
X44365000Y-37726310D01*
X44461673Y-37959699D01*
X44640302Y-38138327D01*
X44873691Y-38235000D01*
X45014250Y-38235000D01*
X45173000Y-38076250D01*
X45173000Y-37277000D01*
X45153000Y-37277000D01*
X45153000Y-37023000D01*
X45173000Y-37023000D01*
X45173000Y-37003000D01*
X45427000Y-37003000D01*
X45427000Y-37023000D01*
X45447000Y-37023000D01*
X45447000Y-37277000D01*
X45427000Y-37277000D01*
X45427000Y-38076250D01*
X45585750Y-38235000D01*
X45644907Y-38235000D01*
X45742698Y-38471674D01*
X45927354Y-38656652D01*
X46168741Y-38756885D01*
X46430112Y-38757113D01*
X46671674Y-38657302D01*
X46856652Y-38472646D01*
X46955332Y-38235000D01*
X47014250Y-38235000D01*
X47173000Y-38076250D01*
X47173000Y-37277000D01*
X47153000Y-37277000D01*
X47153000Y-37023000D01*
X47173000Y-37023000D01*
X47173000Y-37003000D01*
X47427000Y-37003000D01*
X47427000Y-37023000D01*
X47447000Y-37023000D01*
X47447000Y-37277000D01*
X47427000Y-37277000D01*
X47427000Y-38076250D01*
X47585750Y-38235000D01*
X47726309Y-38235000D01*
X47959698Y-38138327D01*
X48134032Y-37963994D01*
X48465968Y-37963994D01*
X48640302Y-38138327D01*
X48873691Y-38235000D01*
X49014250Y-38235000D01*
X49173000Y-38076250D01*
X49173000Y-37277000D01*
X49427000Y-37277000D01*
X49427000Y-38076250D01*
X49585750Y-38235000D01*
X49726309Y-38235000D01*
X49959698Y-38138327D01*
X50138327Y-37959699D01*
X50235000Y-37726310D01*
X50235000Y-37435750D01*
X50076250Y-37277000D01*
X49427000Y-37277000D01*
X49173000Y-37277000D01*
X49153000Y-37277000D01*
X49153000Y-37023000D01*
X49173000Y-37023000D01*
X49173000Y-37003000D01*
X49427000Y-37003000D01*
X49427000Y-37023000D01*
X50076250Y-37023000D01*
X50235000Y-36864250D01*
X50235000Y-36635750D01*
X50290000Y-36635750D01*
X50290000Y-36876309D01*
X50386673Y-37109698D01*
X50565301Y-37288327D01*
X50798690Y-37385000D01*
X51014250Y-37385000D01*
X51173000Y-37226250D01*
X51173000Y-36477000D01*
X50448750Y-36477000D01*
X50290000Y-36635750D01*
X50235000Y-36635750D01*
X50235000Y-36573690D01*
X50138327Y-36340301D01*
X49959698Y-36161673D01*
X49727825Y-36065628D01*
X50291378Y-36065628D01*
X50448750Y-36223000D01*
X51173000Y-36223000D01*
X51173000Y-36203000D01*
X51427000Y-36203000D01*
X51427000Y-36223000D01*
X51447000Y-36223000D01*
X51447000Y-36477000D01*
X51427000Y-36477000D01*
X51427000Y-37226250D01*
X51585750Y-37385000D01*
X51801310Y-37385000D01*
X52034699Y-37288327D01*
X52213327Y-37109698D01*
X52310000Y-36876309D01*
X52310000Y-36808601D01*
X52339086Y-36853802D01*
X52458386Y-36935316D01*
X52600000Y-36963994D01*
X53500000Y-36963994D01*
X53632296Y-36939101D01*
X53753802Y-36860914D01*
X53835316Y-36741614D01*
X53863994Y-36600000D01*
X53863994Y-36100000D01*
X53839101Y-35967704D01*
X53760914Y-35846198D01*
X53641614Y-35764684D01*
X53500000Y-35736006D01*
X52882302Y-35736006D01*
X52610290Y-35463994D01*
X53500000Y-35463994D01*
X53632296Y-35439101D01*
X53753802Y-35360914D01*
X53835316Y-35241614D01*
X53863994Y-35100000D01*
X53863994Y-34600000D01*
X53839101Y-34467704D01*
X53760914Y-34346198D01*
X53641614Y-34264684D01*
X53500000Y-34236006D01*
X52600000Y-34236006D01*
X52467704Y-34260899D01*
X52378967Y-34318000D01*
X52014157Y-34318000D01*
X52014101Y-34317704D01*
X51935914Y-34196198D01*
X51816614Y-34114684D01*
X51675000Y-34086006D01*
X50925000Y-34086006D01*
X50792704Y-34110899D01*
X50671198Y-34189086D01*
X50668524Y-34193000D01*
X50372138Y-34193000D01*
X49963994Y-33784856D01*
X49963994Y-33600000D01*
X49939101Y-33467704D01*
X49860914Y-33346198D01*
X49832000Y-33326442D01*
X49832000Y-33250005D01*
X49832001Y-33250000D01*
X49791505Y-33046413D01*
X49676181Y-32873819D01*
X47502362Y-30700000D01*
X50896883Y-27305479D01*
X50926660Y-27260914D01*
X51012206Y-27132886D01*
X51052702Y-26929298D01*
X51052702Y-24571402D01*
X51149504Y-24509112D01*
X51231018Y-24389812D01*
X51243090Y-24330198D01*
X51547137Y-24330198D01*
X51556601Y-24380494D01*
X51634788Y-24502000D01*
X51754088Y-24583514D01*
X51895702Y-24612192D01*
X52645702Y-24612192D01*
X52777998Y-24587299D01*
X52899504Y-24509112D01*
X52981018Y-24389812D01*
X53009696Y-24248198D01*
X53009696Y-23448198D01*
X52984803Y-23315902D01*
X52974212Y-23299444D01*
X53005401Y-23286525D01*
X53184029Y-23107896D01*
X53280702Y-22874507D01*
X53280702Y-22633948D01*
X53121952Y-22475198D01*
X52397702Y-22475198D01*
X52397702Y-22495198D01*
X52143702Y-22495198D01*
X52143702Y-22475198D01*
X51419452Y-22475198D01*
X51395702Y-22498948D01*
X51371952Y-22475198D01*
X50647702Y-22475198D01*
X50647702Y-22495198D01*
X50393702Y-22495198D01*
X50393702Y-22475198D01*
X50373702Y-22475198D01*
X50373702Y-22221198D01*
X50393702Y-22221198D01*
X50393702Y-21471948D01*
X50647702Y-21471948D01*
X50647702Y-22221198D01*
X51371952Y-22221198D01*
X51395702Y-22197448D01*
X51419452Y-22221198D01*
X52143702Y-22221198D01*
X52143702Y-21471948D01*
X52397702Y-21471948D01*
X52397702Y-22221198D01*
X53121952Y-22221198D01*
X53280702Y-22062448D01*
X53280702Y-21821889D01*
X53184029Y-21588500D01*
X53005401Y-21409871D01*
X52772012Y-21313198D01*
X52556452Y-21313198D01*
X52397702Y-21471948D01*
X52143702Y-21471948D01*
X51984952Y-21313198D01*
X51769392Y-21313198D01*
X51536003Y-21409871D01*
X51395702Y-21550173D01*
X51255401Y-21409871D01*
X51022012Y-21313198D01*
X50806452Y-21313198D01*
X50647702Y-21471948D01*
X50393702Y-21471948D01*
X50234952Y-21313198D01*
X50019392Y-21313198D01*
X49786003Y-21409871D01*
X49695702Y-21500173D01*
X49655400Y-21459871D01*
X49422011Y-21363198D01*
X49306452Y-21363198D01*
X49147702Y-21521948D01*
X49147702Y-22034204D01*
X48971171Y-22034204D01*
X48958356Y-22003266D01*
X48984696Y-21873198D01*
X48984696Y-21323198D01*
X48959803Y-21190902D01*
X48881616Y-21069396D01*
X48771817Y-20994374D01*
X48759029Y-20963500D01*
X48580401Y-20784871D01*
X48347012Y-20688198D01*
X48329452Y-20688198D01*
X48170702Y-20846948D01*
X48170702Y-21059837D01*
X48166900Y-21062284D01*
X48120622Y-21130014D01*
X48081616Y-21069396D01*
X48070702Y-21061939D01*
X48070702Y-20846948D01*
X47911952Y-20688198D01*
X47894392Y-20688198D01*
X47661003Y-20784871D01*
X47482375Y-20963500D01*
X47479244Y-20971059D01*
X47420702Y-20959204D01*
X47375925Y-20959204D01*
X47342915Y-20793254D01*
X47314014Y-20750000D01*
X47243850Y-20644992D01*
X47243847Y-20644990D01*
X46930858Y-20332000D01*
X52000000Y-20332000D01*
X52015224Y-20328972D01*
X52030624Y-20330913D01*
X52097403Y-20312625D01*
X52165319Y-20299116D01*
X52178227Y-20290491D01*
X52193196Y-20286392D01*
X52247894Y-20243941D01*
X52305470Y-20205470D01*
X52314094Y-20192564D01*
X52326356Y-20183047D01*
X52360646Y-20122893D01*
X52399116Y-20065319D01*
X52402144Y-20050094D01*
X52409831Y-20036610D01*
X52418491Y-19967915D01*
X52432000Y-19900000D01*
X52428972Y-19884776D01*
X52430913Y-19869376D01*
X52412625Y-19802597D01*
X52399116Y-19734681D01*
X52390491Y-19721773D01*
X52386392Y-19706804D01*
X51486393Y-17906804D01*
X51443938Y-17852101D01*
X51405470Y-17794530D01*
X51392564Y-17785906D01*
X51383047Y-17773644D01*
X51322893Y-17739354D01*
X51265319Y-17700884D01*
X51250094Y-17697856D01*
X51236610Y-17690169D01*
X51167915Y-17681509D01*
X51100000Y-17668000D01*
X23900000Y-17668000D01*
X23832085Y-17681509D01*
X23763390Y-17690169D01*
X23749906Y-17697856D01*
X23734681Y-17700884D01*
X23677107Y-17739354D01*
X23616953Y-17773644D01*
X23607436Y-17785906D01*
X23594530Y-17794530D01*
X23556062Y-17852101D01*
X23513607Y-17906804D01*
X22613607Y-19706804D01*
X22609507Y-19721776D01*
X22600884Y-19734681D01*
X22593262Y-19773000D01*
X20546491Y-19773000D01*
X22266991Y-16332000D01*
X52733009Y-16332000D01*
X54568000Y-20001982D01*
X54568000Y-20001982D01*
G37*
X54568000Y-20001982D02*
X54568000Y-50198018D01*
X52733009Y-53868000D01*
X22266991Y-53868000D01*
X20432000Y-50198018D01*
X20432000Y-49436837D01*
X20445172Y-49463663D01*
X20785862Y-49750902D01*
X21210540Y-49885900D01*
X21485540Y-49885900D01*
X21485540Y-48877900D01*
X21739540Y-48877900D01*
X21739540Y-49885900D01*
X22014540Y-49885900D01*
X22439218Y-49750902D01*
X22779908Y-49463663D01*
X22981659Y-49052774D01*
X22969377Y-49035750D01*
X25740000Y-49035750D01*
X25740000Y-49276309D01*
X25836673Y-49509698D01*
X26015301Y-49688327D01*
X26248690Y-49785000D01*
X26464250Y-49785000D01*
X26623000Y-49626250D01*
X26623000Y-48877000D01*
X25898750Y-48877000D01*
X25740000Y-49035750D01*
X22969377Y-49035750D01*
X22855494Y-48877900D01*
X21739540Y-48877900D01*
X21485540Y-48877900D01*
X21465540Y-48877900D01*
X21465540Y-48623900D01*
X21485540Y-48623900D01*
X21485540Y-47615900D01*
X21739540Y-47615900D01*
X21739540Y-48623900D01*
X22855494Y-48623900D01*
X22981659Y-48449026D01*
X22786731Y-48052031D01*
X23211311Y-48052031D01*
X23352972Y-48461949D01*
X23640719Y-48786452D01*
X24014602Y-48970168D01*
X24185540Y-48843634D01*
X24185540Y-47877900D01*
X24439540Y-47877900D01*
X24439540Y-48843634D01*
X24610478Y-48970168D01*
X24984361Y-48786452D01*
X25272108Y-48461949D01*
X25413769Y-48052031D01*
X25265103Y-47877900D01*
X24439540Y-47877900D01*
X24185540Y-47877900D01*
X23359977Y-47877900D01*
X23211311Y-48052031D01*
X22786731Y-48052031D01*
X22779908Y-48038137D01*
X22439218Y-47750898D01*
X22014540Y-47615900D01*
X21739540Y-47615900D01*
X21485540Y-47615900D01*
X21210540Y-47615900D01*
X20785862Y-47750898D01*
X20445172Y-48038137D01*
X20432000Y-48064963D01*
X20432000Y-43052031D01*
X23211311Y-43052031D01*
X23352972Y-43461949D01*
X23358637Y-43468338D01*
X23336673Y-43490302D01*
X23240000Y-43723691D01*
X23240000Y-43964250D01*
X23398750Y-44123000D01*
X24123000Y-44123000D01*
X24123000Y-43889928D01*
X24185540Y-43843634D01*
X24185540Y-42877900D01*
X23359977Y-42877900D01*
X23211311Y-43052031D01*
X20432000Y-43052031D01*
X20432000Y-42436837D01*
X20445172Y-42463663D01*
X20785862Y-42750902D01*
X21210540Y-42885900D01*
X21485540Y-42885900D01*
X21485540Y-41877900D01*
X21739540Y-41877900D01*
X21739540Y-42885900D01*
X22014540Y-42885900D01*
X22439218Y-42750902D01*
X22779908Y-42463663D01*
X22981659Y-42052774D01*
X22855494Y-41877900D01*
X21739540Y-41877900D01*
X21485540Y-41877900D01*
X21465540Y-41877900D01*
X21465540Y-41623900D01*
X21485540Y-41623900D01*
X21485540Y-41603900D01*
X21739540Y-41603900D01*
X21739540Y-41623900D01*
X22855494Y-41623900D01*
X22981659Y-41449026D01*
X22779908Y-41038137D01*
X22627927Y-40910000D01*
X22826309Y-40910000D01*
X23059698Y-40813327D01*
X23238327Y-40634699D01*
X23250624Y-40605012D01*
X23258386Y-40610316D01*
X23343000Y-40627451D01*
X23343000Y-40819602D01*
X23377787Y-40994489D01*
X23476852Y-41142750D01*
X23914783Y-41580681D01*
X23640719Y-41715348D01*
X23352972Y-42039851D01*
X23211311Y-42449769D01*
X23359977Y-42623900D01*
X24185540Y-42623900D01*
X24185540Y-42603900D01*
X24439540Y-42603900D01*
X24439540Y-42623900D01*
X24459540Y-42623900D01*
X24459540Y-42877900D01*
X24439540Y-42877900D01*
X24439540Y-43311210D01*
X24377000Y-43373750D01*
X24377000Y-44123000D01*
X25101250Y-44123000D01*
X25260000Y-43964250D01*
X25260000Y-43723691D01*
X25189957Y-43554593D01*
X25272108Y-43461949D01*
X25406672Y-43072569D01*
X25657248Y-43323145D01*
X25657250Y-43323148D01*
X25805512Y-43422213D01*
X25980398Y-43457000D01*
X26603533Y-43457000D01*
X26608386Y-43460316D01*
X26750000Y-43488994D01*
X27114744Y-43488994D01*
X27148750Y-43523000D01*
X27438654Y-43523000D01*
X27648690Y-43610000D01*
X27761006Y-43610000D01*
X27761006Y-44000000D01*
X27785899Y-44132296D01*
X27812500Y-44173635D01*
X27812500Y-44476250D01*
X27971250Y-44635000D01*
X27981908Y-44635000D01*
X27914684Y-44733386D01*
X27886006Y-44875000D01*
X27886006Y-45434856D01*
X27613994Y-45706868D01*
X27613994Y-44875000D01*
X27589101Y-44742704D01*
X27519795Y-44635000D01*
X27528750Y-44635000D01*
X27687500Y-44476250D01*
X27687500Y-43777000D01*
X27148750Y-43777000D01*
X26990000Y-43935750D01*
X26990000Y-44126309D01*
X27086673Y-44359698D01*
X27237980Y-44511006D01*
X26250000Y-44511006D01*
X26117704Y-44535899D01*
X25996198Y-44614086D01*
X25914684Y-44733386D01*
X25886006Y-44875000D01*
X25886006Y-45434856D01*
X25625000Y-45695862D01*
X25214569Y-45285431D01*
X25018563Y-45154463D01*
X25163327Y-45009698D01*
X25260000Y-44776309D01*
X25260000Y-44535750D01*
X25101250Y-44377000D01*
X24377000Y-44377000D01*
X24377000Y-44397000D01*
X24123000Y-44397000D01*
X24123000Y-44377000D01*
X23398750Y-44377000D01*
X23240000Y-44535750D01*
X23240000Y-44776309D01*
X23336673Y-45009698D01*
X23515301Y-45188327D01*
X23544988Y-45200624D01*
X23539684Y-45208386D01*
X23511006Y-45350000D01*
X23511006Y-46150000D01*
X23535899Y-46282296D01*
X23614086Y-46403802D01*
X23733386Y-46485316D01*
X23875000Y-46513994D01*
X24185538Y-46513994D01*
X24185538Y-46658165D01*
X24014602Y-46531632D01*
X23640719Y-46715348D01*
X23352972Y-47039851D01*
X23211311Y-47449769D01*
X23359977Y-47623900D01*
X24185540Y-47623900D01*
X24185540Y-47603900D01*
X24439540Y-47603900D01*
X24439540Y-47623900D01*
X25265103Y-47623900D01*
X25413769Y-47449769D01*
X25303139Y-47129645D01*
X25368741Y-47156885D01*
X25499997Y-47156999D01*
X25500000Y-47157000D01*
X25500573Y-47157000D01*
X25630112Y-47157113D01*
X25630385Y-47157000D01*
X25750000Y-47157000D01*
X26001423Y-47106989D01*
X26011006Y-47100586D01*
X26011006Y-47650000D01*
X26035899Y-47782296D01*
X26046490Y-47798754D01*
X26015301Y-47811673D01*
X25836673Y-47990302D01*
X25740000Y-48223691D01*
X25740000Y-48464250D01*
X25898750Y-48623000D01*
X26623000Y-48623000D01*
X26623000Y-48603000D01*
X26877000Y-48603000D01*
X26877000Y-48623000D01*
X26897000Y-48623000D01*
X26897000Y-48877000D01*
X26877000Y-48877000D01*
X26877000Y-49626250D01*
X27035750Y-49785000D01*
X27251310Y-49785000D01*
X27484699Y-49688327D01*
X27663327Y-49509698D01*
X27691789Y-49440984D01*
X27761673Y-49609698D01*
X27940301Y-49788327D01*
X28132648Y-49868000D01*
X23000000Y-49868000D01*
X22984776Y-49871028D01*
X22969376Y-49869087D01*
X22902592Y-49887376D01*
X22834681Y-49900884D01*
X22821776Y-49909507D01*
X22806804Y-49913607D01*
X22752101Y-49956062D01*
X22694530Y-49994530D01*
X22685906Y-50007436D01*
X22673644Y-50016953D01*
X22639354Y-50077107D01*
X22600884Y-50134681D01*
X22597856Y-50149906D01*
X22590169Y-50163390D01*
X22581509Y-50232085D01*
X22568000Y-50300000D01*
X22571028Y-50315224D01*
X22569087Y-50330624D01*
X22587376Y-50397408D01*
X22600884Y-50465319D01*
X22609507Y-50478224D01*
X22613607Y-50493196D01*
X23513607Y-52293196D01*
X23556062Y-52347899D01*
X23594530Y-52405470D01*
X23607436Y-52414094D01*
X23616953Y-52426356D01*
X23677107Y-52460646D01*
X23734681Y-52499116D01*
X23749906Y-52502144D01*
X23763390Y-52509831D01*
X23832085Y-52518491D01*
X23900000Y-52532000D01*
X51100000Y-52532000D01*
X51167915Y-52518491D01*
X51236610Y-52509831D01*
X51250094Y-52502144D01*
X51265319Y-52499116D01*
X51322893Y-52460646D01*
X51383047Y-52426356D01*
X51392564Y-52414094D01*
X51405470Y-52405470D01*
X51443938Y-52347899D01*
X51486393Y-52293196D01*
X52386392Y-50493196D01*
X52390491Y-50478227D01*
X52399116Y-50465319D01*
X52412625Y-50397403D01*
X52430913Y-50330624D01*
X52428972Y-50315224D01*
X52432000Y-50300000D01*
X52418491Y-50232085D01*
X52409831Y-50163390D01*
X52402144Y-50149906D01*
X52399116Y-50134681D01*
X52360646Y-50077107D01*
X52326356Y-50016953D01*
X52314094Y-50007436D01*
X52305470Y-49994530D01*
X52247894Y-49956059D01*
X52193196Y-49913608D01*
X52178227Y-49909509D01*
X52165319Y-49900884D01*
X52097403Y-49887375D01*
X52030624Y-49869087D01*
X52015224Y-49871028D01*
X52000000Y-49868000D01*
X46717352Y-49868000D01*
X46909699Y-49788327D01*
X47088327Y-49609698D01*
X47185000Y-49376309D01*
X47185000Y-49035750D01*
X47026250Y-48877000D01*
X45877000Y-48877000D01*
X45877000Y-48897000D01*
X45623000Y-48897000D01*
X45623000Y-48877000D01*
X43877000Y-48877000D01*
X43877000Y-49626250D01*
X44035750Y-49785000D01*
X44251310Y-49785000D01*
X44484699Y-49688327D01*
X44487500Y-49685526D01*
X44590301Y-49788327D01*
X44782648Y-49868000D01*
X29367352Y-49868000D01*
X29559699Y-49788327D01*
X29736139Y-49611886D01*
X29870000Y-49638994D01*
X30930000Y-49638994D01*
X31062296Y-49614101D01*
X31183802Y-49535914D01*
X31265316Y-49416614D01*
X31293994Y-49275000D01*
X31293994Y-49190290D01*
X31376852Y-49273148D01*
X31525114Y-49372213D01*
X31700000Y-49407000D01*
X31730843Y-49407000D01*
X31730899Y-49407296D01*
X31809086Y-49528802D01*
X31928386Y-49610316D01*
X32070000Y-49638994D01*
X33130000Y-49638994D01*
X33262296Y-49614101D01*
X33383802Y-49535914D01*
X33465316Y-49416614D01*
X33493994Y-49275000D01*
X33493994Y-48859031D01*
X33668327Y-48684699D01*
X33765000Y-48451310D01*
X33765000Y-48285750D01*
X33606250Y-48127000D01*
X32727000Y-48127000D01*
X32727000Y-48147000D01*
X32473000Y-48147000D01*
X32473000Y-48127000D01*
X32453000Y-48127000D01*
X32453000Y-48035750D01*
X33849000Y-48035750D01*
X33849000Y-48892310D01*
X33945673Y-49125699D01*
X34124302Y-49304327D01*
X34357691Y-49401000D01*
X35214250Y-49401000D01*
X35373000Y-49242250D01*
X35373000Y-47877000D01*
X34007750Y-47877000D01*
X33849000Y-48035750D01*
X32453000Y-48035750D01*
X32453000Y-47873000D01*
X32473000Y-47873000D01*
X32473000Y-47853000D01*
X32727000Y-47853000D01*
X32727000Y-47873000D01*
X33606250Y-47873000D01*
X33765000Y-47714250D01*
X33765000Y-47548690D01*
X33668327Y-47315301D01*
X33493994Y-47140969D01*
X33493994Y-47085144D01*
X33849000Y-46730138D01*
X33849000Y-47464250D01*
X34007750Y-47623000D01*
X35373000Y-47623000D01*
X35373000Y-47603000D01*
X35627000Y-47603000D01*
X35627000Y-47623000D01*
X36992250Y-47623000D01*
X37151000Y-47464250D01*
X37151000Y-47330138D01*
X37261006Y-47440144D01*
X37261006Y-47650000D01*
X37285899Y-47782296D01*
X37296490Y-47798754D01*
X37265301Y-47811673D01*
X37096112Y-47980862D01*
X36992250Y-47877000D01*
X35627000Y-47877000D01*
X35627000Y-49242250D01*
X35785750Y-49401000D01*
X36642309Y-49401000D01*
X36875698Y-49304327D01*
X36990000Y-49190026D01*
X36990000Y-49276309D01*
X37086673Y-49509698D01*
X37265301Y-49688327D01*
X37498690Y-49785000D01*
X37714250Y-49785000D01*
X37873000Y-49626250D01*
X37873000Y-48877000D01*
X37853000Y-48877000D01*
X37853000Y-48623000D01*
X37873000Y-48623000D01*
X37873000Y-48603000D01*
X38127000Y-48603000D01*
X38127000Y-48623000D01*
X38147000Y-48623000D01*
X38147000Y-48877000D01*
X38127000Y-48877000D01*
X38127000Y-49626250D01*
X38285750Y-49785000D01*
X38501310Y-49785000D01*
X38734699Y-49688327D01*
X38913327Y-49509698D01*
X39007423Y-49282531D01*
X39030899Y-49407296D01*
X39109086Y-49528802D01*
X39228386Y-49610316D01*
X39370000Y-49638994D01*
X40430000Y-49638994D01*
X40562296Y-49614101D01*
X40642075Y-49562765D01*
X40868741Y-49656885D01*
X41130112Y-49657113D01*
X41358664Y-49562677D01*
X41428386Y-49610316D01*
X41570000Y-49638994D01*
X42630000Y-49638994D01*
X42762296Y-49614101D01*
X42871077Y-49544102D01*
X43015301Y-49688327D01*
X43248690Y-49785000D01*
X43464250Y-49785000D01*
X43623000Y-49626250D01*
X43623000Y-48877000D01*
X43603000Y-48877000D01*
X43603000Y-48623000D01*
X43623000Y-48623000D01*
X43623000Y-48603000D01*
X43877000Y-48603000D01*
X43877000Y-48623000D01*
X45623000Y-48623000D01*
X45623000Y-47773750D01*
X45877000Y-47773750D01*
X45877000Y-48623000D01*
X47026250Y-48623000D01*
X47185000Y-48464250D01*
X47185000Y-48400000D01*
X47543000Y-48400000D01*
X47593011Y-48651423D01*
X47735431Y-48864569D01*
X47948577Y-49006989D01*
X48200000Y-49057000D01*
X48700000Y-49057000D01*
X48951423Y-49006989D01*
X49164569Y-48864569D01*
X49264569Y-48764569D01*
X49406989Y-48551423D01*
X49457000Y-48300000D01*
X49406989Y-48048577D01*
X49264569Y-47835431D01*
X49051423Y-47693011D01*
X48800000Y-47643000D01*
X48548577Y-47693011D01*
X48473763Y-47743000D01*
X48200000Y-47743000D01*
X47948577Y-47793011D01*
X47735431Y-47935431D01*
X47593011Y-48148577D01*
X47543000Y-48400000D01*
X47185000Y-48400000D01*
X47185000Y-48123691D01*
X47088327Y-47890302D01*
X46909699Y-47711673D01*
X46676310Y-47615000D01*
X46035750Y-47615000D01*
X45877000Y-47773750D01*
X45623000Y-47773750D01*
X45464250Y-47615000D01*
X44823690Y-47615000D01*
X44590301Y-47711673D01*
X44487500Y-47814474D01*
X44484699Y-47811673D01*
X44455012Y-47799376D01*
X44460316Y-47791614D01*
X44488994Y-47650000D01*
X44488994Y-47440144D01*
X45315144Y-46613994D01*
X46550000Y-46613994D01*
X46682296Y-46589101D01*
X46803802Y-46510914D01*
X46885316Y-46391614D01*
X46913994Y-46250000D01*
X46913994Y-45250000D01*
X46889101Y-45117704D01*
X46810914Y-44996198D01*
X46691614Y-44914684D01*
X46550000Y-44886006D01*
X45815144Y-44886006D01*
X44383696Y-43454558D01*
X44383696Y-42879994D01*
X44742696Y-42879994D01*
X44874992Y-42855101D01*
X44996498Y-42776914D01*
X45078012Y-42657614D01*
X45106690Y-42516000D01*
X45106690Y-42214677D01*
X45295838Y-42497757D01*
X45741272Y-42795386D01*
X46266696Y-42899899D01*
X46792120Y-42795386D01*
X47237554Y-42497757D01*
X47535183Y-42052323D01*
X47639696Y-41526899D01*
X47639696Y-41473101D01*
X47535183Y-40947677D01*
X47237554Y-40502243D01*
X46792120Y-40204614D01*
X46266696Y-40100101D01*
X45741272Y-40204614D01*
X45295838Y-40502243D01*
X45106690Y-40785323D01*
X45106690Y-40484000D01*
X45081797Y-40351704D01*
X45003610Y-40230198D01*
X44884310Y-40148684D01*
X44742696Y-40120006D01*
X44258696Y-40120006D01*
X44258696Y-37644664D01*
X44365000Y-37538360D01*
X44365000Y-37726310D01*
X44461673Y-37959699D01*
X44640302Y-38138327D01*
X44873691Y-38235000D01*
X45014250Y-38235000D01*
X45173000Y-38076250D01*
X45173000Y-37277000D01*
X45153000Y-37277000D01*
X45153000Y-37023000D01*
X45173000Y-37023000D01*
X45173000Y-37003000D01*
X45427000Y-37003000D01*
X45427000Y-37023000D01*
X45447000Y-37023000D01*
X45447000Y-37277000D01*
X45427000Y-37277000D01*
X45427000Y-38076250D01*
X45585750Y-38235000D01*
X45644907Y-38235000D01*
X45742698Y-38471674D01*
X45927354Y-38656652D01*
X46168741Y-38756885D01*
X46430112Y-38757113D01*
X46671674Y-38657302D01*
X46856652Y-38472646D01*
X46955332Y-38235000D01*
X47014250Y-38235000D01*
X47173000Y-38076250D01*
X47173000Y-37277000D01*
X47153000Y-37277000D01*
X47153000Y-37023000D01*
X47173000Y-37023000D01*
X47173000Y-37003000D01*
X47427000Y-37003000D01*
X47427000Y-37023000D01*
X47447000Y-37023000D01*
X47447000Y-37277000D01*
X47427000Y-37277000D01*
X47427000Y-38076250D01*
X47585750Y-38235000D01*
X47726309Y-38235000D01*
X47959698Y-38138327D01*
X48134032Y-37963994D01*
X48465968Y-37963994D01*
X48640302Y-38138327D01*
X48873691Y-38235000D01*
X49014250Y-38235000D01*
X49173000Y-38076250D01*
X49173000Y-37277000D01*
X49427000Y-37277000D01*
X49427000Y-38076250D01*
X49585750Y-38235000D01*
X49726309Y-38235000D01*
X49959698Y-38138327D01*
X50138327Y-37959699D01*
X50235000Y-37726310D01*
X50235000Y-37435750D01*
X50076250Y-37277000D01*
X49427000Y-37277000D01*
X49173000Y-37277000D01*
X49153000Y-37277000D01*
X49153000Y-37023000D01*
X49173000Y-37023000D01*
X49173000Y-37003000D01*
X49427000Y-37003000D01*
X49427000Y-37023000D01*
X50076250Y-37023000D01*
X50235000Y-36864250D01*
X50235000Y-36635750D01*
X50290000Y-36635750D01*
X50290000Y-36876309D01*
X50386673Y-37109698D01*
X50565301Y-37288327D01*
X50798690Y-37385000D01*
X51014250Y-37385000D01*
X51173000Y-37226250D01*
X51173000Y-36477000D01*
X50448750Y-36477000D01*
X50290000Y-36635750D01*
X50235000Y-36635750D01*
X50235000Y-36573690D01*
X50138327Y-36340301D01*
X49959698Y-36161673D01*
X49727825Y-36065628D01*
X50291378Y-36065628D01*
X50448750Y-36223000D01*
X51173000Y-36223000D01*
X51173000Y-36203000D01*
X51427000Y-36203000D01*
X51427000Y-36223000D01*
X51447000Y-36223000D01*
X51447000Y-36477000D01*
X51427000Y-36477000D01*
X51427000Y-37226250D01*
X51585750Y-37385000D01*
X51801310Y-37385000D01*
X52034699Y-37288327D01*
X52213327Y-37109698D01*
X52310000Y-36876309D01*
X52310000Y-36808601D01*
X52339086Y-36853802D01*
X52458386Y-36935316D01*
X52600000Y-36963994D01*
X53500000Y-36963994D01*
X53632296Y-36939101D01*
X53753802Y-36860914D01*
X53835316Y-36741614D01*
X53863994Y-36600000D01*
X53863994Y-36100000D01*
X53839101Y-35967704D01*
X53760914Y-35846198D01*
X53641614Y-35764684D01*
X53500000Y-35736006D01*
X52882302Y-35736006D01*
X52610290Y-35463994D01*
X53500000Y-35463994D01*
X53632296Y-35439101D01*
X53753802Y-35360914D01*
X53835316Y-35241614D01*
X53863994Y-35100000D01*
X53863994Y-34600000D01*
X53839101Y-34467704D01*
X53760914Y-34346198D01*
X53641614Y-34264684D01*
X53500000Y-34236006D01*
X52600000Y-34236006D01*
X52467704Y-34260899D01*
X52378967Y-34318000D01*
X52014157Y-34318000D01*
X52014101Y-34317704D01*
X51935914Y-34196198D01*
X51816614Y-34114684D01*
X51675000Y-34086006D01*
X50925000Y-34086006D01*
X50792704Y-34110899D01*
X50671198Y-34189086D01*
X50668524Y-34193000D01*
X50372138Y-34193000D01*
X49963994Y-33784856D01*
X49963994Y-33600000D01*
X49939101Y-33467704D01*
X49860914Y-33346198D01*
X49832000Y-33326442D01*
X49832000Y-33250005D01*
X49832001Y-33250000D01*
X49791505Y-33046413D01*
X49676181Y-32873819D01*
X47502362Y-30700000D01*
X50896883Y-27305479D01*
X50926660Y-27260914D01*
X51012206Y-27132886D01*
X51052702Y-26929298D01*
X51052702Y-24571402D01*
X51149504Y-24509112D01*
X51231018Y-24389812D01*
X51243090Y-24330198D01*
X51547137Y-24330198D01*
X51556601Y-24380494D01*
X51634788Y-24502000D01*
X51754088Y-24583514D01*
X51895702Y-24612192D01*
X52645702Y-24612192D01*
X52777998Y-24587299D01*
X52899504Y-24509112D01*
X52981018Y-24389812D01*
X53009696Y-24248198D01*
X53009696Y-23448198D01*
X52984803Y-23315902D01*
X52974212Y-23299444D01*
X53005401Y-23286525D01*
X53184029Y-23107896D01*
X53280702Y-22874507D01*
X53280702Y-22633948D01*
X53121952Y-22475198D01*
X52397702Y-22475198D01*
X52397702Y-22495198D01*
X52143702Y-22495198D01*
X52143702Y-22475198D01*
X51419452Y-22475198D01*
X51395702Y-22498948D01*
X51371952Y-22475198D01*
X50647702Y-22475198D01*
X50647702Y-22495198D01*
X50393702Y-22495198D01*
X50393702Y-22475198D01*
X50373702Y-22475198D01*
X50373702Y-22221198D01*
X50393702Y-22221198D01*
X50393702Y-21471948D01*
X50647702Y-21471948D01*
X50647702Y-22221198D01*
X51371952Y-22221198D01*
X51395702Y-22197448D01*
X51419452Y-22221198D01*
X52143702Y-22221198D01*
X52143702Y-21471948D01*
X52397702Y-21471948D01*
X52397702Y-22221198D01*
X53121952Y-22221198D01*
X53280702Y-22062448D01*
X53280702Y-21821889D01*
X53184029Y-21588500D01*
X53005401Y-21409871D01*
X52772012Y-21313198D01*
X52556452Y-21313198D01*
X52397702Y-21471948D01*
X52143702Y-21471948D01*
X51984952Y-21313198D01*
X51769392Y-21313198D01*
X51536003Y-21409871D01*
X51395702Y-21550173D01*
X51255401Y-21409871D01*
X51022012Y-21313198D01*
X50806452Y-21313198D01*
X50647702Y-21471948D01*
X50393702Y-21471948D01*
X50234952Y-21313198D01*
X50019392Y-21313198D01*
X49786003Y-21409871D01*
X49695702Y-21500173D01*
X49655400Y-21459871D01*
X49422011Y-21363198D01*
X49306452Y-21363198D01*
X49147702Y-21521948D01*
X49147702Y-22034204D01*
X48971171Y-22034204D01*
X48958356Y-22003266D01*
X48984696Y-21873198D01*
X48984696Y-21323198D01*
X48959803Y-21190902D01*
X48881616Y-21069396D01*
X48771817Y-20994374D01*
X48759029Y-20963500D01*
X48580401Y-20784871D01*
X48347012Y-20688198D01*
X48329452Y-20688198D01*
X48170702Y-20846948D01*
X48170702Y-21059837D01*
X48166900Y-21062284D01*
X48120622Y-21130014D01*
X48081616Y-21069396D01*
X48070702Y-21061939D01*
X48070702Y-20846948D01*
X47911952Y-20688198D01*
X47894392Y-20688198D01*
X47661003Y-20784871D01*
X47482375Y-20963500D01*
X47479244Y-20971059D01*
X47420702Y-20959204D01*
X47375925Y-20959204D01*
X47342915Y-20793254D01*
X47314014Y-20750000D01*
X47243850Y-20644992D01*
X47243847Y-20644990D01*
X46930858Y-20332000D01*
X52000000Y-20332000D01*
X52015224Y-20328972D01*
X52030624Y-20330913D01*
X52097403Y-20312625D01*
X52165319Y-20299116D01*
X52178227Y-20290491D01*
X52193196Y-20286392D01*
X52247894Y-20243941D01*
X52305470Y-20205470D01*
X52314094Y-20192564D01*
X52326356Y-20183047D01*
X52360646Y-20122893D01*
X52399116Y-20065319D01*
X52402144Y-20050094D01*
X52409831Y-20036610D01*
X52418491Y-19967915D01*
X52432000Y-19900000D01*
X52428972Y-19884776D01*
X52430913Y-19869376D01*
X52412625Y-19802597D01*
X52399116Y-19734681D01*
X52390491Y-19721773D01*
X52386392Y-19706804D01*
X51486393Y-17906804D01*
X51443938Y-17852101D01*
X51405470Y-17794530D01*
X51392564Y-17785906D01*
X51383047Y-17773644D01*
X51322893Y-17739354D01*
X51265319Y-17700884D01*
X51250094Y-17697856D01*
X51236610Y-17690169D01*
X51167915Y-17681509D01*
X51100000Y-17668000D01*
X23900000Y-17668000D01*
X23832085Y-17681509D01*
X23763390Y-17690169D01*
X23749906Y-17697856D01*
X23734681Y-17700884D01*
X23677107Y-17739354D01*
X23616953Y-17773644D01*
X23607436Y-17785906D01*
X23594530Y-17794530D01*
X23556062Y-17852101D01*
X23513607Y-17906804D01*
X22613607Y-19706804D01*
X22609507Y-19721776D01*
X22600884Y-19734681D01*
X22593262Y-19773000D01*
X20546491Y-19773000D01*
X22266991Y-16332000D01*
X52733009Y-16332000D01*
X54568000Y-20001982D01*
G36*
X28877000Y-48875000D02*
X28897000Y-48875000D01*
X28897000Y-49125000D01*
X28877000Y-49125000D01*
X28877000Y-49147000D01*
X28623000Y-49147000D01*
X28623000Y-49125000D01*
X28603000Y-49125000D01*
X28603000Y-48875000D01*
X28623000Y-48875000D01*
X28623000Y-48853000D01*
X28877000Y-48853000D01*
X28877000Y-48875000D01*
X28877000Y-48875000D01*
G37*
X28877000Y-48875000D02*
X28897000Y-48875000D01*
X28897000Y-49125000D01*
X28877000Y-49125000D01*
X28877000Y-49147000D01*
X28623000Y-49147000D01*
X28623000Y-49125000D01*
X28603000Y-49125000D01*
X28603000Y-48875000D01*
X28623000Y-48875000D01*
X28623000Y-48853000D01*
X28877000Y-48853000D01*
X28877000Y-48875000D01*
G36*
X42122999Y-33879999D02*
X42157786Y-34054886D01*
X42256851Y-34203147D01*
X43143010Y-35089306D01*
X43142887Y-35230112D01*
X43242698Y-35471674D01*
X43427354Y-35656652D01*
X43668741Y-35756885D01*
X43810713Y-35757009D01*
X43896853Y-35843149D01*
X44045114Y-35942214D01*
X44220001Y-35977001D01*
X44421635Y-35977001D01*
X43350515Y-37048121D01*
X43235192Y-37220714D01*
X43194696Y-37424302D01*
X43194696Y-40120006D01*
X42710696Y-40120006D01*
X42578400Y-40144899D01*
X42456894Y-40223086D01*
X42375380Y-40342386D01*
X42346702Y-40484000D01*
X42346702Y-42516000D01*
X42371595Y-42648296D01*
X42449782Y-42769802D01*
X42569082Y-42851316D01*
X42710696Y-42879994D01*
X43069696Y-42879994D01*
X43069696Y-43726696D01*
X43119707Y-43978119D01*
X43207428Y-44109403D01*
X43109698Y-44011673D01*
X42876309Y-43915000D01*
X42783750Y-43915000D01*
X42625000Y-44073750D01*
X42625000Y-44873000D01*
X43226250Y-44873000D01*
X43385000Y-44714250D01*
X43385000Y-44423690D01*
X43307535Y-44236673D01*
X44570862Y-45500000D01*
X43656648Y-46414214D01*
X43550000Y-46393000D01*
X42776467Y-46393000D01*
X42771614Y-46389684D01*
X42630000Y-46361006D01*
X41570000Y-46361006D01*
X41437704Y-46385899D01*
X41316198Y-46464086D01*
X41234684Y-46583386D01*
X41206006Y-46725000D01*
X41206006Y-47375000D01*
X41230899Y-47507296D01*
X41309086Y-47628802D01*
X41428386Y-47710316D01*
X41570000Y-47738994D01*
X42630000Y-47738994D01*
X42762296Y-47714101D01*
X42773331Y-47707000D01*
X43021731Y-47707000D01*
X43035899Y-47782296D01*
X43046490Y-47798754D01*
X43015301Y-47811673D01*
X42836673Y-47990302D01*
X42740000Y-48223691D01*
X42740000Y-48283282D01*
X42630000Y-48261006D01*
X41570000Y-48261006D01*
X41437704Y-48285899D01*
X41316198Y-48364086D01*
X41286486Y-48407571D01*
X41131259Y-48343115D01*
X41065000Y-48343057D01*
X41065000Y-48285750D01*
X40906250Y-48127000D01*
X40027000Y-48127000D01*
X40027000Y-48147000D01*
X39773000Y-48147000D01*
X39773000Y-48127000D01*
X39753000Y-48127000D01*
X39753000Y-47873000D01*
X39773000Y-47873000D01*
X39773000Y-47853000D01*
X40027000Y-47853000D01*
X40027000Y-47873000D01*
X40906250Y-47873000D01*
X41065000Y-47714250D01*
X41065000Y-47548690D01*
X40968327Y-47315301D01*
X40793994Y-47140969D01*
X40793994Y-46725000D01*
X40769101Y-46592704D01*
X40690914Y-46471198D01*
X40571614Y-46389684D01*
X40430000Y-46361006D01*
X39370000Y-46361006D01*
X39237704Y-46385899D01*
X39226669Y-46393000D01*
X38200000Y-46393000D01*
X38093352Y-46414214D01*
X37546138Y-45867000D01*
X37790000Y-45867000D01*
X38041423Y-45816989D01*
X38045905Y-45813994D01*
X38250000Y-45813994D01*
X38382296Y-45789101D01*
X38503802Y-45710914D01*
X38585316Y-45591614D01*
X38613994Y-45450000D01*
X38613994Y-45216206D01*
X38657000Y-45000000D01*
X38613994Y-44783794D01*
X38613994Y-44550000D01*
X38589101Y-44417704D01*
X38510914Y-44296198D01*
X38391614Y-44214684D01*
X38250000Y-44186006D01*
X37750000Y-44186006D01*
X37617704Y-44210899D01*
X37496198Y-44289086D01*
X37414684Y-44408386D01*
X37386006Y-44550000D01*
X37386006Y-44553000D01*
X36707470Y-44553000D01*
X36497757Y-44239142D01*
X36052323Y-43941513D01*
X35995007Y-43930112D01*
X38842887Y-43930112D01*
X38942698Y-44171674D01*
X39034988Y-44264125D01*
X38996198Y-44289086D01*
X38914684Y-44408386D01*
X38886006Y-44550000D01*
X38886006Y-45450000D01*
X38910899Y-45582296D01*
X38989086Y-45703802D01*
X39108386Y-45785316D01*
X39250000Y-45813994D01*
X39750000Y-45813994D01*
X39882296Y-45789101D01*
X40003802Y-45710914D01*
X40085316Y-45591614D01*
X40102451Y-45507000D01*
X40396731Y-45507000D01*
X40410899Y-45582296D01*
X40489086Y-45703802D01*
X40608386Y-45785316D01*
X40750000Y-45813994D01*
X41250000Y-45813994D01*
X41382296Y-45789101D01*
X41503802Y-45710914D01*
X41585316Y-45591614D01*
X41613994Y-45450000D01*
X41613994Y-45285750D01*
X41615000Y-45285750D01*
X41615000Y-45576310D01*
X41711673Y-45809699D01*
X41890302Y-45988327D01*
X42123691Y-46085000D01*
X42216250Y-46085000D01*
X42375000Y-45926250D01*
X42375000Y-45127000D01*
X42625000Y-45127000D01*
X42625000Y-45926250D01*
X42783750Y-46085000D01*
X42876309Y-46085000D01*
X43109698Y-45988327D01*
X43288327Y-45809699D01*
X43385000Y-45576310D01*
X43385000Y-45285750D01*
X43226250Y-45127000D01*
X42625000Y-45127000D01*
X42375000Y-45127000D01*
X41773750Y-45127000D01*
X41615000Y-45285750D01*
X41613994Y-45285750D01*
X41613994Y-44550000D01*
X41590228Y-44423690D01*
X41615000Y-44423690D01*
X41615000Y-44714250D01*
X41773750Y-44873000D01*
X42375000Y-44873000D01*
X42375000Y-44073750D01*
X42216250Y-43915000D01*
X42123691Y-43915000D01*
X41890302Y-44011673D01*
X41711673Y-44190301D01*
X41615000Y-44423690D01*
X41590228Y-44423690D01*
X41589101Y-44417704D01*
X41510914Y-44296198D01*
X41391614Y-44214684D01*
X41250000Y-44186006D01*
X40750000Y-44186006D01*
X40617704Y-44210899D01*
X40496198Y-44289086D01*
X40414684Y-44408386D01*
X40397549Y-44493000D01*
X40103269Y-44493000D01*
X40089101Y-44417704D01*
X40010914Y-44296198D01*
X39964591Y-44264547D01*
X40056652Y-44172646D01*
X40156885Y-43931259D01*
X40157113Y-43669888D01*
X40057302Y-43428326D01*
X39872646Y-43243348D01*
X39631259Y-43143115D01*
X39369888Y-43142887D01*
X39128326Y-43242698D01*
X38943348Y-43427354D01*
X38843115Y-43668741D01*
X38842887Y-43930112D01*
X35995007Y-43930112D01*
X35526899Y-43837000D01*
X35473101Y-43837000D01*
X34947677Y-43941513D01*
X34502243Y-44239142D01*
X34269926Y-44586830D01*
X34188577Y-44603011D01*
X33975431Y-44745431D01*
X32359856Y-46361006D01*
X32070000Y-46361006D01*
X31965657Y-46380639D01*
X34523148Y-43823148D01*
X34622213Y-43674886D01*
X34657001Y-43500000D01*
X34657000Y-43499995D01*
X34657000Y-40772125D01*
X34756652Y-40672646D01*
X34856885Y-40431259D01*
X34857113Y-40169888D01*
X34757302Y-39928326D01*
X34602970Y-39773724D01*
X36532087Y-37844607D01*
X36436109Y-38075747D01*
X36435881Y-38337118D01*
X36535692Y-38578680D01*
X36720348Y-38763658D01*
X36961735Y-38863891D01*
X37223106Y-38864119D01*
X37464668Y-38764308D01*
X37649646Y-38579652D01*
X37749879Y-38338265D01*
X37750003Y-38196293D01*
X39196666Y-36749629D01*
X39196669Y-36749627D01*
X39226440Y-36705071D01*
X39245195Y-36697322D01*
X39430173Y-36512666D01*
X39530406Y-36271279D01*
X39530634Y-36009908D01*
X39430823Y-35768346D01*
X39246167Y-35583368D01*
X39004780Y-35483135D01*
X38893656Y-35483038D01*
X42122999Y-32253695D01*
X42122999Y-33879999D01*
X42122999Y-33879999D01*
G37*
X42122999Y-33879999D02*
X42157786Y-34054886D01*
X42256851Y-34203147D01*
X43143010Y-35089306D01*
X43142887Y-35230112D01*
X43242698Y-35471674D01*
X43427354Y-35656652D01*
X43668741Y-35756885D01*
X43810713Y-35757009D01*
X43896853Y-35843149D01*
X44045114Y-35942214D01*
X44220001Y-35977001D01*
X44421635Y-35977001D01*
X43350515Y-37048121D01*
X43235192Y-37220714D01*
X43194696Y-37424302D01*
X43194696Y-40120006D01*
X42710696Y-40120006D01*
X42578400Y-40144899D01*
X42456894Y-40223086D01*
X42375380Y-40342386D01*
X42346702Y-40484000D01*
X42346702Y-42516000D01*
X42371595Y-42648296D01*
X42449782Y-42769802D01*
X42569082Y-42851316D01*
X42710696Y-42879994D01*
X43069696Y-42879994D01*
X43069696Y-43726696D01*
X43119707Y-43978119D01*
X43207428Y-44109403D01*
X43109698Y-44011673D01*
X42876309Y-43915000D01*
X42783750Y-43915000D01*
X42625000Y-44073750D01*
X42625000Y-44873000D01*
X43226250Y-44873000D01*
X43385000Y-44714250D01*
X43385000Y-44423690D01*
X43307535Y-44236673D01*
X44570862Y-45500000D01*
X43656648Y-46414214D01*
X43550000Y-46393000D01*
X42776467Y-46393000D01*
X42771614Y-46389684D01*
X42630000Y-46361006D01*
X41570000Y-46361006D01*
X41437704Y-46385899D01*
X41316198Y-46464086D01*
X41234684Y-46583386D01*
X41206006Y-46725000D01*
X41206006Y-47375000D01*
X41230899Y-47507296D01*
X41309086Y-47628802D01*
X41428386Y-47710316D01*
X41570000Y-47738994D01*
X42630000Y-47738994D01*
X42762296Y-47714101D01*
X42773331Y-47707000D01*
X43021731Y-47707000D01*
X43035899Y-47782296D01*
X43046490Y-47798754D01*
X43015301Y-47811673D01*
X42836673Y-47990302D01*
X42740000Y-48223691D01*
X42740000Y-48283282D01*
X42630000Y-48261006D01*
X41570000Y-48261006D01*
X41437704Y-48285899D01*
X41316198Y-48364086D01*
X41286486Y-48407571D01*
X41131259Y-48343115D01*
X41065000Y-48343057D01*
X41065000Y-48285750D01*
X40906250Y-48127000D01*
X40027000Y-48127000D01*
X40027000Y-48147000D01*
X39773000Y-48147000D01*
X39773000Y-48127000D01*
X39753000Y-48127000D01*
X39753000Y-47873000D01*
X39773000Y-47873000D01*
X39773000Y-47853000D01*
X40027000Y-47853000D01*
X40027000Y-47873000D01*
X40906250Y-47873000D01*
X41065000Y-47714250D01*
X41065000Y-47548690D01*
X40968327Y-47315301D01*
X40793994Y-47140969D01*
X40793994Y-46725000D01*
X40769101Y-46592704D01*
X40690914Y-46471198D01*
X40571614Y-46389684D01*
X40430000Y-46361006D01*
X39370000Y-46361006D01*
X39237704Y-46385899D01*
X39226669Y-46393000D01*
X38200000Y-46393000D01*
X38093352Y-46414214D01*
X37546138Y-45867000D01*
X37790000Y-45867000D01*
X38041423Y-45816989D01*
X38045905Y-45813994D01*
X38250000Y-45813994D01*
X38382296Y-45789101D01*
X38503802Y-45710914D01*
X38585316Y-45591614D01*
X38613994Y-45450000D01*
X38613994Y-45216206D01*
X38657000Y-45000000D01*
X38613994Y-44783794D01*
X38613994Y-44550000D01*
X38589101Y-44417704D01*
X38510914Y-44296198D01*
X38391614Y-44214684D01*
X38250000Y-44186006D01*
X37750000Y-44186006D01*
X37617704Y-44210899D01*
X37496198Y-44289086D01*
X37414684Y-44408386D01*
X37386006Y-44550000D01*
X37386006Y-44553000D01*
X36707470Y-44553000D01*
X36497757Y-44239142D01*
X36052323Y-43941513D01*
X35995007Y-43930112D01*
X38842887Y-43930112D01*
X38942698Y-44171674D01*
X39034988Y-44264125D01*
X38996198Y-44289086D01*
X38914684Y-44408386D01*
X38886006Y-44550000D01*
X38886006Y-45450000D01*
X38910899Y-45582296D01*
X38989086Y-45703802D01*
X39108386Y-45785316D01*
X39250000Y-45813994D01*
X39750000Y-45813994D01*
X39882296Y-45789101D01*
X40003802Y-45710914D01*
X40085316Y-45591614D01*
X40102451Y-45507000D01*
X40396731Y-45507000D01*
X40410899Y-45582296D01*
X40489086Y-45703802D01*
X40608386Y-45785316D01*
X40750000Y-45813994D01*
X41250000Y-45813994D01*
X41382296Y-45789101D01*
X41503802Y-45710914D01*
X41585316Y-45591614D01*
X41613994Y-45450000D01*
X41613994Y-45285750D01*
X41615000Y-45285750D01*
X41615000Y-45576310D01*
X41711673Y-45809699D01*
X41890302Y-45988327D01*
X42123691Y-46085000D01*
X42216250Y-46085000D01*
X42375000Y-45926250D01*
X42375000Y-45127000D01*
X42625000Y-45127000D01*
X42625000Y-45926250D01*
X42783750Y-46085000D01*
X42876309Y-46085000D01*
X43109698Y-45988327D01*
X43288327Y-45809699D01*
X43385000Y-45576310D01*
X43385000Y-45285750D01*
X43226250Y-45127000D01*
X42625000Y-45127000D01*
X42375000Y-45127000D01*
X41773750Y-45127000D01*
X41615000Y-45285750D01*
X41613994Y-45285750D01*
X41613994Y-44550000D01*
X41590228Y-44423690D01*
X41615000Y-44423690D01*
X41615000Y-44714250D01*
X41773750Y-44873000D01*
X42375000Y-44873000D01*
X42375000Y-44073750D01*
X42216250Y-43915000D01*
X42123691Y-43915000D01*
X41890302Y-44011673D01*
X41711673Y-44190301D01*
X41615000Y-44423690D01*
X41590228Y-44423690D01*
X41589101Y-44417704D01*
X41510914Y-44296198D01*
X41391614Y-44214684D01*
X41250000Y-44186006D01*
X40750000Y-44186006D01*
X40617704Y-44210899D01*
X40496198Y-44289086D01*
X40414684Y-44408386D01*
X40397549Y-44493000D01*
X40103269Y-44493000D01*
X40089101Y-44417704D01*
X40010914Y-44296198D01*
X39964591Y-44264547D01*
X40056652Y-44172646D01*
X40156885Y-43931259D01*
X40157113Y-43669888D01*
X40057302Y-43428326D01*
X39872646Y-43243348D01*
X39631259Y-43143115D01*
X39369888Y-43142887D01*
X39128326Y-43242698D01*
X38943348Y-43427354D01*
X38843115Y-43668741D01*
X38842887Y-43930112D01*
X35995007Y-43930112D01*
X35526899Y-43837000D01*
X35473101Y-43837000D01*
X34947677Y-43941513D01*
X34502243Y-44239142D01*
X34269926Y-44586830D01*
X34188577Y-44603011D01*
X33975431Y-44745431D01*
X32359856Y-46361006D01*
X32070000Y-46361006D01*
X31965657Y-46380639D01*
X34523148Y-43823148D01*
X34622213Y-43674886D01*
X34657001Y-43500000D01*
X34657000Y-43499995D01*
X34657000Y-40772125D01*
X34756652Y-40672646D01*
X34856885Y-40431259D01*
X34857113Y-40169888D01*
X34757302Y-39928326D01*
X34602970Y-39773724D01*
X36532087Y-37844607D01*
X36436109Y-38075747D01*
X36435881Y-38337118D01*
X36535692Y-38578680D01*
X36720348Y-38763658D01*
X36961735Y-38863891D01*
X37223106Y-38864119D01*
X37464668Y-38764308D01*
X37649646Y-38579652D01*
X37749879Y-38338265D01*
X37750003Y-38196293D01*
X39196666Y-36749629D01*
X39196669Y-36749627D01*
X39226440Y-36705071D01*
X39245195Y-36697322D01*
X39430173Y-36512666D01*
X39530406Y-36271279D01*
X39530634Y-36009908D01*
X39430823Y-35768346D01*
X39246167Y-35583368D01*
X39004780Y-35483135D01*
X38893656Y-35483038D01*
X42122999Y-32253695D01*
X42122999Y-33879999D01*
G36*
X33022877Y-40939230D02*
X33122688Y-41180792D01*
X33307344Y-41365770D01*
X33548731Y-41466003D01*
X33743000Y-41466172D01*
X33743000Y-43310704D01*
X31176852Y-45876852D01*
X31077787Y-46025113D01*
X31077787Y-46025114D01*
X31043000Y-46200000D01*
X31043000Y-46383889D01*
X30930000Y-46361006D01*
X30640144Y-46361006D01*
X29613994Y-45334856D01*
X29613994Y-44875000D01*
X29589101Y-44742704D01*
X29515905Y-44628954D01*
X29734699Y-44538327D01*
X29913327Y-44359698D01*
X29914637Y-44356536D01*
X30004590Y-44339610D01*
X30125000Y-44363994D01*
X30375000Y-44363994D01*
X30504590Y-44339610D01*
X30585106Y-44355915D01*
X30586673Y-44359698D01*
X30765301Y-44538327D01*
X30998690Y-44635000D01*
X31028750Y-44635000D01*
X31187500Y-44476250D01*
X31187500Y-44175006D01*
X31210316Y-44141614D01*
X31238994Y-44000000D01*
X31238994Y-43777000D01*
X31312500Y-43777000D01*
X31312500Y-44476250D01*
X31471250Y-44635000D01*
X31501310Y-44635000D01*
X31734699Y-44538327D01*
X31913327Y-44359698D01*
X32010000Y-44126309D01*
X32010000Y-43935750D01*
X31851250Y-43777000D01*
X31312500Y-43777000D01*
X31238994Y-43777000D01*
X31238994Y-43610000D01*
X31351310Y-43610000D01*
X31561346Y-43523000D01*
X31851250Y-43523000D01*
X31885256Y-43488994D01*
X32250000Y-43488994D01*
X32382296Y-43464101D01*
X32503802Y-43385914D01*
X32585316Y-43266614D01*
X32605915Y-43164894D01*
X32609698Y-43163327D01*
X32788327Y-42984699D01*
X32885000Y-42751310D01*
X32885000Y-42721250D01*
X32726250Y-42562500D01*
X32425006Y-42562500D01*
X32391614Y-42539684D01*
X32250000Y-42511006D01*
X31860000Y-42511006D01*
X31860000Y-42488994D01*
X32250000Y-42488994D01*
X32382296Y-42464101D01*
X32423635Y-42437500D01*
X32726250Y-42437500D01*
X32885000Y-42278750D01*
X32885000Y-42248690D01*
X32788327Y-42015301D01*
X32609698Y-41836673D01*
X32606536Y-41835363D01*
X32589610Y-41745410D01*
X32613994Y-41625000D01*
X32613994Y-41375000D01*
X32589610Y-41245410D01*
X32613994Y-41125000D01*
X32613994Y-40957000D01*
X32777836Y-40957000D01*
X32952723Y-40922213D01*
X33022933Y-40875300D01*
X33022877Y-40939230D01*
X33022877Y-40939230D01*
G37*
X33022877Y-40939230D02*
X33122688Y-41180792D01*
X33307344Y-41365770D01*
X33548731Y-41466003D01*
X33743000Y-41466172D01*
X33743000Y-43310704D01*
X31176852Y-45876852D01*
X31077787Y-46025113D01*
X31077787Y-46025114D01*
X31043000Y-46200000D01*
X31043000Y-46383889D01*
X30930000Y-46361006D01*
X30640144Y-46361006D01*
X29613994Y-45334856D01*
X29613994Y-44875000D01*
X29589101Y-44742704D01*
X29515905Y-44628954D01*
X29734699Y-44538327D01*
X29913327Y-44359698D01*
X29914637Y-44356536D01*
X30004590Y-44339610D01*
X30125000Y-44363994D01*
X30375000Y-44363994D01*
X30504590Y-44339610D01*
X30585106Y-44355915D01*
X30586673Y-44359698D01*
X30765301Y-44538327D01*
X30998690Y-44635000D01*
X31028750Y-44635000D01*
X31187500Y-44476250D01*
X31187500Y-44175006D01*
X31210316Y-44141614D01*
X31238994Y-44000000D01*
X31238994Y-43777000D01*
X31312500Y-43777000D01*
X31312500Y-44476250D01*
X31471250Y-44635000D01*
X31501310Y-44635000D01*
X31734699Y-44538327D01*
X31913327Y-44359698D01*
X32010000Y-44126309D01*
X32010000Y-43935750D01*
X31851250Y-43777000D01*
X31312500Y-43777000D01*
X31238994Y-43777000D01*
X31238994Y-43610000D01*
X31351310Y-43610000D01*
X31561346Y-43523000D01*
X31851250Y-43523000D01*
X31885256Y-43488994D01*
X32250000Y-43488994D01*
X32382296Y-43464101D01*
X32503802Y-43385914D01*
X32585316Y-43266614D01*
X32605915Y-43164894D01*
X32609698Y-43163327D01*
X32788327Y-42984699D01*
X32885000Y-42751310D01*
X32885000Y-42721250D01*
X32726250Y-42562500D01*
X32425006Y-42562500D01*
X32391614Y-42539684D01*
X32250000Y-42511006D01*
X31860000Y-42511006D01*
X31860000Y-42488994D01*
X32250000Y-42488994D01*
X32382296Y-42464101D01*
X32423635Y-42437500D01*
X32726250Y-42437500D01*
X32885000Y-42278750D01*
X32885000Y-42248690D01*
X32788327Y-42015301D01*
X32609698Y-41836673D01*
X32606536Y-41835363D01*
X32589610Y-41745410D01*
X32613994Y-41625000D01*
X32613994Y-41375000D01*
X32589610Y-41245410D01*
X32613994Y-41125000D01*
X32613994Y-40957000D01*
X32777836Y-40957000D01*
X32952723Y-40922213D01*
X33022933Y-40875300D01*
X33022877Y-40939230D01*
G36*
X29261006Y-43797000D02*
X29238994Y-43797000D01*
X29238994Y-43610000D01*
X29261006Y-43610000D01*
X29261006Y-43797000D01*
X29261006Y-43797000D01*
G37*
X29261006Y-43797000D02*
X29238994Y-43797000D01*
X29238994Y-43610000D01*
X29261006Y-43610000D01*
X29261006Y-43797000D01*
G36*
X28764500Y-40260500D02*
X30235500Y-40260500D01*
X30235500Y-40240500D01*
X30489500Y-40240500D01*
X30489500Y-40260500D01*
X30509500Y-40260500D01*
X30509500Y-40514500D01*
X30489500Y-40514500D01*
X30489500Y-41985500D01*
X30509500Y-41985500D01*
X30509500Y-42239500D01*
X30489500Y-42239500D01*
X30489500Y-42259500D01*
X30235500Y-42259500D01*
X30235500Y-42239500D01*
X28764500Y-42239500D01*
X28764500Y-42259500D01*
X28510500Y-42259500D01*
X28510500Y-42239500D01*
X28490500Y-42239500D01*
X28490500Y-41985500D01*
X28510500Y-41985500D01*
X28510500Y-40514500D01*
X28764500Y-40514500D01*
X28764500Y-41985500D01*
X30235500Y-41985500D01*
X30235500Y-40514500D01*
X28764500Y-40514500D01*
X28510500Y-40514500D01*
X28490500Y-40514500D01*
X28490500Y-40260500D01*
X28510500Y-40260500D01*
X28510500Y-40240500D01*
X28764500Y-40240500D01*
X28764500Y-40260500D01*
X28764500Y-40260500D01*
G37*
X28764500Y-40260500D02*
X30235500Y-40260500D01*
X30235500Y-40240500D01*
X30489500Y-40240500D01*
X30489500Y-40260500D01*
X30509500Y-40260500D01*
X30509500Y-40514500D01*
X30489500Y-40514500D01*
X30489500Y-41985500D01*
X30509500Y-41985500D01*
X30509500Y-42239500D01*
X30489500Y-42239500D01*
X30489500Y-42259500D01*
X30235500Y-42259500D01*
X30235500Y-42239500D01*
X28764500Y-42239500D01*
X28764500Y-42259500D01*
X28510500Y-42259500D01*
X28510500Y-42239500D01*
X28490500Y-42239500D01*
X28490500Y-41985500D01*
X28510500Y-41985500D01*
X28510500Y-40514500D01*
X28764500Y-40514500D01*
X28764500Y-41985500D01*
X30235500Y-41985500D01*
X30235500Y-40514500D01*
X28764500Y-40514500D01*
X28510500Y-40514500D01*
X28490500Y-40514500D01*
X28490500Y-40260500D01*
X28510500Y-40260500D01*
X28510500Y-40240500D01*
X28764500Y-40240500D01*
X28764500Y-40260500D01*
G36*
X24043000Y-30589296D02*
X24043000Y-35947298D01*
X24077787Y-36122185D01*
X24176852Y-36270446D01*
X25209584Y-37303178D01*
X25357846Y-37402243D01*
X25532732Y-37437031D01*
X25532737Y-37437030D01*
X26216674Y-37437030D01*
X24414333Y-39239371D01*
X24341614Y-39189684D01*
X24200000Y-39161006D01*
X23400000Y-39161006D01*
X23267704Y-39185899D01*
X23251246Y-39196490D01*
X23238327Y-39165301D01*
X23059698Y-38986673D01*
X22867282Y-38906972D01*
X23218250Y-38907278D01*
X23809103Y-38663143D01*
X24261554Y-38211481D01*
X24506720Y-37621054D01*
X24507278Y-36981750D01*
X24263143Y-36390897D01*
X23811481Y-35938446D01*
X23221054Y-35693280D01*
X22581750Y-35692722D01*
X21990897Y-35936857D01*
X21538446Y-36388519D01*
X21293280Y-36978946D01*
X21292722Y-37618250D01*
X21536857Y-38209103D01*
X21988519Y-38661554D01*
X22571939Y-38903811D01*
X22427000Y-39048750D01*
X22427000Y-39773000D01*
X22447000Y-39773000D01*
X22447000Y-40027000D01*
X22427000Y-40027000D01*
X22427000Y-40047000D01*
X22173000Y-40047000D01*
X22173000Y-40027000D01*
X21423750Y-40027000D01*
X21265000Y-40185750D01*
X21265000Y-40401310D01*
X21353886Y-40615900D01*
X21210540Y-40615900D01*
X20785862Y-40750898D01*
X20445172Y-41038137D01*
X20432000Y-41064963D01*
X20432000Y-39398690D01*
X21265000Y-39398690D01*
X21265000Y-39614250D01*
X21423750Y-39773000D01*
X22173000Y-39773000D01*
X22173000Y-39048750D01*
X22014250Y-38890000D01*
X21773691Y-38890000D01*
X21540302Y-38986673D01*
X21361673Y-39165301D01*
X21265000Y-39398690D01*
X20432000Y-39398690D01*
X20432000Y-32727000D01*
X23900000Y-32727000D01*
X23949410Y-32716994D01*
X23991035Y-32688553D01*
X24018315Y-32646159D01*
X24027000Y-32600000D01*
X24027000Y-30573296D01*
X24043000Y-30589296D01*
X24043000Y-30589296D01*
G37*
X24043000Y-30589296D02*
X24043000Y-35947298D01*
X24077787Y-36122185D01*
X24176852Y-36270446D01*
X25209584Y-37303178D01*
X25357846Y-37402243D01*
X25532732Y-37437031D01*
X25532737Y-37437030D01*
X26216674Y-37437030D01*
X24414333Y-39239371D01*
X24341614Y-39189684D01*
X24200000Y-39161006D01*
X23400000Y-39161006D01*
X23267704Y-39185899D01*
X23251246Y-39196490D01*
X23238327Y-39165301D01*
X23059698Y-38986673D01*
X22867282Y-38906972D01*
X23218250Y-38907278D01*
X23809103Y-38663143D01*
X24261554Y-38211481D01*
X24506720Y-37621054D01*
X24507278Y-36981750D01*
X24263143Y-36390897D01*
X23811481Y-35938446D01*
X23221054Y-35693280D01*
X22581750Y-35692722D01*
X21990897Y-35936857D01*
X21538446Y-36388519D01*
X21293280Y-36978946D01*
X21292722Y-37618250D01*
X21536857Y-38209103D01*
X21988519Y-38661554D01*
X22571939Y-38903811D01*
X22427000Y-39048750D01*
X22427000Y-39773000D01*
X22447000Y-39773000D01*
X22447000Y-40027000D01*
X22427000Y-40027000D01*
X22427000Y-40047000D01*
X22173000Y-40047000D01*
X22173000Y-40027000D01*
X21423750Y-40027000D01*
X21265000Y-40185750D01*
X21265000Y-40401310D01*
X21353886Y-40615900D01*
X21210540Y-40615900D01*
X20785862Y-40750898D01*
X20445172Y-41038137D01*
X20432000Y-41064963D01*
X20432000Y-39398690D01*
X21265000Y-39398690D01*
X21265000Y-39614250D01*
X21423750Y-39773000D01*
X22173000Y-39773000D01*
X22173000Y-39048750D01*
X22014250Y-38890000D01*
X21773691Y-38890000D01*
X21540302Y-38986673D01*
X21361673Y-39165301D01*
X21265000Y-39398690D01*
X20432000Y-39398690D01*
X20432000Y-32727000D01*
X23900000Y-32727000D01*
X23949410Y-32716994D01*
X23991035Y-32688553D01*
X24018315Y-32646159D01*
X24027000Y-32600000D01*
X24027000Y-30573296D01*
X24043000Y-30589296D01*
G36*
X29761006Y-38890000D02*
X29738994Y-38890000D01*
X29738994Y-38703000D01*
X29761006Y-38703000D01*
X29761006Y-38890000D01*
X29761006Y-38890000D01*
G37*
X29761006Y-38890000D02*
X29738994Y-38890000D01*
X29738994Y-38703000D01*
X29761006Y-38703000D01*
X29761006Y-38890000D01*
G36*
X30127000Y-30873000D02*
X30147000Y-30873000D01*
X30147000Y-31127000D01*
X30127000Y-31127000D01*
X30127000Y-31851250D01*
X30285750Y-32010000D01*
X30526309Y-32010000D01*
X30759698Y-31913327D01*
X30938327Y-31734699D01*
X31035000Y-31501310D01*
X31035000Y-31381296D01*
X32676852Y-33023148D01*
X32825113Y-33122213D01*
X32963242Y-33149688D01*
X33070019Y-33256652D01*
X33311406Y-33356885D01*
X33543000Y-33357087D01*
X33543000Y-34027875D01*
X33443348Y-34127354D01*
X33343115Y-34368741D01*
X33342887Y-34630112D01*
X33442698Y-34871674D01*
X33627354Y-35056652D01*
X33811246Y-35133011D01*
X30556158Y-35133011D01*
X30556885Y-35131259D01*
X30557113Y-34869888D01*
X30457302Y-34628326D01*
X30272646Y-34443348D01*
X30151425Y-34393013D01*
X30151423Y-34393011D01*
X30151420Y-34393010D01*
X30031259Y-34343115D01*
X29956962Y-34343050D01*
X29957113Y-34169888D01*
X29857302Y-33928326D01*
X29707000Y-33777762D01*
X29707000Y-32010000D01*
X29714250Y-32010000D01*
X29873000Y-31851250D01*
X29873000Y-31127000D01*
X29853000Y-31127000D01*
X29853000Y-30873000D01*
X29873000Y-30873000D01*
X29873000Y-30853000D01*
X30127000Y-30853000D01*
X30127000Y-30873000D01*
X30127000Y-30873000D01*
G37*
X30127000Y-30873000D02*
X30147000Y-30873000D01*
X30147000Y-31127000D01*
X30127000Y-31127000D01*
X30127000Y-31851250D01*
X30285750Y-32010000D01*
X30526309Y-32010000D01*
X30759698Y-31913327D01*
X30938327Y-31734699D01*
X31035000Y-31501310D01*
X31035000Y-31381296D01*
X32676852Y-33023148D01*
X32825113Y-33122213D01*
X32963242Y-33149688D01*
X33070019Y-33256652D01*
X33311406Y-33356885D01*
X33543000Y-33357087D01*
X33543000Y-34027875D01*
X33443348Y-34127354D01*
X33343115Y-34368741D01*
X33342887Y-34630112D01*
X33442698Y-34871674D01*
X33627354Y-35056652D01*
X33811246Y-35133011D01*
X30556158Y-35133011D01*
X30556885Y-35131259D01*
X30557113Y-34869888D01*
X30457302Y-34628326D01*
X30272646Y-34443348D01*
X30151425Y-34393013D01*
X30151423Y-34393011D01*
X30151420Y-34393010D01*
X30031259Y-34343115D01*
X29956962Y-34343050D01*
X29957113Y-34169888D01*
X29857302Y-33928326D01*
X29707000Y-33777762D01*
X29707000Y-32010000D01*
X29714250Y-32010000D01*
X29873000Y-31851250D01*
X29873000Y-31127000D01*
X29853000Y-31127000D01*
X29853000Y-30873000D01*
X29873000Y-30873000D01*
X29873000Y-30853000D01*
X30127000Y-30853000D01*
X30127000Y-30873000D01*
G36*
X36559174Y-32740825D02*
X36585621Y-32758496D01*
X36715547Y-32845310D01*
X36900000Y-32882000D01*
X39583804Y-32882000D01*
X39738445Y-32851240D01*
X39768258Y-32845310D01*
X39822421Y-32809119D01*
X38770150Y-33861390D01*
X38770210Y-33792389D01*
X38670399Y-33550827D01*
X38485743Y-33365849D01*
X38244356Y-33265616D01*
X37982985Y-33265388D01*
X37741423Y-33365199D01*
X37556445Y-33549855D01*
X37474156Y-33748028D01*
X37459204Y-33733050D01*
X37217817Y-33632817D01*
X36956446Y-33632589D01*
X36714884Y-33732400D01*
X36614407Y-33832702D01*
X36443827Y-33832702D01*
X34147966Y-31536841D01*
X33999705Y-31437776D01*
X33824818Y-31402989D01*
X33301847Y-31402989D01*
X32155819Y-30256961D01*
X32330112Y-30257113D01*
X32571674Y-30157302D01*
X32597020Y-30132000D01*
X32624264Y-30132000D01*
X32827852Y-30091504D01*
X33000445Y-29976181D01*
X33276181Y-29700445D01*
X33373359Y-29555009D01*
X36559174Y-32740825D01*
X36559174Y-32740825D01*
G37*
X36559174Y-32740825D02*
X36585621Y-32758496D01*
X36715547Y-32845310D01*
X36900000Y-32882000D01*
X39583804Y-32882000D01*
X39738445Y-32851240D01*
X39768258Y-32845310D01*
X39822421Y-32809119D01*
X38770150Y-33861390D01*
X38770210Y-33792389D01*
X38670399Y-33550827D01*
X38485743Y-33365849D01*
X38244356Y-33265616D01*
X37982985Y-33265388D01*
X37741423Y-33365199D01*
X37556445Y-33549855D01*
X37474156Y-33748028D01*
X37459204Y-33733050D01*
X37217817Y-33632817D01*
X36956446Y-33632589D01*
X36714884Y-33732400D01*
X36614407Y-33832702D01*
X36443827Y-33832702D01*
X34147966Y-31536841D01*
X33999705Y-31437776D01*
X33824818Y-31402989D01*
X33301847Y-31402989D01*
X32155819Y-30256961D01*
X32330112Y-30257113D01*
X32571674Y-30157302D01*
X32597020Y-30132000D01*
X32624264Y-30132000D01*
X32827852Y-30091504D01*
X33000445Y-29976181D01*
X33276181Y-29700445D01*
X33373359Y-29555009D01*
X36559174Y-32740825D01*
G36*
X46063702Y-21288661D02*
X46056708Y-21323198D01*
X46056708Y-21623360D01*
X46020702Y-21616198D01*
X45001802Y-21616198D01*
X44847951Y-21646801D01*
X44842667Y-21647852D01*
X44831259Y-21643115D01*
X44569888Y-21642887D01*
X44328326Y-21742698D01*
X44143348Y-21927354D01*
X44043115Y-22168741D01*
X44042887Y-22430112D01*
X44142698Y-22671674D01*
X44168000Y-22697020D01*
X44168000Y-23777496D01*
X44208496Y-23981084D01*
X44299981Y-24118001D01*
X44323819Y-24153677D01*
X45116054Y-24945912D01*
X45116024Y-24980745D01*
X45215835Y-25222307D01*
X45400491Y-25407285D01*
X45641878Y-25507518D01*
X45688316Y-25507559D01*
X45582375Y-25613499D01*
X45485702Y-25846888D01*
X45485702Y-26062448D01*
X45644452Y-26221198D01*
X46393702Y-26221198D01*
X46393702Y-26201198D01*
X46647702Y-26201198D01*
X46647702Y-26221198D01*
X46667702Y-26221198D01*
X46667702Y-26475198D01*
X46647702Y-26475198D01*
X46647702Y-27199448D01*
X46806452Y-27358198D01*
X47047011Y-27358198D01*
X47280400Y-27261525D01*
X47459029Y-27082897D01*
X47471326Y-27053210D01*
X47479088Y-27058514D01*
X47620702Y-27087192D01*
X48420702Y-27087192D01*
X48552998Y-27062299D01*
X48674504Y-26984112D01*
X48756018Y-26864812D01*
X48784696Y-26723198D01*
X48784696Y-25973198D01*
X48770736Y-25899008D01*
X48871674Y-25857302D01*
X49056652Y-25672646D01*
X49156885Y-25431259D01*
X49157113Y-25169888D01*
X49057302Y-24928326D01*
X48984696Y-24855593D01*
X48984696Y-24573036D01*
X49020702Y-24580198D01*
X49988702Y-24580198D01*
X49988702Y-26708936D01*
X46529638Y-30168000D01*
X44697255Y-30168000D01*
X44672646Y-30143348D01*
X44431259Y-30043115D01*
X44169888Y-30042887D01*
X43928326Y-30142698D01*
X43743348Y-30327354D01*
X43643115Y-30568741D01*
X43642887Y-30830112D01*
X43742698Y-31071674D01*
X43927354Y-31256652D01*
X44168741Y-31356885D01*
X44430112Y-31357113D01*
X44671674Y-31257302D01*
X44697020Y-31232000D01*
X46529638Y-31232000D01*
X48533644Y-33236006D01*
X48000000Y-33236006D01*
X47867704Y-33260899D01*
X47799916Y-33304520D01*
X47741614Y-33264684D01*
X47600000Y-33236006D01*
X47000000Y-33236006D01*
X46867704Y-33260899D01*
X46799916Y-33304520D01*
X46741614Y-33264684D01*
X46600000Y-33236006D01*
X46000000Y-33236006D01*
X45867704Y-33260899D01*
X45799916Y-33304520D01*
X45741614Y-33264684D01*
X45729600Y-33262251D01*
X45722213Y-33225114D01*
X45623148Y-33076852D01*
X43557000Y-31010704D01*
X43557000Y-26633948D01*
X45485702Y-26633948D01*
X45485702Y-26849508D01*
X45582375Y-27082897D01*
X45761004Y-27261525D01*
X45994393Y-27358198D01*
X46234952Y-27358198D01*
X46393702Y-27199448D01*
X46393702Y-26475198D01*
X45644452Y-26475198D01*
X45485702Y-26633948D01*
X43557000Y-26633948D01*
X43557000Y-21557009D01*
X44752554Y-21557008D01*
X44927441Y-21522221D01*
X45075702Y-21423156D01*
X45221848Y-21277010D01*
X46063702Y-21277010D01*
X46063702Y-21288661D01*
X46063702Y-21288661D01*
G37*
X46063702Y-21288661D02*
X46056708Y-21323198D01*
X46056708Y-21623360D01*
X46020702Y-21616198D01*
X45001802Y-21616198D01*
X44847951Y-21646801D01*
X44842667Y-21647852D01*
X44831259Y-21643115D01*
X44569888Y-21642887D01*
X44328326Y-21742698D01*
X44143348Y-21927354D01*
X44043115Y-22168741D01*
X44042887Y-22430112D01*
X44142698Y-22671674D01*
X44168000Y-22697020D01*
X44168000Y-23777496D01*
X44208496Y-23981084D01*
X44299981Y-24118001D01*
X44323819Y-24153677D01*
X45116054Y-24945912D01*
X45116024Y-24980745D01*
X45215835Y-25222307D01*
X45400491Y-25407285D01*
X45641878Y-25507518D01*
X45688316Y-25507559D01*
X45582375Y-25613499D01*
X45485702Y-25846888D01*
X45485702Y-26062448D01*
X45644452Y-26221198D01*
X46393702Y-26221198D01*
X46393702Y-26201198D01*
X46647702Y-26201198D01*
X46647702Y-26221198D01*
X46667702Y-26221198D01*
X46667702Y-26475198D01*
X46647702Y-26475198D01*
X46647702Y-27199448D01*
X46806452Y-27358198D01*
X47047011Y-27358198D01*
X47280400Y-27261525D01*
X47459029Y-27082897D01*
X47471326Y-27053210D01*
X47479088Y-27058514D01*
X47620702Y-27087192D01*
X48420702Y-27087192D01*
X48552998Y-27062299D01*
X48674504Y-26984112D01*
X48756018Y-26864812D01*
X48784696Y-26723198D01*
X48784696Y-25973198D01*
X48770736Y-25899008D01*
X48871674Y-25857302D01*
X49056652Y-25672646D01*
X49156885Y-25431259D01*
X49157113Y-25169888D01*
X49057302Y-24928326D01*
X48984696Y-24855593D01*
X48984696Y-24573036D01*
X49020702Y-24580198D01*
X49988702Y-24580198D01*
X49988702Y-26708936D01*
X46529638Y-30168000D01*
X44697255Y-30168000D01*
X44672646Y-30143348D01*
X44431259Y-30043115D01*
X44169888Y-30042887D01*
X43928326Y-30142698D01*
X43743348Y-30327354D01*
X43643115Y-30568741D01*
X43642887Y-30830112D01*
X43742698Y-31071674D01*
X43927354Y-31256652D01*
X44168741Y-31356885D01*
X44430112Y-31357113D01*
X44671674Y-31257302D01*
X44697020Y-31232000D01*
X46529638Y-31232000D01*
X48533644Y-33236006D01*
X48000000Y-33236006D01*
X47867704Y-33260899D01*
X47799916Y-33304520D01*
X47741614Y-33264684D01*
X47600000Y-33236006D01*
X47000000Y-33236006D01*
X46867704Y-33260899D01*
X46799916Y-33304520D01*
X46741614Y-33264684D01*
X46600000Y-33236006D01*
X46000000Y-33236006D01*
X45867704Y-33260899D01*
X45799916Y-33304520D01*
X45741614Y-33264684D01*
X45729600Y-33262251D01*
X45722213Y-33225114D01*
X45623148Y-33076852D01*
X43557000Y-31010704D01*
X43557000Y-26633948D01*
X45485702Y-26633948D01*
X45485702Y-26849508D01*
X45582375Y-27082897D01*
X45761004Y-27261525D01*
X45994393Y-27358198D01*
X46234952Y-27358198D01*
X46393702Y-27199448D01*
X46393702Y-26475198D01*
X45644452Y-26475198D01*
X45485702Y-26633948D01*
X43557000Y-26633948D01*
X43557000Y-21557009D01*
X44752554Y-21557008D01*
X44927441Y-21522221D01*
X45075702Y-21423156D01*
X45221848Y-21277010D01*
X46063702Y-21277010D01*
X46063702Y-21288661D01*
G36*
X39254576Y-23680227D02*
X39249684Y-23687386D01*
X39221006Y-23829000D01*
X39221006Y-25129000D01*
X39245899Y-25261296D01*
X39324086Y-25382802D01*
X39443386Y-25464316D01*
X39585000Y-25492994D01*
X40085000Y-25492994D01*
X40217296Y-25468101D01*
X40338802Y-25389914D01*
X40420316Y-25270614D01*
X40448994Y-25129000D01*
X40448994Y-23829000D01*
X40424101Y-23696704D01*
X40345914Y-23575198D01*
X40311577Y-23551737D01*
X40303141Y-23509327D01*
X40290593Y-23446244D01*
X40524576Y-23680227D01*
X40519684Y-23687386D01*
X40491006Y-23829000D01*
X40491006Y-25129000D01*
X40515899Y-25261296D01*
X40594086Y-25382802D01*
X40713386Y-25464316D01*
X40855000Y-25492994D01*
X41305458Y-25492994D01*
X41305458Y-29119292D01*
X41230000Y-29194750D01*
X41230000Y-30194000D01*
X41252000Y-30194000D01*
X41252000Y-30448000D01*
X41230000Y-30448000D01*
X41230000Y-30468000D01*
X40980000Y-30468000D01*
X40980000Y-30448000D01*
X40958000Y-30448000D01*
X40958000Y-30194000D01*
X40980000Y-30194000D01*
X40980000Y-29310055D01*
X40982000Y-29300000D01*
X40982000Y-27314000D01*
X40947710Y-27141614D01*
X40945310Y-27129546D01*
X40840825Y-26973174D01*
X39145424Y-25277774D01*
X39150316Y-25270614D01*
X39178994Y-25129000D01*
X39178994Y-23829000D01*
X39154101Y-23696704D01*
X39075914Y-23575198D01*
X38956614Y-23493684D01*
X38815000Y-23465006D01*
X38315000Y-23465006D01*
X38182704Y-23489899D01*
X38061198Y-23568086D01*
X37979684Y-23687386D01*
X37951006Y-23829000D01*
X37951006Y-25129000D01*
X37975899Y-25261296D01*
X38054086Y-25382802D01*
X38088423Y-25406263D01*
X38109963Y-25514551D01*
X38119690Y-25563454D01*
X38224175Y-25719825D01*
X40018000Y-27513651D01*
X40018000Y-29300000D01*
X40019394Y-29307006D01*
X39585000Y-29307006D01*
X39452704Y-29331899D01*
X39331198Y-29410086D01*
X39249684Y-29529386D01*
X39221006Y-29671000D01*
X39221006Y-30971000D01*
X39229850Y-31018000D01*
X39169476Y-31018000D01*
X39178994Y-30971000D01*
X39178994Y-29671000D01*
X39154101Y-29538704D01*
X39075914Y-29417198D01*
X39041577Y-29393737D01*
X39010310Y-29236547D01*
X39010310Y-29236546D01*
X38905825Y-29080174D01*
X35584825Y-25759175D01*
X35428454Y-25654690D01*
X35397851Y-25648603D01*
X35244000Y-25618000D01*
X35000155Y-25618000D01*
X35040825Y-25590825D01*
X36681006Y-23950645D01*
X36681006Y-25129000D01*
X36705899Y-25261296D01*
X36784086Y-25382802D01*
X36903386Y-25464316D01*
X37045000Y-25492994D01*
X37545000Y-25492994D01*
X37677296Y-25468101D01*
X37798802Y-25389914D01*
X37880316Y-25270614D01*
X37908994Y-25129000D01*
X37908994Y-23829000D01*
X37884101Y-23696704D01*
X37827000Y-23607967D01*
X37827000Y-23602246D01*
X37856652Y-23572646D01*
X37956885Y-23331259D01*
X37957054Y-23136999D01*
X38711349Y-23136999D01*
X39254576Y-23680227D01*
X39254576Y-23680227D01*
G37*
X39254576Y-23680227D02*
X39249684Y-23687386D01*
X39221006Y-23829000D01*
X39221006Y-25129000D01*
X39245899Y-25261296D01*
X39324086Y-25382802D01*
X39443386Y-25464316D01*
X39585000Y-25492994D01*
X40085000Y-25492994D01*
X40217296Y-25468101D01*
X40338802Y-25389914D01*
X40420316Y-25270614D01*
X40448994Y-25129000D01*
X40448994Y-23829000D01*
X40424101Y-23696704D01*
X40345914Y-23575198D01*
X40311577Y-23551737D01*
X40303141Y-23509327D01*
X40290593Y-23446244D01*
X40524576Y-23680227D01*
X40519684Y-23687386D01*
X40491006Y-23829000D01*
X40491006Y-25129000D01*
X40515899Y-25261296D01*
X40594086Y-25382802D01*
X40713386Y-25464316D01*
X40855000Y-25492994D01*
X41305458Y-25492994D01*
X41305458Y-29119292D01*
X41230000Y-29194750D01*
X41230000Y-30194000D01*
X41252000Y-30194000D01*
X41252000Y-30448000D01*
X41230000Y-30448000D01*
X41230000Y-30468000D01*
X40980000Y-30468000D01*
X40980000Y-30448000D01*
X40958000Y-30448000D01*
X40958000Y-30194000D01*
X40980000Y-30194000D01*
X40980000Y-29310055D01*
X40982000Y-29300000D01*
X40982000Y-27314000D01*
X40947710Y-27141614D01*
X40945310Y-27129546D01*
X40840825Y-26973174D01*
X39145424Y-25277774D01*
X39150316Y-25270614D01*
X39178994Y-25129000D01*
X39178994Y-23829000D01*
X39154101Y-23696704D01*
X39075914Y-23575198D01*
X38956614Y-23493684D01*
X38815000Y-23465006D01*
X38315000Y-23465006D01*
X38182704Y-23489899D01*
X38061198Y-23568086D01*
X37979684Y-23687386D01*
X37951006Y-23829000D01*
X37951006Y-25129000D01*
X37975899Y-25261296D01*
X38054086Y-25382802D01*
X38088423Y-25406263D01*
X38109963Y-25514551D01*
X38119690Y-25563454D01*
X38224175Y-25719825D01*
X40018000Y-27513651D01*
X40018000Y-29300000D01*
X40019394Y-29307006D01*
X39585000Y-29307006D01*
X39452704Y-29331899D01*
X39331198Y-29410086D01*
X39249684Y-29529386D01*
X39221006Y-29671000D01*
X39221006Y-30971000D01*
X39229850Y-31018000D01*
X39169476Y-31018000D01*
X39178994Y-30971000D01*
X39178994Y-29671000D01*
X39154101Y-29538704D01*
X39075914Y-29417198D01*
X39041577Y-29393737D01*
X39010310Y-29236547D01*
X39010310Y-29236546D01*
X38905825Y-29080174D01*
X35584825Y-25759175D01*
X35428454Y-25654690D01*
X35397851Y-25648603D01*
X35244000Y-25618000D01*
X35000155Y-25618000D01*
X35040825Y-25590825D01*
X36681006Y-23950645D01*
X36681006Y-25129000D01*
X36705899Y-25261296D01*
X36784086Y-25382802D01*
X36903386Y-25464316D01*
X37045000Y-25492994D01*
X37545000Y-25492994D01*
X37677296Y-25468101D01*
X37798802Y-25389914D01*
X37880316Y-25270614D01*
X37908994Y-25129000D01*
X37908994Y-23829000D01*
X37884101Y-23696704D01*
X37827000Y-23607967D01*
X37827000Y-23602246D01*
X37856652Y-23572646D01*
X37956885Y-23331259D01*
X37957054Y-23136999D01*
X38711349Y-23136999D01*
X39254576Y-23680227D01*
G36*
X29761006Y-29547000D02*
X29738994Y-29547000D01*
X29738994Y-29360000D01*
X29761006Y-29360000D01*
X29761006Y-29547000D01*
X29761006Y-29547000D01*
G37*
X29761006Y-29547000D02*
X29738994Y-29547000D01*
X29738994Y-29360000D01*
X29761006Y-29360000D01*
X29761006Y-29547000D01*
G36*
X28764500Y-26010500D02*
X30235500Y-26010500D01*
X30235500Y-25990500D01*
X30489500Y-25990500D01*
X30489500Y-26010500D01*
X30509500Y-26010500D01*
X30509500Y-26264500D01*
X30489500Y-26264500D01*
X30489500Y-27735500D01*
X30509500Y-27735500D01*
X30509500Y-27989500D01*
X30489500Y-27989500D01*
X30489500Y-28009500D01*
X30235500Y-28009500D01*
X30235500Y-27989500D01*
X28764500Y-27989500D01*
X28764500Y-28009500D01*
X28510500Y-28009500D01*
X28510500Y-27989500D01*
X28490500Y-27989500D01*
X28490500Y-27735500D01*
X28510500Y-27735500D01*
X28510500Y-26264500D01*
X28764500Y-26264500D01*
X28764500Y-27735500D01*
X30235500Y-27735500D01*
X30235500Y-26264500D01*
X28764500Y-26264500D01*
X28510500Y-26264500D01*
X28490500Y-26264500D01*
X28490500Y-26010500D01*
X28510500Y-26010500D01*
X28510500Y-25990500D01*
X28764500Y-25990500D01*
X28764500Y-26010500D01*
X28764500Y-26010500D01*
G37*
X28764500Y-26010500D02*
X30235500Y-26010500D01*
X30235500Y-25990500D01*
X30489500Y-25990500D01*
X30489500Y-26010500D01*
X30509500Y-26010500D01*
X30509500Y-26264500D01*
X30489500Y-26264500D01*
X30489500Y-27735500D01*
X30509500Y-27735500D01*
X30509500Y-27989500D01*
X30489500Y-27989500D01*
X30489500Y-28009500D01*
X30235500Y-28009500D01*
X30235500Y-27989500D01*
X28764500Y-27989500D01*
X28764500Y-28009500D01*
X28510500Y-28009500D01*
X28510500Y-27989500D01*
X28490500Y-27989500D01*
X28490500Y-27735500D01*
X28510500Y-27735500D01*
X28510500Y-26264500D01*
X28764500Y-26264500D01*
X28764500Y-27735500D01*
X30235500Y-27735500D01*
X30235500Y-26264500D01*
X28764500Y-26264500D01*
X28510500Y-26264500D01*
X28490500Y-26264500D01*
X28490500Y-26010500D01*
X28510500Y-26010500D01*
X28510500Y-25990500D01*
X28764500Y-25990500D01*
X28764500Y-26010500D01*
G36*
X42256851Y-20727251D02*
X42157786Y-20875512D01*
X42125510Y-21037777D01*
X42122999Y-21050399D01*
X42122999Y-22524141D01*
X40735700Y-21136842D01*
X40587439Y-21037777D01*
X40412552Y-21002990D01*
X35517851Y-21002990D01*
X35517846Y-21002989D01*
X35342960Y-21037777D01*
X35194698Y-21136842D01*
X34747955Y-21583585D01*
X34649144Y-21583585D01*
X34735000Y-21376310D01*
X34735000Y-21283750D01*
X34576250Y-21125000D01*
X33927000Y-21125000D01*
X33927000Y-21726250D01*
X34012165Y-21811415D01*
X32480580Y-23343000D01*
X32305025Y-23343000D01*
X32438327Y-23209699D01*
X32535000Y-22976310D01*
X32535000Y-22685750D01*
X32376250Y-22527000D01*
X31477000Y-22527000D01*
X31477000Y-22547000D01*
X31223000Y-22547000D01*
X31223000Y-22527000D01*
X31203000Y-22527000D01*
X31203000Y-22273000D01*
X31223000Y-22273000D01*
X31223000Y-22253000D01*
X31477000Y-22253000D01*
X31477000Y-22273000D01*
X32376250Y-22273000D01*
X32535000Y-22114250D01*
X32535000Y-21823690D01*
X32448141Y-21613994D01*
X32965968Y-21613994D01*
X33140302Y-21788327D01*
X33373691Y-21885000D01*
X33514250Y-21885000D01*
X33673000Y-21726250D01*
X33673000Y-21125000D01*
X33653000Y-21125000D01*
X33653000Y-20875000D01*
X33673000Y-20875000D01*
X33673000Y-20853000D01*
X33927000Y-20853000D01*
X33927000Y-20875000D01*
X34576250Y-20875000D01*
X34735000Y-20716250D01*
X34735000Y-20632000D01*
X42352102Y-20632000D01*
X42256851Y-20727251D01*
X42256851Y-20727251D01*
G37*
X42256851Y-20727251D02*
X42157786Y-20875512D01*
X42125510Y-21037777D01*
X42122999Y-21050399D01*
X42122999Y-22524141D01*
X40735700Y-21136842D01*
X40587439Y-21037777D01*
X40412552Y-21002990D01*
X35517851Y-21002990D01*
X35517846Y-21002989D01*
X35342960Y-21037777D01*
X35194698Y-21136842D01*
X34747955Y-21583585D01*
X34649144Y-21583585D01*
X34735000Y-21376310D01*
X34735000Y-21283750D01*
X34576250Y-21125000D01*
X33927000Y-21125000D01*
X33927000Y-21726250D01*
X34012165Y-21811415D01*
X32480580Y-23343000D01*
X32305025Y-23343000D01*
X32438327Y-23209699D01*
X32535000Y-22976310D01*
X32535000Y-22685750D01*
X32376250Y-22527000D01*
X31477000Y-22527000D01*
X31477000Y-22547000D01*
X31223000Y-22547000D01*
X31223000Y-22527000D01*
X31203000Y-22527000D01*
X31203000Y-22273000D01*
X31223000Y-22273000D01*
X31223000Y-22253000D01*
X31477000Y-22253000D01*
X31477000Y-22273000D01*
X32376250Y-22273000D01*
X32535000Y-22114250D01*
X32535000Y-21823690D01*
X32448141Y-21613994D01*
X32965968Y-21613994D01*
X33140302Y-21788327D01*
X33373691Y-21885000D01*
X33514250Y-21885000D01*
X33673000Y-21726250D01*
X33673000Y-21125000D01*
X33653000Y-21125000D01*
X33653000Y-20875000D01*
X33673000Y-20875000D01*
X33673000Y-20853000D01*
X33927000Y-20853000D01*
X33927000Y-20875000D01*
X34576250Y-20875000D01*
X34735000Y-20716250D01*
X34735000Y-20632000D01*
X42352102Y-20632000D01*
X42256851Y-20727251D01*
G36*
X27640301Y-20361673D02*
X27545983Y-20455992D01*
X27326310Y-20365000D01*
X27035750Y-20365000D01*
X26877000Y-20523750D01*
X26877000Y-21125000D01*
X27676250Y-21125000D01*
X27728250Y-21073000D01*
X28125000Y-21073000D01*
X28125000Y-21053000D01*
X28375000Y-21053000D01*
X28375000Y-21073000D01*
X28976250Y-21073000D01*
X29076250Y-20973000D01*
X29523000Y-20973000D01*
X29523000Y-20953000D01*
X29777000Y-20953000D01*
X29777000Y-20973000D01*
X29797000Y-20973000D01*
X29797000Y-21227000D01*
X29777000Y-21227000D01*
X29777000Y-21247000D01*
X29523000Y-21247000D01*
X29523000Y-21227000D01*
X28623750Y-21227000D01*
X28523750Y-21327000D01*
X28375000Y-21327000D01*
X28375000Y-21347000D01*
X28125000Y-21347000D01*
X28125000Y-21327000D01*
X27523750Y-21327000D01*
X27475750Y-21375000D01*
X26877000Y-21375000D01*
X26877000Y-21976250D01*
X27035750Y-22135000D01*
X27326310Y-22135000D01*
X27559699Y-22038327D01*
X27600000Y-21998026D01*
X27636006Y-22034032D01*
X27636006Y-22600000D01*
X27660899Y-22732296D01*
X27699961Y-22793000D01*
X27563994Y-22793000D01*
X27563994Y-22500000D01*
X27539101Y-22367704D01*
X27460914Y-22246198D01*
X27341614Y-22164684D01*
X27200000Y-22136006D01*
X26300000Y-22136006D01*
X26167704Y-22160899D01*
X26046198Y-22239086D01*
X25964684Y-22358386D01*
X25936006Y-22500000D01*
X25936006Y-22835216D01*
X25924887Y-22827787D01*
X25863994Y-22815675D01*
X25863994Y-22800000D01*
X25839101Y-22667704D01*
X25760914Y-22546198D01*
X25707000Y-22509360D01*
X25707000Y-22228269D01*
X25782296Y-22214101D01*
X25903802Y-22135914D01*
X25963823Y-22048070D01*
X26173690Y-22135000D01*
X26464250Y-22135000D01*
X26623000Y-21976250D01*
X26623000Y-21375000D01*
X26603000Y-21375000D01*
X26603000Y-21125000D01*
X26623000Y-21125000D01*
X26623000Y-20523750D01*
X26464250Y-20365000D01*
X26173690Y-20365000D01*
X25940301Y-20461673D01*
X25761673Y-20640302D01*
X25706903Y-20772529D01*
X25650000Y-20761006D01*
X24850000Y-20761006D01*
X24717704Y-20785899D01*
X24596198Y-20864086D01*
X24514684Y-20983386D01*
X24500514Y-21053359D01*
X24489101Y-20992704D01*
X24410914Y-20871198D01*
X24291614Y-20789684D01*
X24150000Y-20761006D01*
X24027000Y-20761006D01*
X24027000Y-20332000D01*
X27711938Y-20332000D01*
X27640301Y-20361673D01*
X27640301Y-20361673D01*
G37*
X27640301Y-20361673D02*
X27545983Y-20455992D01*
X27326310Y-20365000D01*
X27035750Y-20365000D01*
X26877000Y-20523750D01*
X26877000Y-21125000D01*
X27676250Y-21125000D01*
X27728250Y-21073000D01*
X28125000Y-21073000D01*
X28125000Y-21053000D01*
X28375000Y-21053000D01*
X28375000Y-21073000D01*
X28976250Y-21073000D01*
X29076250Y-20973000D01*
X29523000Y-20973000D01*
X29523000Y-20953000D01*
X29777000Y-20953000D01*
X29777000Y-20973000D01*
X29797000Y-20973000D01*
X29797000Y-21227000D01*
X29777000Y-21227000D01*
X29777000Y-21247000D01*
X29523000Y-21247000D01*
X29523000Y-21227000D01*
X28623750Y-21227000D01*
X28523750Y-21327000D01*
X28375000Y-21327000D01*
X28375000Y-21347000D01*
X28125000Y-21347000D01*
X28125000Y-21327000D01*
X27523750Y-21327000D01*
X27475750Y-21375000D01*
X26877000Y-21375000D01*
X26877000Y-21976250D01*
X27035750Y-22135000D01*
X27326310Y-22135000D01*
X27559699Y-22038327D01*
X27600000Y-21998026D01*
X27636006Y-22034032D01*
X27636006Y-22600000D01*
X27660899Y-22732296D01*
X27699961Y-22793000D01*
X27563994Y-22793000D01*
X27563994Y-22500000D01*
X27539101Y-22367704D01*
X27460914Y-22246198D01*
X27341614Y-22164684D01*
X27200000Y-22136006D01*
X26300000Y-22136006D01*
X26167704Y-22160899D01*
X26046198Y-22239086D01*
X25964684Y-22358386D01*
X25936006Y-22500000D01*
X25936006Y-22835216D01*
X25924887Y-22827787D01*
X25863994Y-22815675D01*
X25863994Y-22800000D01*
X25839101Y-22667704D01*
X25760914Y-22546198D01*
X25707000Y-22509360D01*
X25707000Y-22228269D01*
X25782296Y-22214101D01*
X25903802Y-22135914D01*
X25963823Y-22048070D01*
X26173690Y-22135000D01*
X26464250Y-22135000D01*
X26623000Y-21976250D01*
X26623000Y-21375000D01*
X26603000Y-21375000D01*
X26603000Y-21125000D01*
X26623000Y-21125000D01*
X26623000Y-20523750D01*
X26464250Y-20365000D01*
X26173690Y-20365000D01*
X25940301Y-20461673D01*
X25761673Y-20640302D01*
X25706903Y-20772529D01*
X25650000Y-20761006D01*
X24850000Y-20761006D01*
X24717704Y-20785899D01*
X24596198Y-20864086D01*
X24514684Y-20983386D01*
X24500514Y-21053359D01*
X24489101Y-20992704D01*
X24410914Y-20871198D01*
X24291614Y-20789684D01*
X24150000Y-20761006D01*
X24027000Y-20761006D01*
X24027000Y-20332000D01*
X27711938Y-20332000D01*
X27640301Y-20361673D01*
M02*
