G04 #@! TF.FileFunction,Legend,Top*
%FSLAX46Y46*%
G04 Gerber Fmt 4.6, Leading zero omitted, Abs format (unit mm)*
G04 Created by KiCad (PCBNEW (2015-08-11 BZR 6084)-product) date Mi 23 Sep 2015 17:42:07 CEST*
%MOMM*%
G01*
G04 APERTURE LIST*
%ADD10C,0.100000*%
%ADD11C,0.300000*%
%ADD12C,0.150000*%
%ADD13C,0.200000*%
%ADD14C,0.010000*%
G04 APERTURE END LIST*
D10*
D11*
X31157144Y-34492857D02*
X31657144Y-34492857D01*
X31871430Y-35278571D02*
X31157144Y-35278571D01*
X31157144Y-33778571D01*
X31871430Y-33778571D01*
X32442858Y-35207143D02*
X32657144Y-35278571D01*
X33014287Y-35278571D01*
X33157144Y-35207143D01*
X33228573Y-35135714D01*
X33300001Y-34992857D01*
X33300001Y-34850000D01*
X33228573Y-34707143D01*
X33157144Y-34635714D01*
X33014287Y-34564286D01*
X32728573Y-34492857D01*
X32585715Y-34421429D01*
X32514287Y-34350000D01*
X32442858Y-34207143D01*
X32442858Y-34064286D01*
X32514287Y-33921429D01*
X32585715Y-33850000D01*
X32728573Y-33778571D01*
X33085715Y-33778571D01*
X33300001Y-33850000D01*
X33942858Y-35278571D02*
X33942858Y-33778571D01*
X34514286Y-33778571D01*
X34657144Y-33850000D01*
X34728572Y-33921429D01*
X34800001Y-34064286D01*
X34800001Y-34278571D01*
X34728572Y-34421429D01*
X34657144Y-34492857D01*
X34514286Y-34564286D01*
X33942858Y-34564286D01*
X35657144Y-34421429D02*
X35514286Y-34350000D01*
X35442858Y-34278571D01*
X35371429Y-34135714D01*
X35371429Y-34064286D01*
X35442858Y-33921429D01*
X35514286Y-33850000D01*
X35657144Y-33778571D01*
X35942858Y-33778571D01*
X36085715Y-33850000D01*
X36157144Y-33921429D01*
X36228572Y-34064286D01*
X36228572Y-34135714D01*
X36157144Y-34278571D01*
X36085715Y-34350000D01*
X35942858Y-34421429D01*
X35657144Y-34421429D01*
X35514286Y-34492857D01*
X35442858Y-34564286D01*
X35371429Y-34707143D01*
X35371429Y-34992857D01*
X35442858Y-35135714D01*
X35514286Y-35207143D01*
X35657144Y-35278571D01*
X35942858Y-35278571D01*
X36085715Y-35207143D01*
X36157144Y-35135714D01*
X36228572Y-34992857D01*
X36228572Y-34707143D01*
X36157144Y-34564286D01*
X36085715Y-34492857D01*
X35942858Y-34421429D01*
X36800000Y-33921429D02*
X36871429Y-33850000D01*
X37014286Y-33778571D01*
X37371429Y-33778571D01*
X37514286Y-33850000D01*
X37585715Y-33921429D01*
X37657143Y-34064286D01*
X37657143Y-34207143D01*
X37585715Y-34421429D01*
X36728572Y-35278571D01*
X37657143Y-35278571D01*
X38942857Y-33778571D02*
X38657143Y-33778571D01*
X38514286Y-33850000D01*
X38442857Y-33921429D01*
X38300000Y-34135714D01*
X38228571Y-34421429D01*
X38228571Y-34992857D01*
X38300000Y-35135714D01*
X38371428Y-35207143D01*
X38514286Y-35278571D01*
X38800000Y-35278571D01*
X38942857Y-35207143D01*
X39014286Y-35135714D01*
X39085714Y-34992857D01*
X39085714Y-34635714D01*
X39014286Y-34492857D01*
X38942857Y-34421429D01*
X38800000Y-34350000D01*
X38514286Y-34350000D01*
X38371428Y-34421429D01*
X38300000Y-34492857D01*
X38228571Y-34635714D01*
X40371428Y-33778571D02*
X40085714Y-33778571D01*
X39942857Y-33850000D01*
X39871428Y-33921429D01*
X39728571Y-34135714D01*
X39657142Y-34421429D01*
X39657142Y-34992857D01*
X39728571Y-35135714D01*
X39799999Y-35207143D01*
X39942857Y-35278571D01*
X40228571Y-35278571D01*
X40371428Y-35207143D01*
X40442857Y-35135714D01*
X40514285Y-34992857D01*
X40514285Y-34635714D01*
X40442857Y-34492857D01*
X40371428Y-34421429D01*
X40228571Y-34350000D01*
X39942857Y-34350000D01*
X39799999Y-34421429D01*
X39728571Y-34492857D01*
X39657142Y-34635714D01*
D12*
X23650000Y-45350000D02*
X23650000Y-44650000D01*
X24850000Y-44650000D02*
X24850000Y-45350000D01*
X32125000Y-24375000D02*
X32125000Y-24900000D01*
X26875000Y-29625000D02*
X26875000Y-29100000D01*
X32125000Y-29625000D02*
X32125000Y-29100000D01*
X26875000Y-24375000D02*
X27400000Y-24375000D01*
X26875000Y-29625000D02*
X27400000Y-29625000D01*
X32125000Y-29625000D02*
X31600000Y-29625000D01*
X32125000Y-24375000D02*
X31600000Y-24375000D01*
X44996696Y-40230000D02*
X47536696Y-40230000D01*
X42176696Y-39950000D02*
X43726696Y-39950000D01*
X44996696Y-40230000D02*
X44996696Y-42770000D01*
X43726696Y-43050000D02*
X42176696Y-43050000D01*
X42176696Y-43050000D02*
X42176696Y-39950000D01*
X44996696Y-42770000D02*
X47536696Y-42770000D01*
X47536696Y-42770000D02*
X47536696Y-40230000D01*
X44300000Y-34100000D02*
X44800000Y-34100000D01*
X44300000Y-37100000D02*
X44300000Y-34100000D01*
X44800000Y-37100000D02*
X44300000Y-37100000D01*
X50300000Y-34100000D02*
X49800000Y-34100000D01*
X50300000Y-37100000D02*
X50300000Y-34100000D01*
X49800000Y-37100000D02*
X50300000Y-37100000D01*
X23400000Y-40500000D02*
X22700000Y-40500000D01*
X22700000Y-39300000D02*
X23400000Y-39300000D01*
D13*
X37200000Y-29400000D02*
G75*
G03X37200000Y-29400000I-100000J0D01*
G01*
D12*
X36950000Y-29900000D02*
X36700000Y-29900000D01*
X36700000Y-29900000D02*
X36700000Y-25650000D01*
X36700000Y-25650000D02*
X36700000Y-24900000D01*
X36700000Y-24900000D02*
X36950000Y-24900000D01*
X41450000Y-29900000D02*
X41700000Y-29900000D01*
X41700000Y-29900000D02*
X41700000Y-26400000D01*
X41700000Y-26400000D02*
X41700000Y-24900000D01*
X41700000Y-24900000D02*
X41450000Y-24900000D01*
X22500000Y-22500000D02*
X22500000Y-29500000D01*
X20500000Y-29500000D02*
X20500000Y-22500000D01*
X28900000Y-30400000D02*
X29600000Y-30400000D01*
X29600000Y-31600000D02*
X28900000Y-31600000D01*
X27350000Y-47650000D02*
X27350000Y-48350000D01*
X26150000Y-48350000D02*
X26150000Y-47650000D01*
X38600000Y-47650000D02*
X38600000Y-48350000D01*
X37400000Y-48350000D02*
X37400000Y-47650000D01*
X46775000Y-48250000D02*
X46775000Y-46250000D01*
X44725000Y-46250000D02*
X44725000Y-48250000D01*
X44350000Y-47650000D02*
X44350000Y-48350000D01*
X43150000Y-48350000D02*
X43150000Y-47650000D01*
X23750000Y-26475000D02*
X24250000Y-26475000D01*
X24250000Y-25525000D02*
X23750000Y-25525000D01*
X27775000Y-21500000D02*
X27775000Y-22000000D01*
X28725000Y-22000000D02*
X28725000Y-21500000D01*
X33500000Y-20525000D02*
X33000000Y-20525000D01*
X33000000Y-21475000D02*
X33500000Y-21475000D01*
X24850000Y-22100000D02*
X24150000Y-22100000D01*
X24150000Y-20900000D02*
X24850000Y-20900000D01*
X49920702Y-23448198D02*
X49920702Y-22748198D01*
X51120702Y-22748198D02*
X51120702Y-23448198D01*
X51670702Y-23448198D02*
X51670702Y-22748198D01*
X52870702Y-22748198D02*
X52870702Y-23448198D01*
X47620702Y-26948198D02*
X46920702Y-26948198D01*
X46920702Y-25748198D02*
X47620702Y-25748198D01*
X51900000Y-35250000D02*
X51900000Y-35950000D01*
X50700000Y-35950000D02*
X50700000Y-35250000D01*
X28250000Y-44650000D02*
X27250000Y-44650000D01*
X27250000Y-46350000D02*
X28250000Y-46350000D01*
X34230000Y-46480000D02*
X34230000Y-43940000D01*
X33950000Y-49300000D02*
X33950000Y-47750000D01*
X34230000Y-46480000D02*
X36770000Y-46480000D01*
X37050000Y-47750000D02*
X37050000Y-49300000D01*
X37050000Y-49300000D02*
X33950000Y-49300000D01*
X36770000Y-46480000D02*
X36770000Y-43940000D01*
X36770000Y-43940000D02*
X34230000Y-43940000D01*
X23825000Y-28750000D02*
X23825000Y-27750000D01*
X25175000Y-27750000D02*
X25175000Y-28750000D01*
X27425000Y-21500000D02*
X27425000Y-22500000D01*
X26075000Y-22500000D02*
X26075000Y-21500000D01*
X28075000Y-48750000D02*
X28075000Y-47750000D01*
X29425000Y-47750000D02*
X29425000Y-48750000D01*
X24000000Y-22575000D02*
X25000000Y-22575000D01*
X25000000Y-23925000D02*
X24000000Y-23925000D01*
X33325000Y-26500000D02*
X33325000Y-25500000D01*
X34675000Y-25500000D02*
X34675000Y-26500000D01*
X39250000Y-45675000D02*
X38250000Y-45675000D01*
X38250000Y-44325000D02*
X39250000Y-44325000D01*
X42250000Y-45675000D02*
X41250000Y-45675000D01*
X41250000Y-44325000D02*
X42250000Y-44325000D01*
X52375000Y-36100000D02*
X52375000Y-35100000D01*
X53725000Y-35100000D02*
X53725000Y-36100000D01*
X32125000Y-43875000D02*
X31600000Y-43875000D01*
X26875000Y-38625000D02*
X27400000Y-38625000D01*
X26875000Y-43875000D02*
X27400000Y-43875000D01*
X32125000Y-38625000D02*
X32125000Y-39150000D01*
X26875000Y-38625000D02*
X26875000Y-39150000D01*
X26875000Y-43875000D02*
X26875000Y-43350000D01*
X32125000Y-43875000D02*
X32125000Y-43350000D01*
X31900000Y-49700000D02*
G75*
G03X31900000Y-49700000I-100000J0D01*
G01*
X31250000Y-49450000D02*
X31750000Y-49450000D01*
X31250000Y-46550000D02*
X31250000Y-49450000D01*
X31750000Y-46550000D02*
X31250000Y-46550000D01*
X31750000Y-49450000D02*
X31750000Y-46550000D01*
X45920702Y-24698198D02*
X45920702Y-24298198D01*
X45920702Y-24698198D02*
X46320702Y-24698198D01*
X49120702Y-24698198D02*
X49120702Y-24298198D01*
X49120702Y-24698198D02*
X48720702Y-24698198D01*
X49120702Y-21498198D02*
X49120702Y-21898198D01*
X49120702Y-21498198D02*
X48720702Y-21498198D01*
X45920702Y-21498198D02*
X46320702Y-21498198D01*
X40800000Y-46300000D02*
G75*
G03X40800000Y-46300000I-100000J0D01*
G01*
X41250000Y-46550000D02*
X40750000Y-46550000D01*
X41250000Y-49450000D02*
X41250000Y-46550000D01*
X40750000Y-49450000D02*
X41250000Y-49450000D01*
X40750000Y-46550000D02*
X40750000Y-49450000D01*
X31750000Y-21850000D02*
X31750000Y-21650000D01*
X30300000Y-22750000D02*
X30700000Y-22750000D01*
X29250000Y-21850000D02*
X29250000Y-21650000D01*
X30300000Y-20750000D02*
X30700000Y-20750000D01*
D14*
G36*
X51314007Y-28961083D02*
X51320704Y-28863677D01*
X51333721Y-28768600D01*
X51353213Y-28674982D01*
X51379333Y-28581953D01*
X51412237Y-28488644D01*
X51418051Y-28473857D01*
X51453375Y-28392874D01*
X51494530Y-28312031D01*
X51540827Y-28232317D01*
X51591578Y-28154716D01*
X51646094Y-28080215D01*
X51703687Y-28009800D01*
X51763667Y-27944457D01*
X51825346Y-27885173D01*
X51835231Y-27876400D01*
X51871086Y-27844939D01*
X51871086Y-27662759D01*
X51871118Y-27617597D01*
X51871258Y-27578945D01*
X51871567Y-27546059D01*
X51872108Y-27518192D01*
X51872942Y-27494599D01*
X51874133Y-27474533D01*
X51875742Y-27457248D01*
X51877832Y-27442000D01*
X51880465Y-27428041D01*
X51883704Y-27414626D01*
X51887610Y-27401009D01*
X51892246Y-27386444D01*
X51894811Y-27378712D01*
X51910254Y-27338793D01*
X51930440Y-27296322D01*
X51954308Y-27253102D01*
X51980795Y-27210935D01*
X52008839Y-27171625D01*
X52036821Y-27137598D01*
X52074829Y-27098870D01*
X52118146Y-27061424D01*
X52165523Y-27026026D01*
X52215710Y-26993439D01*
X52267460Y-26964427D01*
X52319523Y-26939755D01*
X52370650Y-26920185D01*
X52411545Y-26908350D01*
X52423292Y-26905588D01*
X52434699Y-26903141D01*
X52446254Y-26900991D01*
X52458445Y-26899123D01*
X52471759Y-26897520D01*
X52486682Y-26896164D01*
X52503702Y-26895041D01*
X52523307Y-26894132D01*
X52545984Y-26893421D01*
X52572220Y-26892892D01*
X52602502Y-26892528D01*
X52637317Y-26892312D01*
X52677153Y-26892229D01*
X52722498Y-26892260D01*
X52773838Y-26892390D01*
X52831660Y-26892602D01*
X52868943Y-26892759D01*
X52927210Y-26893023D01*
X52978672Y-26893286D01*
X53023784Y-26893557D01*
X53062996Y-26893846D01*
X53096764Y-26894161D01*
X53125539Y-26894512D01*
X53149773Y-26894907D01*
X53169922Y-26895356D01*
X53186436Y-26895867D01*
X53199769Y-26896451D01*
X53210374Y-26897115D01*
X53218703Y-26897869D01*
X53225211Y-26898723D01*
X53230348Y-26899684D01*
X53231890Y-26900044D01*
X53265394Y-26909489D01*
X53297449Y-26921208D01*
X53328853Y-26935698D01*
X53360404Y-26953455D01*
X53392899Y-26974977D01*
X53427136Y-27000761D01*
X53463912Y-27031303D01*
X53504026Y-27067101D01*
X53512444Y-27074866D01*
X53561739Y-27124440D01*
X53604205Y-27175650D01*
X53640195Y-27229107D01*
X53670067Y-27285423D01*
X53694173Y-27345207D01*
X53712868Y-27409069D01*
X53716963Y-27426762D01*
X53718994Y-27436109D01*
X53720722Y-27444606D01*
X53722179Y-27452921D01*
X53723395Y-27461720D01*
X53724400Y-27471673D01*
X53725226Y-27483447D01*
X53725904Y-27497709D01*
X53726465Y-27515128D01*
X53726938Y-27536371D01*
X53727356Y-27562106D01*
X53727749Y-27593000D01*
X53728148Y-27629722D01*
X53728584Y-27672939D01*
X53728650Y-27679576D01*
X53730728Y-27888595D01*
X53753762Y-27907076D01*
X53824560Y-27968188D01*
X53892371Y-28035298D01*
X53956474Y-28107512D01*
X54016150Y-28183936D01*
X54070679Y-28263673D01*
X54119340Y-28345830D01*
X54142835Y-28390705D01*
X54181088Y-28472768D01*
X54213087Y-28553668D01*
X54239309Y-28634949D01*
X54260235Y-28718154D01*
X54276342Y-28804826D01*
X54280744Y-28834900D01*
X54283224Y-28857395D01*
X54285384Y-28885524D01*
X54287188Y-28917807D01*
X54288603Y-28952766D01*
X54289594Y-28988922D01*
X54290127Y-29024797D01*
X54290169Y-29058910D01*
X54289684Y-29089784D01*
X54288640Y-29115940D01*
X54287560Y-29130629D01*
X54274484Y-29231476D01*
X54254557Y-29329938D01*
X54227809Y-29425942D01*
X54194268Y-29519413D01*
X54153965Y-29610277D01*
X54106927Y-29698459D01*
X54053185Y-29783886D01*
X54005146Y-29850504D01*
X53962055Y-29903885D01*
X53915009Y-29956706D01*
X53865606Y-30007315D01*
X53815447Y-30054063D01*
X53773364Y-30089569D01*
X53732543Y-30122239D01*
X53732528Y-30314955D01*
X53732492Y-30361324D01*
X53732357Y-30401164D01*
X53732072Y-30435202D01*
X53731587Y-30464166D01*
X53730851Y-30488783D01*
X53729813Y-30509782D01*
X53728423Y-30527890D01*
X53726628Y-30543834D01*
X53724380Y-30558343D01*
X53721626Y-30572143D01*
X53718317Y-30585963D01*
X53714401Y-30600530D01*
X53712007Y-30608999D01*
X53689681Y-30674042D01*
X53660568Y-30736684D01*
X53624632Y-30796988D01*
X53591028Y-30842553D01*
X53591028Y-29178339D01*
X53590960Y-28431491D01*
X53590936Y-28356840D01*
X53590879Y-28283254D01*
X53590792Y-28211133D01*
X53590675Y-28140880D01*
X53590530Y-28072897D01*
X53590360Y-28007584D01*
X53590165Y-27945343D01*
X53589947Y-27886577D01*
X53589708Y-27831686D01*
X53589450Y-27781072D01*
X53589174Y-27735137D01*
X53588882Y-27694283D01*
X53588576Y-27658911D01*
X53588257Y-27629422D01*
X53587927Y-27606219D01*
X53587588Y-27589703D01*
X53587443Y-27584857D01*
X53585929Y-27543996D01*
X53584292Y-27509421D01*
X53582298Y-27480162D01*
X53579711Y-27455249D01*
X53576294Y-27433711D01*
X53571814Y-27414580D01*
X53566033Y-27396884D01*
X53558718Y-27379654D01*
X53549631Y-27361919D01*
X53538538Y-27342709D01*
X53525203Y-27321055D01*
X53522257Y-27316361D01*
X53483286Y-27260247D01*
X53440558Y-27209685D01*
X53394379Y-27164931D01*
X53345059Y-27126239D01*
X53292905Y-27093865D01*
X53238226Y-27068062D01*
X53208760Y-27057281D01*
X53198837Y-27054165D01*
X53188741Y-27051418D01*
X53177972Y-27049018D01*
X53166028Y-27046940D01*
X53152407Y-27045162D01*
X53136609Y-27043662D01*
X53118133Y-27042416D01*
X53096477Y-27041402D01*
X53071140Y-27040596D01*
X53041620Y-27039976D01*
X53007417Y-27039519D01*
X52968028Y-27039202D01*
X52922954Y-27039002D01*
X52871693Y-27038896D01*
X52813742Y-27038861D01*
X52805443Y-27038860D01*
X52742856Y-27038908D01*
X52687296Y-27039054D01*
X52638532Y-27039302D01*
X52596334Y-27039654D01*
X52560471Y-27040113D01*
X52530714Y-27040683D01*
X52506832Y-27041367D01*
X52488595Y-27042167D01*
X52475772Y-27043087D01*
X52474169Y-27043249D01*
X52425842Y-27051863D01*
X52376979Y-27067140D01*
X52328327Y-27088602D01*
X52280635Y-27115771D01*
X52234651Y-27148167D01*
X52191122Y-27185311D01*
X52150796Y-27226726D01*
X52114423Y-27271931D01*
X52112318Y-27274843D01*
X52098972Y-27295130D01*
X52084993Y-27319313D01*
X52071263Y-27345585D01*
X52058663Y-27372140D01*
X52048074Y-27397172D01*
X52040377Y-27418875D01*
X52038106Y-27427014D01*
X52035938Y-27436044D01*
X52033979Y-27444936D01*
X52032218Y-27454092D01*
X52030643Y-27463915D01*
X52029242Y-27474806D01*
X52028001Y-27487168D01*
X52026910Y-27501404D01*
X52025956Y-27517914D01*
X52025125Y-27537102D01*
X52024407Y-27559369D01*
X52023790Y-27585118D01*
X52023259Y-27614750D01*
X52022805Y-27648668D01*
X52022413Y-27687274D01*
X52022073Y-27730970D01*
X52021771Y-27780159D01*
X52021496Y-27835241D01*
X52021236Y-27896620D01*
X52020977Y-27964698D01*
X52020875Y-27993072D01*
X52019209Y-28457529D01*
X52032282Y-28497939D01*
X52051581Y-28549096D01*
X52075531Y-28596936D01*
X52104839Y-28642616D01*
X52140216Y-28687292D01*
X52164916Y-28714377D01*
X52201953Y-28750922D01*
X52240229Y-28784558D01*
X52278957Y-28814758D01*
X52317351Y-28840999D01*
X52354624Y-28862753D01*
X52389991Y-28879497D01*
X52422665Y-28890704D01*
X52432270Y-28893003D01*
X52443660Y-28895050D01*
X52457838Y-28896915D01*
X52475199Y-28898616D01*
X52496142Y-28900166D01*
X52521063Y-28901580D01*
X52550359Y-28902875D01*
X52584427Y-28904064D01*
X52623664Y-28905163D01*
X52668467Y-28906187D01*
X52719232Y-28907151D01*
X52776358Y-28908070D01*
X52840240Y-28908960D01*
X52858057Y-28909189D01*
X52913362Y-28909906D01*
X52961967Y-28910597D01*
X53004426Y-28911302D01*
X53041296Y-28912065D01*
X53073132Y-28912926D01*
X53100491Y-28913926D01*
X53123927Y-28915109D01*
X53143997Y-28916515D01*
X53161257Y-28918186D01*
X53176262Y-28920164D01*
X53189568Y-28922491D01*
X53201732Y-28925208D01*
X53213308Y-28928356D01*
X53224852Y-28931978D01*
X53236921Y-28936116D01*
X53242240Y-28938002D01*
X53291538Y-28957363D01*
X53338052Y-28979469D01*
X53382855Y-29005017D01*
X53427024Y-29034699D01*
X53471631Y-29069210D01*
X53517753Y-29109244D01*
X53541136Y-29130996D01*
X53591028Y-29178339D01*
X53591028Y-30842553D01*
X53581836Y-30855018D01*
X53540095Y-30902542D01*
X53486415Y-30954413D01*
X53429855Y-30999627D01*
X53370396Y-31038192D01*
X53308022Y-31070119D01*
X53242714Y-31095419D01*
X53180218Y-31112806D01*
X53174160Y-31114153D01*
X53168158Y-31115336D01*
X53161714Y-31116368D01*
X53154331Y-31117262D01*
X53145511Y-31118032D01*
X53134758Y-31118688D01*
X53121575Y-31119245D01*
X53105464Y-31119715D01*
X53085927Y-31120111D01*
X53062469Y-31120446D01*
X53034592Y-31120731D01*
X53001798Y-31120981D01*
X52963590Y-31121207D01*
X52919471Y-31121422D01*
X52868945Y-31121640D01*
X52829028Y-31121802D01*
X52772370Y-31122025D01*
X52722446Y-31122197D01*
X52678734Y-31122298D01*
X52640712Y-31122311D01*
X52607857Y-31122217D01*
X52579647Y-31121997D01*
X52555559Y-31121632D01*
X52535071Y-31121103D01*
X52517660Y-31120393D01*
X52502804Y-31119481D01*
X52489980Y-31118350D01*
X52478667Y-31116980D01*
X52468341Y-31115354D01*
X52458479Y-31113451D01*
X52448561Y-31111254D01*
X52438062Y-31108744D01*
X52433514Y-31107631D01*
X52374676Y-31089738D01*
X52331667Y-31071766D01*
X52331667Y-30744449D01*
X52343950Y-30742278D01*
X52345400Y-30741964D01*
X52363344Y-30737998D01*
X52387171Y-30732665D01*
X52416294Y-30726100D01*
X52450127Y-30718437D01*
X52488082Y-30709812D01*
X52529572Y-30700360D01*
X52574010Y-30690216D01*
X52620808Y-30679514D01*
X52669379Y-30668390D01*
X52719137Y-30656978D01*
X52769494Y-30645415D01*
X52819863Y-30633834D01*
X52869657Y-30622371D01*
X52918288Y-30611161D01*
X52965169Y-30600339D01*
X53009714Y-30590039D01*
X53051335Y-30580397D01*
X53089445Y-30571548D01*
X53123457Y-30563627D01*
X53152783Y-30556768D01*
X53176837Y-30551108D01*
X53195031Y-30546780D01*
X53206778Y-30543920D01*
X53207351Y-30543776D01*
X53220590Y-30540221D01*
X53228515Y-30536572D01*
X53232841Y-30530936D01*
X53235284Y-30521423D01*
X53236814Y-30511300D01*
X53237256Y-30504209D01*
X53237474Y-30491511D01*
X53237492Y-30474329D01*
X53237336Y-30453786D01*
X53237028Y-30431006D01*
X53236592Y-30407111D01*
X53236053Y-30383225D01*
X53235435Y-30360470D01*
X53234761Y-30339970D01*
X53234056Y-30322848D01*
X53233344Y-30310226D01*
X53232648Y-30303228D01*
X53232344Y-30302211D01*
X53228367Y-30301041D01*
X53218052Y-30298681D01*
X53202187Y-30295294D01*
X53181563Y-30291043D01*
X53156972Y-30286089D01*
X53129203Y-30280596D01*
X53099047Y-30274727D01*
X53093914Y-30273737D01*
X53044010Y-30264092D01*
X52995723Y-30254702D01*
X52949570Y-30245668D01*
X52906064Y-30237095D01*
X52865722Y-30229086D01*
X52829057Y-30221744D01*
X52796585Y-30215173D01*
X52768821Y-30209476D01*
X52746279Y-30204758D01*
X52729475Y-30201120D01*
X52718923Y-30198667D01*
X52715530Y-30197709D01*
X52711190Y-30195627D01*
X52712131Y-30193873D01*
X52719152Y-30191596D01*
X52721986Y-30190837D01*
X52727976Y-30189508D01*
X52740465Y-30186940D01*
X52758822Y-30183259D01*
X52782417Y-30178586D01*
X52810620Y-30173046D01*
X52842801Y-30166763D01*
X52878330Y-30159859D01*
X52916576Y-30152459D01*
X52956910Y-30144686D01*
X52975986Y-30141020D01*
X53016890Y-30133131D01*
X53055855Y-30125546D01*
X53092270Y-30118391D01*
X53125523Y-30111787D01*
X53155002Y-30105858D01*
X53180094Y-30100729D01*
X53200188Y-30096522D01*
X53214672Y-30093361D01*
X53222933Y-30091370D01*
X53224513Y-30090863D01*
X53232753Y-30083418D01*
X53235877Y-30075837D01*
X53236724Y-30068086D01*
X53237404Y-30054382D01*
X53237917Y-30035975D01*
X53238264Y-30014115D01*
X53238447Y-29990053D01*
X53238467Y-29965040D01*
X53238325Y-29940324D01*
X53238023Y-29917156D01*
X53237561Y-29896787D01*
X53236942Y-29880467D01*
X53236166Y-29869446D01*
X53235659Y-29866034D01*
X53233213Y-29856768D01*
X53231153Y-29851053D01*
X53230779Y-29850485D01*
X53226883Y-29849246D01*
X53216446Y-29846521D01*
X53199980Y-29842426D01*
X53177995Y-29837080D01*
X53151005Y-29830602D01*
X53119520Y-29823110D01*
X53084053Y-29814722D01*
X53045114Y-29805557D01*
X53003215Y-29795732D01*
X52958868Y-29785367D01*
X52912585Y-29774579D01*
X52864877Y-29763487D01*
X52816256Y-29752209D01*
X52767232Y-29740864D01*
X52718319Y-29729569D01*
X52670028Y-29718444D01*
X52622869Y-29707606D01*
X52577355Y-29697173D01*
X52571400Y-29695813D01*
X52571400Y-29511629D01*
X53239057Y-29511629D01*
X53239057Y-29286657D01*
X52571400Y-29286657D01*
X52571400Y-29511629D01*
X52571400Y-29695813D01*
X52533998Y-29687265D01*
X52493308Y-29677999D01*
X52455798Y-29669494D01*
X52421979Y-29661868D01*
X52392363Y-29655239D01*
X52386245Y-29653885D01*
X52386245Y-29530764D01*
X52409364Y-29526858D01*
X52421396Y-29522233D01*
X52442198Y-29508641D01*
X52461165Y-29489695D01*
X52476873Y-29467287D01*
X52487896Y-29443308D01*
X52491680Y-29428894D01*
X52493524Y-29408350D01*
X52492817Y-29384207D01*
X52489813Y-29359559D01*
X52484768Y-29337499D01*
X52483977Y-29334988D01*
X52472394Y-29308874D01*
X52456472Y-29286826D01*
X52437108Y-29269791D01*
X52415199Y-29258716D01*
X52410276Y-29257213D01*
X52392365Y-29254692D01*
X52371811Y-29255310D01*
X52351893Y-29258759D01*
X52337087Y-29264098D01*
X52321708Y-29274584D01*
X52306242Y-29289535D01*
X52292903Y-29306535D01*
X52284657Y-29321328D01*
X52277135Y-29344367D01*
X52272491Y-29370397D01*
X52270775Y-29397388D01*
X52272042Y-29423306D01*
X52276340Y-29446120D01*
X52281155Y-29459099D01*
X52291165Y-29475559D01*
X52304837Y-29492455D01*
X52320227Y-29507734D01*
X52335393Y-29519344D01*
X52341376Y-29522704D01*
X52362686Y-29529385D01*
X52386245Y-29530764D01*
X52386245Y-29653885D01*
X52367462Y-29649726D01*
X52347786Y-29645447D01*
X52333847Y-29642520D01*
X52326158Y-29641064D01*
X52324759Y-29640944D01*
X52324272Y-29644897D01*
X52323758Y-29655259D01*
X52323239Y-29671181D01*
X52322735Y-29691815D01*
X52322268Y-29716313D01*
X52321859Y-29743827D01*
X52321595Y-29766836D01*
X52320347Y-29890814D01*
X52466738Y-29912138D01*
X52512368Y-29918806D01*
X52556944Y-29925360D01*
X52599849Y-29931707D01*
X52640467Y-29937755D01*
X52678182Y-29943409D01*
X52712377Y-29948577D01*
X52742436Y-29953166D01*
X52767744Y-29957083D01*
X52787684Y-29960235D01*
X52801641Y-29962527D01*
X52808773Y-29963821D01*
X52815403Y-29965921D01*
X52815235Y-29968225D01*
X52814216Y-29968865D01*
X52809045Y-29970472D01*
X52796935Y-29973467D01*
X52778061Y-29977811D01*
X52752601Y-29983467D01*
X52720731Y-29990397D01*
X52682626Y-29998562D01*
X52638464Y-30007925D01*
X52588420Y-30018447D01*
X52532671Y-30030092D01*
X52471393Y-30042820D01*
X52459374Y-30045309D01*
X52428594Y-30051701D01*
X52400111Y-30057653D01*
X52374691Y-30063004D01*
X52353101Y-30067590D01*
X52336106Y-30071247D01*
X52324473Y-30073814D01*
X52318968Y-30075127D01*
X52318629Y-30075248D01*
X52318350Y-30078986D01*
X52318036Y-30089105D01*
X52317702Y-30104727D01*
X52317364Y-30124976D01*
X52317038Y-30148975D01*
X52316739Y-30175847D01*
X52316602Y-30190305D01*
X52315586Y-30304352D01*
X52379086Y-30317546D01*
X52396453Y-30321153D01*
X52419799Y-30325999D01*
X52447995Y-30331850D01*
X52479915Y-30338473D01*
X52514431Y-30345632D01*
X52550414Y-30353095D01*
X52586737Y-30360627D01*
X52604057Y-30364218D01*
X52651540Y-30374079D01*
X52692331Y-30382591D01*
X52726850Y-30389845D01*
X52755519Y-30395933D01*
X52778756Y-30400949D01*
X52796983Y-30404983D01*
X52810620Y-30408130D01*
X52820087Y-30410481D01*
X52825805Y-30412128D01*
X52828194Y-30413164D01*
X52828275Y-30413477D01*
X52824393Y-30414406D01*
X52814014Y-30416308D01*
X52797817Y-30419075D01*
X52776482Y-30422603D01*
X52750687Y-30426784D01*
X52721114Y-30431512D01*
X52688440Y-30436681D01*
X52653345Y-30442185D01*
X52616510Y-30447916D01*
X52578612Y-30453769D01*
X52540331Y-30459637D01*
X52502348Y-30465413D01*
X52465340Y-30470993D01*
X52429989Y-30476268D01*
X52396972Y-30481133D01*
X52385726Y-30482772D01*
X52317982Y-30492617D01*
X52315524Y-30525544D01*
X52314630Y-30542082D01*
X52314058Y-30562503D01*
X52313785Y-30585719D01*
X52313788Y-30610644D01*
X52314045Y-30636189D01*
X52314534Y-30661267D01*
X52315232Y-30684791D01*
X52316117Y-30705674D01*
X52317166Y-30722826D01*
X52318356Y-30735162D01*
X52319666Y-30741593D01*
X52320000Y-30742142D01*
X52324293Y-30744400D01*
X52331667Y-30744449D01*
X52331667Y-31071766D01*
X52316205Y-31065304D01*
X52258760Y-31034934D01*
X52202998Y-30999229D01*
X52149577Y-30958792D01*
X52099156Y-30914226D01*
X52052391Y-30866132D01*
X52009941Y-30815113D01*
X51972463Y-30761771D01*
X51940617Y-30706710D01*
X51915059Y-30650531D01*
X51905472Y-30624110D01*
X51900260Y-30608390D01*
X51895837Y-30594542D01*
X51892133Y-30581821D01*
X51889079Y-30569477D01*
X51886605Y-30556764D01*
X51884643Y-30542933D01*
X51883122Y-30527238D01*
X51881974Y-30508930D01*
X51881130Y-30487263D01*
X51880519Y-30461487D01*
X51880073Y-30430857D01*
X51879722Y-30394623D01*
X51879397Y-30352039D01*
X51879325Y-30342104D01*
X51877936Y-30151137D01*
X51842761Y-30123912D01*
X51788235Y-30078534D01*
X51733759Y-30027099D01*
X51680314Y-29970746D01*
X51628877Y-29910616D01*
X51580428Y-29847849D01*
X51535946Y-29783585D01*
X51499416Y-29724200D01*
X51452182Y-29635860D01*
X51412058Y-29546693D01*
X51378921Y-29456262D01*
X51352648Y-29364133D01*
X51333118Y-29269868D01*
X51320209Y-29173032D01*
X51313796Y-29073189D01*
X51313475Y-29061686D01*
X51314007Y-28961083D01*
X51314007Y-28961083D01*
G37*
X51314007Y-28961083D02*
X51320704Y-28863677D01*
X51333721Y-28768600D01*
X51353213Y-28674982D01*
X51379333Y-28581953D01*
X51412237Y-28488644D01*
X51418051Y-28473857D01*
X51453375Y-28392874D01*
X51494530Y-28312031D01*
X51540827Y-28232317D01*
X51591578Y-28154716D01*
X51646094Y-28080215D01*
X51703687Y-28009800D01*
X51763667Y-27944457D01*
X51825346Y-27885173D01*
X51835231Y-27876400D01*
X51871086Y-27844939D01*
X51871086Y-27662759D01*
X51871118Y-27617597D01*
X51871258Y-27578945D01*
X51871567Y-27546059D01*
X51872108Y-27518192D01*
X51872942Y-27494599D01*
X51874133Y-27474533D01*
X51875742Y-27457248D01*
X51877832Y-27442000D01*
X51880465Y-27428041D01*
X51883704Y-27414626D01*
X51887610Y-27401009D01*
X51892246Y-27386444D01*
X51894811Y-27378712D01*
X51910254Y-27338793D01*
X51930440Y-27296322D01*
X51954308Y-27253102D01*
X51980795Y-27210935D01*
X52008839Y-27171625D01*
X52036821Y-27137598D01*
X52074829Y-27098870D01*
X52118146Y-27061424D01*
X52165523Y-27026026D01*
X52215710Y-26993439D01*
X52267460Y-26964427D01*
X52319523Y-26939755D01*
X52370650Y-26920185D01*
X52411545Y-26908350D01*
X52423292Y-26905588D01*
X52434699Y-26903141D01*
X52446254Y-26900991D01*
X52458445Y-26899123D01*
X52471759Y-26897520D01*
X52486682Y-26896164D01*
X52503702Y-26895041D01*
X52523307Y-26894132D01*
X52545984Y-26893421D01*
X52572220Y-26892892D01*
X52602502Y-26892528D01*
X52637317Y-26892312D01*
X52677153Y-26892229D01*
X52722498Y-26892260D01*
X52773838Y-26892390D01*
X52831660Y-26892602D01*
X52868943Y-26892759D01*
X52927210Y-26893023D01*
X52978672Y-26893286D01*
X53023784Y-26893557D01*
X53062996Y-26893846D01*
X53096764Y-26894161D01*
X53125539Y-26894512D01*
X53149773Y-26894907D01*
X53169922Y-26895356D01*
X53186436Y-26895867D01*
X53199769Y-26896451D01*
X53210374Y-26897115D01*
X53218703Y-26897869D01*
X53225211Y-26898723D01*
X53230348Y-26899684D01*
X53231890Y-26900044D01*
X53265394Y-26909489D01*
X53297449Y-26921208D01*
X53328853Y-26935698D01*
X53360404Y-26953455D01*
X53392899Y-26974977D01*
X53427136Y-27000761D01*
X53463912Y-27031303D01*
X53504026Y-27067101D01*
X53512444Y-27074866D01*
X53561739Y-27124440D01*
X53604205Y-27175650D01*
X53640195Y-27229107D01*
X53670067Y-27285423D01*
X53694173Y-27345207D01*
X53712868Y-27409069D01*
X53716963Y-27426762D01*
X53718994Y-27436109D01*
X53720722Y-27444606D01*
X53722179Y-27452921D01*
X53723395Y-27461720D01*
X53724400Y-27471673D01*
X53725226Y-27483447D01*
X53725904Y-27497709D01*
X53726465Y-27515128D01*
X53726938Y-27536371D01*
X53727356Y-27562106D01*
X53727749Y-27593000D01*
X53728148Y-27629722D01*
X53728584Y-27672939D01*
X53728650Y-27679576D01*
X53730728Y-27888595D01*
X53753762Y-27907076D01*
X53824560Y-27968188D01*
X53892371Y-28035298D01*
X53956474Y-28107512D01*
X54016150Y-28183936D01*
X54070679Y-28263673D01*
X54119340Y-28345830D01*
X54142835Y-28390705D01*
X54181088Y-28472768D01*
X54213087Y-28553668D01*
X54239309Y-28634949D01*
X54260235Y-28718154D01*
X54276342Y-28804826D01*
X54280744Y-28834900D01*
X54283224Y-28857395D01*
X54285384Y-28885524D01*
X54287188Y-28917807D01*
X54288603Y-28952766D01*
X54289594Y-28988922D01*
X54290127Y-29024797D01*
X54290169Y-29058910D01*
X54289684Y-29089784D01*
X54288640Y-29115940D01*
X54287560Y-29130629D01*
X54274484Y-29231476D01*
X54254557Y-29329938D01*
X54227809Y-29425942D01*
X54194268Y-29519413D01*
X54153965Y-29610277D01*
X54106927Y-29698459D01*
X54053185Y-29783886D01*
X54005146Y-29850504D01*
X53962055Y-29903885D01*
X53915009Y-29956706D01*
X53865606Y-30007315D01*
X53815447Y-30054063D01*
X53773364Y-30089569D01*
X53732543Y-30122239D01*
X53732528Y-30314955D01*
X53732492Y-30361324D01*
X53732357Y-30401164D01*
X53732072Y-30435202D01*
X53731587Y-30464166D01*
X53730851Y-30488783D01*
X53729813Y-30509782D01*
X53728423Y-30527890D01*
X53726628Y-30543834D01*
X53724380Y-30558343D01*
X53721626Y-30572143D01*
X53718317Y-30585963D01*
X53714401Y-30600530D01*
X53712007Y-30608999D01*
X53689681Y-30674042D01*
X53660568Y-30736684D01*
X53624632Y-30796988D01*
X53591028Y-30842553D01*
X53591028Y-29178339D01*
X53590960Y-28431491D01*
X53590936Y-28356840D01*
X53590879Y-28283254D01*
X53590792Y-28211133D01*
X53590675Y-28140880D01*
X53590530Y-28072897D01*
X53590360Y-28007584D01*
X53590165Y-27945343D01*
X53589947Y-27886577D01*
X53589708Y-27831686D01*
X53589450Y-27781072D01*
X53589174Y-27735137D01*
X53588882Y-27694283D01*
X53588576Y-27658911D01*
X53588257Y-27629422D01*
X53587927Y-27606219D01*
X53587588Y-27589703D01*
X53587443Y-27584857D01*
X53585929Y-27543996D01*
X53584292Y-27509421D01*
X53582298Y-27480162D01*
X53579711Y-27455249D01*
X53576294Y-27433711D01*
X53571814Y-27414580D01*
X53566033Y-27396884D01*
X53558718Y-27379654D01*
X53549631Y-27361919D01*
X53538538Y-27342709D01*
X53525203Y-27321055D01*
X53522257Y-27316361D01*
X53483286Y-27260247D01*
X53440558Y-27209685D01*
X53394379Y-27164931D01*
X53345059Y-27126239D01*
X53292905Y-27093865D01*
X53238226Y-27068062D01*
X53208760Y-27057281D01*
X53198837Y-27054165D01*
X53188741Y-27051418D01*
X53177972Y-27049018D01*
X53166028Y-27046940D01*
X53152407Y-27045162D01*
X53136609Y-27043662D01*
X53118133Y-27042416D01*
X53096477Y-27041402D01*
X53071140Y-27040596D01*
X53041620Y-27039976D01*
X53007417Y-27039519D01*
X52968028Y-27039202D01*
X52922954Y-27039002D01*
X52871693Y-27038896D01*
X52813742Y-27038861D01*
X52805443Y-27038860D01*
X52742856Y-27038908D01*
X52687296Y-27039054D01*
X52638532Y-27039302D01*
X52596334Y-27039654D01*
X52560471Y-27040113D01*
X52530714Y-27040683D01*
X52506832Y-27041367D01*
X52488595Y-27042167D01*
X52475772Y-27043087D01*
X52474169Y-27043249D01*
X52425842Y-27051863D01*
X52376979Y-27067140D01*
X52328327Y-27088602D01*
X52280635Y-27115771D01*
X52234651Y-27148167D01*
X52191122Y-27185311D01*
X52150796Y-27226726D01*
X52114423Y-27271931D01*
X52112318Y-27274843D01*
X52098972Y-27295130D01*
X52084993Y-27319313D01*
X52071263Y-27345585D01*
X52058663Y-27372140D01*
X52048074Y-27397172D01*
X52040377Y-27418875D01*
X52038106Y-27427014D01*
X52035938Y-27436044D01*
X52033979Y-27444936D01*
X52032218Y-27454092D01*
X52030643Y-27463915D01*
X52029242Y-27474806D01*
X52028001Y-27487168D01*
X52026910Y-27501404D01*
X52025956Y-27517914D01*
X52025125Y-27537102D01*
X52024407Y-27559369D01*
X52023790Y-27585118D01*
X52023259Y-27614750D01*
X52022805Y-27648668D01*
X52022413Y-27687274D01*
X52022073Y-27730970D01*
X52021771Y-27780159D01*
X52021496Y-27835241D01*
X52021236Y-27896620D01*
X52020977Y-27964698D01*
X52020875Y-27993072D01*
X52019209Y-28457529D01*
X52032282Y-28497939D01*
X52051581Y-28549096D01*
X52075531Y-28596936D01*
X52104839Y-28642616D01*
X52140216Y-28687292D01*
X52164916Y-28714377D01*
X52201953Y-28750922D01*
X52240229Y-28784558D01*
X52278957Y-28814758D01*
X52317351Y-28840999D01*
X52354624Y-28862753D01*
X52389991Y-28879497D01*
X52422665Y-28890704D01*
X52432270Y-28893003D01*
X52443660Y-28895050D01*
X52457838Y-28896915D01*
X52475199Y-28898616D01*
X52496142Y-28900166D01*
X52521063Y-28901580D01*
X52550359Y-28902875D01*
X52584427Y-28904064D01*
X52623664Y-28905163D01*
X52668467Y-28906187D01*
X52719232Y-28907151D01*
X52776358Y-28908070D01*
X52840240Y-28908960D01*
X52858057Y-28909189D01*
X52913362Y-28909906D01*
X52961967Y-28910597D01*
X53004426Y-28911302D01*
X53041296Y-28912065D01*
X53073132Y-28912926D01*
X53100491Y-28913926D01*
X53123927Y-28915109D01*
X53143997Y-28916515D01*
X53161257Y-28918186D01*
X53176262Y-28920164D01*
X53189568Y-28922491D01*
X53201732Y-28925208D01*
X53213308Y-28928356D01*
X53224852Y-28931978D01*
X53236921Y-28936116D01*
X53242240Y-28938002D01*
X53291538Y-28957363D01*
X53338052Y-28979469D01*
X53382855Y-29005017D01*
X53427024Y-29034699D01*
X53471631Y-29069210D01*
X53517753Y-29109244D01*
X53541136Y-29130996D01*
X53591028Y-29178339D01*
X53591028Y-30842553D01*
X53581836Y-30855018D01*
X53540095Y-30902542D01*
X53486415Y-30954413D01*
X53429855Y-30999627D01*
X53370396Y-31038192D01*
X53308022Y-31070119D01*
X53242714Y-31095419D01*
X53180218Y-31112806D01*
X53174160Y-31114153D01*
X53168158Y-31115336D01*
X53161714Y-31116368D01*
X53154331Y-31117262D01*
X53145511Y-31118032D01*
X53134758Y-31118688D01*
X53121575Y-31119245D01*
X53105464Y-31119715D01*
X53085927Y-31120111D01*
X53062469Y-31120446D01*
X53034592Y-31120731D01*
X53001798Y-31120981D01*
X52963590Y-31121207D01*
X52919471Y-31121422D01*
X52868945Y-31121640D01*
X52829028Y-31121802D01*
X52772370Y-31122025D01*
X52722446Y-31122197D01*
X52678734Y-31122298D01*
X52640712Y-31122311D01*
X52607857Y-31122217D01*
X52579647Y-31121997D01*
X52555559Y-31121632D01*
X52535071Y-31121103D01*
X52517660Y-31120393D01*
X52502804Y-31119481D01*
X52489980Y-31118350D01*
X52478667Y-31116980D01*
X52468341Y-31115354D01*
X52458479Y-31113451D01*
X52448561Y-31111254D01*
X52438062Y-31108744D01*
X52433514Y-31107631D01*
X52374676Y-31089738D01*
X52331667Y-31071766D01*
X52331667Y-30744449D01*
X52343950Y-30742278D01*
X52345400Y-30741964D01*
X52363344Y-30737998D01*
X52387171Y-30732665D01*
X52416294Y-30726100D01*
X52450127Y-30718437D01*
X52488082Y-30709812D01*
X52529572Y-30700360D01*
X52574010Y-30690216D01*
X52620808Y-30679514D01*
X52669379Y-30668390D01*
X52719137Y-30656978D01*
X52769494Y-30645415D01*
X52819863Y-30633834D01*
X52869657Y-30622371D01*
X52918288Y-30611161D01*
X52965169Y-30600339D01*
X53009714Y-30590039D01*
X53051335Y-30580397D01*
X53089445Y-30571548D01*
X53123457Y-30563627D01*
X53152783Y-30556768D01*
X53176837Y-30551108D01*
X53195031Y-30546780D01*
X53206778Y-30543920D01*
X53207351Y-30543776D01*
X53220590Y-30540221D01*
X53228515Y-30536572D01*
X53232841Y-30530936D01*
X53235284Y-30521423D01*
X53236814Y-30511300D01*
X53237256Y-30504209D01*
X53237474Y-30491511D01*
X53237492Y-30474329D01*
X53237336Y-30453786D01*
X53237028Y-30431006D01*
X53236592Y-30407111D01*
X53236053Y-30383225D01*
X53235435Y-30360470D01*
X53234761Y-30339970D01*
X53234056Y-30322848D01*
X53233344Y-30310226D01*
X53232648Y-30303228D01*
X53232344Y-30302211D01*
X53228367Y-30301041D01*
X53218052Y-30298681D01*
X53202187Y-30295294D01*
X53181563Y-30291043D01*
X53156972Y-30286089D01*
X53129203Y-30280596D01*
X53099047Y-30274727D01*
X53093914Y-30273737D01*
X53044010Y-30264092D01*
X52995723Y-30254702D01*
X52949570Y-30245668D01*
X52906064Y-30237095D01*
X52865722Y-30229086D01*
X52829057Y-30221744D01*
X52796585Y-30215173D01*
X52768821Y-30209476D01*
X52746279Y-30204758D01*
X52729475Y-30201120D01*
X52718923Y-30198667D01*
X52715530Y-30197709D01*
X52711190Y-30195627D01*
X52712131Y-30193873D01*
X52719152Y-30191596D01*
X52721986Y-30190837D01*
X52727976Y-30189508D01*
X52740465Y-30186940D01*
X52758822Y-30183259D01*
X52782417Y-30178586D01*
X52810620Y-30173046D01*
X52842801Y-30166763D01*
X52878330Y-30159859D01*
X52916576Y-30152459D01*
X52956910Y-30144686D01*
X52975986Y-30141020D01*
X53016890Y-30133131D01*
X53055855Y-30125546D01*
X53092270Y-30118391D01*
X53125523Y-30111787D01*
X53155002Y-30105858D01*
X53180094Y-30100729D01*
X53200188Y-30096522D01*
X53214672Y-30093361D01*
X53222933Y-30091370D01*
X53224513Y-30090863D01*
X53232753Y-30083418D01*
X53235877Y-30075837D01*
X53236724Y-30068086D01*
X53237404Y-30054382D01*
X53237917Y-30035975D01*
X53238264Y-30014115D01*
X53238447Y-29990053D01*
X53238467Y-29965040D01*
X53238325Y-29940324D01*
X53238023Y-29917156D01*
X53237561Y-29896787D01*
X53236942Y-29880467D01*
X53236166Y-29869446D01*
X53235659Y-29866034D01*
X53233213Y-29856768D01*
X53231153Y-29851053D01*
X53230779Y-29850485D01*
X53226883Y-29849246D01*
X53216446Y-29846521D01*
X53199980Y-29842426D01*
X53177995Y-29837080D01*
X53151005Y-29830602D01*
X53119520Y-29823110D01*
X53084053Y-29814722D01*
X53045114Y-29805557D01*
X53003215Y-29795732D01*
X52958868Y-29785367D01*
X52912585Y-29774579D01*
X52864877Y-29763487D01*
X52816256Y-29752209D01*
X52767232Y-29740864D01*
X52718319Y-29729569D01*
X52670028Y-29718444D01*
X52622869Y-29707606D01*
X52577355Y-29697173D01*
X52571400Y-29695813D01*
X52571400Y-29511629D01*
X53239057Y-29511629D01*
X53239057Y-29286657D01*
X52571400Y-29286657D01*
X52571400Y-29511629D01*
X52571400Y-29695813D01*
X52533998Y-29687265D01*
X52493308Y-29677999D01*
X52455798Y-29669494D01*
X52421979Y-29661868D01*
X52392363Y-29655239D01*
X52386245Y-29653885D01*
X52386245Y-29530764D01*
X52409364Y-29526858D01*
X52421396Y-29522233D01*
X52442198Y-29508641D01*
X52461165Y-29489695D01*
X52476873Y-29467287D01*
X52487896Y-29443308D01*
X52491680Y-29428894D01*
X52493524Y-29408350D01*
X52492817Y-29384207D01*
X52489813Y-29359559D01*
X52484768Y-29337499D01*
X52483977Y-29334988D01*
X52472394Y-29308874D01*
X52456472Y-29286826D01*
X52437108Y-29269791D01*
X52415199Y-29258716D01*
X52410276Y-29257213D01*
X52392365Y-29254692D01*
X52371811Y-29255310D01*
X52351893Y-29258759D01*
X52337087Y-29264098D01*
X52321708Y-29274584D01*
X52306242Y-29289535D01*
X52292903Y-29306535D01*
X52284657Y-29321328D01*
X52277135Y-29344367D01*
X52272491Y-29370397D01*
X52270775Y-29397388D01*
X52272042Y-29423306D01*
X52276340Y-29446120D01*
X52281155Y-29459099D01*
X52291165Y-29475559D01*
X52304837Y-29492455D01*
X52320227Y-29507734D01*
X52335393Y-29519344D01*
X52341376Y-29522704D01*
X52362686Y-29529385D01*
X52386245Y-29530764D01*
X52386245Y-29653885D01*
X52367462Y-29649726D01*
X52347786Y-29645447D01*
X52333847Y-29642520D01*
X52326158Y-29641064D01*
X52324759Y-29640944D01*
X52324272Y-29644897D01*
X52323758Y-29655259D01*
X52323239Y-29671181D01*
X52322735Y-29691815D01*
X52322268Y-29716313D01*
X52321859Y-29743827D01*
X52321595Y-29766836D01*
X52320347Y-29890814D01*
X52466738Y-29912138D01*
X52512368Y-29918806D01*
X52556944Y-29925360D01*
X52599849Y-29931707D01*
X52640467Y-29937755D01*
X52678182Y-29943409D01*
X52712377Y-29948577D01*
X52742436Y-29953166D01*
X52767744Y-29957083D01*
X52787684Y-29960235D01*
X52801641Y-29962527D01*
X52808773Y-29963821D01*
X52815403Y-29965921D01*
X52815235Y-29968225D01*
X52814216Y-29968865D01*
X52809045Y-29970472D01*
X52796935Y-29973467D01*
X52778061Y-29977811D01*
X52752601Y-29983467D01*
X52720731Y-29990397D01*
X52682626Y-29998562D01*
X52638464Y-30007925D01*
X52588420Y-30018447D01*
X52532671Y-30030092D01*
X52471393Y-30042820D01*
X52459374Y-30045309D01*
X52428594Y-30051701D01*
X52400111Y-30057653D01*
X52374691Y-30063004D01*
X52353101Y-30067590D01*
X52336106Y-30071247D01*
X52324473Y-30073814D01*
X52318968Y-30075127D01*
X52318629Y-30075248D01*
X52318350Y-30078986D01*
X52318036Y-30089105D01*
X52317702Y-30104727D01*
X52317364Y-30124976D01*
X52317038Y-30148975D01*
X52316739Y-30175847D01*
X52316602Y-30190305D01*
X52315586Y-30304352D01*
X52379086Y-30317546D01*
X52396453Y-30321153D01*
X52419799Y-30325999D01*
X52447995Y-30331850D01*
X52479915Y-30338473D01*
X52514431Y-30345632D01*
X52550414Y-30353095D01*
X52586737Y-30360627D01*
X52604057Y-30364218D01*
X52651540Y-30374079D01*
X52692331Y-30382591D01*
X52726850Y-30389845D01*
X52755519Y-30395933D01*
X52778756Y-30400949D01*
X52796983Y-30404983D01*
X52810620Y-30408130D01*
X52820087Y-30410481D01*
X52825805Y-30412128D01*
X52828194Y-30413164D01*
X52828275Y-30413477D01*
X52824393Y-30414406D01*
X52814014Y-30416308D01*
X52797817Y-30419075D01*
X52776482Y-30422603D01*
X52750687Y-30426784D01*
X52721114Y-30431512D01*
X52688440Y-30436681D01*
X52653345Y-30442185D01*
X52616510Y-30447916D01*
X52578612Y-30453769D01*
X52540331Y-30459637D01*
X52502348Y-30465413D01*
X52465340Y-30470993D01*
X52429989Y-30476268D01*
X52396972Y-30481133D01*
X52385726Y-30482772D01*
X52317982Y-30492617D01*
X52315524Y-30525544D01*
X52314630Y-30542082D01*
X52314058Y-30562503D01*
X52313785Y-30585719D01*
X52313788Y-30610644D01*
X52314045Y-30636189D01*
X52314534Y-30661267D01*
X52315232Y-30684791D01*
X52316117Y-30705674D01*
X52317166Y-30722826D01*
X52318356Y-30735162D01*
X52319666Y-30741593D01*
X52320000Y-30742142D01*
X52324293Y-30744400D01*
X52331667Y-30744449D01*
X52331667Y-31071766D01*
X52316205Y-31065304D01*
X52258760Y-31034934D01*
X52202998Y-30999229D01*
X52149577Y-30958792D01*
X52099156Y-30914226D01*
X52052391Y-30866132D01*
X52009941Y-30815113D01*
X51972463Y-30761771D01*
X51940617Y-30706710D01*
X51915059Y-30650531D01*
X51905472Y-30624110D01*
X51900260Y-30608390D01*
X51895837Y-30594542D01*
X51892133Y-30581821D01*
X51889079Y-30569477D01*
X51886605Y-30556764D01*
X51884643Y-30542933D01*
X51883122Y-30527238D01*
X51881974Y-30508930D01*
X51881130Y-30487263D01*
X51880519Y-30461487D01*
X51880073Y-30430857D01*
X51879722Y-30394623D01*
X51879397Y-30352039D01*
X51879325Y-30342104D01*
X51877936Y-30151137D01*
X51842761Y-30123912D01*
X51788235Y-30078534D01*
X51733759Y-30027099D01*
X51680314Y-29970746D01*
X51628877Y-29910616D01*
X51580428Y-29847849D01*
X51535946Y-29783585D01*
X51499416Y-29724200D01*
X51452182Y-29635860D01*
X51412058Y-29546693D01*
X51378921Y-29456262D01*
X51352648Y-29364133D01*
X51333118Y-29269868D01*
X51320209Y-29173032D01*
X51313796Y-29073189D01*
X51313475Y-29061686D01*
X51314007Y-28961083D01*
G36*
X53242686Y-27399800D02*
X53242686Y-27632029D01*
X52567771Y-27632029D01*
X52567771Y-27399800D01*
X53242686Y-27399800D01*
X53242686Y-27399800D01*
G37*
X53242686Y-27399800D02*
X53242686Y-27632029D01*
X52567771Y-27632029D01*
X52567771Y-27399800D01*
X53242686Y-27399800D01*
G36*
X52531486Y-27773543D02*
X52531486Y-28328714D01*
X52745571Y-28328714D01*
X52745571Y-27838857D01*
X52963286Y-27838857D01*
X52963286Y-28328714D01*
X53235428Y-28328714D01*
X53235428Y-28585583D01*
X52815421Y-28587836D01*
X52759881Y-28588150D01*
X52705751Y-28588487D01*
X52653547Y-28588841D01*
X52603783Y-28589210D01*
X52556974Y-28589586D01*
X52513635Y-28589967D01*
X52474280Y-28590346D01*
X52439424Y-28590719D01*
X52409581Y-28591081D01*
X52385267Y-28591428D01*
X52366997Y-28591755D01*
X52355284Y-28592056D01*
X52352778Y-28592157D01*
X52310143Y-28594225D01*
X52310143Y-27773543D01*
X52531486Y-27773543D01*
X52531486Y-27773543D01*
G37*
X52531486Y-27773543D02*
X52531486Y-28328714D01*
X52745571Y-28328714D01*
X52745571Y-27838857D01*
X52963286Y-27838857D01*
X52963286Y-28328714D01*
X53235428Y-28328714D01*
X53235428Y-28585583D01*
X52815421Y-28587836D01*
X52759881Y-28588150D01*
X52705751Y-28588487D01*
X52653547Y-28588841D01*
X52603783Y-28589210D01*
X52556974Y-28589586D01*
X52513635Y-28589967D01*
X52474280Y-28590346D01*
X52439424Y-28590719D01*
X52409581Y-28591081D01*
X52385267Y-28591428D01*
X52366997Y-28591755D01*
X52355284Y-28592056D01*
X52352778Y-28592157D01*
X52310143Y-28594225D01*
X52310143Y-27773543D01*
X52531486Y-27773543D01*
G36*
X52264655Y-27490460D02*
X52265569Y-27483544D01*
X52272827Y-27454109D01*
X52284729Y-27426922D01*
X52300463Y-27403238D01*
X52319217Y-27384309D01*
X52337357Y-27372685D01*
X52349314Y-27368566D01*
X52364690Y-27365429D01*
X52375457Y-27364271D01*
X52402711Y-27365968D01*
X52427533Y-27374016D01*
X52449464Y-27387786D01*
X52468044Y-27406646D01*
X52482816Y-27429965D01*
X52493320Y-27457110D01*
X52499098Y-27487452D01*
X52499691Y-27520359D01*
X52498450Y-27533491D01*
X52491677Y-27562201D01*
X52479274Y-27589394D01*
X52462219Y-27613591D01*
X52441493Y-27633311D01*
X52425695Y-27643464D01*
X52406123Y-27650211D01*
X52383593Y-27652314D01*
X52360714Y-27649783D01*
X52340986Y-27643077D01*
X52316919Y-27627384D01*
X52296701Y-27606336D01*
X52280849Y-27581027D01*
X52269880Y-27552550D01*
X52264310Y-27521997D01*
X52264655Y-27490460D01*
X52264655Y-27490460D01*
G37*
X52264655Y-27490460D02*
X52265569Y-27483544D01*
X52272827Y-27454109D01*
X52284729Y-27426922D01*
X52300463Y-27403238D01*
X52319217Y-27384309D01*
X52337357Y-27372685D01*
X52349314Y-27368566D01*
X52364690Y-27365429D01*
X52375457Y-27364271D01*
X52402711Y-27365968D01*
X52427533Y-27374016D01*
X52449464Y-27387786D01*
X52468044Y-27406646D01*
X52482816Y-27429965D01*
X52493320Y-27457110D01*
X52499098Y-27487452D01*
X52499691Y-27520359D01*
X52498450Y-27533491D01*
X52491677Y-27562201D01*
X52479274Y-27589394D01*
X52462219Y-27613591D01*
X52441493Y-27633311D01*
X52425695Y-27643464D01*
X52406123Y-27650211D01*
X52383593Y-27652314D01*
X52360714Y-27649783D01*
X52340986Y-27643077D01*
X52316919Y-27627384D01*
X52296701Y-27606336D01*
X52280849Y-27581027D01*
X52269880Y-27552550D01*
X52264310Y-27521997D01*
X52264655Y-27490460D01*
D12*
X23257143Y-45166666D02*
X23304762Y-45214285D01*
X23352381Y-45357142D01*
X23352381Y-45452380D01*
X23304762Y-45595238D01*
X23209524Y-45690476D01*
X23114286Y-45738095D01*
X22923810Y-45785714D01*
X22780952Y-45785714D01*
X22590476Y-45738095D01*
X22495238Y-45690476D01*
X22400000Y-45595238D01*
X22352381Y-45452380D01*
X22352381Y-45357142D01*
X22400000Y-45214285D01*
X22447619Y-45166666D01*
X22352381Y-44833333D02*
X22352381Y-44214285D01*
X22733333Y-44547619D01*
X22733333Y-44404761D01*
X22780952Y-44309523D01*
X22828571Y-44261904D01*
X22923810Y-44214285D01*
X23161905Y-44214285D01*
X23257143Y-44261904D01*
X23304762Y-44309523D01*
X23352381Y-44404761D01*
X23352381Y-44690476D01*
X23304762Y-44785714D01*
X23257143Y-44833333D01*
X31938095Y-29952381D02*
X31938095Y-30761905D01*
X31985714Y-30857143D01*
X32033333Y-30904762D01*
X32128571Y-30952381D01*
X32319048Y-30952381D01*
X32414286Y-30904762D01*
X32461905Y-30857143D01*
X32509524Y-30761905D01*
X32509524Y-29952381D01*
X33509524Y-30952381D02*
X32938095Y-30952381D01*
X33223809Y-30952381D02*
X33223809Y-29952381D01*
X33128571Y-30095238D01*
X33033333Y-30190476D01*
X32938095Y-30238095D01*
X42961905Y-39652381D02*
X42961905Y-38652381D01*
X43342858Y-38652381D01*
X43438096Y-38700000D01*
X43485715Y-38747619D01*
X43533334Y-38842857D01*
X43533334Y-38985714D01*
X43485715Y-39080952D01*
X43438096Y-39128571D01*
X43342858Y-39176190D01*
X42961905Y-39176190D01*
X43866667Y-38652381D02*
X44485715Y-38652381D01*
X44152381Y-39033333D01*
X44295239Y-39033333D01*
X44390477Y-39080952D01*
X44438096Y-39128571D01*
X44485715Y-39223810D01*
X44485715Y-39461905D01*
X44438096Y-39557143D01*
X44390477Y-39604762D01*
X44295239Y-39652381D01*
X44009524Y-39652381D01*
X43914286Y-39604762D01*
X43866667Y-39557143D01*
X46538095Y-35052381D02*
X46538095Y-35861905D01*
X46585714Y-35957143D01*
X46633333Y-36004762D01*
X46728571Y-36052381D01*
X46919048Y-36052381D01*
X47014286Y-36004762D01*
X47061905Y-35957143D01*
X47109524Y-35861905D01*
X47109524Y-35052381D01*
X47490476Y-35052381D02*
X48157143Y-35052381D01*
X47728571Y-36052381D01*
X23733334Y-41657143D02*
X23685715Y-41704762D01*
X23542858Y-41752381D01*
X23447620Y-41752381D01*
X23304762Y-41704762D01*
X23209524Y-41609524D01*
X23161905Y-41514286D01*
X23114286Y-41323810D01*
X23114286Y-41180952D01*
X23161905Y-40990476D01*
X23209524Y-40895238D01*
X23304762Y-40800000D01*
X23447620Y-40752381D01*
X23542858Y-40752381D01*
X23685715Y-40800000D01*
X23733334Y-40847619D01*
X24114286Y-40847619D02*
X24161905Y-40800000D01*
X24257143Y-40752381D01*
X24495239Y-40752381D01*
X24590477Y-40800000D01*
X24638096Y-40847619D01*
X24685715Y-40942857D01*
X24685715Y-41038095D01*
X24638096Y-41180952D01*
X24066667Y-41752381D01*
X24685715Y-41752381D01*
X38438095Y-27352381D02*
X38438095Y-28161905D01*
X38485714Y-28257143D01*
X38533333Y-28304762D01*
X38628571Y-28352381D01*
X38819048Y-28352381D01*
X38914286Y-28304762D01*
X38961905Y-28257143D01*
X39009524Y-28161905D01*
X39009524Y-27352381D01*
X39961905Y-27352381D02*
X39485714Y-27352381D01*
X39438095Y-27828571D01*
X39485714Y-27780952D01*
X39580952Y-27733333D01*
X39819048Y-27733333D01*
X39914286Y-27780952D01*
X39961905Y-27828571D01*
X40009524Y-27923810D01*
X40009524Y-28161905D01*
X39961905Y-28257143D01*
X39914286Y-28304762D01*
X39819048Y-28352381D01*
X39580952Y-28352381D01*
X39485714Y-28304762D01*
X39438095Y-28257143D01*
X21766667Y-27419048D02*
X21766667Y-26942857D01*
X22052381Y-27514286D02*
X21052381Y-27180953D01*
X22052381Y-26847619D01*
X22052381Y-26514286D02*
X21052381Y-26514286D01*
X22052381Y-25942857D01*
X21052381Y-25942857D01*
X21052381Y-25609524D02*
X21052381Y-25038095D01*
X22052381Y-25323810D02*
X21052381Y-25323810D01*
X22052381Y-24180952D02*
X22052381Y-24752381D01*
X22052381Y-24466667D02*
X21052381Y-24466667D01*
X21195238Y-24561905D01*
X21290476Y-24657143D01*
X21338095Y-24752381D01*
X26633334Y-31357143D02*
X26585715Y-31404762D01*
X26442858Y-31452381D01*
X26347620Y-31452381D01*
X26204762Y-31404762D01*
X26109524Y-31309524D01*
X26061905Y-31214286D01*
X26014286Y-31023810D01*
X26014286Y-30880952D01*
X26061905Y-30690476D01*
X26109524Y-30595238D01*
X26204762Y-30500000D01*
X26347620Y-30452381D01*
X26442858Y-30452381D01*
X26585715Y-30500000D01*
X26633334Y-30547619D01*
X27585715Y-31452381D02*
X27014286Y-31452381D01*
X27300000Y-31452381D02*
X27300000Y-30452381D01*
X27204762Y-30595238D01*
X27109524Y-30690476D01*
X27014286Y-30738095D01*
X23333334Y-49957143D02*
X23285715Y-50004762D01*
X23142858Y-50052381D01*
X23047620Y-50052381D01*
X22904762Y-50004762D01*
X22809524Y-49909524D01*
X22761905Y-49814286D01*
X22714286Y-49623810D01*
X22714286Y-49480952D01*
X22761905Y-49290476D01*
X22809524Y-49195238D01*
X22904762Y-49100000D01*
X23047620Y-49052381D01*
X23142858Y-49052381D01*
X23285715Y-49100000D01*
X23333334Y-49147619D01*
X24190477Y-49385714D02*
X24190477Y-50052381D01*
X23952381Y-49004762D02*
X23714286Y-49719048D01*
X24333334Y-49719048D01*
X40257143Y-48166666D02*
X40304762Y-48214285D01*
X40352381Y-48357142D01*
X40352381Y-48452380D01*
X40304762Y-48595238D01*
X40209524Y-48690476D01*
X40114286Y-48738095D01*
X39923810Y-48785714D01*
X39780952Y-48785714D01*
X39590476Y-48738095D01*
X39495238Y-48690476D01*
X39400000Y-48595238D01*
X39352381Y-48452380D01*
X39352381Y-48357142D01*
X39400000Y-48214285D01*
X39447619Y-48166666D01*
X39352381Y-47261904D02*
X39352381Y-47738095D01*
X39828571Y-47785714D01*
X39780952Y-47738095D01*
X39733333Y-47642857D01*
X39733333Y-47404761D01*
X39780952Y-47309523D01*
X39828571Y-47261904D01*
X39923810Y-47214285D01*
X40161905Y-47214285D01*
X40257143Y-47261904D01*
X40304762Y-47309523D01*
X40352381Y-47404761D01*
X40352381Y-47642857D01*
X40304762Y-47738095D01*
X40257143Y-47785714D01*
X51857143Y-44866666D02*
X51904762Y-44914285D01*
X51952381Y-45057142D01*
X51952381Y-45152380D01*
X51904762Y-45295238D01*
X51809524Y-45390476D01*
X51714286Y-45438095D01*
X51523810Y-45485714D01*
X51380952Y-45485714D01*
X51190476Y-45438095D01*
X51095238Y-45390476D01*
X51000000Y-45295238D01*
X50952381Y-45152380D01*
X50952381Y-45057142D01*
X51000000Y-44914285D01*
X51047619Y-44866666D01*
X50952381Y-44009523D02*
X50952381Y-44200000D01*
X51000000Y-44295238D01*
X51047619Y-44342857D01*
X51190476Y-44438095D01*
X51380952Y-44485714D01*
X51761905Y-44485714D01*
X51857143Y-44438095D01*
X51904762Y-44390476D01*
X51952381Y-44295238D01*
X51952381Y-44104761D01*
X51904762Y-44009523D01*
X51857143Y-43961904D01*
X51761905Y-43914285D01*
X51523810Y-43914285D01*
X51428571Y-43961904D01*
X51380952Y-44009523D01*
X51333333Y-44104761D01*
X51333333Y-44295238D01*
X51380952Y-44390476D01*
X51428571Y-44438095D01*
X51523810Y-44485714D01*
X50457143Y-44866666D02*
X50504762Y-44914285D01*
X50552381Y-45057142D01*
X50552381Y-45152380D01*
X50504762Y-45295238D01*
X50409524Y-45390476D01*
X50314286Y-45438095D01*
X50123810Y-45485714D01*
X49980952Y-45485714D01*
X49790476Y-45438095D01*
X49695238Y-45390476D01*
X49600000Y-45295238D01*
X49552381Y-45152380D01*
X49552381Y-45057142D01*
X49600000Y-44914285D01*
X49647619Y-44866666D01*
X49552381Y-44533333D02*
X49552381Y-43866666D01*
X50552381Y-44295238D01*
X26257143Y-25666666D02*
X26304762Y-25714285D01*
X26352381Y-25857142D01*
X26352381Y-25952380D01*
X26304762Y-26095238D01*
X26209524Y-26190476D01*
X26114286Y-26238095D01*
X25923810Y-26285714D01*
X25780952Y-26285714D01*
X25590476Y-26238095D01*
X25495238Y-26190476D01*
X25400000Y-26095238D01*
X25352381Y-25952380D01*
X25352381Y-25857142D01*
X25400000Y-25714285D01*
X25447619Y-25666666D01*
X25780952Y-25095238D02*
X25733333Y-25190476D01*
X25685714Y-25238095D01*
X25590476Y-25285714D01*
X25542857Y-25285714D01*
X25447619Y-25238095D01*
X25400000Y-25190476D01*
X25352381Y-25095238D01*
X25352381Y-24904761D01*
X25400000Y-24809523D01*
X25447619Y-24761904D01*
X25542857Y-24714285D01*
X25590476Y-24714285D01*
X25685714Y-24761904D01*
X25733333Y-24809523D01*
X25780952Y-24904761D01*
X25780952Y-25095238D01*
X25828571Y-25190476D01*
X25876190Y-25238095D01*
X25971429Y-25285714D01*
X26161905Y-25285714D01*
X26257143Y-25238095D01*
X26304762Y-25190476D01*
X26352381Y-25095238D01*
X26352381Y-24904761D01*
X26304762Y-24809523D01*
X26257143Y-24761904D01*
X26161905Y-24714285D01*
X25971429Y-24714285D01*
X25876190Y-24761904D01*
X25828571Y-24809523D01*
X25780952Y-24904761D01*
X39157143Y-22166666D02*
X39204762Y-22214285D01*
X39252381Y-22357142D01*
X39252381Y-22452380D01*
X39204762Y-22595238D01*
X39109524Y-22690476D01*
X39014286Y-22738095D01*
X38823810Y-22785714D01*
X38680952Y-22785714D01*
X38490476Y-22738095D01*
X38395238Y-22690476D01*
X38300000Y-22595238D01*
X38252381Y-22452380D01*
X38252381Y-22357142D01*
X38300000Y-22214285D01*
X38347619Y-22166666D01*
X39252381Y-21690476D02*
X39252381Y-21500000D01*
X39204762Y-21404761D01*
X39157143Y-21357142D01*
X39014286Y-21261904D01*
X38823810Y-21214285D01*
X38442857Y-21214285D01*
X38347619Y-21261904D01*
X38300000Y-21309523D01*
X38252381Y-21404761D01*
X38252381Y-21595238D01*
X38300000Y-21690476D01*
X38347619Y-21738095D01*
X38442857Y-21785714D01*
X38680952Y-21785714D01*
X38776190Y-21738095D01*
X38823810Y-21690476D01*
X38871429Y-21595238D01*
X38871429Y-21404761D01*
X38823810Y-21309523D01*
X38776190Y-21261904D01*
X38680952Y-21214285D01*
X41857143Y-22642857D02*
X41904762Y-22690476D01*
X41952381Y-22833333D01*
X41952381Y-22928571D01*
X41904762Y-23071429D01*
X41809524Y-23166667D01*
X41714286Y-23214286D01*
X41523810Y-23261905D01*
X41380952Y-23261905D01*
X41190476Y-23214286D01*
X41095238Y-23166667D01*
X41000000Y-23071429D01*
X40952381Y-22928571D01*
X40952381Y-22833333D01*
X41000000Y-22690476D01*
X41047619Y-22642857D01*
X41952381Y-21690476D02*
X41952381Y-22261905D01*
X41952381Y-21976191D02*
X40952381Y-21976191D01*
X41095238Y-22071429D01*
X41190476Y-22166667D01*
X41238095Y-22261905D01*
X40952381Y-21071429D02*
X40952381Y-20976190D01*
X41000000Y-20880952D01*
X41047619Y-20833333D01*
X41142857Y-20785714D01*
X41333333Y-20738095D01*
X41571429Y-20738095D01*
X41761905Y-20785714D01*
X41857143Y-20833333D01*
X41904762Y-20880952D01*
X41952381Y-20976190D01*
X41952381Y-21071429D01*
X41904762Y-21166667D01*
X41857143Y-21214286D01*
X41761905Y-21261905D01*
X41571429Y-21309524D01*
X41333333Y-21309524D01*
X41142857Y-21261905D01*
X41047619Y-21214286D01*
X41000000Y-21166667D01*
X40952381Y-21071429D01*
X36357143Y-22642857D02*
X36404762Y-22690476D01*
X36452381Y-22833333D01*
X36452381Y-22928571D01*
X36404762Y-23071429D01*
X36309524Y-23166667D01*
X36214286Y-23214286D01*
X36023810Y-23261905D01*
X35880952Y-23261905D01*
X35690476Y-23214286D01*
X35595238Y-23166667D01*
X35500000Y-23071429D01*
X35452381Y-22928571D01*
X35452381Y-22833333D01*
X35500000Y-22690476D01*
X35547619Y-22642857D01*
X36452381Y-21690476D02*
X36452381Y-22261905D01*
X36452381Y-21976191D02*
X35452381Y-21976191D01*
X35595238Y-22071429D01*
X35690476Y-22166667D01*
X35738095Y-22261905D01*
X36452381Y-20738095D02*
X36452381Y-21309524D01*
X36452381Y-21023810D02*
X35452381Y-21023810D01*
X35595238Y-21119048D01*
X35690476Y-21214286D01*
X35738095Y-21309524D01*
X49857143Y-21257143D02*
X49809524Y-21304762D01*
X49666667Y-21352381D01*
X49571429Y-21352381D01*
X49428571Y-21304762D01*
X49333333Y-21209524D01*
X49285714Y-21114286D01*
X49238095Y-20923810D01*
X49238095Y-20780952D01*
X49285714Y-20590476D01*
X49333333Y-20495238D01*
X49428571Y-20400000D01*
X49571429Y-20352381D01*
X49666667Y-20352381D01*
X49809524Y-20400000D01*
X49857143Y-20447619D01*
X50809524Y-21352381D02*
X50238095Y-21352381D01*
X50523809Y-21352381D02*
X50523809Y-20352381D01*
X50428571Y-20495238D01*
X50333333Y-20590476D01*
X50238095Y-20638095D01*
X51190476Y-20447619D02*
X51238095Y-20400000D01*
X51333333Y-20352381D01*
X51571429Y-20352381D01*
X51666667Y-20400000D01*
X51714286Y-20447619D01*
X51761905Y-20542857D01*
X51761905Y-20638095D01*
X51714286Y-20780952D01*
X51142857Y-21352381D01*
X51761905Y-21352381D01*
X54157143Y-23742857D02*
X54204762Y-23790476D01*
X54252381Y-23933333D01*
X54252381Y-24028571D01*
X54204762Y-24171429D01*
X54109524Y-24266667D01*
X54014286Y-24314286D01*
X53823810Y-24361905D01*
X53680952Y-24361905D01*
X53490476Y-24314286D01*
X53395238Y-24266667D01*
X53300000Y-24171429D01*
X53252381Y-24028571D01*
X53252381Y-23933333D01*
X53300000Y-23790476D01*
X53347619Y-23742857D01*
X54252381Y-22790476D02*
X54252381Y-23361905D01*
X54252381Y-23076191D02*
X53252381Y-23076191D01*
X53395238Y-23171429D01*
X53490476Y-23266667D01*
X53538095Y-23361905D01*
X53252381Y-22457143D02*
X53252381Y-21838095D01*
X53633333Y-22171429D01*
X53633333Y-22028571D01*
X53680952Y-21933333D01*
X53728571Y-21885714D01*
X53823810Y-21838095D01*
X54061905Y-21838095D01*
X54157143Y-21885714D01*
X54204762Y-21933333D01*
X54252381Y-22028571D01*
X54252381Y-22314286D01*
X54204762Y-22409524D01*
X54157143Y-22457143D01*
X46627845Y-28605341D02*
X46580226Y-28652960D01*
X46437369Y-28700579D01*
X46342131Y-28700579D01*
X46199273Y-28652960D01*
X46104035Y-28557722D01*
X46056416Y-28462484D01*
X46008797Y-28272008D01*
X46008797Y-28129150D01*
X46056416Y-27938674D01*
X46104035Y-27843436D01*
X46199273Y-27748198D01*
X46342131Y-27700579D01*
X46437369Y-27700579D01*
X46580226Y-27748198D01*
X46627845Y-27795817D01*
X47580226Y-28700579D02*
X47008797Y-28700579D01*
X47294511Y-28700579D02*
X47294511Y-27700579D01*
X47199273Y-27843436D01*
X47104035Y-27938674D01*
X47008797Y-27986293D01*
X48437369Y-28033912D02*
X48437369Y-28700579D01*
X48199273Y-27652960D02*
X47961178Y-28367246D01*
X48580226Y-28367246D01*
X52357143Y-39442857D02*
X52404762Y-39490476D01*
X52452381Y-39633333D01*
X52452381Y-39728571D01*
X52404762Y-39871429D01*
X52309524Y-39966667D01*
X52214286Y-40014286D01*
X52023810Y-40061905D01*
X51880952Y-40061905D01*
X51690476Y-40014286D01*
X51595238Y-39966667D01*
X51500000Y-39871429D01*
X51452381Y-39728571D01*
X51452381Y-39633333D01*
X51500000Y-39490476D01*
X51547619Y-39442857D01*
X52452381Y-38490476D02*
X52452381Y-39061905D01*
X52452381Y-38776191D02*
X51452381Y-38776191D01*
X51595238Y-38871429D01*
X51690476Y-38966667D01*
X51738095Y-39061905D01*
X51452381Y-37585714D02*
X51452381Y-38061905D01*
X51928571Y-38109524D01*
X51880952Y-38061905D01*
X51833333Y-37966667D01*
X51833333Y-37728571D01*
X51880952Y-37633333D01*
X51928571Y-37585714D01*
X52023810Y-37538095D01*
X52261905Y-37538095D01*
X52357143Y-37585714D01*
X52404762Y-37633333D01*
X52452381Y-37728571D01*
X52452381Y-37966667D01*
X52404762Y-38061905D01*
X52357143Y-38109524D01*
X30066667Y-44928571D02*
X29733333Y-44928571D01*
X29733333Y-45452381D02*
X29733333Y-44452381D01*
X30209524Y-44452381D01*
X30923810Y-44928571D02*
X31066667Y-44976190D01*
X31114286Y-45023810D01*
X31161905Y-45119048D01*
X31161905Y-45261905D01*
X31114286Y-45357143D01*
X31066667Y-45404762D01*
X30971429Y-45452381D01*
X30590476Y-45452381D01*
X30590476Y-44452381D01*
X30923810Y-44452381D01*
X31019048Y-44500000D01*
X31066667Y-44547619D01*
X31114286Y-44642857D01*
X31114286Y-44738095D01*
X31066667Y-44833333D01*
X31019048Y-44880952D01*
X30923810Y-44928571D01*
X30590476Y-44928571D01*
X32114286Y-45452381D02*
X31542857Y-45452381D01*
X31828571Y-45452381D02*
X31828571Y-44452381D01*
X31733333Y-44595238D01*
X31638095Y-44690476D01*
X31542857Y-44738095D01*
X34761905Y-43452381D02*
X34761905Y-42452381D01*
X35142858Y-42452381D01*
X35238096Y-42500000D01*
X35285715Y-42547619D01*
X35333334Y-42642857D01*
X35333334Y-42785714D01*
X35285715Y-42880952D01*
X35238096Y-42928571D01*
X35142858Y-42976190D01*
X34761905Y-42976190D01*
X35714286Y-42547619D02*
X35761905Y-42500000D01*
X35857143Y-42452381D01*
X36095239Y-42452381D01*
X36190477Y-42500000D01*
X36238096Y-42547619D01*
X36285715Y-42642857D01*
X36285715Y-42738095D01*
X36238096Y-42880952D01*
X35666667Y-43452381D01*
X36285715Y-43452381D01*
X24852381Y-30766666D02*
X24376190Y-31100000D01*
X24852381Y-31338095D02*
X23852381Y-31338095D01*
X23852381Y-30957142D01*
X23900000Y-30861904D01*
X23947619Y-30814285D01*
X24042857Y-30766666D01*
X24185714Y-30766666D01*
X24280952Y-30814285D01*
X24328571Y-30861904D01*
X24376190Y-30957142D01*
X24376190Y-31338095D01*
X24852381Y-29814285D02*
X24852381Y-30385714D01*
X24852381Y-30100000D02*
X23852381Y-30100000D01*
X23995238Y-30195238D01*
X24090476Y-30290476D01*
X24138095Y-30385714D01*
X37852381Y-22166666D02*
X37376190Y-22500000D01*
X37852381Y-22738095D02*
X36852381Y-22738095D01*
X36852381Y-22357142D01*
X36900000Y-22261904D01*
X36947619Y-22214285D01*
X37042857Y-22166666D01*
X37185714Y-22166666D01*
X37280952Y-22214285D01*
X37328571Y-22261904D01*
X37376190Y-22357142D01*
X37376190Y-22738095D01*
X36947619Y-21785714D02*
X36900000Y-21738095D01*
X36852381Y-21642857D01*
X36852381Y-21404761D01*
X36900000Y-21309523D01*
X36947619Y-21261904D01*
X37042857Y-21214285D01*
X37138095Y-21214285D01*
X37280952Y-21261904D01*
X37852381Y-21833333D01*
X37852381Y-21214285D01*
X25133334Y-50052381D02*
X24800000Y-49576190D01*
X24561905Y-50052381D02*
X24561905Y-49052381D01*
X24942858Y-49052381D01*
X25038096Y-49100000D01*
X25085715Y-49147619D01*
X25133334Y-49242857D01*
X25133334Y-49385714D01*
X25085715Y-49480952D01*
X25038096Y-49528571D01*
X24942858Y-49576190D01*
X24561905Y-49576190D01*
X25990477Y-49385714D02*
X25990477Y-50052381D01*
X25752381Y-49004762D02*
X25514286Y-49719048D01*
X26133334Y-49719048D01*
X23933334Y-25152381D02*
X23600000Y-24676190D01*
X23361905Y-25152381D02*
X23361905Y-24152381D01*
X23742858Y-24152381D01*
X23838096Y-24200000D01*
X23885715Y-24247619D01*
X23933334Y-24342857D01*
X23933334Y-24485714D01*
X23885715Y-24580952D01*
X23838096Y-24628571D01*
X23742858Y-24676190D01*
X23361905Y-24676190D01*
X24838096Y-24152381D02*
X24361905Y-24152381D01*
X24314286Y-24628571D01*
X24361905Y-24580952D01*
X24457143Y-24533333D01*
X24695239Y-24533333D01*
X24790477Y-24580952D01*
X24838096Y-24628571D01*
X24885715Y-24723810D01*
X24885715Y-24961905D01*
X24838096Y-25057143D01*
X24790477Y-25104762D01*
X24695239Y-25152381D01*
X24457143Y-25152381D01*
X24361905Y-25104762D01*
X24314286Y-25057143D01*
X33833334Y-28452381D02*
X33500000Y-27976190D01*
X33261905Y-28452381D02*
X33261905Y-27452381D01*
X33642858Y-27452381D01*
X33738096Y-27500000D01*
X33785715Y-27547619D01*
X33833334Y-27642857D01*
X33833334Y-27785714D01*
X33785715Y-27880952D01*
X33738096Y-27928571D01*
X33642858Y-27976190D01*
X33261905Y-27976190D01*
X34690477Y-27452381D02*
X34500000Y-27452381D01*
X34404762Y-27500000D01*
X34357143Y-27547619D01*
X34261905Y-27690476D01*
X34214286Y-27880952D01*
X34214286Y-28261905D01*
X34261905Y-28357143D01*
X34309524Y-28404762D01*
X34404762Y-28452381D01*
X34595239Y-28452381D01*
X34690477Y-28404762D01*
X34738096Y-28357143D01*
X34785715Y-28261905D01*
X34785715Y-28023810D01*
X34738096Y-27928571D01*
X34690477Y-27880952D01*
X34595239Y-27833333D01*
X34404762Y-27833333D01*
X34309524Y-27880952D01*
X34261905Y-27928571D01*
X34214286Y-28023810D01*
X38633334Y-43852381D02*
X38300000Y-43376190D01*
X38061905Y-43852381D02*
X38061905Y-42852381D01*
X38442858Y-42852381D01*
X38538096Y-42900000D01*
X38585715Y-42947619D01*
X38633334Y-43042857D01*
X38633334Y-43185714D01*
X38585715Y-43280952D01*
X38538096Y-43328571D01*
X38442858Y-43376190D01*
X38061905Y-43376190D01*
X38966667Y-42852381D02*
X39633334Y-42852381D01*
X39204762Y-43852381D01*
X40733334Y-43852381D02*
X40400000Y-43376190D01*
X40161905Y-43852381D02*
X40161905Y-42852381D01*
X40542858Y-42852381D01*
X40638096Y-42900000D01*
X40685715Y-42947619D01*
X40733334Y-43042857D01*
X40733334Y-43185714D01*
X40685715Y-43280952D01*
X40638096Y-43328571D01*
X40542858Y-43376190D01*
X40161905Y-43376190D01*
X41304762Y-43280952D02*
X41209524Y-43233333D01*
X41161905Y-43185714D01*
X41114286Y-43090476D01*
X41114286Y-43042857D01*
X41161905Y-42947619D01*
X41209524Y-42900000D01*
X41304762Y-42852381D01*
X41495239Y-42852381D01*
X41590477Y-42900000D01*
X41638096Y-42947619D01*
X41685715Y-43042857D01*
X41685715Y-43090476D01*
X41638096Y-43185714D01*
X41590477Y-43233333D01*
X41495239Y-43280952D01*
X41304762Y-43280952D01*
X41209524Y-43328571D01*
X41161905Y-43376190D01*
X41114286Y-43471429D01*
X41114286Y-43661905D01*
X41161905Y-43757143D01*
X41209524Y-43804762D01*
X41304762Y-43852381D01*
X41495239Y-43852381D01*
X41590477Y-43804762D01*
X41638096Y-43757143D01*
X41685715Y-43661905D01*
X41685715Y-43471429D01*
X41638096Y-43376190D01*
X41590477Y-43328571D01*
X41495239Y-43280952D01*
X54052381Y-38466666D02*
X53576190Y-38800000D01*
X54052381Y-39038095D02*
X53052381Y-39038095D01*
X53052381Y-38657142D01*
X53100000Y-38561904D01*
X53147619Y-38514285D01*
X53242857Y-38466666D01*
X53385714Y-38466666D01*
X53480952Y-38514285D01*
X53528571Y-38561904D01*
X53576190Y-38657142D01*
X53576190Y-39038095D01*
X54052381Y-37990476D02*
X54052381Y-37800000D01*
X54004762Y-37704761D01*
X53957143Y-37657142D01*
X53814286Y-37561904D01*
X53623810Y-37514285D01*
X53242857Y-37514285D01*
X53147619Y-37561904D01*
X53100000Y-37609523D01*
X53052381Y-37704761D01*
X53052381Y-37895238D01*
X53100000Y-37990476D01*
X53147619Y-38038095D01*
X53242857Y-38085714D01*
X53480952Y-38085714D01*
X53576190Y-38038095D01*
X53623810Y-37990476D01*
X53671429Y-37895238D01*
X53671429Y-37704761D01*
X53623810Y-37609523D01*
X53576190Y-37561904D01*
X53480952Y-37514285D01*
X32652381Y-39861905D02*
X33461905Y-39861905D01*
X33557143Y-39814286D01*
X33604762Y-39766667D01*
X33652381Y-39671429D01*
X33652381Y-39480952D01*
X33604762Y-39385714D01*
X33557143Y-39338095D01*
X33461905Y-39290476D01*
X32652381Y-39290476D01*
X32747619Y-38861905D02*
X32700000Y-38814286D01*
X32652381Y-38719048D01*
X32652381Y-38480952D01*
X32700000Y-38385714D01*
X32747619Y-38338095D01*
X32842857Y-38290476D01*
X32938095Y-38290476D01*
X33080952Y-38338095D01*
X33652381Y-38909524D01*
X33652381Y-38290476D01*
X32452381Y-46161905D02*
X33261905Y-46161905D01*
X33357143Y-46114286D01*
X33404762Y-46066667D01*
X33452381Y-45971429D01*
X33452381Y-45780952D01*
X33404762Y-45685714D01*
X33357143Y-45638095D01*
X33261905Y-45590476D01*
X32452381Y-45590476D01*
X32452381Y-45209524D02*
X32452381Y-44590476D01*
X32833333Y-44923810D01*
X32833333Y-44780952D01*
X32880952Y-44685714D01*
X32928571Y-44638095D01*
X33023810Y-44590476D01*
X33261905Y-44590476D01*
X33357143Y-44638095D01*
X33404762Y-44685714D01*
X33452381Y-44780952D01*
X33452381Y-45066667D01*
X33404762Y-45161905D01*
X33357143Y-45209524D01*
X44252381Y-24561905D02*
X45061905Y-24561905D01*
X45157143Y-24514286D01*
X45204762Y-24466667D01*
X45252381Y-24371429D01*
X45252381Y-24180952D01*
X45204762Y-24085714D01*
X45157143Y-24038095D01*
X45061905Y-23990476D01*
X44252381Y-23990476D01*
X44252381Y-23085714D02*
X44252381Y-23276191D01*
X44300000Y-23371429D01*
X44347619Y-23419048D01*
X44490476Y-23514286D01*
X44680952Y-23561905D01*
X45061905Y-23561905D01*
X45157143Y-23514286D01*
X45204762Y-23466667D01*
X45252381Y-23371429D01*
X45252381Y-23180952D01*
X45204762Y-23085714D01*
X45157143Y-23038095D01*
X45061905Y-22990476D01*
X44823810Y-22990476D01*
X44728571Y-23038095D01*
X44680952Y-23085714D01*
X44633333Y-23180952D01*
X44633333Y-23371429D01*
X44680952Y-23466667D01*
X44728571Y-23514286D01*
X44823810Y-23561905D01*
X48052381Y-45461905D02*
X48861905Y-45461905D01*
X48957143Y-45414286D01*
X49004762Y-45366667D01*
X49052381Y-45271429D01*
X49052381Y-45080952D01*
X49004762Y-44985714D01*
X48957143Y-44938095D01*
X48861905Y-44890476D01*
X48052381Y-44890476D01*
X48385714Y-43985714D02*
X49052381Y-43985714D01*
X48004762Y-44223810D02*
X48719048Y-44461905D01*
X48719048Y-43842857D01*
X39552381Y-22809524D02*
X40552381Y-22142857D01*
X39552381Y-22142857D02*
X40552381Y-22809524D01*
X40552381Y-21238095D02*
X40552381Y-21809524D01*
X40552381Y-21523810D02*
X39552381Y-21523810D01*
X39695238Y-21619048D01*
X39790476Y-21714286D01*
X39838095Y-21809524D01*
M02*
