G04 #@! TF.FileFunction,Copper,L2,Bot,Signal*
%FSLAX46Y46*%
G04 Gerber Fmt 4.6, Leading zero omitted, Abs format (unit mm)*
G04 Created by KiCad (PCBNEW (2015-08-11 BZR 6084)-product) date Mi 23 Sep 2015 17:42:07 CEST*
%MOMM*%
G01*
G04 APERTURE LIST*
%ADD10C,0.100000*%
%ADD11R,0.400000X3.000000*%
%ADD12R,2.032000X2.032000*%
%ADD13O,2.032000X2.032000*%
%ADD14R,0.450000X0.590000*%
%ADD15R,0.900000X0.500000*%
%ADD16R,1.350000X0.400000*%
%ADD17O,0.950000X1.250000*%
%ADD18O,1.550000X1.000000*%
%ADD19R,0.750000X0.800000*%
%ADD20R,0.590000X0.450000*%
%ADD21R,0.800100X0.800100*%
%ADD22R,1.000000X1.200000*%
%ADD23C,0.600000*%
%ADD24C,2.500000*%
%ADD25C,0.600000*%
%ADD26C,0.450000*%
%ADD27C,0.350000*%
%ADD28C,0.300000*%
%ADD29C,0.200000*%
%ADD30C,0.254000*%
G04 APERTURE END LIST*
D10*
D11*
X47650000Y-27250000D03*
X46950000Y-27250000D03*
X46250000Y-27250000D03*
X45550000Y-27250000D03*
X44850000Y-27250000D03*
X43450000Y-27250000D03*
X42750000Y-27250000D03*
X42050000Y-27250000D03*
X41350000Y-27250000D03*
X40650000Y-27250000D03*
X39950000Y-27250000D03*
X39250000Y-27250000D03*
X38550000Y-27250000D03*
X37850000Y-27250000D03*
X37150000Y-27250000D03*
X36450000Y-27250000D03*
X35750000Y-27250000D03*
X35050000Y-27250000D03*
X34350000Y-27250000D03*
X33650000Y-27250000D03*
X32950000Y-27250000D03*
X32250000Y-27250000D03*
X31550000Y-27250000D03*
X30850000Y-27250000D03*
X30150000Y-27250000D03*
X29450000Y-27250000D03*
X28750000Y-27250000D03*
X28050000Y-27250000D03*
X27350000Y-27250000D03*
X44150000Y-27250000D03*
D12*
X43726696Y-41500000D03*
D13*
X46266696Y-41500000D03*
D14*
X42000000Y-33805000D03*
X42000000Y-31695000D03*
D15*
X40000000Y-32000000D03*
X40000000Y-33500000D03*
D16*
X24312540Y-46550900D03*
X24312540Y-45900900D03*
X24312540Y-45250900D03*
X24312540Y-44600900D03*
X24312540Y-43950900D03*
D17*
X24312540Y-47750900D03*
X24312540Y-42750900D03*
D18*
X21612540Y-48750900D03*
X21612540Y-41750900D03*
D12*
X35500000Y-47750000D03*
D13*
X35500000Y-45210000D03*
D19*
X50500000Y-24250000D03*
X50500000Y-25750000D03*
X50500000Y-45750000D03*
X50500000Y-44250000D03*
X45750000Y-32000000D03*
X45750000Y-33500000D03*
X44000000Y-32000000D03*
X44000000Y-33500000D03*
X30250000Y-32000000D03*
X30250000Y-33500000D03*
X26750000Y-32000000D03*
X26750000Y-33500000D03*
X49250000Y-33500000D03*
X49250000Y-32000000D03*
X47500000Y-33500000D03*
X47500000Y-32000000D03*
X28500000Y-32000000D03*
X28500000Y-33500000D03*
D20*
X52195000Y-30000000D03*
X54305000Y-30000000D03*
X52195000Y-40000000D03*
X54305000Y-40000000D03*
D21*
X45276696Y-36999240D03*
X47176696Y-36999240D03*
X46226696Y-38998220D03*
D15*
X43226696Y-37250000D03*
X43226696Y-38750000D03*
X34500000Y-33500000D03*
X34500000Y-32000000D03*
X36250000Y-33500000D03*
X36250000Y-32000000D03*
X50500000Y-41250000D03*
X50500000Y-42750000D03*
X32000000Y-32000000D03*
X32000000Y-33500000D03*
D22*
X54100000Y-27800000D03*
X54100000Y-22200000D03*
X52400000Y-27800000D03*
X52400000Y-22200000D03*
X54100000Y-47800000D03*
X54100000Y-42200000D03*
X52400000Y-47800000D03*
X52400000Y-42200000D03*
X54100000Y-37800000D03*
X54100000Y-32200000D03*
X52400000Y-37800000D03*
X52400000Y-32200000D03*
D23*
X29900000Y-35000000D03*
X26250000Y-24520075D03*
X44700000Y-22300000D03*
X37300000Y-23200000D03*
X45773137Y-24850633D03*
X44300000Y-30700000D03*
X32200000Y-29600000D03*
X26000000Y-30520010D03*
X28998135Y-23257462D03*
X26250000Y-26500000D03*
X50500000Y-20900000D03*
D24*
X48052703Y-46736498D03*
D23*
X48600000Y-43400000D03*
X31190415Y-33500000D03*
X31200000Y-34300000D03*
X30362500Y-42112500D03*
X30362500Y-40387500D03*
X31000000Y-23257453D03*
X26800000Y-22000000D03*
X34662300Y-21520576D03*
X47085702Y-23498198D03*
X47900000Y-23500000D03*
X28600000Y-42200000D03*
X28600000Y-40400000D03*
X38550886Y-33350886D03*
X49400000Y-44200000D03*
X30850000Y-25571545D03*
X28050000Y-25534450D03*
X25500000Y-46500000D03*
X41000000Y-49000000D03*
X48500000Y-25300000D03*
X26900000Y-24000000D03*
X36400000Y-35000000D03*
X26179990Y-35500000D03*
X23229990Y-24857438D03*
X46300000Y-38100000D03*
X26000000Y-42250000D03*
X26000000Y-41250000D03*
X29300000Y-34300000D03*
X34200000Y-40300000D03*
X26026518Y-28879990D03*
X23750000Y-24250000D03*
X39500000Y-43800000D03*
X33700000Y-37180031D03*
X43800000Y-35100000D03*
X38113097Y-33922501D03*
X45300000Y-35000000D03*
X33442665Y-32700000D03*
X35167799Y-36867799D03*
X34000000Y-34500000D03*
X33679990Y-40809118D03*
X30800000Y-37900000D03*
X38873521Y-36140020D03*
X37092994Y-38207006D03*
X37086558Y-34289702D03*
X35900000Y-22300000D03*
X35890882Y-35520010D03*
D25*
X26250000Y-24520075D02*
X26250000Y-24415602D01*
X26250000Y-24415602D02*
X26179999Y-24345601D01*
X26179999Y-24345601D02*
X26179999Y-23654399D01*
X26179999Y-23654399D02*
X26576936Y-23257462D01*
X26576936Y-23257462D02*
X28573871Y-23257462D01*
X28573871Y-23257462D02*
X28998135Y-23257462D01*
X26250000Y-26500000D02*
X26250000Y-24520075D01*
X26250000Y-26500000D02*
X26250000Y-28148870D01*
D26*
X26336119Y-28234989D02*
X26250000Y-28148870D01*
X26401130Y-28300000D02*
X26336119Y-28234989D01*
X26336119Y-28234989D02*
X26334989Y-28234989D01*
X26700000Y-29272110D02*
X26700000Y-28598870D01*
X26700000Y-28598870D02*
X26401130Y-28300000D01*
D25*
X26000000Y-30520010D02*
X26000000Y-29972110D01*
X26000000Y-29972110D02*
X26700000Y-29272110D01*
X33288063Y-33500000D02*
X33288063Y-33667939D01*
X33288063Y-33667939D02*
X31936001Y-35020001D01*
X31936001Y-35020001D02*
X29920001Y-35020001D01*
X29920001Y-35020001D02*
X29900000Y-35000000D01*
D26*
X34500000Y-33500000D02*
X33288063Y-33500000D01*
X33288063Y-33500000D02*
X32797664Y-33009601D01*
X32797664Y-33009601D02*
X32797664Y-30197664D01*
X32797664Y-30197664D02*
X32499999Y-29899999D01*
X32499999Y-29899999D02*
X32200000Y-29600000D01*
D25*
X34720003Y-34500000D02*
X34720003Y-33720003D01*
X43726696Y-41500000D02*
X41712033Y-41500000D01*
X41712033Y-41500000D02*
X36452044Y-36240011D01*
X36452044Y-36240011D02*
X35545281Y-36240011D01*
X35545281Y-36240011D02*
X34720003Y-35414733D01*
X34720003Y-35414733D02*
X34720003Y-34924264D01*
X34720003Y-34924264D02*
X34720003Y-34500000D01*
D27*
X44700000Y-22300000D02*
X38200000Y-22300000D01*
X38200000Y-22300000D02*
X37300000Y-23200000D01*
X44699367Y-24850633D02*
X45773137Y-24850633D01*
X44150000Y-27250000D02*
X44150000Y-25400000D01*
X44150000Y-25400000D02*
X44699367Y-24850633D01*
X44144425Y-29303425D02*
X44331650Y-29490650D01*
X44331650Y-29490650D02*
X45750000Y-30909000D01*
X44300000Y-30700000D02*
X44300000Y-29522300D01*
X44300000Y-29522300D02*
X44331650Y-29490650D01*
X34500000Y-33500000D02*
X34300000Y-33500000D01*
X36250000Y-33500000D02*
X34500000Y-33500000D01*
X29005597Y-23250000D02*
X28998135Y-23257462D01*
X43886001Y-29045001D02*
X44144425Y-29303425D01*
X44144425Y-29303425D02*
X44150000Y-29297850D01*
X44150000Y-29297850D02*
X44150000Y-27250000D01*
X45750000Y-30909000D02*
X45750000Y-32000000D01*
X41704999Y-29045001D02*
X42313999Y-29045001D01*
X42050000Y-27250000D02*
X42050000Y-28781002D01*
X44150000Y-28781002D02*
X44150000Y-27250000D01*
X42050000Y-28781002D02*
X42313999Y-29045001D01*
X42313999Y-29045001D02*
X43886001Y-29045001D01*
X43886001Y-29045001D02*
X44150000Y-28781002D01*
X40650000Y-27250000D02*
X40650000Y-28781002D01*
X40650000Y-28781002D02*
X40913999Y-29045001D01*
X40913999Y-29045001D02*
X41704999Y-29045001D01*
X41704999Y-29045001D02*
X42050000Y-28700000D01*
X42050000Y-28700000D02*
X42050000Y-27250000D01*
X32950000Y-27250000D02*
X32250000Y-27250000D01*
X33650000Y-27250000D02*
X32950000Y-27250000D01*
X47176696Y-36999240D02*
X47176696Y-36249190D01*
D25*
X24312540Y-42750900D02*
X24312540Y-43950900D01*
D28*
X31190415Y-33500000D02*
X32000000Y-33500000D01*
D25*
X30250000Y-33500000D02*
X31190415Y-33500000D01*
X30250000Y-33500000D02*
X30400000Y-33500000D01*
X30400000Y-33500000D02*
X31200000Y-34300000D01*
X28500000Y-33500000D02*
X28500000Y-34500000D01*
X28500000Y-34500000D02*
X28400000Y-34600000D01*
D28*
X26750000Y-33500000D02*
X28500000Y-33500000D01*
D25*
X30250000Y-33500000D02*
X28500000Y-33500000D01*
D28*
X27350000Y-27250000D02*
X27350000Y-29976125D01*
X27350000Y-29976125D02*
X26075000Y-31251125D01*
X26075000Y-31251125D02*
X26075000Y-32800000D01*
X26075000Y-32800000D02*
X26750000Y-33475000D01*
X26750000Y-33475000D02*
X26750000Y-33500000D01*
D27*
X21612540Y-41750900D02*
X21612540Y-40900900D01*
X21612540Y-40900900D02*
X23963440Y-38550000D01*
X23963440Y-38550000D02*
X26750000Y-38550000D01*
X30362500Y-42112500D02*
X28687500Y-42112500D01*
X28687500Y-42112500D02*
X28600000Y-42200000D01*
X30362500Y-40387500D02*
X30362500Y-42112500D01*
D28*
X28600000Y-40400000D02*
X30350000Y-40400000D01*
X30350000Y-40400000D02*
X30362500Y-40387500D01*
X26800000Y-22000000D02*
X29742547Y-22000000D01*
X29742547Y-22000000D02*
X31000000Y-23257453D01*
D27*
X34700000Y-23202334D02*
X34700000Y-21558276D01*
X34700000Y-21558276D02*
X34662300Y-21520576D01*
X47900000Y-23500000D02*
X47383734Y-23500000D01*
X47383734Y-23500000D02*
X47087504Y-23500000D01*
X47650000Y-23750000D02*
X47633734Y-23750000D01*
X47633734Y-23750000D02*
X47383734Y-23500000D01*
X47087504Y-23500000D02*
X47085702Y-23498198D01*
X47650000Y-24400000D02*
X47650000Y-23750000D01*
X47650000Y-23750000D02*
X47900000Y-23500000D01*
D28*
X47650000Y-27250000D02*
X49025000Y-27250000D01*
X49025000Y-27250000D02*
X50500000Y-25775000D01*
X50500000Y-25775000D02*
X50500000Y-25750000D01*
X50500000Y-38085306D02*
X50500000Y-31400000D01*
X50500000Y-31400000D02*
X47650000Y-28550000D01*
X47650000Y-28550000D02*
X47650000Y-27250000D01*
D27*
X47200000Y-34500000D02*
X47000000Y-34300000D01*
X47000000Y-34300000D02*
X45800000Y-34300000D01*
X47200000Y-36225886D02*
X47200000Y-34500000D01*
X47176696Y-36249190D02*
X47200000Y-36225886D01*
X45750000Y-33500000D02*
X45750000Y-34250000D01*
X45750000Y-34250000D02*
X45800000Y-34300000D01*
D28*
X28600000Y-41279785D02*
X28600000Y-40400000D01*
X28600000Y-42200000D02*
X28600000Y-41279785D01*
X30200000Y-43816000D02*
X30200000Y-43800000D01*
X30200000Y-43800000D02*
X28600000Y-42200000D01*
X26750000Y-33500000D02*
X26750000Y-38550000D01*
X26750000Y-38550000D02*
X28600000Y-40400000D01*
D27*
X30200000Y-43816000D02*
X30595530Y-44211530D01*
X34134000Y-47750000D02*
X30595530Y-44211530D01*
X38700000Y-33500000D02*
X38550886Y-33350886D01*
X40000000Y-33500000D02*
X38700000Y-33500000D01*
X35500000Y-47750000D02*
X34134000Y-47750000D01*
X48300000Y-38700000D02*
X49114694Y-38700000D01*
X49114694Y-38700000D02*
X49500000Y-39085306D01*
X47176696Y-36999240D02*
X47176696Y-37576696D01*
X47176696Y-37576696D02*
X48300000Y-38700000D01*
X44000000Y-33500000D02*
X45750000Y-33500000D01*
X42000000Y-33805000D02*
X43695000Y-33805000D01*
X43695000Y-33805000D02*
X44000000Y-33500000D01*
X40000000Y-33500000D02*
X41695000Y-33500000D01*
X41695000Y-33500000D02*
X42000000Y-33805000D01*
X34700000Y-23202334D02*
X33650000Y-24252334D01*
X33647666Y-24250000D02*
X36409241Y-24250000D01*
X49400000Y-44200000D02*
X50450000Y-44200000D01*
X50450000Y-44200000D02*
X50500000Y-44250000D01*
X47650000Y-27250000D02*
X47650000Y-24400000D01*
X30850000Y-25571545D02*
X30850000Y-24267181D01*
D28*
X30850000Y-27250000D02*
X30850000Y-25571545D01*
X21612540Y-41750900D02*
X21887540Y-41750900D01*
X21612540Y-48750900D02*
X21612540Y-47950900D01*
X21612540Y-47950900D02*
X21612540Y-41750900D01*
X30200000Y-33550000D02*
X30250000Y-33500000D01*
D27*
X28050000Y-25534450D02*
X28050000Y-24297051D01*
X28050000Y-27250000D02*
X28050000Y-25534450D01*
X39278698Y-24250000D02*
X39936339Y-24250000D01*
X50500000Y-42750000D02*
X50500000Y-44250000D01*
X50500000Y-38085306D02*
X49500000Y-39085306D01*
X49500000Y-39085306D02*
X49500000Y-41950000D01*
X50300000Y-42750000D02*
X50500000Y-42750000D01*
X49500000Y-41950000D02*
X50300000Y-42750000D01*
X41385764Y-24250000D02*
X42716996Y-24250000D01*
X42716996Y-24250000D02*
X47500000Y-24250000D01*
X42750000Y-27250000D02*
X42750000Y-24283004D01*
X42750000Y-24283004D02*
X42716996Y-24250000D01*
X39936339Y-24250000D02*
X41385764Y-24250000D01*
X41350000Y-27250000D02*
X41350000Y-24285764D01*
X41350000Y-24285764D02*
X41385764Y-24250000D01*
X39950000Y-27250000D02*
X39950000Y-25400000D01*
X39950000Y-25400000D02*
X39936339Y-25386339D01*
X39936339Y-25386339D02*
X39936339Y-24250000D01*
X37893663Y-24250000D02*
X39278698Y-24250000D01*
X39250000Y-27250000D02*
X39250000Y-24278698D01*
X39250000Y-24278698D02*
X39278698Y-24250000D01*
X37175014Y-24250000D02*
X37893663Y-24250000D01*
X37850000Y-27250000D02*
X37850000Y-24293663D01*
X37850000Y-24293663D02*
X37893663Y-24250000D01*
X36409241Y-24250000D02*
X37175014Y-24250000D01*
X37150000Y-24275014D02*
X37175014Y-24250000D01*
X37150000Y-27250000D02*
X37150000Y-24275014D01*
X36450000Y-27250000D02*
X36450000Y-24290759D01*
X36450000Y-24290759D02*
X36409241Y-24250000D01*
X32969938Y-24250000D02*
X33647666Y-24250000D01*
X33650000Y-27250000D02*
X33650000Y-24252334D01*
X33650000Y-24252334D02*
X33647666Y-24250000D01*
X32277475Y-24250000D02*
X32969938Y-24250000D01*
X32950000Y-27250000D02*
X32950000Y-24269938D01*
X32950000Y-24269938D02*
X32969938Y-24250000D01*
X31549529Y-24250000D02*
X32277475Y-24250000D01*
X32250000Y-24277475D02*
X32277475Y-24250000D01*
X32250000Y-27250000D02*
X32250000Y-24277475D01*
X30867181Y-24250000D02*
X31549529Y-24250000D01*
X31550000Y-27250000D02*
X31550000Y-24250471D01*
X31550000Y-24250471D02*
X31549529Y-24250000D01*
X28097051Y-24250000D02*
X30867181Y-24250000D01*
X30850000Y-24267181D02*
X30867181Y-24250000D01*
X27500000Y-24250000D02*
X28097051Y-24250000D01*
X28050000Y-24297051D02*
X28097051Y-24250000D01*
X47650000Y-24400000D02*
X47500000Y-24250000D01*
X27500000Y-24250000D02*
X27350000Y-24400000D01*
X27350000Y-24400000D02*
X27350000Y-27250000D01*
X28050000Y-27250000D02*
X27350000Y-27250000D01*
X30850000Y-27250000D02*
X31550000Y-27250000D01*
X31550000Y-27250000D02*
X32250000Y-27250000D01*
X37150000Y-27250000D02*
X36450000Y-27250000D01*
X37850000Y-27250000D02*
X37150000Y-27250000D01*
X39950000Y-27250000D02*
X39250000Y-27250000D01*
D25*
X25500000Y-46500000D02*
X25449100Y-46550900D01*
X25449100Y-46550900D02*
X24312540Y-46550900D01*
D29*
X37210000Y-45210000D02*
X35500000Y-45210000D01*
X41000000Y-49000000D02*
X37210000Y-45210000D01*
X26900000Y-24000000D02*
X27122537Y-23777463D01*
X27122537Y-23777463D02*
X31635811Y-23777463D01*
X31635811Y-23777463D02*
X34412699Y-21000575D01*
X34412699Y-21000575D02*
X34911901Y-21000575D01*
X34911901Y-21000575D02*
X35300000Y-21388674D01*
X35300000Y-21388674D02*
X35300000Y-22680596D01*
X35300000Y-22680596D02*
X36339405Y-23720001D01*
X36339405Y-23720001D02*
X46094297Y-23720001D01*
X46836101Y-22978197D02*
X48147799Y-22978197D01*
X46094297Y-23720001D02*
X46836101Y-22978197D01*
X48147799Y-22978197D02*
X48500000Y-23330398D01*
X48500000Y-23330398D02*
X48500000Y-24833568D01*
X48500000Y-24833568D02*
X48500000Y-25300000D01*
X36400000Y-35000000D02*
X36699999Y-35299999D01*
X36699999Y-35299999D02*
X37263898Y-35299999D01*
X37263898Y-35299999D02*
X40063899Y-38100000D01*
X40063899Y-38100000D02*
X45875736Y-38100000D01*
X45875736Y-38100000D02*
X46300000Y-38100000D01*
X26179990Y-35500000D02*
X23229990Y-32550000D01*
X23229990Y-32550000D02*
X23229990Y-24857438D01*
X24312540Y-45900900D02*
X25349100Y-45900900D01*
X26000000Y-45250000D02*
X26000000Y-42250000D01*
X25349100Y-45900900D02*
X26000000Y-45250000D01*
X23000000Y-45000000D02*
X23250900Y-45250900D01*
X23250900Y-45250900D02*
X24312540Y-45250900D01*
X23000000Y-42750000D02*
X23000000Y-45000000D01*
X24000000Y-41750000D02*
X23000000Y-42750000D01*
X25500000Y-41750000D02*
X24000000Y-41750000D01*
X26000000Y-41250000D02*
X25500000Y-41750000D01*
X29300000Y-34300000D02*
X29300000Y-35400000D01*
X29300000Y-35400000D02*
X34200000Y-40300000D01*
X23750000Y-26250000D02*
X23750000Y-26014248D01*
X23750000Y-26014248D02*
X23750000Y-24250000D01*
X26026518Y-28879990D02*
X25602254Y-28879990D01*
X25602254Y-28879990D02*
X23750000Y-27027736D01*
X23750000Y-27027736D02*
X23750000Y-26014248D01*
X33700000Y-37180031D02*
X39500000Y-42980031D01*
X39500000Y-42980031D02*
X39500000Y-43800000D01*
X39135486Y-34944890D02*
X38113097Y-33922501D01*
X43800000Y-35100000D02*
X39290596Y-35100000D01*
X39290596Y-35100000D02*
X39135486Y-34944890D01*
X36250000Y-31550000D02*
X35750000Y-31050000D01*
X38113097Y-33922501D02*
X38113097Y-33663097D01*
X38113097Y-33663097D02*
X36450000Y-32000000D01*
X36450000Y-32000000D02*
X36250000Y-32000000D01*
X35750000Y-31050000D02*
X35750000Y-28950000D01*
X35750000Y-28950000D02*
X35750000Y-27250000D01*
X36250000Y-32000000D02*
X36250000Y-31550000D01*
X44400000Y-35620010D02*
X44679990Y-35620010D01*
X44679990Y-35620010D02*
X45300000Y-35000000D01*
X34850000Y-32800000D02*
X36720196Y-32800000D01*
X36720196Y-32800000D02*
X37593096Y-33672900D01*
X37593096Y-34172102D02*
X39041004Y-35620010D01*
X37593096Y-33672900D02*
X37593096Y-34172102D01*
X39041004Y-35620010D02*
X44400000Y-35620010D01*
X34500000Y-32000000D02*
X34500000Y-32450000D01*
X34500000Y-32450000D02*
X34850000Y-32800000D01*
X33442665Y-32700000D02*
X33800000Y-32700000D01*
X33800000Y-32700000D02*
X34500000Y-32000000D01*
X34350000Y-27250000D02*
X34350000Y-29677148D01*
X35050000Y-27250000D02*
X34350000Y-27250000D01*
X35050000Y-27250000D02*
X35050000Y-28950000D01*
X35050000Y-28950000D02*
X34350000Y-29650000D01*
X34350000Y-29650000D02*
X34350000Y-29677148D01*
X34350000Y-29677148D02*
X34350000Y-31850000D01*
X34350000Y-31850000D02*
X34500000Y-32000000D01*
X35200000Y-36800000D02*
X34000000Y-35600000D01*
X34000000Y-35600000D02*
X34000000Y-34500000D01*
X30800000Y-37900000D02*
X33679990Y-40779990D01*
X33679990Y-40779990D02*
X33679990Y-40809118D01*
D27*
X50500000Y-45750000D02*
X54078549Y-45750000D01*
D29*
X44600000Y-44200000D02*
X43085988Y-44200000D01*
X43085988Y-44200000D02*
X37092994Y-38207006D01*
X49584989Y-45154591D02*
X49584989Y-46165330D01*
X49584989Y-46165330D02*
X49584990Y-46458554D01*
X51500000Y-48600000D02*
X51500000Y-48373564D01*
X51500000Y-48373564D02*
X49584989Y-46458553D01*
X49584989Y-46458553D02*
X49584989Y-46165330D01*
X51700000Y-48800000D02*
X51500000Y-48600000D01*
X53200000Y-48800000D02*
X51700000Y-48800000D01*
X54100000Y-47900000D02*
X53200000Y-48800000D01*
X48630398Y-44200000D02*
X49584989Y-45154591D01*
X44600000Y-44200000D02*
X48630398Y-44200000D01*
X38873521Y-36140020D02*
X37086558Y-34353057D01*
X37086558Y-34353057D02*
X37086558Y-34289702D01*
X54100000Y-47900000D02*
X54100000Y-47800000D01*
D27*
X54100000Y-42200000D02*
X54100000Y-45728549D01*
X54100000Y-45728549D02*
X54100000Y-47800000D01*
X54078549Y-45750000D02*
X54100000Y-45728549D01*
X54100000Y-42200000D02*
X54100000Y-40205000D01*
X54100000Y-40205000D02*
X54305000Y-40000000D01*
D29*
X43289412Y-21894990D02*
X43090013Y-21894990D01*
X43305010Y-21894990D02*
X43090013Y-21894990D01*
X43090013Y-21894990D02*
X36305010Y-21894990D01*
X49300000Y-20800000D02*
X44400000Y-20800000D01*
X44400000Y-20800000D02*
X43305010Y-21894990D01*
X49920001Y-21420001D02*
X49300000Y-20800000D01*
X53200000Y-21200000D02*
X50969602Y-21200000D01*
X50969602Y-21200000D02*
X50749601Y-21420001D01*
X50749601Y-21420001D02*
X49920001Y-21420001D01*
X54100000Y-22100000D02*
X53200000Y-21200000D01*
X36305010Y-21894990D02*
X36295010Y-21904990D01*
X36295010Y-21904990D02*
X35900000Y-22300000D01*
X54100000Y-22200000D02*
X54100000Y-22100000D01*
X54000000Y-22100000D02*
X54100000Y-22200000D01*
D27*
X54100000Y-26850000D02*
X54100000Y-24222780D01*
X54100000Y-24222780D02*
X54100000Y-22200000D01*
X50500000Y-24250000D02*
X54072780Y-24250000D01*
X54072780Y-24250000D02*
X54100000Y-24222780D01*
X54100000Y-27800000D02*
X54100000Y-26850000D01*
X54305000Y-30000000D02*
X54305000Y-28005000D01*
X54305000Y-28005000D02*
X54100000Y-27800000D01*
D29*
X44000000Y-32000000D02*
X44000000Y-31400000D01*
X44000000Y-31400000D02*
X42700000Y-30100000D01*
X42700000Y-30100000D02*
X40475000Y-30100000D01*
X42000000Y-31695000D02*
X42000000Y-31625000D01*
X42000000Y-31625000D02*
X40475000Y-30100000D01*
X40475000Y-30100000D02*
X38550000Y-30100000D01*
X40000000Y-32000000D02*
X40000000Y-31550000D01*
X40000000Y-31550000D02*
X38550000Y-30100000D01*
X38550000Y-30100000D02*
X38550000Y-28950000D01*
X38550000Y-28950000D02*
X38550000Y-27250000D01*
X30250000Y-32000000D02*
X30250000Y-31400000D01*
X30250000Y-31400000D02*
X29450000Y-30600000D01*
X29450000Y-30600000D02*
X29450000Y-28950000D01*
X29450000Y-28950000D02*
X29450000Y-27250000D01*
X28500000Y-32000000D02*
X28500000Y-29650000D01*
X28500000Y-29650000D02*
X28750000Y-29400000D01*
X26750000Y-32000000D02*
X26750000Y-31400000D01*
X26750000Y-31400000D02*
X28750000Y-29400000D01*
X28750000Y-28950000D02*
X28750000Y-27250000D01*
X28750000Y-29400000D02*
X28750000Y-28950000D01*
X48500000Y-33325000D02*
X48500000Y-31143440D01*
X48500000Y-31143440D02*
X46250000Y-28893440D01*
X46250000Y-28893440D02*
X46250000Y-27250000D01*
X49250000Y-33500000D02*
X48675000Y-33500000D01*
X48675000Y-33500000D02*
X48500000Y-33325000D01*
X49250000Y-32000000D02*
X49250000Y-30946002D01*
X49250000Y-30946002D02*
X46950000Y-28646002D01*
X46950000Y-28646002D02*
X46950000Y-27250000D01*
X46750000Y-30850000D02*
X46750000Y-32725000D01*
X46750000Y-32725000D02*
X47500000Y-33475000D01*
X47500000Y-33475000D02*
X47500000Y-33500000D01*
X44850000Y-27250000D02*
X44850000Y-28950000D01*
X44850000Y-28950000D02*
X46750000Y-30850000D01*
X45550000Y-29150000D02*
X47500000Y-31100000D01*
X47500000Y-31100000D02*
X47500000Y-32000000D01*
X45550000Y-27250000D02*
X45550000Y-29150000D01*
X45550000Y-28646002D02*
X45550000Y-27250000D01*
D27*
X47500000Y-32000000D02*
X47500000Y-31975000D01*
X54100000Y-37800000D02*
X54100000Y-36850000D01*
X54100000Y-36850000D02*
X54100000Y-32200000D01*
X54100000Y-37800000D02*
X54100000Y-38095000D01*
X54100000Y-38095000D02*
X52195000Y-40000000D01*
X54100000Y-32200000D02*
X54100000Y-31905000D01*
X54100000Y-31905000D02*
X52195000Y-30000000D01*
X52195000Y-30000000D02*
X52265000Y-30000000D01*
D29*
X32000000Y-32000000D02*
X32000000Y-31550000D01*
X32000000Y-31550000D02*
X30150000Y-29700000D01*
X30150000Y-29700000D02*
X30150000Y-28950000D01*
X30150000Y-28950000D02*
X30150000Y-27250000D01*
D27*
X46226696Y-38998220D02*
X46226696Y-41460000D01*
X46226696Y-41460000D02*
X46266696Y-41500000D01*
X45276696Y-36999240D02*
X43477456Y-36999240D01*
X43477456Y-36999240D02*
X43226696Y-37250000D01*
D29*
X36625727Y-35667099D02*
X37096549Y-36137921D01*
X37096549Y-36137921D02*
X39708628Y-38750000D01*
X35890882Y-35520010D02*
X36467448Y-35520010D01*
X36467448Y-35520010D02*
X37085359Y-36137921D01*
X37085359Y-36137921D02*
X37096549Y-36137921D01*
X43226696Y-38750000D02*
X41707312Y-38750000D01*
X41707312Y-38750000D02*
X40526309Y-38750000D01*
X39708628Y-38750000D02*
X41707312Y-38750000D01*
X40526309Y-38750000D02*
X40350000Y-38750000D01*
X39950000Y-38750000D02*
X40526309Y-38750000D01*
X50921002Y-45000000D02*
X52400000Y-43521002D01*
X50078998Y-45000000D02*
X50921002Y-45000000D01*
X49904999Y-45173999D02*
X50078998Y-45000000D01*
X49904999Y-46326001D02*
X49904999Y-45173999D01*
X51378998Y-47800000D02*
X49904999Y-46326001D01*
X52400000Y-47800000D02*
X51378998Y-47800000D01*
X52400000Y-43521002D02*
X52400000Y-43000000D01*
X52400000Y-43000000D02*
X52400000Y-42200000D01*
D27*
X52400000Y-37800000D02*
X52400000Y-32200000D01*
X50500000Y-41250000D02*
X50500000Y-38750000D01*
X50500000Y-38750000D02*
X51450000Y-37800000D01*
X51450000Y-37800000D02*
X52400000Y-37800000D01*
X51550000Y-41250000D02*
X50500000Y-41250000D01*
X52400000Y-42100000D02*
X51550000Y-41250000D01*
D29*
X50078998Y-25000000D02*
X50921002Y-25000000D01*
X50921002Y-25000000D02*
X52400000Y-26478998D01*
X52400000Y-26478998D02*
X52400000Y-27000000D01*
X52400000Y-27000000D02*
X52400000Y-27800000D01*
X52400000Y-22200000D02*
X51378998Y-22200000D01*
X51378998Y-22200000D02*
X49904999Y-23673999D01*
X49904999Y-23673999D02*
X49904999Y-24826001D01*
X49904999Y-24826001D02*
X50078998Y-25000000D01*
D27*
X52400000Y-27800000D02*
X52400000Y-27900000D01*
X52400000Y-27900000D02*
X51250000Y-29050000D01*
X51250000Y-30950000D02*
X52400000Y-32100000D01*
X51250000Y-29050000D02*
X51250000Y-30950000D01*
X52400000Y-32100000D02*
X52400000Y-32200000D01*
X52400000Y-37800000D02*
X52400000Y-37900000D01*
X52400000Y-42100000D02*
X52400000Y-42200000D01*
D30*
G36*
X25279106Y-29203138D02*
X25427368Y-29302203D01*
X25542535Y-29325111D01*
X25630122Y-29412850D01*
X25535431Y-29507541D01*
X25393011Y-29720687D01*
X25343000Y-29972110D01*
X25343000Y-30520010D01*
X25342887Y-30650122D01*
X25442698Y-30891684D01*
X25627354Y-31076662D01*
X25748575Y-31126997D01*
X25748577Y-31126999D01*
X25748580Y-31127000D01*
X25868741Y-31176895D01*
X25999997Y-31177009D01*
X26000000Y-31177010D01*
X26000003Y-31177010D01*
X26130112Y-31177123D01*
X26251421Y-31126999D01*
X26251423Y-31126999D01*
X26251425Y-31126998D01*
X26371674Y-31077312D01*
X26556652Y-30892656D01*
X26606987Y-30771435D01*
X26606989Y-30771433D01*
X26606990Y-30771430D01*
X26656885Y-30651269D01*
X26657113Y-30389898D01*
X26657000Y-30389625D01*
X26657000Y-30244248D01*
X27164569Y-29736680D01*
X27306989Y-29523533D01*
X27356999Y-29272110D01*
X27327927Y-29125953D01*
X27490302Y-29288327D01*
X27527474Y-29303724D01*
X27608750Y-29385000D01*
X27676309Y-29385000D01*
X27700000Y-29375187D01*
X27723691Y-29385000D01*
X27791250Y-29385000D01*
X27872526Y-29303724D01*
X27909698Y-29288327D01*
X28088327Y-29109699D01*
X28150000Y-28960807D01*
X28150000Y-29226250D01*
X28213727Y-29289977D01*
X26426852Y-31076852D01*
X26327787Y-31225113D01*
X26323700Y-31245659D01*
X26242704Y-31260899D01*
X26121198Y-31339086D01*
X26039684Y-31458386D01*
X26011006Y-31600000D01*
X26011006Y-32400000D01*
X26035899Y-32532296D01*
X26046490Y-32548754D01*
X26015301Y-32561673D01*
X25836673Y-32740302D01*
X25740000Y-32973691D01*
X25740000Y-33214250D01*
X25898750Y-33373000D01*
X26623000Y-33373000D01*
X26623000Y-33353000D01*
X26877000Y-33353000D01*
X26877000Y-33373000D01*
X27601250Y-33373000D01*
X27625000Y-33349250D01*
X27648750Y-33373000D01*
X28373000Y-33373000D01*
X28373000Y-33353000D01*
X28627000Y-33353000D01*
X28627000Y-33373000D01*
X29351250Y-33373000D01*
X29375000Y-33349250D01*
X29398750Y-33373000D01*
X30123000Y-33373000D01*
X30123000Y-33353000D01*
X30377000Y-33353000D01*
X30377000Y-33373000D01*
X31071750Y-33373000D01*
X31073750Y-33375000D01*
X31873000Y-33375000D01*
X31873000Y-32773750D01*
X31714250Y-32615000D01*
X31423690Y-32615000D01*
X31190301Y-32711673D01*
X31162500Y-32739475D01*
X30984699Y-32561673D01*
X30955012Y-32549376D01*
X30960316Y-32541614D01*
X30988994Y-32400000D01*
X30988994Y-31600000D01*
X30964101Y-31467704D01*
X30885914Y-31346198D01*
X30766614Y-31264684D01*
X30676452Y-31246425D01*
X30672213Y-31225114D01*
X30573148Y-31076852D01*
X29907000Y-30410704D01*
X29907000Y-30103296D01*
X31294815Y-31491111D01*
X31214684Y-31608386D01*
X31186006Y-31750000D01*
X31186006Y-32250000D01*
X31210899Y-32382296D01*
X31289086Y-32503802D01*
X31408386Y-32585316D01*
X31550000Y-32613994D01*
X32215664Y-32613994D01*
X32215664Y-32685086D01*
X32127000Y-32773750D01*
X32127000Y-33375000D01*
X32147000Y-33375000D01*
X32147000Y-33625000D01*
X32127000Y-33625000D01*
X32127000Y-33647000D01*
X31873000Y-33647000D01*
X31873000Y-33625000D01*
X31073750Y-33625000D01*
X31071750Y-33627000D01*
X30377000Y-33627000D01*
X30377000Y-33647000D01*
X30123000Y-33647000D01*
X30123000Y-33627000D01*
X29398750Y-33627000D01*
X29382677Y-33643073D01*
X29367309Y-33643059D01*
X29351250Y-33627000D01*
X28627000Y-33627000D01*
X28627000Y-34376250D01*
X28642920Y-34392170D01*
X28642887Y-34430112D01*
X28742698Y-34671674D01*
X28843000Y-34772151D01*
X28843000Y-35400000D01*
X28877787Y-35574887D01*
X28976852Y-35723148D01*
X30547260Y-37293556D01*
X30428326Y-37342698D01*
X30243348Y-37527354D01*
X30143115Y-37768741D01*
X30142887Y-38030112D01*
X30242698Y-38271674D01*
X30427354Y-38456652D01*
X30668741Y-38556885D01*
X30810713Y-38557009D01*
X33023025Y-40769321D01*
X33022877Y-40939230D01*
X33122688Y-41180792D01*
X33307344Y-41365770D01*
X33548731Y-41466003D01*
X33810102Y-41466231D01*
X34051664Y-41366420D01*
X34236642Y-41181764D01*
X34329926Y-40957113D01*
X34330112Y-40957113D01*
X34571674Y-40857302D01*
X34756652Y-40672646D01*
X34856885Y-40431259D01*
X34857113Y-40169888D01*
X34757302Y-39928326D01*
X34572646Y-39743348D01*
X34331259Y-39643115D01*
X34189286Y-39642991D01*
X31856439Y-37310143D01*
X33042887Y-37310143D01*
X33142698Y-37551705D01*
X33327354Y-37736683D01*
X33568741Y-37836916D01*
X33710713Y-37837040D01*
X39043000Y-43169327D01*
X39043000Y-43327875D01*
X38943348Y-43427354D01*
X38843115Y-43668741D01*
X38842887Y-43930112D01*
X38942698Y-44171674D01*
X39127354Y-44356652D01*
X39368741Y-44456885D01*
X39630112Y-44457113D01*
X39871674Y-44357302D01*
X40056652Y-44172646D01*
X40156885Y-43931259D01*
X40157113Y-43669888D01*
X40057302Y-43428326D01*
X39957000Y-43327849D01*
X39957000Y-42980036D01*
X39957001Y-42980031D01*
X39922213Y-42805145D01*
X39823148Y-42656883D01*
X34356990Y-37190725D01*
X34357113Y-37049919D01*
X34257302Y-36808357D01*
X34072646Y-36623379D01*
X33831259Y-36523146D01*
X33569888Y-36522918D01*
X33328326Y-36622729D01*
X33143348Y-36807385D01*
X33043115Y-37048772D01*
X33042887Y-37310143D01*
X31856439Y-37310143D01*
X30223297Y-35677001D01*
X31936001Y-35677001D01*
X32187424Y-35626990D01*
X32400570Y-35484570D01*
X33342964Y-34542176D01*
X33342887Y-34630112D01*
X33442698Y-34871674D01*
X33543000Y-34972151D01*
X33543000Y-35600000D01*
X33577787Y-35774887D01*
X33676852Y-35923148D01*
X34510896Y-36757192D01*
X34510686Y-36997911D01*
X34610497Y-37239473D01*
X34795153Y-37424451D01*
X35036540Y-37524684D01*
X35297911Y-37524912D01*
X35539473Y-37425101D01*
X35724451Y-37240445D01*
X35824684Y-36999058D01*
X35824773Y-36897011D01*
X36179906Y-36897011D01*
X36870825Y-37587930D01*
X36721320Y-37649704D01*
X36536342Y-37834360D01*
X36436109Y-38075747D01*
X36435881Y-38337118D01*
X36535692Y-38578680D01*
X36720348Y-38763658D01*
X36961735Y-38863891D01*
X37103707Y-38864015D01*
X42762840Y-44523148D01*
X42911102Y-44622213D01*
X43085988Y-44657000D01*
X48441102Y-44657000D01*
X49127989Y-45343886D01*
X49127989Y-46458553D01*
X49162776Y-46633440D01*
X49261841Y-46781701D01*
X51043000Y-48562859D01*
X51043000Y-48600000D01*
X51077787Y-48774887D01*
X51176852Y-48923148D01*
X51376852Y-49123148D01*
X51525114Y-49222213D01*
X51700000Y-49257000D01*
X53200000Y-49257000D01*
X53374887Y-49222213D01*
X53523148Y-49123148D01*
X53882302Y-48763994D01*
X54568000Y-48763994D01*
X54568000Y-50198018D01*
X52733009Y-53868000D01*
X22266991Y-53868000D01*
X20482991Y-50300000D01*
X22568000Y-50300000D01*
X22571028Y-50315224D01*
X22569087Y-50330624D01*
X22587376Y-50397408D01*
X22600884Y-50465319D01*
X22609507Y-50478224D01*
X22613607Y-50493196D01*
X23513607Y-52293196D01*
X23556062Y-52347899D01*
X23594530Y-52405470D01*
X23607436Y-52414094D01*
X23616953Y-52426356D01*
X23677107Y-52460646D01*
X23734681Y-52499116D01*
X23749906Y-52502144D01*
X23763390Y-52509831D01*
X23832085Y-52518491D01*
X23900000Y-52532000D01*
X51100000Y-52532000D01*
X51167915Y-52518491D01*
X51236610Y-52509831D01*
X51250094Y-52502144D01*
X51265319Y-52499116D01*
X51322893Y-52460646D01*
X51383047Y-52426356D01*
X51392564Y-52414094D01*
X51405470Y-52405470D01*
X51443938Y-52347899D01*
X51486393Y-52293196D01*
X52386392Y-50493196D01*
X52390491Y-50478227D01*
X52399116Y-50465319D01*
X52412625Y-50397403D01*
X52430913Y-50330624D01*
X52428972Y-50315224D01*
X52432000Y-50300000D01*
X52418491Y-50232085D01*
X52409831Y-50163390D01*
X52402144Y-50149906D01*
X52399116Y-50134681D01*
X52360646Y-50077107D01*
X52326356Y-50016953D01*
X52314094Y-50007436D01*
X52305470Y-49994530D01*
X52247894Y-49956059D01*
X52193196Y-49913608D01*
X52178227Y-49909509D01*
X52165319Y-49900884D01*
X52097403Y-49887375D01*
X52030624Y-49869087D01*
X52015224Y-49871028D01*
X52000000Y-49868000D01*
X23000000Y-49868000D01*
X22984776Y-49871028D01*
X22969376Y-49869087D01*
X22902592Y-49887376D01*
X22834681Y-49900884D01*
X22821776Y-49909507D01*
X22806804Y-49913607D01*
X22752101Y-49956062D01*
X22694530Y-49994530D01*
X22685906Y-50007436D01*
X22673644Y-50016953D01*
X22639354Y-50077107D01*
X22600884Y-50134681D01*
X22597856Y-50149906D01*
X22590169Y-50163390D01*
X22581509Y-50232085D01*
X22568000Y-50300000D01*
X20482991Y-50300000D01*
X20432000Y-50198018D01*
X20432000Y-49436837D01*
X20445172Y-49463663D01*
X20785862Y-49750902D01*
X21210540Y-49885900D01*
X21485540Y-49885900D01*
X21485540Y-48877900D01*
X21739540Y-48877900D01*
X21739540Y-49885900D01*
X22014540Y-49885900D01*
X22439218Y-49750902D01*
X22779908Y-49463663D01*
X22981659Y-49052774D01*
X22855494Y-48877900D01*
X21739540Y-48877900D01*
X21485540Y-48877900D01*
X21465540Y-48877900D01*
X21465540Y-48623900D01*
X21485540Y-48623900D01*
X21485540Y-47615900D01*
X21739540Y-47615900D01*
X21739540Y-48623900D01*
X22855494Y-48623900D01*
X22981659Y-48449026D01*
X22786731Y-48052031D01*
X23211311Y-48052031D01*
X23352972Y-48461949D01*
X23640719Y-48786452D01*
X24014602Y-48970168D01*
X24185540Y-48843634D01*
X24185540Y-47877900D01*
X24439540Y-47877900D01*
X24439540Y-48843634D01*
X24610478Y-48970168D01*
X24984361Y-48786452D01*
X25272108Y-48461949D01*
X25413769Y-48052031D01*
X25399869Y-48035750D01*
X33849000Y-48035750D01*
X33849000Y-48892310D01*
X33945673Y-49125699D01*
X34124302Y-49304327D01*
X34357691Y-49401000D01*
X35214250Y-49401000D01*
X35373000Y-49242250D01*
X35373000Y-47877000D01*
X35627000Y-47877000D01*
X35627000Y-49242250D01*
X35785750Y-49401000D01*
X36642309Y-49401000D01*
X36875698Y-49304327D01*
X37054327Y-49125699D01*
X37151000Y-48892310D01*
X37151000Y-48035750D01*
X36992250Y-47877000D01*
X35627000Y-47877000D01*
X35373000Y-47877000D01*
X34007750Y-47877000D01*
X33849000Y-48035750D01*
X25399869Y-48035750D01*
X25265103Y-47877900D01*
X24439540Y-47877900D01*
X24185540Y-47877900D01*
X23359977Y-47877900D01*
X23211311Y-48052031D01*
X22786731Y-48052031D01*
X22779908Y-48038137D01*
X22439218Y-47750898D01*
X22014540Y-47615900D01*
X21739540Y-47615900D01*
X21485540Y-47615900D01*
X21210540Y-47615900D01*
X20785862Y-47750898D01*
X20445172Y-48038137D01*
X20432000Y-48064963D01*
X20432000Y-42436837D01*
X20445172Y-42463663D01*
X20785862Y-42750902D01*
X21210540Y-42885900D01*
X21485540Y-42885900D01*
X21485540Y-41877900D01*
X21739540Y-41877900D01*
X21739540Y-42885900D01*
X22014540Y-42885900D01*
X22439218Y-42750902D01*
X22563696Y-42645953D01*
X22543000Y-42750000D01*
X22543000Y-45000000D01*
X22577787Y-45174887D01*
X22676852Y-45323148D01*
X22927752Y-45574048D01*
X23076013Y-45673113D01*
X23250900Y-45707900D01*
X23273546Y-45707900D01*
X23273546Y-46100900D01*
X23297930Y-46230490D01*
X23273546Y-46350900D01*
X23273546Y-46750900D01*
X23298439Y-46883196D01*
X23376626Y-47004702D01*
X23381305Y-47007899D01*
X23352972Y-47039851D01*
X23211311Y-47449769D01*
X23359977Y-47623900D01*
X24185540Y-47623900D01*
X24185540Y-47603900D01*
X24439540Y-47603900D01*
X24439540Y-47623900D01*
X25265103Y-47623900D01*
X25413769Y-47449769D01*
X25330183Y-47207900D01*
X25449100Y-47207900D01*
X25700523Y-47157889D01*
X25817661Y-47079620D01*
X25871674Y-47057302D01*
X25913400Y-47015649D01*
X25913669Y-47015469D01*
X25964570Y-46964568D01*
X26056652Y-46872646D01*
X26106987Y-46751425D01*
X26106989Y-46751423D01*
X26106990Y-46751420D01*
X26156885Y-46631259D01*
X26156905Y-46607690D01*
X33849000Y-46607690D01*
X33849000Y-47464250D01*
X34007750Y-47623000D01*
X35373000Y-47623000D01*
X35373000Y-47603000D01*
X35627000Y-47603000D01*
X35627000Y-47623000D01*
X36992250Y-47623000D01*
X37151000Y-47464250D01*
X37151000Y-46607690D01*
X37054327Y-46374301D01*
X36875698Y-46195673D01*
X36642309Y-46099000D01*
X36552453Y-46099000D01*
X36795386Y-45735424D01*
X36808996Y-45667000D01*
X37020704Y-45667000D01*
X40343010Y-48989306D01*
X40342887Y-49130112D01*
X40442698Y-49371674D01*
X40627354Y-49556652D01*
X40868741Y-49656885D01*
X41130112Y-49657113D01*
X41371674Y-49557302D01*
X41556652Y-49372646D01*
X41656885Y-49131259D01*
X41657113Y-48869888D01*
X41557302Y-48628326D01*
X41372646Y-48443348D01*
X41131259Y-48343115D01*
X40989287Y-48342991D01*
X37533148Y-44886852D01*
X37384887Y-44787787D01*
X37210000Y-44753000D01*
X36808996Y-44753000D01*
X36795386Y-44684576D01*
X36497757Y-44239142D01*
X36052323Y-43941513D01*
X35526899Y-43837000D01*
X35473101Y-43837000D01*
X34947677Y-43941513D01*
X34502243Y-44239142D01*
X34204614Y-44684576D01*
X34100101Y-45210000D01*
X34204614Y-45735424D01*
X34447547Y-46099000D01*
X34357691Y-46099000D01*
X34124302Y-46195673D01*
X33945673Y-46374301D01*
X33849000Y-46607690D01*
X26156905Y-46607690D01*
X26157113Y-46369888D01*
X26057302Y-46128326D01*
X25912762Y-45983534D01*
X26323148Y-45573148D01*
X26422213Y-45424886D01*
X26457001Y-45250000D01*
X26457000Y-45249995D01*
X26457000Y-42722125D01*
X26556652Y-42622646D01*
X26656885Y-42381259D01*
X26657113Y-42119888D01*
X26557302Y-41878326D01*
X26429138Y-41749938D01*
X26556652Y-41622646D01*
X26656885Y-41381259D01*
X26657113Y-41119888D01*
X26557302Y-40878326D01*
X26372646Y-40693348D01*
X26131259Y-40593115D01*
X25869888Y-40592887D01*
X25628326Y-40692698D01*
X25443348Y-40877354D01*
X25343115Y-41118741D01*
X25342991Y-41260713D01*
X25310704Y-41293000D01*
X24000005Y-41293000D01*
X24000000Y-41292999D01*
X23825114Y-41327787D01*
X23676852Y-41426852D01*
X23676850Y-41426855D01*
X22914835Y-42188870D01*
X22981659Y-42052774D01*
X22855494Y-41877900D01*
X21739540Y-41877900D01*
X21485540Y-41877900D01*
X21465540Y-41877900D01*
X21465540Y-41623900D01*
X21485540Y-41623900D01*
X21485540Y-40615900D01*
X21739540Y-40615900D01*
X21739540Y-41623900D01*
X22855494Y-41623900D01*
X22981659Y-41449026D01*
X22779908Y-41038137D01*
X22439218Y-40750898D01*
X22014540Y-40615900D01*
X21739540Y-40615900D01*
X21485540Y-40615900D01*
X21210540Y-40615900D01*
X20785862Y-40750898D01*
X20445172Y-41038137D01*
X20432000Y-41064963D01*
X20432000Y-37618250D01*
X21292722Y-37618250D01*
X21536857Y-38209103D01*
X21988519Y-38661554D01*
X22578946Y-38906720D01*
X23218250Y-38907278D01*
X23809103Y-38663143D01*
X24261554Y-38211481D01*
X24506720Y-37621054D01*
X24507278Y-36981750D01*
X24263143Y-36390897D01*
X23811481Y-35938446D01*
X23221054Y-35693280D01*
X22581750Y-35692722D01*
X21990897Y-35936857D01*
X21538446Y-36388519D01*
X21293280Y-36978946D01*
X21292722Y-37618250D01*
X20432000Y-37618250D01*
X20432000Y-32727000D01*
X22809189Y-32727000D01*
X22906842Y-32873148D01*
X25523000Y-35489306D01*
X25522877Y-35630112D01*
X25622688Y-35871674D01*
X25807344Y-36056652D01*
X26048731Y-36156885D01*
X26310102Y-36157113D01*
X26551664Y-36057302D01*
X26736642Y-35872646D01*
X26836875Y-35631259D01*
X26837103Y-35369888D01*
X26737292Y-35128326D01*
X26552636Y-34943348D01*
X26311249Y-34843115D01*
X26169277Y-34842991D01*
X25112036Y-33785750D01*
X25740000Y-33785750D01*
X25740000Y-34026309D01*
X25836673Y-34259698D01*
X26015301Y-34438327D01*
X26248690Y-34535000D01*
X26464250Y-34535000D01*
X26623000Y-34376250D01*
X26623000Y-33627000D01*
X26877000Y-33627000D01*
X26877000Y-34376250D01*
X27035750Y-34535000D01*
X27251310Y-34535000D01*
X27484699Y-34438327D01*
X27625000Y-34298025D01*
X27765301Y-34438327D01*
X27998690Y-34535000D01*
X28214250Y-34535000D01*
X28373000Y-34376250D01*
X28373000Y-33627000D01*
X27648750Y-33627000D01*
X27625000Y-33650750D01*
X27601250Y-33627000D01*
X26877000Y-33627000D01*
X26623000Y-33627000D01*
X25898750Y-33627000D01*
X25740000Y-33785750D01*
X25112036Y-33785750D01*
X24000355Y-32674069D01*
X24018315Y-32646159D01*
X24027000Y-32600000D01*
X24027000Y-27951032D01*
X25279106Y-29203138D01*
X25279106Y-29203138D01*
G37*
X25279106Y-29203138D02*
X25427368Y-29302203D01*
X25542535Y-29325111D01*
X25630122Y-29412850D01*
X25535431Y-29507541D01*
X25393011Y-29720687D01*
X25343000Y-29972110D01*
X25343000Y-30520010D01*
X25342887Y-30650122D01*
X25442698Y-30891684D01*
X25627354Y-31076662D01*
X25748575Y-31126997D01*
X25748577Y-31126999D01*
X25748580Y-31127000D01*
X25868741Y-31176895D01*
X25999997Y-31177009D01*
X26000000Y-31177010D01*
X26000003Y-31177010D01*
X26130112Y-31177123D01*
X26251421Y-31126999D01*
X26251423Y-31126999D01*
X26251425Y-31126998D01*
X26371674Y-31077312D01*
X26556652Y-30892656D01*
X26606987Y-30771435D01*
X26606989Y-30771433D01*
X26606990Y-30771430D01*
X26656885Y-30651269D01*
X26657113Y-30389898D01*
X26657000Y-30389625D01*
X26657000Y-30244248D01*
X27164569Y-29736680D01*
X27306989Y-29523533D01*
X27356999Y-29272110D01*
X27327927Y-29125953D01*
X27490302Y-29288327D01*
X27527474Y-29303724D01*
X27608750Y-29385000D01*
X27676309Y-29385000D01*
X27700000Y-29375187D01*
X27723691Y-29385000D01*
X27791250Y-29385000D01*
X27872526Y-29303724D01*
X27909698Y-29288327D01*
X28088327Y-29109699D01*
X28150000Y-28960807D01*
X28150000Y-29226250D01*
X28213727Y-29289977D01*
X26426852Y-31076852D01*
X26327787Y-31225113D01*
X26323700Y-31245659D01*
X26242704Y-31260899D01*
X26121198Y-31339086D01*
X26039684Y-31458386D01*
X26011006Y-31600000D01*
X26011006Y-32400000D01*
X26035899Y-32532296D01*
X26046490Y-32548754D01*
X26015301Y-32561673D01*
X25836673Y-32740302D01*
X25740000Y-32973691D01*
X25740000Y-33214250D01*
X25898750Y-33373000D01*
X26623000Y-33373000D01*
X26623000Y-33353000D01*
X26877000Y-33353000D01*
X26877000Y-33373000D01*
X27601250Y-33373000D01*
X27625000Y-33349250D01*
X27648750Y-33373000D01*
X28373000Y-33373000D01*
X28373000Y-33353000D01*
X28627000Y-33353000D01*
X28627000Y-33373000D01*
X29351250Y-33373000D01*
X29375000Y-33349250D01*
X29398750Y-33373000D01*
X30123000Y-33373000D01*
X30123000Y-33353000D01*
X30377000Y-33353000D01*
X30377000Y-33373000D01*
X31071750Y-33373000D01*
X31073750Y-33375000D01*
X31873000Y-33375000D01*
X31873000Y-32773750D01*
X31714250Y-32615000D01*
X31423690Y-32615000D01*
X31190301Y-32711673D01*
X31162500Y-32739475D01*
X30984699Y-32561673D01*
X30955012Y-32549376D01*
X30960316Y-32541614D01*
X30988994Y-32400000D01*
X30988994Y-31600000D01*
X30964101Y-31467704D01*
X30885914Y-31346198D01*
X30766614Y-31264684D01*
X30676452Y-31246425D01*
X30672213Y-31225114D01*
X30573148Y-31076852D01*
X29907000Y-30410704D01*
X29907000Y-30103296D01*
X31294815Y-31491111D01*
X31214684Y-31608386D01*
X31186006Y-31750000D01*
X31186006Y-32250000D01*
X31210899Y-32382296D01*
X31289086Y-32503802D01*
X31408386Y-32585316D01*
X31550000Y-32613994D01*
X32215664Y-32613994D01*
X32215664Y-32685086D01*
X32127000Y-32773750D01*
X32127000Y-33375000D01*
X32147000Y-33375000D01*
X32147000Y-33625000D01*
X32127000Y-33625000D01*
X32127000Y-33647000D01*
X31873000Y-33647000D01*
X31873000Y-33625000D01*
X31073750Y-33625000D01*
X31071750Y-33627000D01*
X30377000Y-33627000D01*
X30377000Y-33647000D01*
X30123000Y-33647000D01*
X30123000Y-33627000D01*
X29398750Y-33627000D01*
X29382677Y-33643073D01*
X29367309Y-33643059D01*
X29351250Y-33627000D01*
X28627000Y-33627000D01*
X28627000Y-34376250D01*
X28642920Y-34392170D01*
X28642887Y-34430112D01*
X28742698Y-34671674D01*
X28843000Y-34772151D01*
X28843000Y-35400000D01*
X28877787Y-35574887D01*
X28976852Y-35723148D01*
X30547260Y-37293556D01*
X30428326Y-37342698D01*
X30243348Y-37527354D01*
X30143115Y-37768741D01*
X30142887Y-38030112D01*
X30242698Y-38271674D01*
X30427354Y-38456652D01*
X30668741Y-38556885D01*
X30810713Y-38557009D01*
X33023025Y-40769321D01*
X33022877Y-40939230D01*
X33122688Y-41180792D01*
X33307344Y-41365770D01*
X33548731Y-41466003D01*
X33810102Y-41466231D01*
X34051664Y-41366420D01*
X34236642Y-41181764D01*
X34329926Y-40957113D01*
X34330112Y-40957113D01*
X34571674Y-40857302D01*
X34756652Y-40672646D01*
X34856885Y-40431259D01*
X34857113Y-40169888D01*
X34757302Y-39928326D01*
X34572646Y-39743348D01*
X34331259Y-39643115D01*
X34189286Y-39642991D01*
X31856439Y-37310143D01*
X33042887Y-37310143D01*
X33142698Y-37551705D01*
X33327354Y-37736683D01*
X33568741Y-37836916D01*
X33710713Y-37837040D01*
X39043000Y-43169327D01*
X39043000Y-43327875D01*
X38943348Y-43427354D01*
X38843115Y-43668741D01*
X38842887Y-43930112D01*
X38942698Y-44171674D01*
X39127354Y-44356652D01*
X39368741Y-44456885D01*
X39630112Y-44457113D01*
X39871674Y-44357302D01*
X40056652Y-44172646D01*
X40156885Y-43931259D01*
X40157113Y-43669888D01*
X40057302Y-43428326D01*
X39957000Y-43327849D01*
X39957000Y-42980036D01*
X39957001Y-42980031D01*
X39922213Y-42805145D01*
X39823148Y-42656883D01*
X34356990Y-37190725D01*
X34357113Y-37049919D01*
X34257302Y-36808357D01*
X34072646Y-36623379D01*
X33831259Y-36523146D01*
X33569888Y-36522918D01*
X33328326Y-36622729D01*
X33143348Y-36807385D01*
X33043115Y-37048772D01*
X33042887Y-37310143D01*
X31856439Y-37310143D01*
X30223297Y-35677001D01*
X31936001Y-35677001D01*
X32187424Y-35626990D01*
X32400570Y-35484570D01*
X33342964Y-34542176D01*
X33342887Y-34630112D01*
X33442698Y-34871674D01*
X33543000Y-34972151D01*
X33543000Y-35600000D01*
X33577787Y-35774887D01*
X33676852Y-35923148D01*
X34510896Y-36757192D01*
X34510686Y-36997911D01*
X34610497Y-37239473D01*
X34795153Y-37424451D01*
X35036540Y-37524684D01*
X35297911Y-37524912D01*
X35539473Y-37425101D01*
X35724451Y-37240445D01*
X35824684Y-36999058D01*
X35824773Y-36897011D01*
X36179906Y-36897011D01*
X36870825Y-37587930D01*
X36721320Y-37649704D01*
X36536342Y-37834360D01*
X36436109Y-38075747D01*
X36435881Y-38337118D01*
X36535692Y-38578680D01*
X36720348Y-38763658D01*
X36961735Y-38863891D01*
X37103707Y-38864015D01*
X42762840Y-44523148D01*
X42911102Y-44622213D01*
X43085988Y-44657000D01*
X48441102Y-44657000D01*
X49127989Y-45343886D01*
X49127989Y-46458553D01*
X49162776Y-46633440D01*
X49261841Y-46781701D01*
X51043000Y-48562859D01*
X51043000Y-48600000D01*
X51077787Y-48774887D01*
X51176852Y-48923148D01*
X51376852Y-49123148D01*
X51525114Y-49222213D01*
X51700000Y-49257000D01*
X53200000Y-49257000D01*
X53374887Y-49222213D01*
X53523148Y-49123148D01*
X53882302Y-48763994D01*
X54568000Y-48763994D01*
X54568000Y-50198018D01*
X52733009Y-53868000D01*
X22266991Y-53868000D01*
X20482991Y-50300000D01*
X22568000Y-50300000D01*
X22571028Y-50315224D01*
X22569087Y-50330624D01*
X22587376Y-50397408D01*
X22600884Y-50465319D01*
X22609507Y-50478224D01*
X22613607Y-50493196D01*
X23513607Y-52293196D01*
X23556062Y-52347899D01*
X23594530Y-52405470D01*
X23607436Y-52414094D01*
X23616953Y-52426356D01*
X23677107Y-52460646D01*
X23734681Y-52499116D01*
X23749906Y-52502144D01*
X23763390Y-52509831D01*
X23832085Y-52518491D01*
X23900000Y-52532000D01*
X51100000Y-52532000D01*
X51167915Y-52518491D01*
X51236610Y-52509831D01*
X51250094Y-52502144D01*
X51265319Y-52499116D01*
X51322893Y-52460646D01*
X51383047Y-52426356D01*
X51392564Y-52414094D01*
X51405470Y-52405470D01*
X51443938Y-52347899D01*
X51486393Y-52293196D01*
X52386392Y-50493196D01*
X52390491Y-50478227D01*
X52399116Y-50465319D01*
X52412625Y-50397403D01*
X52430913Y-50330624D01*
X52428972Y-50315224D01*
X52432000Y-50300000D01*
X52418491Y-50232085D01*
X52409831Y-50163390D01*
X52402144Y-50149906D01*
X52399116Y-50134681D01*
X52360646Y-50077107D01*
X52326356Y-50016953D01*
X52314094Y-50007436D01*
X52305470Y-49994530D01*
X52247894Y-49956059D01*
X52193196Y-49913608D01*
X52178227Y-49909509D01*
X52165319Y-49900884D01*
X52097403Y-49887375D01*
X52030624Y-49869087D01*
X52015224Y-49871028D01*
X52000000Y-49868000D01*
X23000000Y-49868000D01*
X22984776Y-49871028D01*
X22969376Y-49869087D01*
X22902592Y-49887376D01*
X22834681Y-49900884D01*
X22821776Y-49909507D01*
X22806804Y-49913607D01*
X22752101Y-49956062D01*
X22694530Y-49994530D01*
X22685906Y-50007436D01*
X22673644Y-50016953D01*
X22639354Y-50077107D01*
X22600884Y-50134681D01*
X22597856Y-50149906D01*
X22590169Y-50163390D01*
X22581509Y-50232085D01*
X22568000Y-50300000D01*
X20482991Y-50300000D01*
X20432000Y-50198018D01*
X20432000Y-49436837D01*
X20445172Y-49463663D01*
X20785862Y-49750902D01*
X21210540Y-49885900D01*
X21485540Y-49885900D01*
X21485540Y-48877900D01*
X21739540Y-48877900D01*
X21739540Y-49885900D01*
X22014540Y-49885900D01*
X22439218Y-49750902D01*
X22779908Y-49463663D01*
X22981659Y-49052774D01*
X22855494Y-48877900D01*
X21739540Y-48877900D01*
X21485540Y-48877900D01*
X21465540Y-48877900D01*
X21465540Y-48623900D01*
X21485540Y-48623900D01*
X21485540Y-47615900D01*
X21739540Y-47615900D01*
X21739540Y-48623900D01*
X22855494Y-48623900D01*
X22981659Y-48449026D01*
X22786731Y-48052031D01*
X23211311Y-48052031D01*
X23352972Y-48461949D01*
X23640719Y-48786452D01*
X24014602Y-48970168D01*
X24185540Y-48843634D01*
X24185540Y-47877900D01*
X24439540Y-47877900D01*
X24439540Y-48843634D01*
X24610478Y-48970168D01*
X24984361Y-48786452D01*
X25272108Y-48461949D01*
X25413769Y-48052031D01*
X25399869Y-48035750D01*
X33849000Y-48035750D01*
X33849000Y-48892310D01*
X33945673Y-49125699D01*
X34124302Y-49304327D01*
X34357691Y-49401000D01*
X35214250Y-49401000D01*
X35373000Y-49242250D01*
X35373000Y-47877000D01*
X35627000Y-47877000D01*
X35627000Y-49242250D01*
X35785750Y-49401000D01*
X36642309Y-49401000D01*
X36875698Y-49304327D01*
X37054327Y-49125699D01*
X37151000Y-48892310D01*
X37151000Y-48035750D01*
X36992250Y-47877000D01*
X35627000Y-47877000D01*
X35373000Y-47877000D01*
X34007750Y-47877000D01*
X33849000Y-48035750D01*
X25399869Y-48035750D01*
X25265103Y-47877900D01*
X24439540Y-47877900D01*
X24185540Y-47877900D01*
X23359977Y-47877900D01*
X23211311Y-48052031D01*
X22786731Y-48052031D01*
X22779908Y-48038137D01*
X22439218Y-47750898D01*
X22014540Y-47615900D01*
X21739540Y-47615900D01*
X21485540Y-47615900D01*
X21210540Y-47615900D01*
X20785862Y-47750898D01*
X20445172Y-48038137D01*
X20432000Y-48064963D01*
X20432000Y-42436837D01*
X20445172Y-42463663D01*
X20785862Y-42750902D01*
X21210540Y-42885900D01*
X21485540Y-42885900D01*
X21485540Y-41877900D01*
X21739540Y-41877900D01*
X21739540Y-42885900D01*
X22014540Y-42885900D01*
X22439218Y-42750902D01*
X22563696Y-42645953D01*
X22543000Y-42750000D01*
X22543000Y-45000000D01*
X22577787Y-45174887D01*
X22676852Y-45323148D01*
X22927752Y-45574048D01*
X23076013Y-45673113D01*
X23250900Y-45707900D01*
X23273546Y-45707900D01*
X23273546Y-46100900D01*
X23297930Y-46230490D01*
X23273546Y-46350900D01*
X23273546Y-46750900D01*
X23298439Y-46883196D01*
X23376626Y-47004702D01*
X23381305Y-47007899D01*
X23352972Y-47039851D01*
X23211311Y-47449769D01*
X23359977Y-47623900D01*
X24185540Y-47623900D01*
X24185540Y-47603900D01*
X24439540Y-47603900D01*
X24439540Y-47623900D01*
X25265103Y-47623900D01*
X25413769Y-47449769D01*
X25330183Y-47207900D01*
X25449100Y-47207900D01*
X25700523Y-47157889D01*
X25817661Y-47079620D01*
X25871674Y-47057302D01*
X25913400Y-47015649D01*
X25913669Y-47015469D01*
X25964570Y-46964568D01*
X26056652Y-46872646D01*
X26106987Y-46751425D01*
X26106989Y-46751423D01*
X26106990Y-46751420D01*
X26156885Y-46631259D01*
X26156905Y-46607690D01*
X33849000Y-46607690D01*
X33849000Y-47464250D01*
X34007750Y-47623000D01*
X35373000Y-47623000D01*
X35373000Y-47603000D01*
X35627000Y-47603000D01*
X35627000Y-47623000D01*
X36992250Y-47623000D01*
X37151000Y-47464250D01*
X37151000Y-46607690D01*
X37054327Y-46374301D01*
X36875698Y-46195673D01*
X36642309Y-46099000D01*
X36552453Y-46099000D01*
X36795386Y-45735424D01*
X36808996Y-45667000D01*
X37020704Y-45667000D01*
X40343010Y-48989306D01*
X40342887Y-49130112D01*
X40442698Y-49371674D01*
X40627354Y-49556652D01*
X40868741Y-49656885D01*
X41130112Y-49657113D01*
X41371674Y-49557302D01*
X41556652Y-49372646D01*
X41656885Y-49131259D01*
X41657113Y-48869888D01*
X41557302Y-48628326D01*
X41372646Y-48443348D01*
X41131259Y-48343115D01*
X40989287Y-48342991D01*
X37533148Y-44886852D01*
X37384887Y-44787787D01*
X37210000Y-44753000D01*
X36808996Y-44753000D01*
X36795386Y-44684576D01*
X36497757Y-44239142D01*
X36052323Y-43941513D01*
X35526899Y-43837000D01*
X35473101Y-43837000D01*
X34947677Y-43941513D01*
X34502243Y-44239142D01*
X34204614Y-44684576D01*
X34100101Y-45210000D01*
X34204614Y-45735424D01*
X34447547Y-46099000D01*
X34357691Y-46099000D01*
X34124302Y-46195673D01*
X33945673Y-46374301D01*
X33849000Y-46607690D01*
X26156905Y-46607690D01*
X26157113Y-46369888D01*
X26057302Y-46128326D01*
X25912762Y-45983534D01*
X26323148Y-45573148D01*
X26422213Y-45424886D01*
X26457001Y-45250000D01*
X26457000Y-45249995D01*
X26457000Y-42722125D01*
X26556652Y-42622646D01*
X26656885Y-42381259D01*
X26657113Y-42119888D01*
X26557302Y-41878326D01*
X26429138Y-41749938D01*
X26556652Y-41622646D01*
X26656885Y-41381259D01*
X26657113Y-41119888D01*
X26557302Y-40878326D01*
X26372646Y-40693348D01*
X26131259Y-40593115D01*
X25869888Y-40592887D01*
X25628326Y-40692698D01*
X25443348Y-40877354D01*
X25343115Y-41118741D01*
X25342991Y-41260713D01*
X25310704Y-41293000D01*
X24000005Y-41293000D01*
X24000000Y-41292999D01*
X23825114Y-41327787D01*
X23676852Y-41426852D01*
X23676850Y-41426855D01*
X22914835Y-42188870D01*
X22981659Y-42052774D01*
X22855494Y-41877900D01*
X21739540Y-41877900D01*
X21485540Y-41877900D01*
X21465540Y-41877900D01*
X21465540Y-41623900D01*
X21485540Y-41623900D01*
X21485540Y-40615900D01*
X21739540Y-40615900D01*
X21739540Y-41623900D01*
X22855494Y-41623900D01*
X22981659Y-41449026D01*
X22779908Y-41038137D01*
X22439218Y-40750898D01*
X22014540Y-40615900D01*
X21739540Y-40615900D01*
X21485540Y-40615900D01*
X21210540Y-40615900D01*
X20785862Y-40750898D01*
X20445172Y-41038137D01*
X20432000Y-41064963D01*
X20432000Y-37618250D01*
X21292722Y-37618250D01*
X21536857Y-38209103D01*
X21988519Y-38661554D01*
X22578946Y-38906720D01*
X23218250Y-38907278D01*
X23809103Y-38663143D01*
X24261554Y-38211481D01*
X24506720Y-37621054D01*
X24507278Y-36981750D01*
X24263143Y-36390897D01*
X23811481Y-35938446D01*
X23221054Y-35693280D01*
X22581750Y-35692722D01*
X21990897Y-35936857D01*
X21538446Y-36388519D01*
X21293280Y-36978946D01*
X21292722Y-37618250D01*
X20432000Y-37618250D01*
X20432000Y-32727000D01*
X22809189Y-32727000D01*
X22906842Y-32873148D01*
X25523000Y-35489306D01*
X25522877Y-35630112D01*
X25622688Y-35871674D01*
X25807344Y-36056652D01*
X26048731Y-36156885D01*
X26310102Y-36157113D01*
X26551664Y-36057302D01*
X26736642Y-35872646D01*
X26836875Y-35631259D01*
X26837103Y-35369888D01*
X26737292Y-35128326D01*
X26552636Y-34943348D01*
X26311249Y-34843115D01*
X26169277Y-34842991D01*
X25112036Y-33785750D01*
X25740000Y-33785750D01*
X25740000Y-34026309D01*
X25836673Y-34259698D01*
X26015301Y-34438327D01*
X26248690Y-34535000D01*
X26464250Y-34535000D01*
X26623000Y-34376250D01*
X26623000Y-33627000D01*
X26877000Y-33627000D01*
X26877000Y-34376250D01*
X27035750Y-34535000D01*
X27251310Y-34535000D01*
X27484699Y-34438327D01*
X27625000Y-34298025D01*
X27765301Y-34438327D01*
X27998690Y-34535000D01*
X28214250Y-34535000D01*
X28373000Y-34376250D01*
X28373000Y-33627000D01*
X27648750Y-33627000D01*
X27625000Y-33650750D01*
X27601250Y-33627000D01*
X26877000Y-33627000D01*
X26623000Y-33627000D01*
X25898750Y-33627000D01*
X25740000Y-33785750D01*
X25112036Y-33785750D01*
X24000355Y-32674069D01*
X24018315Y-32646159D01*
X24027000Y-32600000D01*
X24027000Y-27951032D01*
X25279106Y-29203138D01*
G36*
X25442698Y-42621674D02*
X25543000Y-42722151D01*
X25543000Y-43432564D01*
X25525867Y-43391201D01*
X25355450Y-43220785D01*
X25413769Y-43052031D01*
X25265103Y-42877900D01*
X24439540Y-42877900D01*
X24439540Y-43850900D01*
X24449356Y-43850900D01*
X24459540Y-43858439D01*
X24459540Y-44036906D01*
X24165540Y-44036906D01*
X24165540Y-43858439D01*
X24175724Y-43850900D01*
X24185540Y-43850900D01*
X24185540Y-42877900D01*
X24165540Y-42877900D01*
X24165540Y-42623900D01*
X24185540Y-42623900D01*
X24185540Y-42603900D01*
X24439540Y-42603900D01*
X24439540Y-42623900D01*
X25265103Y-42623900D01*
X25385399Y-42482999D01*
X25442698Y-42621674D01*
X25442698Y-42621674D01*
G37*
X25442698Y-42621674D02*
X25543000Y-42722151D01*
X25543000Y-43432564D01*
X25525867Y-43391201D01*
X25355450Y-43220785D01*
X25413769Y-43052031D01*
X25265103Y-42877900D01*
X24439540Y-42877900D01*
X24439540Y-43850900D01*
X24449356Y-43850900D01*
X24459540Y-43858439D01*
X24459540Y-44036906D01*
X24165540Y-44036906D01*
X24165540Y-43858439D01*
X24175724Y-43850900D01*
X24185540Y-43850900D01*
X24185540Y-42877900D01*
X24165540Y-42877900D01*
X24165540Y-42623900D01*
X24185540Y-42623900D01*
X24185540Y-42603900D01*
X24439540Y-42603900D01*
X24439540Y-42623900D01*
X25265103Y-42623900D01*
X25385399Y-42482999D01*
X25442698Y-42621674D01*
G36*
X49596853Y-21743149D02*
X49745115Y-21842214D01*
X49920001Y-21877001D01*
X50749601Y-21877001D01*
X50924488Y-21842214D01*
X51072749Y-21743149D01*
X51158898Y-21657000D01*
X51536006Y-21657000D01*
X51536006Y-21743000D01*
X51378998Y-21743000D01*
X51204112Y-21777787D01*
X51055850Y-21876852D01*
X49581851Y-23350851D01*
X49482786Y-23499112D01*
X49462206Y-23602576D01*
X49447999Y-23673999D01*
X49447999Y-24826001D01*
X49482786Y-25000888D01*
X49544210Y-25092816D01*
X49490000Y-25223691D01*
X49490000Y-25464250D01*
X49648750Y-25623000D01*
X50373000Y-25623000D01*
X50373000Y-25603000D01*
X50627000Y-25603000D01*
X50627000Y-25623000D01*
X50647000Y-25623000D01*
X50647000Y-25877000D01*
X50627000Y-25877000D01*
X50627000Y-26626250D01*
X50785750Y-26785000D01*
X51001310Y-26785000D01*
X51234699Y-26688327D01*
X51413327Y-26509698D01*
X51510000Y-26276309D01*
X51510000Y-26235294D01*
X51943000Y-26668294D01*
X51943000Y-26836006D01*
X51900000Y-26836006D01*
X51767704Y-26860899D01*
X51646198Y-26939086D01*
X51564684Y-27058386D01*
X51536006Y-27200000D01*
X51536006Y-28011632D01*
X50873819Y-28673819D01*
X50758496Y-28846412D01*
X50718000Y-29050000D01*
X50718000Y-30950000D01*
X50758496Y-31153588D01*
X50813566Y-31236006D01*
X50873819Y-31326181D01*
X51536006Y-31988368D01*
X51536006Y-32800000D01*
X51560899Y-32932296D01*
X51639086Y-33053802D01*
X51758386Y-33135316D01*
X51868000Y-33157514D01*
X51868000Y-36842027D01*
X51767704Y-36860899D01*
X51646198Y-36939086D01*
X51564684Y-37058386D01*
X51536006Y-37200000D01*
X51536006Y-37268000D01*
X51450000Y-37268000D01*
X51246412Y-37308496D01*
X51176937Y-37354918D01*
X51073819Y-37423819D01*
X50123819Y-38373819D01*
X50008496Y-38546412D01*
X49968000Y-38750000D01*
X49968000Y-40651435D01*
X49917704Y-40660899D01*
X49796198Y-40739086D01*
X49714684Y-40858386D01*
X49686006Y-41000000D01*
X49686006Y-41500000D01*
X49710899Y-41632296D01*
X49789086Y-41753802D01*
X49908386Y-41835316D01*
X50050000Y-41863994D01*
X50950000Y-41863994D01*
X51082296Y-41839101D01*
X51171033Y-41782000D01*
X51329638Y-41782000D01*
X51536006Y-41988368D01*
X51536006Y-42255409D01*
X51488327Y-42140302D01*
X51309699Y-41961673D01*
X51076310Y-41865000D01*
X50785750Y-41865000D01*
X50627000Y-42023750D01*
X50627000Y-42625000D01*
X50647000Y-42625000D01*
X50647000Y-42875000D01*
X50627000Y-42875000D01*
X50627000Y-44123000D01*
X50647000Y-44123000D01*
X50647000Y-44377000D01*
X50627000Y-44377000D01*
X50627000Y-44397000D01*
X50373000Y-44397000D01*
X50373000Y-44377000D01*
X49648750Y-44377000D01*
X49551222Y-44474528D01*
X48953546Y-43876852D01*
X48805285Y-43777787D01*
X48630398Y-43743000D01*
X43275284Y-43743000D01*
X42566034Y-43033750D01*
X49415000Y-43033750D01*
X49415000Y-43126309D01*
X49511673Y-43359698D01*
X49614475Y-43462500D01*
X49586673Y-43490302D01*
X49490000Y-43723691D01*
X49490000Y-43964250D01*
X49648750Y-44123000D01*
X50373000Y-44123000D01*
X50373000Y-42875000D01*
X49573750Y-42875000D01*
X49415000Y-43033750D01*
X42566034Y-43033750D01*
X41683635Y-42151351D01*
X41712033Y-42157000D01*
X42346702Y-42157000D01*
X42346702Y-42516000D01*
X42371595Y-42648296D01*
X42449782Y-42769802D01*
X42569082Y-42851316D01*
X42710696Y-42879994D01*
X44742696Y-42879994D01*
X44874992Y-42855101D01*
X44996498Y-42776914D01*
X45078012Y-42657614D01*
X45106690Y-42516000D01*
X45106690Y-42214677D01*
X45295838Y-42497757D01*
X45741272Y-42795386D01*
X46266696Y-42899899D01*
X46792120Y-42795386D01*
X47237554Y-42497757D01*
X47320452Y-42373691D01*
X49415000Y-42373691D01*
X49415000Y-42466250D01*
X49573750Y-42625000D01*
X50373000Y-42625000D01*
X50373000Y-42023750D01*
X50214250Y-41865000D01*
X49923690Y-41865000D01*
X49690301Y-41961673D01*
X49511673Y-42140302D01*
X49415000Y-42373691D01*
X47320452Y-42373691D01*
X47535183Y-42052323D01*
X47639696Y-41526899D01*
X47639696Y-41473101D01*
X47535183Y-40947677D01*
X47237554Y-40502243D01*
X46792120Y-40204614D01*
X46758696Y-40197966D01*
X46758696Y-39737436D01*
X46759042Y-39737371D01*
X46880548Y-39659184D01*
X46962062Y-39539884D01*
X46990740Y-39398270D01*
X46990740Y-38598170D01*
X46965847Y-38465874D01*
X46901188Y-38365391D01*
X46956885Y-38231259D01*
X46957113Y-37969888D01*
X46956597Y-37968639D01*
X47049696Y-37875540D01*
X47049696Y-37126240D01*
X47303696Y-37126240D01*
X47303696Y-37875540D01*
X47462446Y-38034290D01*
X47703055Y-38034290D01*
X47936444Y-37937617D01*
X48115073Y-37758989D01*
X48211746Y-37525600D01*
X48211746Y-37284990D01*
X48052996Y-37126240D01*
X47303696Y-37126240D01*
X47049696Y-37126240D01*
X46300396Y-37126240D01*
X46141646Y-37284990D01*
X46141646Y-37454556D01*
X46019312Y-37505104D01*
X46040740Y-37399290D01*
X46040740Y-36599190D01*
X46016974Y-36472880D01*
X46141646Y-36472880D01*
X46141646Y-36713490D01*
X46300396Y-36872240D01*
X47049696Y-36872240D01*
X47049696Y-36122940D01*
X47303696Y-36122940D01*
X47303696Y-36872240D01*
X48052996Y-36872240D01*
X48211746Y-36713490D01*
X48211746Y-36472880D01*
X48115073Y-36239491D01*
X47936444Y-36060863D01*
X47703055Y-35964190D01*
X47462446Y-35964190D01*
X47303696Y-36122940D01*
X47049696Y-36122940D01*
X46890946Y-35964190D01*
X46650337Y-35964190D01*
X46416948Y-36060863D01*
X46238319Y-36239491D01*
X46141646Y-36472880D01*
X46016974Y-36472880D01*
X46015847Y-36466894D01*
X45937660Y-36345388D01*
X45818360Y-36263874D01*
X45676746Y-36235196D01*
X44876646Y-36235196D01*
X44744350Y-36260089D01*
X44622844Y-36338276D01*
X44541330Y-36457576D01*
X44539373Y-36467240D01*
X43477456Y-36467240D01*
X43273868Y-36507736D01*
X43101769Y-36622729D01*
X43101275Y-36623059D01*
X43088328Y-36636006D01*
X42776696Y-36636006D01*
X42644400Y-36660899D01*
X42522894Y-36739086D01*
X42441380Y-36858386D01*
X42412702Y-37000000D01*
X42412702Y-37500000D01*
X42437595Y-37632296D01*
X42444483Y-37643000D01*
X40253195Y-37643000D01*
X39276383Y-36666188D01*
X39430173Y-36512666D01*
X39530406Y-36271279D01*
X39530575Y-36077010D01*
X44679990Y-36077010D01*
X44854877Y-36042223D01*
X45003138Y-35943158D01*
X45289305Y-35656990D01*
X45430112Y-35657113D01*
X45671674Y-35557302D01*
X45856652Y-35372646D01*
X45956885Y-35131259D01*
X45957113Y-34869888D01*
X45857302Y-34628326D01*
X45764138Y-34535000D01*
X45877002Y-34535000D01*
X45877002Y-34376252D01*
X46035750Y-34535000D01*
X46251310Y-34535000D01*
X46484699Y-34438327D01*
X46663327Y-34259698D01*
X46760000Y-34026309D01*
X46760000Y-33785750D01*
X46601250Y-33627000D01*
X45877000Y-33627000D01*
X45877000Y-33647000D01*
X45623000Y-33647000D01*
X45623000Y-33627000D01*
X44898750Y-33627000D01*
X44875000Y-33650750D01*
X44851250Y-33627000D01*
X44127000Y-33627000D01*
X44127000Y-33647000D01*
X43873000Y-33647000D01*
X43873000Y-33627000D01*
X43148750Y-33627000D01*
X42990000Y-33785750D01*
X42990000Y-34026309D01*
X43086673Y-34259698D01*
X43265301Y-34438327D01*
X43472855Y-34524299D01*
X43428326Y-34542698D01*
X43327849Y-34643000D01*
X42573417Y-34643000D01*
X42584699Y-34638327D01*
X42763327Y-34459698D01*
X42860000Y-34226309D01*
X42860000Y-34090750D01*
X42701250Y-33932000D01*
X42112500Y-33932000D01*
X42112500Y-33952000D01*
X41887500Y-33952000D01*
X41887500Y-33932000D01*
X41298750Y-33932000D01*
X41140000Y-34090750D01*
X41140000Y-34226309D01*
X41236673Y-34459698D01*
X41415301Y-34638327D01*
X41426583Y-34643000D01*
X39479892Y-34643000D01*
X38770087Y-33933195D01*
X38770210Y-33792389D01*
X38766641Y-33783750D01*
X38915000Y-33783750D01*
X38915000Y-33876309D01*
X39011673Y-34109698D01*
X39190301Y-34288327D01*
X39423690Y-34385000D01*
X39714250Y-34385000D01*
X39873000Y-34226250D01*
X39873000Y-33625000D01*
X40127000Y-33625000D01*
X40127000Y-34226250D01*
X40285750Y-34385000D01*
X40576310Y-34385000D01*
X40809699Y-34288327D01*
X40988327Y-34109698D01*
X41085000Y-33876309D01*
X41085000Y-33783750D01*
X40926250Y-33625000D01*
X40127000Y-33625000D01*
X39873000Y-33625000D01*
X39073750Y-33625000D01*
X38915000Y-33783750D01*
X38766641Y-33783750D01*
X38670399Y-33550827D01*
X38503554Y-33383691D01*
X41140000Y-33383691D01*
X41140000Y-33519250D01*
X41298750Y-33678000D01*
X41887500Y-33678000D01*
X41887500Y-33033750D01*
X42112500Y-33033750D01*
X42112500Y-33678000D01*
X42701250Y-33678000D01*
X42860000Y-33519250D01*
X42860000Y-33383691D01*
X42763327Y-33150302D01*
X42584699Y-32971673D01*
X42351310Y-32875000D01*
X42271250Y-32875000D01*
X42112500Y-33033750D01*
X41887500Y-33033750D01*
X41728750Y-32875000D01*
X41648690Y-32875000D01*
X41415301Y-32971673D01*
X41236673Y-33150302D01*
X41140000Y-33383691D01*
X38503554Y-33383691D01*
X38485743Y-33365849D01*
X38441189Y-33347349D01*
X38436245Y-33339949D01*
X38219987Y-33123691D01*
X38915000Y-33123691D01*
X38915000Y-33216250D01*
X39073750Y-33375000D01*
X39873000Y-33375000D01*
X39873000Y-32773750D01*
X40127000Y-32773750D01*
X40127000Y-33375000D01*
X40926250Y-33375000D01*
X41085000Y-33216250D01*
X41085000Y-33123691D01*
X40988327Y-32890302D01*
X40809699Y-32711673D01*
X40576310Y-32615000D01*
X40285750Y-32615000D01*
X40127000Y-32773750D01*
X39873000Y-32773750D01*
X39714250Y-32615000D01*
X39423690Y-32615000D01*
X39190301Y-32711673D01*
X39011673Y-32890302D01*
X38915000Y-33123691D01*
X38219987Y-33123691D01*
X37063994Y-31967698D01*
X37063994Y-31750000D01*
X37039101Y-31617704D01*
X36960914Y-31496198D01*
X36841614Y-31414684D01*
X36700000Y-31386006D01*
X36674380Y-31386006D01*
X36672213Y-31375114D01*
X36573148Y-31226852D01*
X36207000Y-30860704D01*
X36207000Y-29369250D01*
X36350000Y-29226250D01*
X36350000Y-28960807D01*
X36411673Y-29109699D01*
X36590302Y-29288327D01*
X36627474Y-29303724D01*
X36708750Y-29385000D01*
X36776309Y-29385000D01*
X36800000Y-29375187D01*
X36823691Y-29385000D01*
X36891250Y-29385000D01*
X36972526Y-29303724D01*
X37009698Y-29288327D01*
X37150000Y-29148026D01*
X37290302Y-29288327D01*
X37327474Y-29303724D01*
X37408750Y-29385000D01*
X37476309Y-29385000D01*
X37500000Y-29375187D01*
X37523691Y-29385000D01*
X37591250Y-29385000D01*
X37672526Y-29303724D01*
X37709698Y-29288327D01*
X37888327Y-29109699D01*
X37950000Y-28960807D01*
X37950000Y-29226250D01*
X38093000Y-29369250D01*
X38093000Y-30100000D01*
X38127787Y-30274887D01*
X38226852Y-30423148D01*
X39294815Y-31491111D01*
X39214684Y-31608386D01*
X39186006Y-31750000D01*
X39186006Y-32250000D01*
X39210899Y-32382296D01*
X39289086Y-32503802D01*
X39408386Y-32585316D01*
X39550000Y-32613994D01*
X40450000Y-32613994D01*
X40582296Y-32589101D01*
X40703802Y-32510914D01*
X40785316Y-32391614D01*
X40813994Y-32250000D01*
X40813994Y-31750000D01*
X40789101Y-31617704D01*
X40710914Y-31496198D01*
X40591614Y-31414684D01*
X40450000Y-31386006D01*
X40424380Y-31386006D01*
X40422213Y-31375114D01*
X40323148Y-31226852D01*
X39653296Y-30557000D01*
X40285704Y-30557000D01*
X41411006Y-31682302D01*
X41411006Y-31990000D01*
X41435899Y-32122296D01*
X41514086Y-32243802D01*
X41633386Y-32325316D01*
X41775000Y-32353994D01*
X42225000Y-32353994D01*
X42357296Y-32329101D01*
X42478802Y-32250914D01*
X42560316Y-32131614D01*
X42588994Y-31990000D01*
X42588994Y-31400000D01*
X42564101Y-31267704D01*
X42485914Y-31146198D01*
X42366614Y-31064684D01*
X42225000Y-31036006D01*
X42057302Y-31036006D01*
X41578296Y-30557000D01*
X42510704Y-30557000D01*
X43339371Y-31385667D01*
X43289684Y-31458386D01*
X43261006Y-31600000D01*
X43261006Y-32400000D01*
X43285899Y-32532296D01*
X43296490Y-32548754D01*
X43265301Y-32561673D01*
X43086673Y-32740302D01*
X42990000Y-32973691D01*
X42990000Y-33214250D01*
X43148750Y-33373000D01*
X43873000Y-33373000D01*
X43873000Y-33353000D01*
X44127000Y-33353000D01*
X44127000Y-33373000D01*
X44851250Y-33373000D01*
X44875000Y-33349250D01*
X44898750Y-33373000D01*
X45623000Y-33373000D01*
X45623000Y-33353000D01*
X45877000Y-33353000D01*
X45877000Y-33373000D01*
X46601250Y-33373000D01*
X46676477Y-33297773D01*
X46761006Y-33382302D01*
X46761006Y-33900000D01*
X46785899Y-34032296D01*
X46864086Y-34153802D01*
X46983386Y-34235316D01*
X47125000Y-34263994D01*
X47875000Y-34263994D01*
X48007296Y-34239101D01*
X48128802Y-34160914D01*
X48210316Y-34041614D01*
X48238994Y-33900000D01*
X48238994Y-33710290D01*
X48351852Y-33823148D01*
X48500114Y-33922213D01*
X48515772Y-33925328D01*
X48535899Y-34032296D01*
X48614086Y-34153802D01*
X48733386Y-34235316D01*
X48875000Y-34263994D01*
X49625000Y-34263994D01*
X49757296Y-34239101D01*
X49878802Y-34160914D01*
X49960316Y-34041614D01*
X49988994Y-33900000D01*
X49988994Y-33100000D01*
X49964101Y-32967704D01*
X49885914Y-32846198D01*
X49766614Y-32764684D01*
X49696641Y-32750514D01*
X49757296Y-32739101D01*
X49878802Y-32660914D01*
X49960316Y-32541614D01*
X49988994Y-32400000D01*
X49988994Y-31600000D01*
X49964101Y-31467704D01*
X49885914Y-31346198D01*
X49766614Y-31264684D01*
X49707000Y-31252612D01*
X49707000Y-30946002D01*
X49696389Y-30892656D01*
X49672213Y-30771115D01*
X49573148Y-30622854D01*
X48224160Y-29273866D01*
X48388327Y-29109699D01*
X48485000Y-28876310D01*
X48485000Y-27535750D01*
X48326250Y-27377000D01*
X47750000Y-27377000D01*
X47750000Y-27397000D01*
X47550000Y-27397000D01*
X47550000Y-27377000D01*
X47513994Y-27377000D01*
X47513994Y-27123000D01*
X47550000Y-27123000D01*
X47550000Y-25273750D01*
X47391250Y-25115000D01*
X47323691Y-25115000D01*
X47090302Y-25211673D01*
X46915968Y-25386006D01*
X46750000Y-25386006D01*
X46617704Y-25410899D01*
X46601415Y-25421381D01*
X46591614Y-25414684D01*
X46450000Y-25386006D01*
X46166778Y-25386006D01*
X46329789Y-25223279D01*
X46430022Y-24981892D01*
X46430250Y-24720521D01*
X46330439Y-24478959D01*
X46145783Y-24293981D01*
X45904396Y-24193748D01*
X45643025Y-24193520D01*
X45401463Y-24293331D01*
X45376117Y-24318633D01*
X44699367Y-24318633D01*
X44495779Y-24359129D01*
X44323186Y-24474452D01*
X43773819Y-25023819D01*
X43658496Y-25196412D01*
X43620784Y-25386006D01*
X43484032Y-25386006D01*
X43309698Y-25211673D01*
X43076309Y-25115000D01*
X43008750Y-25115000D01*
X42850000Y-25273750D01*
X42850000Y-27123000D01*
X42886006Y-27123000D01*
X42886006Y-27377000D01*
X42850000Y-27377000D01*
X42850000Y-27397000D01*
X42650000Y-27397000D01*
X42650000Y-27377000D01*
X42613994Y-27377000D01*
X42613994Y-27123000D01*
X42650000Y-27123000D01*
X42650000Y-25273750D01*
X42491250Y-25115000D01*
X42423691Y-25115000D01*
X42190302Y-25211673D01*
X42050000Y-25351974D01*
X41909698Y-25211673D01*
X41676309Y-25115000D01*
X41608750Y-25115000D01*
X41450000Y-25273750D01*
X41450000Y-27123000D01*
X41486006Y-27123000D01*
X41486006Y-27377000D01*
X41450000Y-27377000D01*
X41450000Y-27397000D01*
X41250000Y-27397000D01*
X41250000Y-27377000D01*
X41213994Y-27377000D01*
X41213994Y-27123000D01*
X41250000Y-27123000D01*
X41250000Y-25273750D01*
X41091250Y-25115000D01*
X41023691Y-25115000D01*
X40790302Y-25211673D01*
X40650000Y-25351974D01*
X40509698Y-25211673D01*
X40276309Y-25115000D01*
X40208750Y-25115000D01*
X40050000Y-25273750D01*
X40050000Y-25539193D01*
X39988327Y-25390301D01*
X39809698Y-25211673D01*
X39772526Y-25196276D01*
X39691250Y-25115000D01*
X39623691Y-25115000D01*
X39600000Y-25124813D01*
X39576309Y-25115000D01*
X39508750Y-25115000D01*
X39427474Y-25196276D01*
X39390302Y-25211673D01*
X39211673Y-25390301D01*
X39150000Y-25539193D01*
X39150000Y-25273750D01*
X38991250Y-25115000D01*
X38923691Y-25115000D01*
X38690302Y-25211673D01*
X38550000Y-25351974D01*
X38409698Y-25211673D01*
X38176309Y-25115000D01*
X38108750Y-25115000D01*
X37950000Y-25273750D01*
X37950000Y-25539193D01*
X37888327Y-25390301D01*
X37709698Y-25211673D01*
X37672526Y-25196276D01*
X37591250Y-25115000D01*
X37523691Y-25115000D01*
X37500000Y-25124813D01*
X37476309Y-25115000D01*
X37408750Y-25115000D01*
X37327474Y-25196276D01*
X37290302Y-25211673D01*
X37150000Y-25351974D01*
X37009698Y-25211673D01*
X36972526Y-25196276D01*
X36891250Y-25115000D01*
X36823691Y-25115000D01*
X36800000Y-25124813D01*
X36776309Y-25115000D01*
X36708750Y-25115000D01*
X36627474Y-25196276D01*
X36590302Y-25211673D01*
X36411673Y-25390301D01*
X36350000Y-25539193D01*
X36350000Y-25273750D01*
X36191250Y-25115000D01*
X36123691Y-25115000D01*
X35890302Y-25211673D01*
X35715968Y-25386006D01*
X35550000Y-25386006D01*
X35417704Y-25410899D01*
X35401415Y-25421381D01*
X35391614Y-25414684D01*
X35250000Y-25386006D01*
X34850000Y-25386006D01*
X34717704Y-25410899D01*
X34701415Y-25421381D01*
X34691614Y-25414684D01*
X34550000Y-25386006D01*
X34384032Y-25386006D01*
X34209698Y-25211673D01*
X33976309Y-25115000D01*
X33908750Y-25115000D01*
X33750000Y-25273750D01*
X33750000Y-25539193D01*
X33688327Y-25390301D01*
X33509698Y-25211673D01*
X33472526Y-25196276D01*
X33391250Y-25115000D01*
X33323691Y-25115000D01*
X33300000Y-25124813D01*
X33276309Y-25115000D01*
X33208750Y-25115000D01*
X33127474Y-25196276D01*
X33090302Y-25211673D01*
X32950000Y-25351974D01*
X32809698Y-25211673D01*
X32772526Y-25196276D01*
X32691250Y-25115000D01*
X32623691Y-25115000D01*
X32600000Y-25124813D01*
X32576309Y-25115000D01*
X32508750Y-25115000D01*
X32427474Y-25196276D01*
X32390302Y-25211673D01*
X32250000Y-25351974D01*
X32109698Y-25211673D01*
X32072526Y-25196276D01*
X31991250Y-25115000D01*
X31923691Y-25115000D01*
X31900000Y-25124813D01*
X31876309Y-25115000D01*
X31808750Y-25115000D01*
X31727474Y-25196276D01*
X31690302Y-25211673D01*
X31550000Y-25351974D01*
X31409698Y-25211673D01*
X31372526Y-25196276D01*
X31291250Y-25115000D01*
X31223691Y-25115000D01*
X31200000Y-25124813D01*
X31176309Y-25115000D01*
X31108750Y-25115000D01*
X31027474Y-25196276D01*
X30990302Y-25211673D01*
X30811673Y-25390301D01*
X30750000Y-25539193D01*
X30750000Y-25273750D01*
X30591250Y-25115000D01*
X30523691Y-25115000D01*
X30290302Y-25211673D01*
X30115968Y-25386006D01*
X29950000Y-25386006D01*
X29817704Y-25410899D01*
X29801415Y-25421381D01*
X29791614Y-25414684D01*
X29650000Y-25386006D01*
X29250000Y-25386006D01*
X29117704Y-25410899D01*
X29101415Y-25421381D01*
X29091614Y-25414684D01*
X28950000Y-25386006D01*
X28784032Y-25386006D01*
X28609698Y-25211673D01*
X28376309Y-25115000D01*
X28308750Y-25115000D01*
X28150000Y-25273750D01*
X28150000Y-25539193D01*
X28088327Y-25390301D01*
X27909698Y-25211673D01*
X27872526Y-25196276D01*
X27791250Y-25115000D01*
X27723691Y-25115000D01*
X27700000Y-25124813D01*
X27676309Y-25115000D01*
X27608750Y-25115000D01*
X27527474Y-25196276D01*
X27490302Y-25211673D01*
X27311673Y-25390301D01*
X27250000Y-25539193D01*
X27250000Y-25273750D01*
X27091250Y-25115000D01*
X27023691Y-25115000D01*
X26907000Y-25163335D01*
X26907000Y-24657006D01*
X27030112Y-24657113D01*
X27271674Y-24557302D01*
X27456652Y-24372646D01*
X27514031Y-24234463D01*
X31635811Y-24234463D01*
X31810698Y-24199676D01*
X31958959Y-24100611D01*
X34601995Y-21457575D01*
X34722605Y-21457575D01*
X34843000Y-21577970D01*
X34843000Y-22680596D01*
X34877787Y-22855483D01*
X34976852Y-23003744D01*
X36016257Y-24043149D01*
X36164519Y-24142214D01*
X36339405Y-24177002D01*
X36339410Y-24177001D01*
X46094297Y-24177001D01*
X46269184Y-24142214D01*
X46417445Y-24043149D01*
X47025397Y-23435197D01*
X47958503Y-23435197D01*
X48043000Y-23519693D01*
X48043000Y-24827875D01*
X47943348Y-24927354D01*
X47843115Y-25168741D01*
X47843105Y-25180645D01*
X47750000Y-25273750D01*
X47750000Y-27123000D01*
X48326250Y-27123000D01*
X48485000Y-26964250D01*
X48485000Y-26035750D01*
X49490000Y-26035750D01*
X49490000Y-26276309D01*
X49586673Y-26509698D01*
X49765301Y-26688327D01*
X49998690Y-26785000D01*
X50214250Y-26785000D01*
X50373000Y-26626250D01*
X50373000Y-25877000D01*
X49648750Y-25877000D01*
X49490000Y-26035750D01*
X48485000Y-26035750D01*
X48485000Y-25956986D01*
X48630112Y-25957113D01*
X48871674Y-25857302D01*
X49056652Y-25672646D01*
X49156885Y-25431259D01*
X49157113Y-25169888D01*
X49057302Y-24928326D01*
X48957000Y-24827849D01*
X48957000Y-23330398D01*
X48922213Y-23155512D01*
X48823148Y-23007250D01*
X48823145Y-23007248D01*
X48470947Y-22655049D01*
X48322686Y-22555984D01*
X48147799Y-22521197D01*
X46836101Y-22521197D01*
X46661214Y-22555984D01*
X46512953Y-22655049D01*
X45905001Y-23263001D01*
X37989361Y-23263001D01*
X38420362Y-22832000D01*
X44302745Y-22832000D01*
X44327354Y-22856652D01*
X44568741Y-22956885D01*
X44830112Y-22957113D01*
X45071674Y-22857302D01*
X45256652Y-22672646D01*
X45356885Y-22431259D01*
X45357113Y-22169888D01*
X45257302Y-21928326D01*
X45072646Y-21743348D01*
X44831259Y-21643115D01*
X44569888Y-21642887D01*
X44328326Y-21742698D01*
X44302980Y-21768000D01*
X44078296Y-21768000D01*
X44589296Y-21257000D01*
X49110704Y-21257000D01*
X49596853Y-21743149D01*
X49596853Y-21743149D01*
G37*
X49596853Y-21743149D02*
X49745115Y-21842214D01*
X49920001Y-21877001D01*
X50749601Y-21877001D01*
X50924488Y-21842214D01*
X51072749Y-21743149D01*
X51158898Y-21657000D01*
X51536006Y-21657000D01*
X51536006Y-21743000D01*
X51378998Y-21743000D01*
X51204112Y-21777787D01*
X51055850Y-21876852D01*
X49581851Y-23350851D01*
X49482786Y-23499112D01*
X49462206Y-23602576D01*
X49447999Y-23673999D01*
X49447999Y-24826001D01*
X49482786Y-25000888D01*
X49544210Y-25092816D01*
X49490000Y-25223691D01*
X49490000Y-25464250D01*
X49648750Y-25623000D01*
X50373000Y-25623000D01*
X50373000Y-25603000D01*
X50627000Y-25603000D01*
X50627000Y-25623000D01*
X50647000Y-25623000D01*
X50647000Y-25877000D01*
X50627000Y-25877000D01*
X50627000Y-26626250D01*
X50785750Y-26785000D01*
X51001310Y-26785000D01*
X51234699Y-26688327D01*
X51413327Y-26509698D01*
X51510000Y-26276309D01*
X51510000Y-26235294D01*
X51943000Y-26668294D01*
X51943000Y-26836006D01*
X51900000Y-26836006D01*
X51767704Y-26860899D01*
X51646198Y-26939086D01*
X51564684Y-27058386D01*
X51536006Y-27200000D01*
X51536006Y-28011632D01*
X50873819Y-28673819D01*
X50758496Y-28846412D01*
X50718000Y-29050000D01*
X50718000Y-30950000D01*
X50758496Y-31153588D01*
X50813566Y-31236006D01*
X50873819Y-31326181D01*
X51536006Y-31988368D01*
X51536006Y-32800000D01*
X51560899Y-32932296D01*
X51639086Y-33053802D01*
X51758386Y-33135316D01*
X51868000Y-33157514D01*
X51868000Y-36842027D01*
X51767704Y-36860899D01*
X51646198Y-36939086D01*
X51564684Y-37058386D01*
X51536006Y-37200000D01*
X51536006Y-37268000D01*
X51450000Y-37268000D01*
X51246412Y-37308496D01*
X51176937Y-37354918D01*
X51073819Y-37423819D01*
X50123819Y-38373819D01*
X50008496Y-38546412D01*
X49968000Y-38750000D01*
X49968000Y-40651435D01*
X49917704Y-40660899D01*
X49796198Y-40739086D01*
X49714684Y-40858386D01*
X49686006Y-41000000D01*
X49686006Y-41500000D01*
X49710899Y-41632296D01*
X49789086Y-41753802D01*
X49908386Y-41835316D01*
X50050000Y-41863994D01*
X50950000Y-41863994D01*
X51082296Y-41839101D01*
X51171033Y-41782000D01*
X51329638Y-41782000D01*
X51536006Y-41988368D01*
X51536006Y-42255409D01*
X51488327Y-42140302D01*
X51309699Y-41961673D01*
X51076310Y-41865000D01*
X50785750Y-41865000D01*
X50627000Y-42023750D01*
X50627000Y-42625000D01*
X50647000Y-42625000D01*
X50647000Y-42875000D01*
X50627000Y-42875000D01*
X50627000Y-44123000D01*
X50647000Y-44123000D01*
X50647000Y-44377000D01*
X50627000Y-44377000D01*
X50627000Y-44397000D01*
X50373000Y-44397000D01*
X50373000Y-44377000D01*
X49648750Y-44377000D01*
X49551222Y-44474528D01*
X48953546Y-43876852D01*
X48805285Y-43777787D01*
X48630398Y-43743000D01*
X43275284Y-43743000D01*
X42566034Y-43033750D01*
X49415000Y-43033750D01*
X49415000Y-43126309D01*
X49511673Y-43359698D01*
X49614475Y-43462500D01*
X49586673Y-43490302D01*
X49490000Y-43723691D01*
X49490000Y-43964250D01*
X49648750Y-44123000D01*
X50373000Y-44123000D01*
X50373000Y-42875000D01*
X49573750Y-42875000D01*
X49415000Y-43033750D01*
X42566034Y-43033750D01*
X41683635Y-42151351D01*
X41712033Y-42157000D01*
X42346702Y-42157000D01*
X42346702Y-42516000D01*
X42371595Y-42648296D01*
X42449782Y-42769802D01*
X42569082Y-42851316D01*
X42710696Y-42879994D01*
X44742696Y-42879994D01*
X44874992Y-42855101D01*
X44996498Y-42776914D01*
X45078012Y-42657614D01*
X45106690Y-42516000D01*
X45106690Y-42214677D01*
X45295838Y-42497757D01*
X45741272Y-42795386D01*
X46266696Y-42899899D01*
X46792120Y-42795386D01*
X47237554Y-42497757D01*
X47320452Y-42373691D01*
X49415000Y-42373691D01*
X49415000Y-42466250D01*
X49573750Y-42625000D01*
X50373000Y-42625000D01*
X50373000Y-42023750D01*
X50214250Y-41865000D01*
X49923690Y-41865000D01*
X49690301Y-41961673D01*
X49511673Y-42140302D01*
X49415000Y-42373691D01*
X47320452Y-42373691D01*
X47535183Y-42052323D01*
X47639696Y-41526899D01*
X47639696Y-41473101D01*
X47535183Y-40947677D01*
X47237554Y-40502243D01*
X46792120Y-40204614D01*
X46758696Y-40197966D01*
X46758696Y-39737436D01*
X46759042Y-39737371D01*
X46880548Y-39659184D01*
X46962062Y-39539884D01*
X46990740Y-39398270D01*
X46990740Y-38598170D01*
X46965847Y-38465874D01*
X46901188Y-38365391D01*
X46956885Y-38231259D01*
X46957113Y-37969888D01*
X46956597Y-37968639D01*
X47049696Y-37875540D01*
X47049696Y-37126240D01*
X47303696Y-37126240D01*
X47303696Y-37875540D01*
X47462446Y-38034290D01*
X47703055Y-38034290D01*
X47936444Y-37937617D01*
X48115073Y-37758989D01*
X48211746Y-37525600D01*
X48211746Y-37284990D01*
X48052996Y-37126240D01*
X47303696Y-37126240D01*
X47049696Y-37126240D01*
X46300396Y-37126240D01*
X46141646Y-37284990D01*
X46141646Y-37454556D01*
X46019312Y-37505104D01*
X46040740Y-37399290D01*
X46040740Y-36599190D01*
X46016974Y-36472880D01*
X46141646Y-36472880D01*
X46141646Y-36713490D01*
X46300396Y-36872240D01*
X47049696Y-36872240D01*
X47049696Y-36122940D01*
X47303696Y-36122940D01*
X47303696Y-36872240D01*
X48052996Y-36872240D01*
X48211746Y-36713490D01*
X48211746Y-36472880D01*
X48115073Y-36239491D01*
X47936444Y-36060863D01*
X47703055Y-35964190D01*
X47462446Y-35964190D01*
X47303696Y-36122940D01*
X47049696Y-36122940D01*
X46890946Y-35964190D01*
X46650337Y-35964190D01*
X46416948Y-36060863D01*
X46238319Y-36239491D01*
X46141646Y-36472880D01*
X46016974Y-36472880D01*
X46015847Y-36466894D01*
X45937660Y-36345388D01*
X45818360Y-36263874D01*
X45676746Y-36235196D01*
X44876646Y-36235196D01*
X44744350Y-36260089D01*
X44622844Y-36338276D01*
X44541330Y-36457576D01*
X44539373Y-36467240D01*
X43477456Y-36467240D01*
X43273868Y-36507736D01*
X43101769Y-36622729D01*
X43101275Y-36623059D01*
X43088328Y-36636006D01*
X42776696Y-36636006D01*
X42644400Y-36660899D01*
X42522894Y-36739086D01*
X42441380Y-36858386D01*
X42412702Y-37000000D01*
X42412702Y-37500000D01*
X42437595Y-37632296D01*
X42444483Y-37643000D01*
X40253195Y-37643000D01*
X39276383Y-36666188D01*
X39430173Y-36512666D01*
X39530406Y-36271279D01*
X39530575Y-36077010D01*
X44679990Y-36077010D01*
X44854877Y-36042223D01*
X45003138Y-35943158D01*
X45289305Y-35656990D01*
X45430112Y-35657113D01*
X45671674Y-35557302D01*
X45856652Y-35372646D01*
X45956885Y-35131259D01*
X45957113Y-34869888D01*
X45857302Y-34628326D01*
X45764138Y-34535000D01*
X45877002Y-34535000D01*
X45877002Y-34376252D01*
X46035750Y-34535000D01*
X46251310Y-34535000D01*
X46484699Y-34438327D01*
X46663327Y-34259698D01*
X46760000Y-34026309D01*
X46760000Y-33785750D01*
X46601250Y-33627000D01*
X45877000Y-33627000D01*
X45877000Y-33647000D01*
X45623000Y-33647000D01*
X45623000Y-33627000D01*
X44898750Y-33627000D01*
X44875000Y-33650750D01*
X44851250Y-33627000D01*
X44127000Y-33627000D01*
X44127000Y-33647000D01*
X43873000Y-33647000D01*
X43873000Y-33627000D01*
X43148750Y-33627000D01*
X42990000Y-33785750D01*
X42990000Y-34026309D01*
X43086673Y-34259698D01*
X43265301Y-34438327D01*
X43472855Y-34524299D01*
X43428326Y-34542698D01*
X43327849Y-34643000D01*
X42573417Y-34643000D01*
X42584699Y-34638327D01*
X42763327Y-34459698D01*
X42860000Y-34226309D01*
X42860000Y-34090750D01*
X42701250Y-33932000D01*
X42112500Y-33932000D01*
X42112500Y-33952000D01*
X41887500Y-33952000D01*
X41887500Y-33932000D01*
X41298750Y-33932000D01*
X41140000Y-34090750D01*
X41140000Y-34226309D01*
X41236673Y-34459698D01*
X41415301Y-34638327D01*
X41426583Y-34643000D01*
X39479892Y-34643000D01*
X38770087Y-33933195D01*
X38770210Y-33792389D01*
X38766641Y-33783750D01*
X38915000Y-33783750D01*
X38915000Y-33876309D01*
X39011673Y-34109698D01*
X39190301Y-34288327D01*
X39423690Y-34385000D01*
X39714250Y-34385000D01*
X39873000Y-34226250D01*
X39873000Y-33625000D01*
X40127000Y-33625000D01*
X40127000Y-34226250D01*
X40285750Y-34385000D01*
X40576310Y-34385000D01*
X40809699Y-34288327D01*
X40988327Y-34109698D01*
X41085000Y-33876309D01*
X41085000Y-33783750D01*
X40926250Y-33625000D01*
X40127000Y-33625000D01*
X39873000Y-33625000D01*
X39073750Y-33625000D01*
X38915000Y-33783750D01*
X38766641Y-33783750D01*
X38670399Y-33550827D01*
X38503554Y-33383691D01*
X41140000Y-33383691D01*
X41140000Y-33519250D01*
X41298750Y-33678000D01*
X41887500Y-33678000D01*
X41887500Y-33033750D01*
X42112500Y-33033750D01*
X42112500Y-33678000D01*
X42701250Y-33678000D01*
X42860000Y-33519250D01*
X42860000Y-33383691D01*
X42763327Y-33150302D01*
X42584699Y-32971673D01*
X42351310Y-32875000D01*
X42271250Y-32875000D01*
X42112500Y-33033750D01*
X41887500Y-33033750D01*
X41728750Y-32875000D01*
X41648690Y-32875000D01*
X41415301Y-32971673D01*
X41236673Y-33150302D01*
X41140000Y-33383691D01*
X38503554Y-33383691D01*
X38485743Y-33365849D01*
X38441189Y-33347349D01*
X38436245Y-33339949D01*
X38219987Y-33123691D01*
X38915000Y-33123691D01*
X38915000Y-33216250D01*
X39073750Y-33375000D01*
X39873000Y-33375000D01*
X39873000Y-32773750D01*
X40127000Y-32773750D01*
X40127000Y-33375000D01*
X40926250Y-33375000D01*
X41085000Y-33216250D01*
X41085000Y-33123691D01*
X40988327Y-32890302D01*
X40809699Y-32711673D01*
X40576310Y-32615000D01*
X40285750Y-32615000D01*
X40127000Y-32773750D01*
X39873000Y-32773750D01*
X39714250Y-32615000D01*
X39423690Y-32615000D01*
X39190301Y-32711673D01*
X39011673Y-32890302D01*
X38915000Y-33123691D01*
X38219987Y-33123691D01*
X37063994Y-31967698D01*
X37063994Y-31750000D01*
X37039101Y-31617704D01*
X36960914Y-31496198D01*
X36841614Y-31414684D01*
X36700000Y-31386006D01*
X36674380Y-31386006D01*
X36672213Y-31375114D01*
X36573148Y-31226852D01*
X36207000Y-30860704D01*
X36207000Y-29369250D01*
X36350000Y-29226250D01*
X36350000Y-28960807D01*
X36411673Y-29109699D01*
X36590302Y-29288327D01*
X36627474Y-29303724D01*
X36708750Y-29385000D01*
X36776309Y-29385000D01*
X36800000Y-29375187D01*
X36823691Y-29385000D01*
X36891250Y-29385000D01*
X36972526Y-29303724D01*
X37009698Y-29288327D01*
X37150000Y-29148026D01*
X37290302Y-29288327D01*
X37327474Y-29303724D01*
X37408750Y-29385000D01*
X37476309Y-29385000D01*
X37500000Y-29375187D01*
X37523691Y-29385000D01*
X37591250Y-29385000D01*
X37672526Y-29303724D01*
X37709698Y-29288327D01*
X37888327Y-29109699D01*
X37950000Y-28960807D01*
X37950000Y-29226250D01*
X38093000Y-29369250D01*
X38093000Y-30100000D01*
X38127787Y-30274887D01*
X38226852Y-30423148D01*
X39294815Y-31491111D01*
X39214684Y-31608386D01*
X39186006Y-31750000D01*
X39186006Y-32250000D01*
X39210899Y-32382296D01*
X39289086Y-32503802D01*
X39408386Y-32585316D01*
X39550000Y-32613994D01*
X40450000Y-32613994D01*
X40582296Y-32589101D01*
X40703802Y-32510914D01*
X40785316Y-32391614D01*
X40813994Y-32250000D01*
X40813994Y-31750000D01*
X40789101Y-31617704D01*
X40710914Y-31496198D01*
X40591614Y-31414684D01*
X40450000Y-31386006D01*
X40424380Y-31386006D01*
X40422213Y-31375114D01*
X40323148Y-31226852D01*
X39653296Y-30557000D01*
X40285704Y-30557000D01*
X41411006Y-31682302D01*
X41411006Y-31990000D01*
X41435899Y-32122296D01*
X41514086Y-32243802D01*
X41633386Y-32325316D01*
X41775000Y-32353994D01*
X42225000Y-32353994D01*
X42357296Y-32329101D01*
X42478802Y-32250914D01*
X42560316Y-32131614D01*
X42588994Y-31990000D01*
X42588994Y-31400000D01*
X42564101Y-31267704D01*
X42485914Y-31146198D01*
X42366614Y-31064684D01*
X42225000Y-31036006D01*
X42057302Y-31036006D01*
X41578296Y-30557000D01*
X42510704Y-30557000D01*
X43339371Y-31385667D01*
X43289684Y-31458386D01*
X43261006Y-31600000D01*
X43261006Y-32400000D01*
X43285899Y-32532296D01*
X43296490Y-32548754D01*
X43265301Y-32561673D01*
X43086673Y-32740302D01*
X42990000Y-32973691D01*
X42990000Y-33214250D01*
X43148750Y-33373000D01*
X43873000Y-33373000D01*
X43873000Y-33353000D01*
X44127000Y-33353000D01*
X44127000Y-33373000D01*
X44851250Y-33373000D01*
X44875000Y-33349250D01*
X44898750Y-33373000D01*
X45623000Y-33373000D01*
X45623000Y-33353000D01*
X45877000Y-33353000D01*
X45877000Y-33373000D01*
X46601250Y-33373000D01*
X46676477Y-33297773D01*
X46761006Y-33382302D01*
X46761006Y-33900000D01*
X46785899Y-34032296D01*
X46864086Y-34153802D01*
X46983386Y-34235316D01*
X47125000Y-34263994D01*
X47875000Y-34263994D01*
X48007296Y-34239101D01*
X48128802Y-34160914D01*
X48210316Y-34041614D01*
X48238994Y-33900000D01*
X48238994Y-33710290D01*
X48351852Y-33823148D01*
X48500114Y-33922213D01*
X48515772Y-33925328D01*
X48535899Y-34032296D01*
X48614086Y-34153802D01*
X48733386Y-34235316D01*
X48875000Y-34263994D01*
X49625000Y-34263994D01*
X49757296Y-34239101D01*
X49878802Y-34160914D01*
X49960316Y-34041614D01*
X49988994Y-33900000D01*
X49988994Y-33100000D01*
X49964101Y-32967704D01*
X49885914Y-32846198D01*
X49766614Y-32764684D01*
X49696641Y-32750514D01*
X49757296Y-32739101D01*
X49878802Y-32660914D01*
X49960316Y-32541614D01*
X49988994Y-32400000D01*
X49988994Y-31600000D01*
X49964101Y-31467704D01*
X49885914Y-31346198D01*
X49766614Y-31264684D01*
X49707000Y-31252612D01*
X49707000Y-30946002D01*
X49696389Y-30892656D01*
X49672213Y-30771115D01*
X49573148Y-30622854D01*
X48224160Y-29273866D01*
X48388327Y-29109699D01*
X48485000Y-28876310D01*
X48485000Y-27535750D01*
X48326250Y-27377000D01*
X47750000Y-27377000D01*
X47750000Y-27397000D01*
X47550000Y-27397000D01*
X47550000Y-27377000D01*
X47513994Y-27377000D01*
X47513994Y-27123000D01*
X47550000Y-27123000D01*
X47550000Y-25273750D01*
X47391250Y-25115000D01*
X47323691Y-25115000D01*
X47090302Y-25211673D01*
X46915968Y-25386006D01*
X46750000Y-25386006D01*
X46617704Y-25410899D01*
X46601415Y-25421381D01*
X46591614Y-25414684D01*
X46450000Y-25386006D01*
X46166778Y-25386006D01*
X46329789Y-25223279D01*
X46430022Y-24981892D01*
X46430250Y-24720521D01*
X46330439Y-24478959D01*
X46145783Y-24293981D01*
X45904396Y-24193748D01*
X45643025Y-24193520D01*
X45401463Y-24293331D01*
X45376117Y-24318633D01*
X44699367Y-24318633D01*
X44495779Y-24359129D01*
X44323186Y-24474452D01*
X43773819Y-25023819D01*
X43658496Y-25196412D01*
X43620784Y-25386006D01*
X43484032Y-25386006D01*
X43309698Y-25211673D01*
X43076309Y-25115000D01*
X43008750Y-25115000D01*
X42850000Y-25273750D01*
X42850000Y-27123000D01*
X42886006Y-27123000D01*
X42886006Y-27377000D01*
X42850000Y-27377000D01*
X42850000Y-27397000D01*
X42650000Y-27397000D01*
X42650000Y-27377000D01*
X42613994Y-27377000D01*
X42613994Y-27123000D01*
X42650000Y-27123000D01*
X42650000Y-25273750D01*
X42491250Y-25115000D01*
X42423691Y-25115000D01*
X42190302Y-25211673D01*
X42050000Y-25351974D01*
X41909698Y-25211673D01*
X41676309Y-25115000D01*
X41608750Y-25115000D01*
X41450000Y-25273750D01*
X41450000Y-27123000D01*
X41486006Y-27123000D01*
X41486006Y-27377000D01*
X41450000Y-27377000D01*
X41450000Y-27397000D01*
X41250000Y-27397000D01*
X41250000Y-27377000D01*
X41213994Y-27377000D01*
X41213994Y-27123000D01*
X41250000Y-27123000D01*
X41250000Y-25273750D01*
X41091250Y-25115000D01*
X41023691Y-25115000D01*
X40790302Y-25211673D01*
X40650000Y-25351974D01*
X40509698Y-25211673D01*
X40276309Y-25115000D01*
X40208750Y-25115000D01*
X40050000Y-25273750D01*
X40050000Y-25539193D01*
X39988327Y-25390301D01*
X39809698Y-25211673D01*
X39772526Y-25196276D01*
X39691250Y-25115000D01*
X39623691Y-25115000D01*
X39600000Y-25124813D01*
X39576309Y-25115000D01*
X39508750Y-25115000D01*
X39427474Y-25196276D01*
X39390302Y-25211673D01*
X39211673Y-25390301D01*
X39150000Y-25539193D01*
X39150000Y-25273750D01*
X38991250Y-25115000D01*
X38923691Y-25115000D01*
X38690302Y-25211673D01*
X38550000Y-25351974D01*
X38409698Y-25211673D01*
X38176309Y-25115000D01*
X38108750Y-25115000D01*
X37950000Y-25273750D01*
X37950000Y-25539193D01*
X37888327Y-25390301D01*
X37709698Y-25211673D01*
X37672526Y-25196276D01*
X37591250Y-25115000D01*
X37523691Y-25115000D01*
X37500000Y-25124813D01*
X37476309Y-25115000D01*
X37408750Y-25115000D01*
X37327474Y-25196276D01*
X37290302Y-25211673D01*
X37150000Y-25351974D01*
X37009698Y-25211673D01*
X36972526Y-25196276D01*
X36891250Y-25115000D01*
X36823691Y-25115000D01*
X36800000Y-25124813D01*
X36776309Y-25115000D01*
X36708750Y-25115000D01*
X36627474Y-25196276D01*
X36590302Y-25211673D01*
X36411673Y-25390301D01*
X36350000Y-25539193D01*
X36350000Y-25273750D01*
X36191250Y-25115000D01*
X36123691Y-25115000D01*
X35890302Y-25211673D01*
X35715968Y-25386006D01*
X35550000Y-25386006D01*
X35417704Y-25410899D01*
X35401415Y-25421381D01*
X35391614Y-25414684D01*
X35250000Y-25386006D01*
X34850000Y-25386006D01*
X34717704Y-25410899D01*
X34701415Y-25421381D01*
X34691614Y-25414684D01*
X34550000Y-25386006D01*
X34384032Y-25386006D01*
X34209698Y-25211673D01*
X33976309Y-25115000D01*
X33908750Y-25115000D01*
X33750000Y-25273750D01*
X33750000Y-25539193D01*
X33688327Y-25390301D01*
X33509698Y-25211673D01*
X33472526Y-25196276D01*
X33391250Y-25115000D01*
X33323691Y-25115000D01*
X33300000Y-25124813D01*
X33276309Y-25115000D01*
X33208750Y-25115000D01*
X33127474Y-25196276D01*
X33090302Y-25211673D01*
X32950000Y-25351974D01*
X32809698Y-25211673D01*
X32772526Y-25196276D01*
X32691250Y-25115000D01*
X32623691Y-25115000D01*
X32600000Y-25124813D01*
X32576309Y-25115000D01*
X32508750Y-25115000D01*
X32427474Y-25196276D01*
X32390302Y-25211673D01*
X32250000Y-25351974D01*
X32109698Y-25211673D01*
X32072526Y-25196276D01*
X31991250Y-25115000D01*
X31923691Y-25115000D01*
X31900000Y-25124813D01*
X31876309Y-25115000D01*
X31808750Y-25115000D01*
X31727474Y-25196276D01*
X31690302Y-25211673D01*
X31550000Y-25351974D01*
X31409698Y-25211673D01*
X31372526Y-25196276D01*
X31291250Y-25115000D01*
X31223691Y-25115000D01*
X31200000Y-25124813D01*
X31176309Y-25115000D01*
X31108750Y-25115000D01*
X31027474Y-25196276D01*
X30990302Y-25211673D01*
X30811673Y-25390301D01*
X30750000Y-25539193D01*
X30750000Y-25273750D01*
X30591250Y-25115000D01*
X30523691Y-25115000D01*
X30290302Y-25211673D01*
X30115968Y-25386006D01*
X29950000Y-25386006D01*
X29817704Y-25410899D01*
X29801415Y-25421381D01*
X29791614Y-25414684D01*
X29650000Y-25386006D01*
X29250000Y-25386006D01*
X29117704Y-25410899D01*
X29101415Y-25421381D01*
X29091614Y-25414684D01*
X28950000Y-25386006D01*
X28784032Y-25386006D01*
X28609698Y-25211673D01*
X28376309Y-25115000D01*
X28308750Y-25115000D01*
X28150000Y-25273750D01*
X28150000Y-25539193D01*
X28088327Y-25390301D01*
X27909698Y-25211673D01*
X27872526Y-25196276D01*
X27791250Y-25115000D01*
X27723691Y-25115000D01*
X27700000Y-25124813D01*
X27676309Y-25115000D01*
X27608750Y-25115000D01*
X27527474Y-25196276D01*
X27490302Y-25211673D01*
X27311673Y-25390301D01*
X27250000Y-25539193D01*
X27250000Y-25273750D01*
X27091250Y-25115000D01*
X27023691Y-25115000D01*
X26907000Y-25163335D01*
X26907000Y-24657006D01*
X27030112Y-24657113D01*
X27271674Y-24557302D01*
X27456652Y-24372646D01*
X27514031Y-24234463D01*
X31635811Y-24234463D01*
X31810698Y-24199676D01*
X31958959Y-24100611D01*
X34601995Y-21457575D01*
X34722605Y-21457575D01*
X34843000Y-21577970D01*
X34843000Y-22680596D01*
X34877787Y-22855483D01*
X34976852Y-23003744D01*
X36016257Y-24043149D01*
X36164519Y-24142214D01*
X36339405Y-24177002D01*
X36339410Y-24177001D01*
X46094297Y-24177001D01*
X46269184Y-24142214D01*
X46417445Y-24043149D01*
X47025397Y-23435197D01*
X47958503Y-23435197D01*
X48043000Y-23519693D01*
X48043000Y-24827875D01*
X47943348Y-24927354D01*
X47843115Y-25168741D01*
X47843105Y-25180645D01*
X47750000Y-25273750D01*
X47750000Y-27123000D01*
X48326250Y-27123000D01*
X48485000Y-26964250D01*
X48485000Y-26035750D01*
X49490000Y-26035750D01*
X49490000Y-26276309D01*
X49586673Y-26509698D01*
X49765301Y-26688327D01*
X49998690Y-26785000D01*
X50214250Y-26785000D01*
X50373000Y-26626250D01*
X50373000Y-25877000D01*
X49648750Y-25877000D01*
X49490000Y-26035750D01*
X48485000Y-26035750D01*
X48485000Y-25956986D01*
X48630112Y-25957113D01*
X48871674Y-25857302D01*
X49056652Y-25672646D01*
X49156885Y-25431259D01*
X49157113Y-25169888D01*
X49057302Y-24928326D01*
X48957000Y-24827849D01*
X48957000Y-23330398D01*
X48922213Y-23155512D01*
X48823148Y-23007250D01*
X48823145Y-23007248D01*
X48470947Y-22655049D01*
X48322686Y-22555984D01*
X48147799Y-22521197D01*
X46836101Y-22521197D01*
X46661214Y-22555984D01*
X46512953Y-22655049D01*
X45905001Y-23263001D01*
X37989361Y-23263001D01*
X38420362Y-22832000D01*
X44302745Y-22832000D01*
X44327354Y-22856652D01*
X44568741Y-22956885D01*
X44830112Y-22957113D01*
X45071674Y-22857302D01*
X45256652Y-22672646D01*
X45356885Y-22431259D01*
X45357113Y-22169888D01*
X45257302Y-21928326D01*
X45072646Y-21743348D01*
X44831259Y-21643115D01*
X44569888Y-21642887D01*
X44328326Y-21742698D01*
X44302980Y-21768000D01*
X44078296Y-21768000D01*
X44589296Y-21257000D01*
X49110704Y-21257000D01*
X49596853Y-21743149D01*
G36*
X31190301Y-34288327D02*
X31370580Y-34363001D01*
X31060025Y-34363001D01*
X31162500Y-34260525D01*
X31190301Y-34288327D01*
X31190301Y-34288327D01*
G37*
X31190301Y-34288327D02*
X31370580Y-34363001D01*
X31060025Y-34363001D01*
X31162500Y-34260525D01*
X31190301Y-34288327D01*
G36*
X30940554Y-20439630D02*
X30970767Y-20469906D01*
X30994530Y-20505470D01*
X31029722Y-20528985D01*
X31059618Y-20558943D01*
X31099116Y-20575352D01*
X31134681Y-20599116D01*
X31176192Y-20607373D01*
X31215278Y-20623611D01*
X31258050Y-20623656D01*
X31300000Y-20632000D01*
X34157538Y-20632000D01*
X34089551Y-20677427D01*
X31446515Y-23320463D01*
X29655080Y-23320463D01*
X29655248Y-23127350D01*
X29555437Y-22885788D01*
X29370781Y-22700810D01*
X29249560Y-22650475D01*
X29249558Y-22650473D01*
X29249555Y-22650472D01*
X29129394Y-22600577D01*
X28998138Y-22600463D01*
X28998135Y-22600462D01*
X28997562Y-22600462D01*
X28868023Y-22600349D01*
X28867750Y-22600462D01*
X26576936Y-22600462D01*
X26325513Y-22650473D01*
X26112367Y-22792893D01*
X25715430Y-23189830D01*
X25573010Y-23402976D01*
X25522999Y-23654399D01*
X25522999Y-24345601D01*
X25573010Y-24597024D01*
X25592907Y-24626802D01*
X25592887Y-24650187D01*
X25593000Y-24650460D01*
X25593000Y-26500000D01*
X25592887Y-26630112D01*
X25593000Y-26630385D01*
X25593000Y-28148870D01*
X25611764Y-28243204D01*
X24207000Y-26838440D01*
X24207000Y-24722125D01*
X24306652Y-24622646D01*
X24406885Y-24381259D01*
X24407113Y-24119888D01*
X24307302Y-23878326D01*
X24122646Y-23693348D01*
X24027000Y-23653632D01*
X24027000Y-20332000D01*
X30868801Y-20332000D01*
X30940554Y-20439630D01*
X30940554Y-20439630D01*
G37*
X30940554Y-20439630D02*
X30970767Y-20469906D01*
X30994530Y-20505470D01*
X31029722Y-20528985D01*
X31059618Y-20558943D01*
X31099116Y-20575352D01*
X31134681Y-20599116D01*
X31176192Y-20607373D01*
X31215278Y-20623611D01*
X31258050Y-20623656D01*
X31300000Y-20632000D01*
X34157538Y-20632000D01*
X34089551Y-20677427D01*
X31446515Y-23320463D01*
X29655080Y-23320463D01*
X29655248Y-23127350D01*
X29555437Y-22885788D01*
X29370781Y-22700810D01*
X29249560Y-22650475D01*
X29249558Y-22650473D01*
X29249555Y-22650472D01*
X29129394Y-22600577D01*
X28998138Y-22600463D01*
X28998135Y-22600462D01*
X28997562Y-22600462D01*
X28868023Y-22600349D01*
X28867750Y-22600462D01*
X26576936Y-22600462D01*
X26325513Y-22650473D01*
X26112367Y-22792893D01*
X25715430Y-23189830D01*
X25573010Y-23402976D01*
X25522999Y-23654399D01*
X25522999Y-24345601D01*
X25573010Y-24597024D01*
X25592907Y-24626802D01*
X25592887Y-24650187D01*
X25593000Y-24650460D01*
X25593000Y-26500000D01*
X25592887Y-26630112D01*
X25593000Y-26630385D01*
X25593000Y-28148870D01*
X25611764Y-28243204D01*
X24207000Y-26838440D01*
X24207000Y-24722125D01*
X24306652Y-24622646D01*
X24406885Y-24381259D01*
X24407113Y-24119888D01*
X24307302Y-23878326D01*
X24122646Y-23693348D01*
X24027000Y-23653632D01*
X24027000Y-20332000D01*
X30868801Y-20332000D01*
X30940554Y-20439630D01*
G36*
X28150000Y-27123000D02*
X28186006Y-27123000D01*
X28186006Y-27377000D01*
X28150000Y-27377000D01*
X28150000Y-27500750D01*
X28026250Y-27377000D01*
X27373750Y-27377000D01*
X27250000Y-27500750D01*
X27250000Y-27377000D01*
X27203000Y-27377000D01*
X27203000Y-27123000D01*
X27250000Y-27123000D01*
X27250000Y-26999250D01*
X27373750Y-27123000D01*
X28026250Y-27123000D01*
X28150000Y-26999250D01*
X28150000Y-27123000D01*
X28150000Y-27123000D01*
G37*
X28150000Y-27123000D02*
X28186006Y-27123000D01*
X28186006Y-27377000D01*
X28150000Y-27377000D01*
X28150000Y-27500750D01*
X28026250Y-27377000D01*
X27373750Y-27377000D01*
X27250000Y-27500750D01*
X27250000Y-27377000D01*
X27203000Y-27377000D01*
X27203000Y-27123000D01*
X27250000Y-27123000D01*
X27250000Y-26999250D01*
X27373750Y-27123000D01*
X28026250Y-27123000D01*
X28150000Y-26999250D01*
X28150000Y-27123000D01*
G36*
X37950000Y-27123000D02*
X37986006Y-27123000D01*
X37986006Y-27377000D01*
X37950000Y-27377000D01*
X37950000Y-27500750D01*
X37826250Y-27377000D01*
X37173750Y-27377000D01*
X37150000Y-27400750D01*
X37126250Y-27377000D01*
X36473750Y-27377000D01*
X36350000Y-27500750D01*
X36350000Y-27377000D01*
X36313994Y-27377000D01*
X36313994Y-27123000D01*
X36350000Y-27123000D01*
X36350000Y-26999250D01*
X36473750Y-27123000D01*
X37126250Y-27123000D01*
X37150000Y-27099250D01*
X37173750Y-27123000D01*
X37826250Y-27123000D01*
X37950000Y-26999250D01*
X37950000Y-27123000D01*
X37950000Y-27123000D01*
G37*
X37950000Y-27123000D02*
X37986006Y-27123000D01*
X37986006Y-27377000D01*
X37950000Y-27377000D01*
X37950000Y-27500750D01*
X37826250Y-27377000D01*
X37173750Y-27377000D01*
X37150000Y-27400750D01*
X37126250Y-27377000D01*
X36473750Y-27377000D01*
X36350000Y-27500750D01*
X36350000Y-27377000D01*
X36313994Y-27377000D01*
X36313994Y-27123000D01*
X36350000Y-27123000D01*
X36350000Y-26999250D01*
X36473750Y-27123000D01*
X37126250Y-27123000D01*
X37150000Y-27099250D01*
X37173750Y-27123000D01*
X37826250Y-27123000D01*
X37950000Y-26999250D01*
X37950000Y-27123000D01*
G36*
X33750000Y-27123000D02*
X33786006Y-27123000D01*
X33786006Y-27377000D01*
X33750000Y-27377000D01*
X33750000Y-27397000D01*
X33646250Y-27397000D01*
X33626250Y-27377000D01*
X32973750Y-27377000D01*
X32953750Y-27397000D01*
X32946250Y-27397000D01*
X32926250Y-27377000D01*
X32273750Y-27377000D01*
X32253750Y-27397000D01*
X32246250Y-27397000D01*
X32226250Y-27377000D01*
X31573750Y-27377000D01*
X31553750Y-27397000D01*
X31546250Y-27397000D01*
X31526250Y-27377000D01*
X30873750Y-27377000D01*
X30853750Y-27397000D01*
X30750000Y-27397000D01*
X30750000Y-27377000D01*
X30713994Y-27377000D01*
X30713994Y-27123000D01*
X30750000Y-27123000D01*
X30750000Y-26999250D01*
X30873750Y-27123000D01*
X31526250Y-27123000D01*
X31550000Y-27099250D01*
X31573750Y-27123000D01*
X32226250Y-27123000D01*
X32250000Y-27099250D01*
X32273750Y-27123000D01*
X32926250Y-27123000D01*
X32950000Y-27099250D01*
X32973750Y-27123000D01*
X33626250Y-27123000D01*
X33750000Y-26999250D01*
X33750000Y-27123000D01*
X33750000Y-27123000D01*
G37*
X33750000Y-27123000D02*
X33786006Y-27123000D01*
X33786006Y-27377000D01*
X33750000Y-27377000D01*
X33750000Y-27397000D01*
X33646250Y-27397000D01*
X33626250Y-27377000D01*
X32973750Y-27377000D01*
X32953750Y-27397000D01*
X32946250Y-27397000D01*
X32926250Y-27377000D01*
X32273750Y-27377000D01*
X32253750Y-27397000D01*
X32246250Y-27397000D01*
X32226250Y-27377000D01*
X31573750Y-27377000D01*
X31553750Y-27397000D01*
X31546250Y-27397000D01*
X31526250Y-27377000D01*
X30873750Y-27377000D01*
X30853750Y-27397000D01*
X30750000Y-27397000D01*
X30750000Y-27377000D01*
X30713994Y-27377000D01*
X30713994Y-27123000D01*
X30750000Y-27123000D01*
X30750000Y-26999250D01*
X30873750Y-27123000D01*
X31526250Y-27123000D01*
X31550000Y-27099250D01*
X31573750Y-27123000D01*
X32226250Y-27123000D01*
X32250000Y-27099250D01*
X32273750Y-27123000D01*
X32926250Y-27123000D01*
X32950000Y-27099250D01*
X32973750Y-27123000D01*
X33626250Y-27123000D01*
X33750000Y-26999250D01*
X33750000Y-27123000D01*
G36*
X40050000Y-27123000D02*
X40086006Y-27123000D01*
X40086006Y-27377000D01*
X40050000Y-27377000D01*
X40050000Y-27397000D01*
X39946250Y-27397000D01*
X39926250Y-27377000D01*
X39273750Y-27377000D01*
X39253750Y-27397000D01*
X39150000Y-27397000D01*
X39150000Y-27377000D01*
X39113994Y-27377000D01*
X39113994Y-27123000D01*
X39150000Y-27123000D01*
X39150000Y-26999250D01*
X39273750Y-27123000D01*
X39926250Y-27123000D01*
X40050000Y-26999250D01*
X40050000Y-27123000D01*
X40050000Y-27123000D01*
G37*
X40050000Y-27123000D02*
X40086006Y-27123000D01*
X40086006Y-27377000D01*
X40050000Y-27377000D01*
X40050000Y-27397000D01*
X39946250Y-27397000D01*
X39926250Y-27377000D01*
X39273750Y-27377000D01*
X39253750Y-27397000D01*
X39150000Y-27397000D01*
X39150000Y-27377000D01*
X39113994Y-27377000D01*
X39113994Y-27123000D01*
X39150000Y-27123000D01*
X39150000Y-26999250D01*
X39273750Y-27123000D01*
X39926250Y-27123000D01*
X40050000Y-26999250D01*
X40050000Y-27123000D01*
G36*
X54568000Y-20001982D02*
X54568000Y-21236006D01*
X53882302Y-21236006D01*
X53523148Y-20876852D01*
X53374887Y-20777787D01*
X53200000Y-20743000D01*
X50969602Y-20743000D01*
X50794716Y-20777787D01*
X50794714Y-20777788D01*
X50794715Y-20777788D01*
X50646454Y-20876852D01*
X50560305Y-20963001D01*
X50109297Y-20963001D01*
X49623148Y-20476852D01*
X49474887Y-20377787D01*
X49300000Y-20343000D01*
X44400000Y-20343000D01*
X44225114Y-20377787D01*
X44076852Y-20476852D01*
X43115714Y-21437990D01*
X36305010Y-21437990D01*
X36130123Y-21472777D01*
X35981862Y-21571842D01*
X35971862Y-21581842D01*
X35971860Y-21581845D01*
X35910695Y-21643010D01*
X35769888Y-21642887D01*
X35757000Y-21648212D01*
X35757000Y-21388674D01*
X35747136Y-21339086D01*
X35722213Y-21213787D01*
X35623148Y-21065526D01*
X35235049Y-20677427D01*
X35167063Y-20632000D01*
X43700000Y-20632000D01*
X43741950Y-20623656D01*
X43784722Y-20623611D01*
X43823808Y-20607373D01*
X43865319Y-20599116D01*
X43900884Y-20575352D01*
X43940382Y-20558943D01*
X43970278Y-20528985D01*
X44005470Y-20505470D01*
X44029233Y-20469906D01*
X44059446Y-20439630D01*
X44131200Y-20332000D01*
X52000000Y-20332000D01*
X52015224Y-20328972D01*
X52030624Y-20330913D01*
X52097403Y-20312625D01*
X52165319Y-20299116D01*
X52178227Y-20290491D01*
X52193196Y-20286392D01*
X52247894Y-20243941D01*
X52305470Y-20205470D01*
X52314094Y-20192564D01*
X52326356Y-20183047D01*
X52360646Y-20122893D01*
X52399116Y-20065319D01*
X52402144Y-20050094D01*
X52409831Y-20036610D01*
X52418491Y-19967915D01*
X52432000Y-19900000D01*
X52428972Y-19884776D01*
X52430913Y-19869376D01*
X52412625Y-19802597D01*
X52399116Y-19734681D01*
X52390491Y-19721773D01*
X52386392Y-19706804D01*
X51486393Y-17906804D01*
X51443938Y-17852101D01*
X51405470Y-17794530D01*
X51392564Y-17785906D01*
X51383047Y-17773644D01*
X51322893Y-17739354D01*
X51265319Y-17700884D01*
X51250094Y-17697856D01*
X51236610Y-17690169D01*
X51167915Y-17681509D01*
X51100000Y-17668000D01*
X23900000Y-17668000D01*
X23832085Y-17681509D01*
X23763390Y-17690169D01*
X23749906Y-17697856D01*
X23734681Y-17700884D01*
X23677107Y-17739354D01*
X23616953Y-17773644D01*
X23607436Y-17785906D01*
X23594530Y-17794530D01*
X23556062Y-17852101D01*
X23513607Y-17906804D01*
X22613607Y-19706804D01*
X22609507Y-19721776D01*
X22600884Y-19734681D01*
X22593262Y-19773000D01*
X20546491Y-19773000D01*
X22266991Y-16332000D01*
X52733009Y-16332000D01*
X54568000Y-20001982D01*
X54568000Y-20001982D01*
G37*
X54568000Y-20001982D02*
X54568000Y-21236006D01*
X53882302Y-21236006D01*
X53523148Y-20876852D01*
X53374887Y-20777787D01*
X53200000Y-20743000D01*
X50969602Y-20743000D01*
X50794716Y-20777787D01*
X50794714Y-20777788D01*
X50794715Y-20777788D01*
X50646454Y-20876852D01*
X50560305Y-20963001D01*
X50109297Y-20963001D01*
X49623148Y-20476852D01*
X49474887Y-20377787D01*
X49300000Y-20343000D01*
X44400000Y-20343000D01*
X44225114Y-20377787D01*
X44076852Y-20476852D01*
X43115714Y-21437990D01*
X36305010Y-21437990D01*
X36130123Y-21472777D01*
X35981862Y-21571842D01*
X35971862Y-21581842D01*
X35971860Y-21581845D01*
X35910695Y-21643010D01*
X35769888Y-21642887D01*
X35757000Y-21648212D01*
X35757000Y-21388674D01*
X35747136Y-21339086D01*
X35722213Y-21213787D01*
X35623148Y-21065526D01*
X35235049Y-20677427D01*
X35167063Y-20632000D01*
X43700000Y-20632000D01*
X43741950Y-20623656D01*
X43784722Y-20623611D01*
X43823808Y-20607373D01*
X43865319Y-20599116D01*
X43900884Y-20575352D01*
X43940382Y-20558943D01*
X43970278Y-20528985D01*
X44005470Y-20505470D01*
X44029233Y-20469906D01*
X44059446Y-20439630D01*
X44131200Y-20332000D01*
X52000000Y-20332000D01*
X52015224Y-20328972D01*
X52030624Y-20330913D01*
X52097403Y-20312625D01*
X52165319Y-20299116D01*
X52178227Y-20290491D01*
X52193196Y-20286392D01*
X52247894Y-20243941D01*
X52305470Y-20205470D01*
X52314094Y-20192564D01*
X52326356Y-20183047D01*
X52360646Y-20122893D01*
X52399116Y-20065319D01*
X52402144Y-20050094D01*
X52409831Y-20036610D01*
X52418491Y-19967915D01*
X52432000Y-19900000D01*
X52428972Y-19884776D01*
X52430913Y-19869376D01*
X52412625Y-19802597D01*
X52399116Y-19734681D01*
X52390491Y-19721773D01*
X52386392Y-19706804D01*
X51486393Y-17906804D01*
X51443938Y-17852101D01*
X51405470Y-17794530D01*
X51392564Y-17785906D01*
X51383047Y-17773644D01*
X51322893Y-17739354D01*
X51265319Y-17700884D01*
X51250094Y-17697856D01*
X51236610Y-17690169D01*
X51167915Y-17681509D01*
X51100000Y-17668000D01*
X23900000Y-17668000D01*
X23832085Y-17681509D01*
X23763390Y-17690169D01*
X23749906Y-17697856D01*
X23734681Y-17700884D01*
X23677107Y-17739354D01*
X23616953Y-17773644D01*
X23607436Y-17785906D01*
X23594530Y-17794530D01*
X23556062Y-17852101D01*
X23513607Y-17906804D01*
X22613607Y-19706804D01*
X22609507Y-19721776D01*
X22600884Y-19734681D01*
X22593262Y-19773000D01*
X20546491Y-19773000D01*
X22266991Y-16332000D01*
X52733009Y-16332000D01*
X54568000Y-20001982D01*
M02*
