G04 #@! TF.FileFunction,Legend,Bot*
%FSLAX46Y46*%
G04 Gerber Fmt 4.6, Leading zero omitted, Abs format (unit mm)*
G04 Created by KiCad (PCBNEW (2015-08-11 BZR 6084)-product) date Mi 23 Sep 2015 17:42:07 CEST*
%MOMM*%
G01*
G04 APERTURE LIST*
%ADD10C,0.100000*%
%ADD11C,0.150000*%
G04 APERTURE END LIST*
D10*
D11*
X31500000Y-20850000D02*
X31500000Y-19850000D01*
X43500000Y-19850000D02*
X43500000Y-20850000D01*
X43500000Y-19850000D02*
X42600000Y-19850000D01*
X42600000Y-19850000D02*
X31500000Y-19850000D01*
X26500000Y-23750000D02*
X31500000Y-20850000D01*
X43500000Y-20850000D02*
X48500000Y-23750000D01*
X26500000Y-27750000D02*
X26500000Y-23750000D01*
X48500000Y-27750000D02*
X48500000Y-23750000D01*
X42000000Y-32500000D02*
X42000000Y-32250000D01*
X42000000Y-33000000D02*
X42000000Y-33250000D01*
X42000000Y-33000000D02*
X42350000Y-32500000D01*
X42350000Y-32500000D02*
X41650000Y-32500000D01*
X41650000Y-32500000D02*
X42000000Y-33000000D01*
X42350000Y-33000000D02*
X41650000Y-33000000D01*
X41200000Y-34050000D02*
X41200000Y-31650000D01*
X42800000Y-34050000D02*
X42800000Y-31650000D01*
X40675000Y-33250000D02*
X40675000Y-32250000D01*
X39325000Y-32250000D02*
X39325000Y-33250000D01*
X18932540Y-49600900D02*
X18932540Y-40900900D01*
X25337540Y-49600900D02*
X25337540Y-40900900D01*
X25337540Y-40900900D02*
X18932540Y-40900900D01*
X20162540Y-40900900D02*
X20162540Y-49600900D01*
X18932540Y-49600900D02*
X25337540Y-49600900D01*
X49900000Y-24650000D02*
X49900000Y-25350000D01*
X51100000Y-25350000D02*
X51100000Y-24650000D01*
X51100000Y-45350000D02*
X51100000Y-44650000D01*
X49900000Y-44650000D02*
X49900000Y-45350000D01*
X45150000Y-32400000D02*
X45150000Y-33100000D01*
X46350000Y-33100000D02*
X46350000Y-32400000D01*
X43400000Y-32400000D02*
X43400000Y-33100000D01*
X44600000Y-33100000D02*
X44600000Y-32400000D01*
X29650000Y-32400000D02*
X29650000Y-33100000D01*
X30850000Y-33100000D02*
X30850000Y-32400000D01*
X26150000Y-32400000D02*
X26150000Y-33100000D01*
X27350000Y-33100000D02*
X27350000Y-32400000D01*
X49850000Y-33100000D02*
X49850000Y-32400000D01*
X48650000Y-32400000D02*
X48650000Y-33100000D01*
X48100000Y-33100000D02*
X48100000Y-32400000D01*
X46900000Y-32400000D02*
X46900000Y-33100000D01*
X27900000Y-32400000D02*
X27900000Y-33100000D01*
X29100000Y-33100000D02*
X29100000Y-32400000D01*
X53500000Y-30000000D02*
X53750000Y-30000000D01*
X53000000Y-30000000D02*
X52750000Y-30000000D01*
X53000000Y-30000000D02*
X53500000Y-30350000D01*
X53500000Y-30350000D02*
X53500000Y-29650000D01*
X53500000Y-29650000D02*
X53000000Y-30000000D01*
X53000000Y-30350000D02*
X53000000Y-29650000D01*
X51950000Y-29200000D02*
X54350000Y-29200000D01*
X51950000Y-30800000D02*
X54350000Y-30800000D01*
X53500000Y-40000000D02*
X53750000Y-40000000D01*
X53000000Y-40000000D02*
X52750000Y-40000000D01*
X53000000Y-40000000D02*
X53500000Y-40350000D01*
X53500000Y-40350000D02*
X53500000Y-39650000D01*
X53500000Y-39650000D02*
X53000000Y-40000000D01*
X53000000Y-40350000D02*
X53000000Y-39650000D01*
X51950000Y-39200000D02*
X54350000Y-39200000D01*
X51950000Y-40800000D02*
X54350000Y-40800000D01*
X47525856Y-38650240D02*
X47477596Y-38650240D01*
X44726876Y-37949200D02*
X44726876Y-38650240D01*
X44726876Y-38650240D02*
X44975796Y-38650240D01*
X47525856Y-38650240D02*
X47726516Y-38650240D01*
X47726516Y-38650240D02*
X47726516Y-37949200D01*
X43901696Y-38500000D02*
X43901696Y-37500000D01*
X42551696Y-37500000D02*
X42551696Y-38500000D01*
X33825000Y-32250000D02*
X33825000Y-33250000D01*
X35175000Y-33250000D02*
X35175000Y-32250000D01*
X35575000Y-32250000D02*
X35575000Y-33250000D01*
X36925000Y-33250000D02*
X36925000Y-32250000D01*
X51175000Y-42500000D02*
X51175000Y-41500000D01*
X49825000Y-41500000D02*
X49825000Y-42500000D01*
X32675000Y-33250000D02*
X32675000Y-32250000D01*
X31325000Y-32250000D02*
X31325000Y-33250000D01*
X55050000Y-26300000D02*
X56150000Y-26300000D01*
X55050000Y-23700000D02*
X56150000Y-23700000D01*
X56150000Y-26300000D02*
X56150000Y-23700000D01*
X55050000Y-27300000D02*
X55050000Y-22700000D01*
X51450000Y-22700000D02*
X55050000Y-22700000D01*
X51450000Y-27300000D02*
X55050000Y-27300000D01*
X51450000Y-27300000D02*
X51450000Y-22700000D01*
X55050000Y-46300000D02*
X56150000Y-46300000D01*
X55050000Y-43700000D02*
X56150000Y-43700000D01*
X56150000Y-46300000D02*
X56150000Y-43700000D01*
X55050000Y-47300000D02*
X55050000Y-42700000D01*
X51450000Y-42700000D02*
X55050000Y-42700000D01*
X51450000Y-47300000D02*
X55050000Y-47300000D01*
X51450000Y-47300000D02*
X51450000Y-42700000D01*
X55050000Y-36300000D02*
X56150000Y-36300000D01*
X55050000Y-33700000D02*
X56150000Y-33700000D01*
X56150000Y-36300000D02*
X56150000Y-33700000D01*
X55050000Y-37300000D02*
X55050000Y-32700000D01*
X51450000Y-32700000D02*
X55050000Y-32700000D01*
X51450000Y-37300000D02*
X55050000Y-37300000D01*
X51450000Y-37300000D02*
X51450000Y-32700000D01*
X38714286Y-30102381D02*
X38714286Y-29102381D01*
X38476191Y-29102381D01*
X38333333Y-29150000D01*
X38238095Y-29245238D01*
X38190476Y-29340476D01*
X38142857Y-29530952D01*
X38142857Y-29673810D01*
X38190476Y-29864286D01*
X38238095Y-29959524D01*
X38333333Y-30054762D01*
X38476191Y-30102381D01*
X38714286Y-30102381D01*
X37761905Y-30054762D02*
X37619048Y-30102381D01*
X37380952Y-30102381D01*
X37285714Y-30054762D01*
X37238095Y-30007143D01*
X37190476Y-29911905D01*
X37190476Y-29816667D01*
X37238095Y-29721429D01*
X37285714Y-29673810D01*
X37380952Y-29626190D01*
X37571429Y-29578571D01*
X37666667Y-29530952D01*
X37714286Y-29483333D01*
X37761905Y-29388095D01*
X37761905Y-29292857D01*
X37714286Y-29197619D01*
X37666667Y-29150000D01*
X37571429Y-29102381D01*
X37333333Y-29102381D01*
X37190476Y-29150000D01*
X36238095Y-30102381D02*
X36809524Y-30102381D01*
X36523810Y-30102381D02*
X36523810Y-29102381D01*
X36619048Y-29245238D01*
X36714286Y-29340476D01*
X36809524Y-29388095D01*
X42452381Y-34761905D02*
X41452381Y-34761905D01*
X41452381Y-35000000D01*
X41500000Y-35142858D01*
X41595238Y-35238096D01*
X41690476Y-35285715D01*
X41880952Y-35333334D01*
X42023810Y-35333334D01*
X42214286Y-35285715D01*
X42309524Y-35238096D01*
X42404762Y-35142858D01*
X42452381Y-35000000D01*
X42452381Y-34761905D01*
X41452381Y-35666667D02*
X41452381Y-36285715D01*
X41833333Y-35952381D01*
X41833333Y-36095239D01*
X41880952Y-36190477D01*
X41928571Y-36238096D01*
X42023810Y-36285715D01*
X42261905Y-36285715D01*
X42357143Y-36238096D01*
X42404762Y-36190477D01*
X42452381Y-36095239D01*
X42452381Y-35809524D01*
X42404762Y-35714286D01*
X42357143Y-35666667D01*
X40452381Y-35157143D02*
X39976190Y-34823809D01*
X40452381Y-34585714D02*
X39452381Y-34585714D01*
X39452381Y-34966667D01*
X39500000Y-35061905D01*
X39547619Y-35109524D01*
X39642857Y-35157143D01*
X39785714Y-35157143D01*
X39880952Y-35109524D01*
X39928571Y-35061905D01*
X39976190Y-34966667D01*
X39976190Y-34585714D01*
X40452381Y-36109524D02*
X40452381Y-35538095D01*
X40452381Y-35823809D02*
X39452381Y-35823809D01*
X39595238Y-35728571D01*
X39690476Y-35633333D01*
X39738095Y-35538095D01*
X39452381Y-36442857D02*
X39452381Y-37061905D01*
X39833333Y-36728571D01*
X39833333Y-36871429D01*
X39880952Y-36966667D01*
X39928571Y-37014286D01*
X40023810Y-37061905D01*
X40261905Y-37061905D01*
X40357143Y-37014286D01*
X40404762Y-36966667D01*
X40452381Y-36871429D01*
X40452381Y-36585714D01*
X40404762Y-36490476D01*
X40357143Y-36442857D01*
X26652381Y-44511905D02*
X25652381Y-44511905D01*
X25652381Y-44892858D01*
X25700000Y-44988096D01*
X25747619Y-45035715D01*
X25842857Y-45083334D01*
X25985714Y-45083334D01*
X26080952Y-45035715D01*
X26128571Y-44988096D01*
X26176190Y-44892858D01*
X26176190Y-44511905D01*
X26652381Y-46035715D02*
X26652381Y-45464286D01*
X26652381Y-45750000D02*
X25652381Y-45750000D01*
X25795238Y-45654762D01*
X25890476Y-45559524D01*
X25938095Y-45464286D01*
X50857143Y-21457143D02*
X50904762Y-21409524D01*
X50952381Y-21266667D01*
X50952381Y-21171429D01*
X50904762Y-21028571D01*
X50809524Y-20933333D01*
X50714286Y-20885714D01*
X50523810Y-20838095D01*
X50380952Y-20838095D01*
X50190476Y-20885714D01*
X50095238Y-20933333D01*
X50000000Y-21028571D01*
X49952381Y-21171429D01*
X49952381Y-21266667D01*
X50000000Y-21409524D01*
X50047619Y-21457143D01*
X50952381Y-22409524D02*
X50952381Y-21838095D01*
X50952381Y-22123809D02*
X49952381Y-22123809D01*
X50095238Y-22028571D01*
X50190476Y-21933333D01*
X50238095Y-21838095D01*
X49952381Y-23266667D02*
X49952381Y-23076190D01*
X50000000Y-22980952D01*
X50047619Y-22933333D01*
X50190476Y-22838095D01*
X50380952Y-22790476D01*
X50761905Y-22790476D01*
X50857143Y-22838095D01*
X50904762Y-22885714D01*
X50952381Y-22980952D01*
X50952381Y-23171429D01*
X50904762Y-23266667D01*
X50857143Y-23314286D01*
X50761905Y-23361905D01*
X50523810Y-23361905D01*
X50428571Y-23314286D01*
X50380952Y-23266667D01*
X50333333Y-23171429D01*
X50333333Y-22980952D01*
X50380952Y-22885714D01*
X50428571Y-22838095D01*
X50523810Y-22790476D01*
X49142857Y-44857143D02*
X49190476Y-44904762D01*
X49333333Y-44952381D01*
X49428571Y-44952381D01*
X49571429Y-44904762D01*
X49666667Y-44809524D01*
X49714286Y-44714286D01*
X49761905Y-44523810D01*
X49761905Y-44380952D01*
X49714286Y-44190476D01*
X49666667Y-44095238D01*
X49571429Y-44000000D01*
X49428571Y-43952381D01*
X49333333Y-43952381D01*
X49190476Y-44000000D01*
X49142857Y-44047619D01*
X48190476Y-44952381D02*
X48761905Y-44952381D01*
X48476191Y-44952381D02*
X48476191Y-43952381D01*
X48571429Y-44095238D01*
X48666667Y-44190476D01*
X48761905Y-44238095D01*
X47857143Y-43952381D02*
X47190476Y-43952381D01*
X47619048Y-44952381D01*
X46342857Y-35257143D02*
X46390476Y-35304762D01*
X46533333Y-35352381D01*
X46628571Y-35352381D01*
X46771429Y-35304762D01*
X46866667Y-35209524D01*
X46914286Y-35114286D01*
X46961905Y-34923810D01*
X46961905Y-34780952D01*
X46914286Y-34590476D01*
X46866667Y-34495238D01*
X46771429Y-34400000D01*
X46628571Y-34352381D01*
X46533333Y-34352381D01*
X46390476Y-34400000D01*
X46342857Y-34447619D01*
X45390476Y-35352381D02*
X45961905Y-35352381D01*
X45676191Y-35352381D02*
X45676191Y-34352381D01*
X45771429Y-34495238D01*
X45866667Y-34590476D01*
X45961905Y-34638095D01*
X44819048Y-34780952D02*
X44914286Y-34733333D01*
X44961905Y-34685714D01*
X45009524Y-34590476D01*
X45009524Y-34542857D01*
X44961905Y-34447619D01*
X44914286Y-34400000D01*
X44819048Y-34352381D01*
X44628571Y-34352381D01*
X44533333Y-34400000D01*
X44485714Y-34447619D01*
X44438095Y-34542857D01*
X44438095Y-34590476D01*
X44485714Y-34685714D01*
X44533333Y-34733333D01*
X44628571Y-34780952D01*
X44819048Y-34780952D01*
X44914286Y-34828571D01*
X44961905Y-34876190D01*
X45009524Y-34971429D01*
X45009524Y-35161905D01*
X44961905Y-35257143D01*
X44914286Y-35304762D01*
X44819048Y-35352381D01*
X44628571Y-35352381D01*
X44533333Y-35304762D01*
X44485714Y-35257143D01*
X44438095Y-35161905D01*
X44438095Y-34971429D01*
X44485714Y-34876190D01*
X44533333Y-34828571D01*
X44628571Y-34780952D01*
X44642857Y-30957143D02*
X44690476Y-31004762D01*
X44833333Y-31052381D01*
X44928571Y-31052381D01*
X45071429Y-31004762D01*
X45166667Y-30909524D01*
X45214286Y-30814286D01*
X45261905Y-30623810D01*
X45261905Y-30480952D01*
X45214286Y-30290476D01*
X45166667Y-30195238D01*
X45071429Y-30100000D01*
X44928571Y-30052381D01*
X44833333Y-30052381D01*
X44690476Y-30100000D01*
X44642857Y-30147619D01*
X43690476Y-31052381D02*
X44261905Y-31052381D01*
X43976191Y-31052381D02*
X43976191Y-30052381D01*
X44071429Y-30195238D01*
X44166667Y-30290476D01*
X44261905Y-30338095D01*
X43214286Y-31052381D02*
X43023810Y-31052381D01*
X42928571Y-31004762D01*
X42880952Y-30957143D01*
X42785714Y-30814286D01*
X42738095Y-30623810D01*
X42738095Y-30242857D01*
X42785714Y-30147619D01*
X42833333Y-30100000D01*
X42928571Y-30052381D01*
X43119048Y-30052381D01*
X43214286Y-30100000D01*
X43261905Y-30147619D01*
X43309524Y-30242857D01*
X43309524Y-30480952D01*
X43261905Y-30576190D01*
X43214286Y-30623810D01*
X43119048Y-30671429D01*
X42928571Y-30671429D01*
X42833333Y-30623810D01*
X42785714Y-30576190D01*
X42738095Y-30480952D01*
X30557143Y-35157143D02*
X30604762Y-35109524D01*
X30652381Y-34966667D01*
X30652381Y-34871429D01*
X30604762Y-34728571D01*
X30509524Y-34633333D01*
X30414286Y-34585714D01*
X30223810Y-34538095D01*
X30080952Y-34538095D01*
X29890476Y-34585714D01*
X29795238Y-34633333D01*
X29700000Y-34728571D01*
X29652381Y-34871429D01*
X29652381Y-34966667D01*
X29700000Y-35109524D01*
X29747619Y-35157143D01*
X29747619Y-35538095D02*
X29700000Y-35585714D01*
X29652381Y-35680952D01*
X29652381Y-35919048D01*
X29700000Y-36014286D01*
X29747619Y-36061905D01*
X29842857Y-36109524D01*
X29938095Y-36109524D01*
X30080952Y-36061905D01*
X30652381Y-35490476D01*
X30652381Y-36109524D01*
X29652381Y-36728571D02*
X29652381Y-36823810D01*
X29700000Y-36919048D01*
X29747619Y-36966667D01*
X29842857Y-37014286D01*
X30033333Y-37061905D01*
X30271429Y-37061905D01*
X30461905Y-37014286D01*
X30557143Y-36966667D01*
X30604762Y-36919048D01*
X30652381Y-36823810D01*
X30652381Y-36728571D01*
X30604762Y-36633333D01*
X30557143Y-36585714D01*
X30461905Y-36538095D01*
X30271429Y-36490476D01*
X30033333Y-36490476D01*
X29842857Y-36538095D01*
X29747619Y-36585714D01*
X29700000Y-36633333D01*
X29652381Y-36728571D01*
X27157143Y-35157143D02*
X27204762Y-35109524D01*
X27252381Y-34966667D01*
X27252381Y-34871429D01*
X27204762Y-34728571D01*
X27109524Y-34633333D01*
X27014286Y-34585714D01*
X26823810Y-34538095D01*
X26680952Y-34538095D01*
X26490476Y-34585714D01*
X26395238Y-34633333D01*
X26300000Y-34728571D01*
X26252381Y-34871429D01*
X26252381Y-34966667D01*
X26300000Y-35109524D01*
X26347619Y-35157143D01*
X26347619Y-35538095D02*
X26300000Y-35585714D01*
X26252381Y-35680952D01*
X26252381Y-35919048D01*
X26300000Y-36014286D01*
X26347619Y-36061905D01*
X26442857Y-36109524D01*
X26538095Y-36109524D01*
X26680952Y-36061905D01*
X27252381Y-35490476D01*
X27252381Y-36109524D01*
X27252381Y-37061905D02*
X27252381Y-36490476D01*
X27252381Y-36776190D02*
X26252381Y-36776190D01*
X26395238Y-36680952D01*
X26490476Y-36585714D01*
X26538095Y-36490476D01*
X49842857Y-35257143D02*
X49890476Y-35304762D01*
X50033333Y-35352381D01*
X50128571Y-35352381D01*
X50271429Y-35304762D01*
X50366667Y-35209524D01*
X50414286Y-35114286D01*
X50461905Y-34923810D01*
X50461905Y-34780952D01*
X50414286Y-34590476D01*
X50366667Y-34495238D01*
X50271429Y-34400000D01*
X50128571Y-34352381D01*
X50033333Y-34352381D01*
X49890476Y-34400000D01*
X49842857Y-34447619D01*
X49461905Y-34447619D02*
X49414286Y-34400000D01*
X49319048Y-34352381D01*
X49080952Y-34352381D01*
X48985714Y-34400000D01*
X48938095Y-34447619D01*
X48890476Y-34542857D01*
X48890476Y-34638095D01*
X48938095Y-34780952D01*
X49509524Y-35352381D01*
X48890476Y-35352381D01*
X48509524Y-34447619D02*
X48461905Y-34400000D01*
X48366667Y-34352381D01*
X48128571Y-34352381D01*
X48033333Y-34400000D01*
X47985714Y-34447619D01*
X47938095Y-34542857D01*
X47938095Y-34638095D01*
X47985714Y-34780952D01*
X48557143Y-35352381D01*
X47938095Y-35352381D01*
X48142857Y-31057143D02*
X48190476Y-31104762D01*
X48333333Y-31152381D01*
X48428571Y-31152381D01*
X48571429Y-31104762D01*
X48666667Y-31009524D01*
X48714286Y-30914286D01*
X48761905Y-30723810D01*
X48761905Y-30580952D01*
X48714286Y-30390476D01*
X48666667Y-30295238D01*
X48571429Y-30200000D01*
X48428571Y-30152381D01*
X48333333Y-30152381D01*
X48190476Y-30200000D01*
X48142857Y-30247619D01*
X47761905Y-30247619D02*
X47714286Y-30200000D01*
X47619048Y-30152381D01*
X47380952Y-30152381D01*
X47285714Y-30200000D01*
X47238095Y-30247619D01*
X47190476Y-30342857D01*
X47190476Y-30438095D01*
X47238095Y-30580952D01*
X47809524Y-31152381D01*
X47190476Y-31152381D01*
X46857143Y-30152381D02*
X46238095Y-30152381D01*
X46571429Y-30533333D01*
X46428571Y-30533333D01*
X46333333Y-30580952D01*
X46285714Y-30628571D01*
X46238095Y-30723810D01*
X46238095Y-30961905D01*
X46285714Y-31057143D01*
X46333333Y-31104762D01*
X46428571Y-31152381D01*
X46714286Y-31152381D01*
X46809524Y-31104762D01*
X46857143Y-31057143D01*
X28857143Y-35157143D02*
X28904762Y-35109524D01*
X28952381Y-34966667D01*
X28952381Y-34871429D01*
X28904762Y-34728571D01*
X28809524Y-34633333D01*
X28714286Y-34585714D01*
X28523810Y-34538095D01*
X28380952Y-34538095D01*
X28190476Y-34585714D01*
X28095238Y-34633333D01*
X28000000Y-34728571D01*
X27952381Y-34871429D01*
X27952381Y-34966667D01*
X28000000Y-35109524D01*
X28047619Y-35157143D01*
X28047619Y-35538095D02*
X28000000Y-35585714D01*
X27952381Y-35680952D01*
X27952381Y-35919048D01*
X28000000Y-36014286D01*
X28047619Y-36061905D01*
X28142857Y-36109524D01*
X28238095Y-36109524D01*
X28380952Y-36061905D01*
X28952381Y-35490476D01*
X28952381Y-36109524D01*
X28285714Y-36966667D02*
X28952381Y-36966667D01*
X27904762Y-36728571D02*
X28619048Y-36490476D01*
X28619048Y-37109524D01*
X51438095Y-30452381D02*
X51438095Y-29452381D01*
X51200000Y-29452381D01*
X51057142Y-29500000D01*
X50961904Y-29595238D01*
X50914285Y-29690476D01*
X50866666Y-29880952D01*
X50866666Y-30023810D01*
X50914285Y-30214286D01*
X50961904Y-30309524D01*
X51057142Y-30404762D01*
X51200000Y-30452381D01*
X51438095Y-30452381D01*
X49914285Y-30452381D02*
X50485714Y-30452381D01*
X50200000Y-30452381D02*
X50200000Y-29452381D01*
X50295238Y-29595238D01*
X50390476Y-29690476D01*
X50485714Y-29738095D01*
X51438095Y-40452381D02*
X51438095Y-39452381D01*
X51200000Y-39452381D01*
X51057142Y-39500000D01*
X50961904Y-39595238D01*
X50914285Y-39690476D01*
X50866666Y-39880952D01*
X50866666Y-40023810D01*
X50914285Y-40214286D01*
X50961904Y-40309524D01*
X51057142Y-40404762D01*
X51200000Y-40452381D01*
X51438095Y-40452381D01*
X50485714Y-39547619D02*
X50438095Y-39500000D01*
X50342857Y-39452381D01*
X50104761Y-39452381D01*
X50009523Y-39500000D01*
X49961904Y-39547619D01*
X49914285Y-39642857D01*
X49914285Y-39738095D01*
X49961904Y-39880952D01*
X50533333Y-40452381D01*
X49914285Y-40452381D01*
X48995238Y-38547619D02*
X49090476Y-38500000D01*
X49185714Y-38404762D01*
X49328571Y-38261905D01*
X49423810Y-38214286D01*
X49519048Y-38214286D01*
X49471429Y-38452381D02*
X49566667Y-38404762D01*
X49661905Y-38309524D01*
X49709524Y-38119048D01*
X49709524Y-37785714D01*
X49661905Y-37595238D01*
X49566667Y-37500000D01*
X49471429Y-37452381D01*
X49280952Y-37452381D01*
X49185714Y-37500000D01*
X49090476Y-37595238D01*
X49042857Y-37785714D01*
X49042857Y-38119048D01*
X49090476Y-38309524D01*
X49185714Y-38404762D01*
X49280952Y-38452381D01*
X49471429Y-38452381D01*
X48090476Y-38452381D02*
X48661905Y-38452381D01*
X48376191Y-38452381D02*
X48376191Y-37452381D01*
X48471429Y-37595238D01*
X48566667Y-37690476D01*
X48661905Y-37738095D01*
X42252381Y-37833334D02*
X41776190Y-37500000D01*
X42252381Y-37261905D02*
X41252381Y-37261905D01*
X41252381Y-37642858D01*
X41300000Y-37738096D01*
X41347619Y-37785715D01*
X41442857Y-37833334D01*
X41585714Y-37833334D01*
X41680952Y-37785715D01*
X41728571Y-37738096D01*
X41776190Y-37642858D01*
X41776190Y-37261905D01*
X41252381Y-38166667D02*
X41252381Y-38785715D01*
X41633333Y-38452381D01*
X41633333Y-38595239D01*
X41680952Y-38690477D01*
X41728571Y-38738096D01*
X41823810Y-38785715D01*
X42061905Y-38785715D01*
X42157143Y-38738096D01*
X42204762Y-38690477D01*
X42252381Y-38595239D01*
X42252381Y-38309524D01*
X42204762Y-38214286D01*
X42157143Y-38166667D01*
X34952381Y-35157143D02*
X34476190Y-34823809D01*
X34952381Y-34585714D02*
X33952381Y-34585714D01*
X33952381Y-34966667D01*
X34000000Y-35061905D01*
X34047619Y-35109524D01*
X34142857Y-35157143D01*
X34285714Y-35157143D01*
X34380952Y-35109524D01*
X34428571Y-35061905D01*
X34476190Y-34966667D01*
X34476190Y-34585714D01*
X34952381Y-36109524D02*
X34952381Y-35538095D01*
X34952381Y-35823809D02*
X33952381Y-35823809D01*
X34095238Y-35728571D01*
X34190476Y-35633333D01*
X34238095Y-35538095D01*
X33952381Y-36728571D02*
X33952381Y-36823810D01*
X34000000Y-36919048D01*
X34047619Y-36966667D01*
X34142857Y-37014286D01*
X34333333Y-37061905D01*
X34571429Y-37061905D01*
X34761905Y-37014286D01*
X34857143Y-36966667D01*
X34904762Y-36919048D01*
X34952381Y-36823810D01*
X34952381Y-36728571D01*
X34904762Y-36633333D01*
X34857143Y-36585714D01*
X34761905Y-36538095D01*
X34571429Y-36490476D01*
X34333333Y-36490476D01*
X34142857Y-36538095D01*
X34047619Y-36585714D01*
X34000000Y-36633333D01*
X33952381Y-36728571D01*
X36752381Y-35157143D02*
X36276190Y-34823809D01*
X36752381Y-34585714D02*
X35752381Y-34585714D01*
X35752381Y-34966667D01*
X35800000Y-35061905D01*
X35847619Y-35109524D01*
X35942857Y-35157143D01*
X36085714Y-35157143D01*
X36180952Y-35109524D01*
X36228571Y-35061905D01*
X36276190Y-34966667D01*
X36276190Y-34585714D01*
X36752381Y-36109524D02*
X36752381Y-35538095D01*
X36752381Y-35823809D02*
X35752381Y-35823809D01*
X35895238Y-35728571D01*
X35990476Y-35633333D01*
X36038095Y-35538095D01*
X36752381Y-37061905D02*
X36752381Y-36490476D01*
X36752381Y-36776190D02*
X35752381Y-36776190D01*
X35895238Y-36680952D01*
X35990476Y-36585714D01*
X36038095Y-36490476D01*
X49452381Y-41357143D02*
X48976190Y-41023809D01*
X49452381Y-40785714D02*
X48452381Y-40785714D01*
X48452381Y-41166667D01*
X48500000Y-41261905D01*
X48547619Y-41309524D01*
X48642857Y-41357143D01*
X48785714Y-41357143D01*
X48880952Y-41309524D01*
X48928571Y-41261905D01*
X48976190Y-41166667D01*
X48976190Y-40785714D01*
X49452381Y-42309524D02*
X49452381Y-41738095D01*
X49452381Y-42023809D02*
X48452381Y-42023809D01*
X48595238Y-41928571D01*
X48690476Y-41833333D01*
X48738095Y-41738095D01*
X48547619Y-42690476D02*
X48500000Y-42738095D01*
X48452381Y-42833333D01*
X48452381Y-43071429D01*
X48500000Y-43166667D01*
X48547619Y-43214286D01*
X48642857Y-43261905D01*
X48738095Y-43261905D01*
X48880952Y-43214286D01*
X49452381Y-42642857D01*
X49452381Y-43261905D01*
X32452381Y-35157143D02*
X31976190Y-34823809D01*
X32452381Y-34585714D02*
X31452381Y-34585714D01*
X31452381Y-34966667D01*
X31500000Y-35061905D01*
X31547619Y-35109524D01*
X31642857Y-35157143D01*
X31785714Y-35157143D01*
X31880952Y-35109524D01*
X31928571Y-35061905D01*
X31976190Y-34966667D01*
X31976190Y-34585714D01*
X32452381Y-36109524D02*
X32452381Y-35538095D01*
X32452381Y-35823809D02*
X31452381Y-35823809D01*
X31595238Y-35728571D01*
X31690476Y-35633333D01*
X31738095Y-35538095D01*
X31785714Y-36966667D02*
X32452381Y-36966667D01*
X31404762Y-36728571D02*
X32119048Y-36490476D01*
X32119048Y-37109524D01*
X53654762Y-23666667D02*
X53702381Y-23809524D01*
X53702381Y-24047620D01*
X53654762Y-24142858D01*
X53607143Y-24190477D01*
X53511905Y-24238096D01*
X53416667Y-24238096D01*
X53321429Y-24190477D01*
X53273810Y-24142858D01*
X53226190Y-24047620D01*
X53178571Y-23857143D01*
X53130952Y-23761905D01*
X53083333Y-23714286D01*
X52988095Y-23666667D01*
X52892857Y-23666667D01*
X52797619Y-23714286D01*
X52750000Y-23761905D01*
X52702381Y-23857143D01*
X52702381Y-24095239D01*
X52750000Y-24238096D01*
X52702381Y-24571429D02*
X53702381Y-24809524D01*
X52988095Y-25000001D01*
X53702381Y-25190477D01*
X52702381Y-25428572D01*
X53702381Y-26333334D02*
X53702381Y-25761905D01*
X53702381Y-26047619D02*
X52702381Y-26047619D01*
X52845238Y-25952381D01*
X52940476Y-25857143D01*
X52988095Y-25761905D01*
X53654762Y-43666667D02*
X53702381Y-43809524D01*
X53702381Y-44047620D01*
X53654762Y-44142858D01*
X53607143Y-44190477D01*
X53511905Y-44238096D01*
X53416667Y-44238096D01*
X53321429Y-44190477D01*
X53273810Y-44142858D01*
X53226190Y-44047620D01*
X53178571Y-43857143D01*
X53130952Y-43761905D01*
X53083333Y-43714286D01*
X52988095Y-43666667D01*
X52892857Y-43666667D01*
X52797619Y-43714286D01*
X52750000Y-43761905D01*
X52702381Y-43857143D01*
X52702381Y-44095239D01*
X52750000Y-44238096D01*
X52702381Y-44571429D02*
X53702381Y-44809524D01*
X52988095Y-45000001D01*
X53702381Y-45190477D01*
X52702381Y-45428572D01*
X52797619Y-45761905D02*
X52750000Y-45809524D01*
X52702381Y-45904762D01*
X52702381Y-46142858D01*
X52750000Y-46238096D01*
X52797619Y-46285715D01*
X52892857Y-46333334D01*
X52988095Y-46333334D01*
X53130952Y-46285715D01*
X53702381Y-45714286D01*
X53702381Y-46333334D01*
X53654762Y-33666667D02*
X53702381Y-33809524D01*
X53702381Y-34047620D01*
X53654762Y-34142858D01*
X53607143Y-34190477D01*
X53511905Y-34238096D01*
X53416667Y-34238096D01*
X53321429Y-34190477D01*
X53273810Y-34142858D01*
X53226190Y-34047620D01*
X53178571Y-33857143D01*
X53130952Y-33761905D01*
X53083333Y-33714286D01*
X52988095Y-33666667D01*
X52892857Y-33666667D01*
X52797619Y-33714286D01*
X52750000Y-33761905D01*
X52702381Y-33857143D01*
X52702381Y-34095239D01*
X52750000Y-34238096D01*
X52702381Y-34571429D02*
X53702381Y-34809524D01*
X52988095Y-35000001D01*
X53702381Y-35190477D01*
X52702381Y-35428572D01*
X52702381Y-35714286D02*
X52702381Y-36333334D01*
X53083333Y-36000000D01*
X53083333Y-36142858D01*
X53130952Y-36238096D01*
X53178571Y-36285715D01*
X53273810Y-36333334D01*
X53511905Y-36333334D01*
X53607143Y-36285715D01*
X53654762Y-36238096D01*
X53702381Y-36142858D01*
X53702381Y-35857143D01*
X53654762Y-35761905D01*
X53607143Y-35714286D01*
M02*
